<?xml version="1.0" encoding="UTF-8" standalone="no"?>
<!DOCTYPE svg PUBLIC "-//W3C//DTD SVG 1.1//EN"
 "http://www.w3.org/Graphics/SVG/1.1/DTD/svg11.dtd">
<!-- Generated by graphviz version 2.44.1 (20200629.0846)
 -->
<!-- Title: Hardware Abstraction Layer Pages: 1 -->
<svg width="292pt" height="642pt"
 viewBox="0.00 0.00 292.00 642.00" xmlns="http://www.w3.org/2000/svg" xmlns:xlink="http://www.w3.org/1999/xlink">
<g id="graph0" class="graph" transform="scale(1 1) rotate(0) translate(4 638)">
<title>Hardware Abstraction Layer</title>
<!-- Node5 -->
<g id="node1" class="node">
<title>Node5</title>
<g id="a_node1"><a xlink:href="a00404.html" target="_top" xlink:title="Declaration of startup timing periods.">
<polygon fill="none" stroke="black" points="274.5,-634 155.5,-634 155.5,-615 274.5,-615 274.5,-634"/>
<text text-anchor="middle" x="215" y="-622" font-family="Helvetica,sans-Serif" font-size="10.00">Startup Timing Settings</text>
</a>
</g>
</g>
<!-- Node1 -->
<g id="node2" class="node">
<title>Node1</title>
<g id="a_node2"><a xlink:title="Hardware Abstraction Layer Declarations.">
<polygon fill="#bfbfbf" stroke="black" points="110,-334.5 0,-334.5 0,-304.5 110,-304.5 110,-334.5"/>
<text text-anchor="start" x="8" y="-322.5" font-family="Helvetica,sans-Serif" font-size="10.00">Hardware Abstraction</text>
<text text-anchor="middle" x="55" y="-311.5" font-family="Helvetica,sans-Serif" font-size="10.00"> Layer</text>
</a>
</g>
</g>
<!-- Node1&#45;&gt;Node5 -->
<g id="edge4" class="edge">
<title>Node1&#45;&gt;Node5</title>
<path fill="none" stroke="black" d="M56.21,-344.59C58.08,-400.18 70.62,-534.45 146,-606.5 149.53,-609.88 153.62,-612.64 158,-614.89"/>
<polygon fill="black" stroke="black" points="59.71,-344.48 55.96,-334.57 52.71,-344.65 59.71,-344.48"/>
</g>
<!-- Node16 -->
<g id="node3" class="node">
<title>Node16</title>
<g id="a_node3"><a xlink:href="a00461.html" target="_top" xlink:title=" ">
<polygon fill="none" stroke="black" points="272.5,-597 157.5,-597 157.5,-578 272.5,-578 272.5,-597"/>
<text text-anchor="middle" x="215" y="-585" font-family="Helvetica,sans-Serif" font-size="10.00">Special Circuit Signals</text>
</a>
</g>
</g>
<!-- Node1&#45;&gt;Node16 -->
<g id="edge15" class="edge">
<title>Node1&#45;&gt;Node16</title>
<path fill="none" stroke="black" d="M57.69,-344.65C62.44,-394.76 80.25,-507.46 146,-568.5 150.13,-572.34 154.98,-575.41 160.14,-577.86"/>
<polygon fill="black" stroke="black" points="61.18,-344.34 56.84,-334.68 54.2,-344.94 61.18,-344.34"/>
</g>
<!-- Node8 -->
<g id="node4" class="node">
<title>Node8</title>
<g id="a_node4"><a xlink:href="a00421.html" target="_top" xlink:title="Declaration of fundamental PCMC slope compensation comparator &amp; DAC parameters.">
<polygon fill="none" stroke="black" points="284,-559.5 146,-559.5 146,-529.5 284,-529.5 284,-559.5"/>
<text text-anchor="start" x="154" y="-547.5" font-family="Helvetica,sans-Serif" font-size="10.00">PCMC Slope Compensation</text>
<text text-anchor="middle" x="215" y="-536.5" font-family="Helvetica,sans-Serif" font-size="10.00"> Settings</text>
</a>
</g>
</g>
<!-- Node1&#45;&gt;Node8 -->
<g id="edge7" class="edge">
<title>Node1&#45;&gt;Node8</title>
<path fill="none" stroke="black" d="M60.6,-344.74C69.58,-386.95 93.36,-472 146,-520.5 149.68,-523.89 153.87,-526.81 158.33,-529.32"/>
<polygon fill="black" stroke="black" points="63.99,-343.85 58.58,-334.74 57.13,-345.24 63.99,-343.85"/>
</g>
<!-- Node9 -->
<g id="node5" class="node">
<title>Node9</title>
<g id="a_node5"><a xlink:href="a00428.html" target="_top" xlink:title="Declaration of input voltage feedback parameters.">
<polygon fill="none" stroke="black" points="274.5,-511 155.5,-511 155.5,-492 274.5,-492 274.5,-511"/>
<text text-anchor="middle" x="215" y="-499" font-family="Helvetica,sans-Serif" font-size="10.00">Input Voltage Feedback</text>
</a>
</g>
</g>
<!-- Node1&#45;&gt;Node9 -->
<g id="edge8" class="edge">
<title>Node1&#45;&gt;Node9</title>
<path fill="none" stroke="black" d="M62.87,-344.63C74.11,-380.88 99.9,-447.44 146,-483.5 150.33,-486.89 155.24,-489.64 160.39,-491.87"/>
<polygon fill="black" stroke="black" points="66.17,-343.43 59.97,-334.84 59.46,-345.42 66.17,-343.43"/>
</g>
<!-- Node4 -->
<g id="node6" class="node">
<title>Node4</title>
<g id="a_node6"><a xlink:href="a00400.html" target="_top" xlink:title="Declaration of global state&#45;machine parameters.">
<polygon fill="none" stroke="black" points="274.5,-474 155.5,-474 155.5,-455 274.5,-455 274.5,-474"/>
<text text-anchor="middle" x="215" y="-462" font-family="Helvetica,sans-Serif" font-size="10.00">State Machine Settings</text>
</a>
</g>
</g>
<!-- Node1&#45;&gt;Node4 -->
<g id="edge3" class="edge">
<title>Node1&#45;&gt;Node4</title>
<path fill="none" stroke="black" d="M66.88,-344.02C80.96,-372.92 108.26,-420.32 146,-446.5 150.92,-449.91 156.44,-452.68 162.16,-454.92"/>
<polygon fill="black" stroke="black" points="69.88,-342.19 62.45,-334.64 63.55,-345.17 69.88,-342.19"/>
</g>
<!-- Node11 -->
<g id="node7" class="node">
<title>Node11</title>
<g id="a_node7"><a xlink:href="a00442.html" target="_top" xlink:title="Declaration of phase current feedback parameters.">
<polygon fill="none" stroke="black" points="277.5,-437 152.5,-437 152.5,-418 277.5,-418 277.5,-437"/>
<text text-anchor="middle" x="215" y="-425" font-family="Helvetica,sans-Serif" font-size="10.00">Phase Current Feedback</text>
</a>
</g>
</g>
<!-- Node1&#45;&gt;Node11 -->
<g id="edge10" class="edge">
<title>Node1&#45;&gt;Node11</title>
<path fill="none" stroke="black" d="M73.6,-342.61C90.18,-362.82 116.77,-391.53 146,-408.5 152.68,-412.38 160.19,-415.5 167.71,-418"/>
<polygon fill="black" stroke="black" points="76.32,-340.41 67.34,-334.79 70.86,-344.78 76.32,-340.41"/>
</g>
<!-- Node13 -->
<g id="node8" class="node">
<title>Node13</title>
<g id="a_node8"><a xlink:href="a00453.html" target="_top" xlink:title="Declaration of macros calculating additional parameters for Adaptive Gain Modulation.">
<polygon fill="none" stroke="black" points="270,-399.5 160,-399.5 160,-369.5 270,-369.5 270,-399.5"/>
<text text-anchor="start" x="168" y="-387.5" font-family="Helvetica,sans-Serif" font-size="10.00">Adaptive Gain Control</text>
<text text-anchor="middle" x="215" y="-376.5" font-family="Helvetica,sans-Serif" font-size="10.00"> Feed Forward</text>
</a>
</g>
</g>
<!-- Node1&#45;&gt;Node13 -->
<g id="edge12" class="edge">
<title>Node1&#45;&gt;Node13</title>
<path fill="none" stroke="black" d="M96.58,-338.91C111.93,-346 129.65,-353.9 146,-360.5 153.55,-363.54 161.65,-366.59 169.53,-369.44"/>
<polygon fill="black" stroke="black" points="97.9,-335.66 87.36,-334.61 94.95,-342 97.9,-335.66"/>
</g>
<!-- Node12 -->
<g id="node9" class="node">
<title>Node12</title>
<g id="a_node9"><a xlink:href="a00449.html" target="_top" xlink:title="Declaration of temperature feedback parameters.">
<polygon fill="none" stroke="black" points="273,-351 157,-351 157,-332 273,-332 273,-351"/>
<text text-anchor="middle" x="215" y="-339" font-family="Helvetica,sans-Serif" font-size="10.00">Temperature Feedback</text>
</a>
</g>
</g>
<!-- Node1&#45;&gt;Node12 -->
<g id="edge11" class="edge">
<title>Node1&#45;&gt;Node12</title>
<path fill="none" stroke="black" d="M120.38,-328.46C132.45,-330.15 145,-331.89 156.83,-333.54"/>
<polygon fill="black" stroke="black" points="120.76,-324.98 110.37,-327.07 119.8,-331.92 120.76,-324.98"/>
</g>
<!-- Node14 -->
<g id="node10" class="node">
<title>Node14</title>
<g id="a_node10"><a xlink:href="a00458.html" target="_top" xlink:title="Real&#45;time control loop interrupt service routine declarations.">
<polygon fill="none" stroke="black" points="267.5,-313.5 162.5,-313.5 162.5,-283.5 267.5,-283.5 267.5,-313.5"/>
<text text-anchor="start" x="170.5" y="-301.5" font-family="Helvetica,sans-Serif" font-size="10.00">Control Interrupt</text>
<text text-anchor="middle" x="215" y="-290.5" font-family="Helvetica,sans-Serif" font-size="10.00"> Vector Declarations</text>
</a>
</g>
</g>
<!-- Node1&#45;&gt;Node14 -->
<g id="edge13" class="edge">
<title>Node1&#45;&gt;Node14</title>
<path fill="none" stroke="black" d="M120.42,-310.94C134.42,-309.08 149.04,-307.13 162.45,-305.35"/>
<polygon fill="black" stroke="black" points="119.83,-307.49 110.37,-312.27 120.75,-314.42 119.83,-307.49"/>
</g>
<!-- Node6 -->
<g id="node11" class="node">
<title>Node6</title>
<g id="a_node11"><a xlink:href="a00409.html" target="_top" xlink:title="Declaration of fault object trip and recovery delays.">
<polygon fill="none" stroke="black" points="277,-265 153,-265 153,-246 277,-246 277,-265"/>
<text text-anchor="middle" x="215" y="-253" font-family="Helvetica,sans-Serif" font-size="10.00">Fault Response Settings</text>
</a>
</g>
</g>
<!-- Node1&#45;&gt;Node6 -->
<g id="edge5" class="edge">
<title>Node1&#45;&gt;Node6</title>
<path fill="none" stroke="black" d="M92.06,-299.49C108.23,-291.04 127.74,-281.54 146,-274.5 155.15,-270.97 165.22,-267.79 174.75,-265.09"/>
<polygon fill="black" stroke="black" points="90.15,-296.54 82.96,-304.32 93.43,-302.72 90.15,-296.54"/>
</g>
<!-- Node17 -->
<g id="node12" class="node">
<title>Node17</title>
<g id="a_node12"><a xlink:href="a00464.html" target="_top" xlink:title=" ">
<polygon fill="none" stroke="black" points="279,-228 151,-228 151,-209 279,-209 279,-228"/>
<text text-anchor="middle" x="215" y="-216" font-family="Helvetica,sans-Serif" font-size="10.00">Special Firmware Options</text>
</a>
</g>
</g>
<!-- Node1&#45;&gt;Node17 -->
<g id="edge16" class="edge">
<title>Node1&#45;&gt;Node17</title>
<path fill="none" stroke="black" d="M75.3,-296.8C92.19,-278.31 118.29,-252.84 146,-237.5 152.97,-233.64 160.78,-230.52 168.57,-228"/>
<polygon fill="black" stroke="black" points="72.48,-294.71 68.44,-304.5 77.71,-299.37 72.48,-294.71"/>
</g>
<!-- Node3 -->
<g id="node13" class="node">
<title>Node3</title>
<g id="a_node13"><a xlink:href="a00397.html" target="_top" xlink:title="Declarations of fundamental microcontroller device parameters.">
<polygon fill="none" stroke="black" points="271,-190.5 159,-190.5 159,-160.5 271,-160.5 271,-190.5"/>
<text text-anchor="start" x="167" y="-178.5" font-family="Helvetica,sans-Serif" font-size="10.00">Microcontroller Device</text>
<text text-anchor="middle" x="215" y="-167.5" font-family="Helvetica,sans-Serif" font-size="10.00"> Abstraction</text>
</a>
</g>
</g>
<!-- Node1&#45;&gt;Node3 -->
<g id="edge2" class="edge">
<title>Node1&#45;&gt;Node3</title>
<path fill="none" stroke="black" d="M68.83,-295.04C83.98,-268.36 111.53,-226.05 146,-200.5 151.15,-196.68 156.95,-193.39 162.94,-190.57"/>
<polygon fill="black" stroke="black" points="65.6,-293.66 63.83,-304.11 71.73,-297.05 65.6,-293.66"/>
</g>
<!-- Node2 -->
<g id="node14" class="node">
<title>Node2</title>
<g id="a_node14"><a xlink:href="a00396.html" target="_top" xlink:title="Global identified to the hardware version used.">
<polygon fill="none" stroke="black" points="267.5,-142 162.5,-142 162.5,-123 267.5,-123 267.5,-142"/>
<text text-anchor="middle" x="215" y="-130" font-family="Helvetica,sans-Serif" font-size="10.00">Hardware Version ID</text>
</a>
</g>
</g>
<!-- Node1&#45;&gt;Node2 -->
<g id="edge1" class="edge">
<title>Node1&#45;&gt;Node2</title>
<path fill="none" stroke="black" d="M62.59,-294.41C73.59,-257.52 99.24,-188.98 146,-151.5 150.88,-147.59 156.51,-144.48 162.4,-142.02"/>
<polygon fill="black" stroke="black" points="59.14,-293.77 59.76,-304.35 65.87,-295.69 59.14,-293.77"/>
</g>
<!-- Node15 -->
<g id="node15" class="node">
<title>Node15</title>
<g id="a_node15"><a xlink:href="a00460.html" target="_top" xlink:title="LC display SPI interface GPIO declarations.">
<polygon fill="none" stroke="black" points="267,-104.5 163,-104.5 163,-74.5 267,-74.5 267,-104.5"/>
<text text-anchor="start" x="171" y="-92.5" font-family="Helvetica,sans-Serif" font-size="10.00">LC Display Interface</text>
<text text-anchor="middle" x="215" y="-81.5" font-family="Helvetica,sans-Serif" font-size="10.00"> Declarations</text>
</a>
</g>
</g>
<!-- Node1&#45;&gt;Node15 -->
<g id="edge14" class="edge">
<title>Node1&#45;&gt;Node15</title>
<path fill="none" stroke="black" d="M60.4,-294.43C69.17,-251.71 92.75,-164.58 146,-114.5 150.86,-109.93 156.62,-106.19 162.7,-103.11"/>
<polygon fill="black" stroke="black" points="56.96,-293.8 58.48,-304.29 63.83,-295.14 56.96,-293.8"/>
</g>
<!-- Node7 -->
<g id="node16" class="node">
<title>Node7</title>
<g id="a_node16"><a xlink:href="a00414.html" target="_top" xlink:title="Declaration of fundamental PWM parameters.">
<polygon fill="none" stroke="black" points="255,-56 175,-56 175,-37 255,-37 255,-56"/>
<text text-anchor="middle" x="215" y="-44" font-family="Helvetica,sans-Serif" font-size="10.00">PWM Settings</text>
</a>
</g>
</g>
<!-- Node1&#45;&gt;Node7 -->
<g id="edge6" class="edge">
<title>Node1&#45;&gt;Node7</title>
<path fill="none" stroke="black" d="M57.5,-294.22C61.9,-243.31 79.11,-127.98 146,-65.5 153.88,-58.14 164.38,-53.59 174.77,-50.79"/>
<polygon fill="black" stroke="black" points="53.99,-294.1 56.72,-304.34 60.97,-294.64 53.99,-294.1"/>
</g>
<!-- Node10 -->
<g id="node17" class="node">
<title>Node10</title>
<g id="a_node17"><a xlink:href="a00435.html" target="_top" xlink:title="Declaration of output voltage feedback parameters.">
<polygon fill="none" stroke="black" points="279,-19 151,-19 151,0 279,0 279,-19"/>
<text text-anchor="middle" x="215" y="-7" font-family="Helvetica,sans-Serif" font-size="10.00">Output Voltage Feedback</text>
</a>
</g>
</g>
<!-- Node1&#45;&gt;Node10 -->
<g id="edge9" class="edge">
<title>Node1&#45;&gt;Node10</title>
<path fill="none" stroke="black" d="M56.16,-294.14C57.94,-237.95 70.31,-102.14 146,-28.5 149.95,-24.65 154.62,-21.57 159.62,-19.11"/>
<polygon fill="black" stroke="black" points="52.66,-294.2 55.93,-304.28 59.66,-294.36 52.66,-294.2"/>
</g>
</g>
</svg>
