<?xml version="1.0" encoding="UTF-8" standalone="no"?>
<!DOCTYPE svg PUBLIC "-//W3C//DTD SVG 1.1//EN"
 "http://www.w3.org/Graphics/SVG/1.1/DTD/svg11.dtd">
<!-- Generated by graphviz version 2.44.1 (20200629.0846)
 -->
<!-- Title: p33c_GpioInstance_GetHandle Pages: 1 -->
<svg width="1351pt" height="309pt"
 viewBox="0.00 0.00 1351.00 309.00" xmlns="http://www.w3.org/2000/svg" xmlns:xlink="http://www.w3.org/1999/xlink">
<g id="graph0" class="graph" transform="scale(1 1) rotate(0) translate(4 305)">
<title>p33c_GpioInstance_GetHandle</title>
<!-- Node1 -->
<g id="node1" class="node">
<title>Node1</title>
<g id="a_node1"><a xlink:title="Gets pointer to GPIO Instance SFR set.">
<polygon fill="#bfbfbf" stroke="black" points="1243,-131 1243,-161 1343,-161 1343,-131 1243,-131"/>
<text text-anchor="start" x="1251" y="-149" font-family="Helvetica,sans-Serif" font-size="10.00">p33c_GpioInstance</text>
<text text-anchor="middle" x="1293" y="-138" font-family="Helvetica,sans-Serif" font-size="10.00">_GetHandle</text>
</a>
</g>
</g>
<!-- Node2 -->
<g id="node2" class="node">
<title>Node2</title>
<g id="a_node2"><a xlink:href="a00532.html#ga7f1d554e08d756b8677b572216908a3a" target="_top" xlink:title="This function clears the selected general purpose input/output pin.">
<polygon fill="none" stroke="black" points="1093.5,-212.5 1093.5,-231.5 1182.5,-231.5 1182.5,-212.5 1093.5,-212.5"/>
<text text-anchor="middle" x="1138" y="-219.5" font-family="Helvetica,sans-Serif" font-size="10.00">buckGPIO_Clear</text>
</a>
</g>
</g>
<!-- Node1&#45;&gt;Node2 -->
<g id="edge1" class="edge">
<title>Node1&#45;&gt;Node2</title>
<path fill="none" stroke="midnightblue" d="M1264.77,-167.53C1248.71,-179.37 1227.56,-193.53 1207,-203 1198.87,-206.74 1189.85,-209.9 1181.11,-212.49"/>
<polygon fill="midnightblue" stroke="midnightblue" points="1267.25,-170.05 1273.13,-161.24 1263.04,-164.45 1267.25,-170.05"/>
</g>
<!-- Node15 -->
<g id="node15" class="node">
<title>Node15</title>
<g id="a_node15"><a xlink:href="a00532.html#ga8e2253c136f05033e774d09032b283a1" target="_top" xlink:title="This function gets the state of the selected pin.">
<polygon fill="none" stroke="black" points="1078,-57.5 1078,-76.5 1198,-76.5 1198,-57.5 1078,-57.5"/>
<text text-anchor="middle" x="1138" y="-64.5" font-family="Helvetica,sans-Serif" font-size="10.00">buckGPIO_GetPinState</text>
</a>
</g>
</g>
<!-- Node1&#45;&gt;Node15 -->
<g id="edge14" class="edge">
<title>Node1&#45;&gt;Node15</title>
<path fill="none" stroke="midnightblue" d="M1264.3,-124.55C1248.23,-112.86 1227.23,-98.82 1207,-89 1196.95,-84.12 1185.57,-79.96 1175.02,-76.6"/>
<polygon fill="midnightblue" stroke="midnightblue" points="1262.56,-127.62 1272.68,-130.76 1266.73,-121.99 1262.56,-127.62"/>
</g>
<!-- Node29 -->
<g id="node29" class="node">
<title>Node29</title>
<g id="a_node29"><a xlink:href="a00532.html#ga3d3f91c0e40884874e7df3a67fff23f3" target="_top" xlink:title="This function sets the pin as input or output.">
<polygon fill="none" stroke="black" points="1072.5,-174.5 1072.5,-193.5 1203.5,-193.5 1203.5,-174.5 1072.5,-174.5"/>
<text text-anchor="middle" x="1138" y="-181.5" font-family="Helvetica,sans-Serif" font-size="10.00">buckGPIO_PrivateInitialize</text>
</a>
</g>
</g>
<!-- Node1&#45;&gt;Node29 -->
<g id="edge33" class="edge">
<title>Node1&#45;&gt;Node29</title>
<path fill="none" stroke="midnightblue" d="M1232.89,-160.68C1214.3,-165.3 1194.26,-170.28 1177.49,-174.44"/>
<polygon fill="midnightblue" stroke="midnightblue" points="1233.89,-164.04 1242.75,-158.23 1232.2,-157.25 1233.89,-164.04"/>
</g>
<!-- Node30 -->
<g id="node30" class="node">
<title>Node30</title>
<g id="a_node30"><a xlink:href="a00532.html#gad8cb8e5226f7c1d109cd0dc42e45be9f" target="_top" xlink:title="This function sets the selected general purpose input/ouput pins.">
<polygon fill="none" stroke="black" points="1097,-98.5 1097,-117.5 1179,-117.5 1179,-98.5 1097,-98.5"/>
<text text-anchor="middle" x="1138" y="-105.5" font-family="Helvetica,sans-Serif" font-size="10.00">buckGPIO_Set</text>
</a>
</g>
</g>
<!-- Node1&#45;&gt;Node30 -->
<g id="edge35" class="edge">
<title>Node1&#45;&gt;Node30</title>
<path fill="none" stroke="midnightblue" d="M1232.89,-131.32C1214.3,-126.7 1194.26,-121.72 1177.49,-117.56"/>
<polygon fill="midnightblue" stroke="midnightblue" points="1232.2,-134.75 1242.75,-133.77 1233.89,-127.96 1232.2,-134.75"/>
</g>
<!-- Node32 -->
<g id="node32" class="node">
<title>Node32</title>
<g id="a_node32"><a xlink:href="a00532.html#ga45a54def97cc67eb8d36e22a3867d95f" target="_top" xlink:title="This function initializes the output pins for the PWM output and the default buck PWM settings.">
<polygon fill="none" stroke="black" points="1069,-136.5 1069,-155.5 1207,-155.5 1207,-136.5 1069,-136.5"/>
<text text-anchor="middle" x="1138" y="-143.5" font-family="Helvetica,sans-Serif" font-size="10.00">buckPWM_ChannelInitialize</text>
</a>
</g>
</g>
<!-- Node1&#45;&gt;Node32 -->
<g id="edge37" class="edge">
<title>Node1&#45;&gt;Node32</title>
<path fill="none" stroke="midnightblue" d="M1232.7,-146C1224.32,-146 1215.64,-146 1207.11,-146"/>
<polygon fill="midnightblue" stroke="midnightblue" points="1232.75,-149.5 1242.75,-146 1232.75,-142.5 1232.75,-149.5"/>
</g>
<!-- Node3 -->
<g id="node3" class="node">
<title>Node3</title>
<g id="a_node3"><a xlink:href="a00532.html#gac7e5924475733c189b2318844ae01844" target="_top" xlink:title="This function initializes the buck input pins.">
<polygon fill="none" stroke="black" points="913.5,-174.5 913.5,-193.5 1015.5,-193.5 1015.5,-174.5 913.5,-174.5"/>
<text text-anchor="middle" x="964.5" y="-181.5" font-family="Helvetica,sans-Serif" font-size="10.00">buckGPIO_Initialize</text>
</a>
</g>
</g>
<!-- Node2&#45;&gt;Node3 -->
<g id="edge2" class="edge">
<title>Node2&#45;&gt;Node3</title>
<path fill="none" stroke="midnightblue" d="M1083.96,-210.25C1059.71,-204.87 1031.35,-198.59 1008.47,-193.52"/>
<polygon fill="midnightblue" stroke="midnightblue" points="1083.2,-213.66 1093.72,-212.41 1084.72,-206.83 1083.2,-213.66"/>
</g>
<!-- Node9 -->
<g id="node9" class="node">
<title>Node9</title>
<g id="a_node9"><a xlink:href="a00532.html#gab2905ddac9f94bf8bfa203444c0d3691" target="_top" xlink:title="This function stops the buck PWM output.">
<polygon fill="none" stroke="black" points="920.5,-269.5 920.5,-288.5 1008.5,-288.5 1008.5,-269.5 920.5,-269.5"/>
<text text-anchor="middle" x="964.5" y="-276.5" font-family="Helvetica,sans-Serif" font-size="10.00">buckPWM_Stop</text>
</a>
</g>
</g>
<!-- Node2&#45;&gt;Node9 -->
<g id="edge8" class="edge">
<title>Node2&#45;&gt;Node9</title>
<path fill="none" stroke="midnightblue" d="M1098.51,-234.79C1066.93,-245.29 1022.9,-259.92 994.3,-269.43"/>
<polygon fill="midnightblue" stroke="midnightblue" points="1099.91,-238.02 1108.29,-231.54 1097.7,-231.37 1099.91,-238.02"/>
</g>
<!-- Node12 -->
<g id="node12" class="node">
<title>Node12</title>
<g id="a_node12"><a xlink:href="a00532.html#gae63dbb1465ca458b8b7f6733a30f7d0b" target="_top" xlink:title="This function disables the PWM generator IOs.">
<polygon fill="none" stroke="black" points="911.5,-212.5 911.5,-231.5 1017.5,-231.5 1017.5,-212.5 911.5,-212.5"/>
<text text-anchor="middle" x="964.5" y="-219.5" font-family="Helvetica,sans-Serif" font-size="10.00">buckPWM_Suspend</text>
</a>
</g>
</g>
<!-- Node2&#45;&gt;Node12 -->
<g id="edge11" class="edge">
<title>Node2&#45;&gt;Node12</title>
<path fill="none" stroke="midnightblue" d="M1083.27,-222C1062.35,-222 1038.46,-222 1017.69,-222"/>
<polygon fill="midnightblue" stroke="midnightblue" points="1083.28,-225.5 1093.28,-222 1083.28,-218.5 1083.28,-225.5"/>
</g>
<!-- Node4 -->
<g id="node4" class="node">
<title>Node4</title>
<g id="a_node4"><a xlink:href="a00509.html#gaf3c64772d6dfd473d6924fb8893bd180" target="_top" xlink:title="This function initializes all peripheral modules and their instances used by the power controller.">
<polygon fill="none" stroke="black" points="750.5,-156 750.5,-186 847.5,-186 847.5,-156 750.5,-156"/>
<text text-anchor="start" x="758.5" y="-174" font-family="Helvetica,sans-Serif" font-size="10.00">drv_BuckConverter</text>
<text text-anchor="middle" x="799" y="-163" font-family="Helvetica,sans-Serif" font-size="10.00">_Initialize</text>
</a>
</g>
</g>
<!-- Node3&#45;&gt;Node4 -->
<g id="edge3" class="edge">
<title>Node3&#45;&gt;Node4</title>
<path fill="none" stroke="midnightblue" d="M903.14,-179.2C884.86,-177.75 865.04,-176.17 847.71,-174.79"/>
<polygon fill="midnightblue" stroke="midnightblue" points="902.86,-182.69 913.11,-179.99 903.42,-175.71 902.86,-182.69"/>
</g>
<!-- Node5 -->
<g id="node5" class="node">
<title>Node5</title>
<g id="a_node5"><a xlink:href="a00505.html#ga0b26acfec74d1804384b4ba1a3cffab4" target="_top" xlink:title="This function is used to load peripheral configuration templates from the power controller device dri...">
<polygon fill="none" stroke="black" points="559,-186 559,-216 702,-216 702,-186 559,-186"/>
<text text-anchor="start" x="567" y="-204" font-family="Helvetica,sans-Serif" font-size="10.00">appPowerSupply_Peripherals</text>
<text text-anchor="middle" x="630.5" y="-193" font-family="Helvetica,sans-Serif" font-size="10.00">Initialize</text>
</a>
</g>
</g>
<!-- Node4&#45;&gt;Node5 -->
<g id="edge4" class="edge">
<title>Node4&#45;&gt;Node5</title>
<path fill="none" stroke="midnightblue" d="M740.21,-181.41C727.94,-183.62 714.86,-185.98 702.18,-188.26"/>
<polygon fill="midnightblue" stroke="midnightblue" points="741.07,-184.81 750.29,-179.6 739.83,-177.93 741.07,-184.81"/>
</g>
<!-- Node6 -->
<g id="node6" class="node">
<title>Node6</title>
<g id="a_node6"><a xlink:href="a00502.html#ga7a4cf6371d09457539f96a74b2809ca0" target="_top" xlink:title="Calls the application layer power controller initialization.">
<polygon fill="none" stroke="black" points="229,-209.5 229,-228.5 359,-228.5 359,-209.5 229,-209.5"/>
<text text-anchor="middle" x="294" y="-216.5" font-family="Helvetica,sans-Serif" font-size="10.00">appPowerSupply_Initialize</text>
</a>
</g>
</g>
<!-- Node5&#45;&gt;Node6 -->
<g id="edge5" class="edge">
<title>Node5&#45;&gt;Node6</title>
<path fill="none" stroke="midnightblue" d="M548.81,-216.1C540.12,-217.28 531.39,-218.3 523,-219 467.78,-223.63 404.77,-223.2 359,-221.85"/>
<polygon fill="midnightblue" stroke="midnightblue" points="549.57,-219.52 558.96,-214.63 548.56,-212.59 549.57,-219.52"/>
</g>
<!-- Node7 -->
<g id="node7" class="node">
<title>Node7</title>
<g id="a_node7"><a xlink:href="a00366.html#ga2be64f5f0b9a2c0c6713f5a69d793e05" target="_top" xlink:title="Initializes the user&#45;defined tasks.">
<polygon fill="none" stroke="black" points="74,-180.5 74,-199.5 193,-199.5 193,-180.5 74,-180.5"/>
<text text-anchor="middle" x="133.5" y="-187.5" font-family="Helvetica,sans-Serif" font-size="10.00">sysUserTasks_Initialize</text>
</a>
</g>
</g>
<!-- Node6&#45;&gt;Node7 -->
<g id="edge6" class="edge">
<title>Node6&#45;&gt;Node7</title>
<path fill="none" stroke="midnightblue" d="M230.69,-207.6C216.07,-204.92 200.63,-202.1 186.51,-199.52"/>
<polygon fill="midnightblue" stroke="midnightblue" points="230.2,-211.07 240.66,-209.42 231.46,-204.18 230.2,-211.07"/>
</g>
<!-- Node8 -->
<g id="node8" class="node">
<title>Node8</title>
<g id="a_node8"><a xlink:href="a00350.html#ga840291bc02cba5474a4cb46a9b9566fe" target="_top" xlink:title="Application main function executed after device comes out of RESET.">
<polygon fill="none" stroke="black" points="0,-180.5 0,-199.5 38,-199.5 38,-180.5 0,-180.5"/>
<text text-anchor="middle" x="19" y="-187.5" font-family="Helvetica,sans-Serif" font-size="10.00">main</text>
</a>
</g>
</g>
<!-- Node7&#45;&gt;Node8 -->
<g id="edge7" class="edge">
<title>Node7&#45;&gt;Node8</title>
<path fill="none" stroke="midnightblue" d="M63.65,-190C54.29,-190 45.43,-190 38.16,-190"/>
<polygon fill="midnightblue" stroke="midnightblue" points="63.94,-193.5 73.94,-190 63.94,-186.5 63.94,-193.5"/>
</g>
<!-- Node10 -->
<g id="node10" class="node">
<title>Node10</title>
<g id="a_node10"><a xlink:href="a00509.html#ga61726ccfa8287fe57683d2aa6423d6e0" target="_top" xlink:title="This function stop the buck converter opration.">
<polygon fill="none" stroke="black" points="738,-281.5 738,-300.5 860,-300.5 860,-281.5 738,-281.5"/>
<text text-anchor="middle" x="799" y="-288.5" font-family="Helvetica,sans-Serif" font-size="10.00">drv_BuckConverter_Stop</text>
</a>
</g>
</g>
<!-- Node9&#45;&gt;Node10 -->
<g id="edge9" class="edge">
<title>Node9&#45;&gt;Node10</title>
<path fill="none" stroke="midnightblue" d="M909.93,-282.93C894.03,-284.1 876.5,-285.39 860.21,-286.58"/>
<polygon fill="midnightblue" stroke="midnightblue" points="910.4,-286.41 920.11,-282.18 909.88,-279.43 910.4,-286.41"/>
</g>
<!-- Node11 -->
<g id="node11" class="node">
<title>Node11</title>
<g id="a_node11"><a xlink:href="a00502.html#gaa7d413f62f7b5f25d152cc12354241f0" target="_top" xlink:title="This function calls the buck converter device driver function stopping the power supply.">
<polygon fill="none" stroke="black" points="573,-281.5 573,-300.5 688,-300.5 688,-281.5 573,-281.5"/>
<text text-anchor="middle" x="630.5" y="-288.5" font-family="Helvetica,sans-Serif" font-size="10.00">appPowerSupply_Stop</text>
</a>
</g>
</g>
<!-- Node10&#45;&gt;Node11 -->
<g id="edge10" class="edge">
<title>Node10&#45;&gt;Node11</title>
<path fill="none" stroke="midnightblue" d="M727.88,-291C714.64,-291 700.95,-291 688.19,-291"/>
<polygon fill="midnightblue" stroke="midnightblue" points="727.89,-294.5 737.89,-291 727.89,-287.5 727.89,-294.5"/>
</g>
<!-- Node13 -->
<g id="node13" class="node">
<title>Node13</title>
<g id="a_node13"><a xlink:href="a00520.html#ga35f16ef7f56a1abf97896440b041161b" target="_top" xlink:title="If this function is called, the state machine is reset to INITIALIZE (URL=State_Initialize).">
<polygon fill="none" stroke="black" points="766,-205.5 766,-224.5 832,-224.5 832,-205.5 766,-205.5"/>
<text text-anchor="middle" x="799" y="-212.5" font-family="Helvetica,sans-Serif" font-size="10.00">State_Error</text>
</a>
</g>
</g>
<!-- Node12&#45;&gt;Node13 -->
<g id="edge12" class="edge">
<title>Node12&#45;&gt;Node13</title>
<path fill="none" stroke="midnightblue" d="M901.07,-219.33C877.59,-218.32 851.85,-217.22 832.22,-216.38"/>
<polygon fill="midnightblue" stroke="midnightblue" points="901.18,-222.83 911.32,-219.77 901.48,-215.84 901.18,-222.83"/>
</g>
<!-- Node14 -->
<g id="node14" class="node">
<title>Node14</title>
<g id="a_node14"><a xlink:href="a00520.html#ga402a47948ae8a83bdde86943817dc563" target="_top" xlink:title="This function resets the buck control operation by re&#45;initiating the control mode,...">
<polygon fill="none" stroke="black" points="763.5,-243.5 763.5,-262.5 834.5,-262.5 834.5,-243.5 763.5,-243.5"/>
<text text-anchor="middle" x="799" y="-250.5" font-family="Helvetica,sans-Serif" font-size="10.00">State_Reset</text>
</a>
</g>
</g>
<!-- Node12&#45;&gt;Node14 -->
<g id="edge13" class="edge">
<title>Node12&#45;&gt;Node14</title>
<path fill="none" stroke="midnightblue" d="M903.07,-233.46C880.02,-237.83 854.55,-242.66 834.69,-246.42"/>
<polygon fill="midnightblue" stroke="midnightblue" points="903.94,-236.86 913.11,-231.55 902.63,-229.98 903.94,-236.86"/>
</g>
<!-- Node16 -->
<g id="node16" class="node">
<title>Node16</title>
<g id="a_node16"><a xlink:href="a00509.html#gab9877f90ffb129964ae42ce2921b3fe1" target="_top" xlink:title="This function is the main buck converter state machine executing the most recent state.">
<polygon fill="none" stroke="black" points="916,-47 916,-77 1013,-77 1013,-47 916,-47"/>
<text text-anchor="start" x="924" y="-65" font-family="Helvetica,sans-Serif" font-size="10.00">drv_BuckConverter</text>
<text text-anchor="middle" x="964.5" y="-54" font-family="Helvetica,sans-Serif" font-size="10.00">_Execute</text>
</a>
</g>
</g>
<!-- Node15&#45;&gt;Node16 -->
<g id="edge15" class="edge">
<title>Node15&#45;&gt;Node16</title>
<path fill="none" stroke="midnightblue" d="M1067.88,-64.98C1049.46,-64.45 1029.97,-63.88 1013,-63.38"/>
<polygon fill="midnightblue" stroke="midnightblue" points="1067.88,-68.49 1077.98,-65.28 1068.09,-61.49 1067.88,-68.49"/>
</g>
<!-- Node17 -->
<g id="node17" class="node">
<title>Node17</title>
<g id="a_node17"><a xlink:href="a00502.html#ga13094235dd6cc123d9299925359ca178" target="_top" xlink:title="This is the top&#45;level function call triggering the most recent state machine of all associated power ...">
<polygon fill="none" stroke="black" points="565,-0.5 565,-19.5 696,-19.5 696,-0.5 565,-0.5"/>
<text text-anchor="middle" x="630.5" y="-7.5" font-family="Helvetica,sans-Serif" font-size="10.00">appPowerSupply_Execute</text>
</a>
</g>
</g>
<!-- Node16&#45;&gt;Node17 -->
<g id="edge16" class="edge">
<title>Node16&#45;&gt;Node17</title>
<path fill="none" stroke="midnightblue" d="M908.39,-43.97C892.88,-39.46 875.9,-35.04 860,-32 805.39,-21.55 742.45,-15.96 696.47,-13.03"/>
<polygon fill="midnightblue" stroke="midnightblue" points="907.76,-47.43 918.35,-46.93 909.76,-40.72 907.76,-47.43"/>
</g>
<!-- Node19 -->
<g id="node19" class="node">
<title>Node19</title>
<g id="a_node19"><a xlink:href="a00509.html#gaadb710d81053fd0ab75b305f1f329bf6" target="_top" xlink:title="This function resume the operation of the buck converter.">
<polygon fill="none" stroke="black" points="750.5,-42 750.5,-72 847.5,-72 847.5,-42 750.5,-42"/>
<text text-anchor="start" x="758.5" y="-60" font-family="Helvetica,sans-Serif" font-size="10.00">drv_BuckConverter</text>
<text text-anchor="middle" x="799" y="-49" font-family="Helvetica,sans-Serif" font-size="10.00">_Resume</text>
</a>
</g>
</g>
<!-- Node16&#45;&gt;Node19 -->
<g id="edge18" class="edge">
<title>Node16&#45;&gt;Node19</title>
<path fill="none" stroke="midnightblue" d="M905.71,-60.23C886.66,-59.65 865.7,-59.01 847.51,-58.45"/>
<polygon fill="midnightblue" stroke="midnightblue" points="905.67,-63.73 915.77,-60.54 905.88,-56.74 905.67,-63.73"/>
</g>
<!-- Node22 -->
<g id="node22" class="node">
<title>Node22</title>
<g id="a_node22"><a xlink:href="a00509.html#ga0d68d132b52175c43503c9b5794bae64" target="_top" xlink:title="This function suspends the operation of the buck converter.">
<polygon fill="none" stroke="black" points="750.5,-99 750.5,-129 847.5,-129 847.5,-99 750.5,-99"/>
<text text-anchor="start" x="758.5" y="-117" font-family="Helvetica,sans-Serif" font-size="10.00">drv_BuckConverter</text>
<text text-anchor="middle" x="799" y="-106" font-family="Helvetica,sans-Serif" font-size="10.00">_Suspend</text>
</a>
</g>
</g>
<!-- Node16&#45;&gt;Node22 -->
<g id="edge22" class="edge">
<title>Node16&#45;&gt;Node22</title>
<path fill="none" stroke="midnightblue" d="M906.58,-80.1C887.18,-86.27 865.73,-93.09 847.18,-98.99"/>
<polygon fill="midnightblue" stroke="midnightblue" points="907.74,-83.41 916.21,-77.04 905.62,-76.74 907.74,-83.41"/>
</g>
<!-- Node18 -->
<g id="node18" class="node">
<title>Node18</title>
<g id="a_node18"><a xlink:href="a00354.html#ga8dc4b233e7fa6fe932be5e8d5a2b19e3" target="_top" xlink:title="High priority task sequence executed at a fixed repetition frequency.">
<polygon fill="none" stroke="black" points="239.5,-14 239.5,-44 348.5,-44 348.5,-14 239.5,-14"/>
<text text-anchor="start" x="247.5" y="-32" font-family="Helvetica,sans-Serif" font-size="10.00">sysHighPriorityTasks</text>
<text text-anchor="middle" x="294" y="-21" font-family="Helvetica,sans-Serif" font-size="10.00">_Execute</text>
</a>
</g>
</g>
<!-- Node17&#45;&gt;Node18 -->
<g id="edge17" class="edge">
<title>Node17&#45;&gt;Node18</title>
<path fill="none" stroke="midnightblue" d="M554.41,-14.27C491.88,-17.82 404.37,-22.79 348.68,-25.95"/>
<polygon fill="midnightblue" stroke="midnightblue" points="554.82,-17.75 564.61,-13.69 554.43,-10.76 554.82,-17.75"/>
</g>
<!-- Node20 -->
<g id="node20" class="node">
<title>Node20</title>
<g id="a_node20"><a xlink:href="a00502.html#ga3c7bf6b771bc1296401a270da4a95bff" target="_top" xlink:title="This function resumes the power supply operation.">
<polygon fill="none" stroke="black" points="565,-42.5 565,-61.5 696,-61.5 696,-42.5 565,-42.5"/>
<text text-anchor="middle" x="630.5" y="-49.5" font-family="Helvetica,sans-Serif" font-size="10.00">appPowerSupply_Resume</text>
</a>
</g>
</g>
<!-- Node19&#45;&gt;Node20 -->
<g id="edge19" class="edge">
<title>Node19&#45;&gt;Node20</title>
<path fill="none" stroke="midnightblue" d="M740.19,-55.26C726.02,-54.84 710.76,-54.38 696.29,-53.95"/>
<polygon fill="midnightblue" stroke="midnightblue" points="740.19,-58.77 750.29,-55.57 740.4,-51.77 740.19,-58.77"/>
</g>
<!-- Node21 -->
<g id="node21" class="node">
<title>Node21</title>
<g id="a_node21"><a xlink:href="a00466.html#ga8842f6a41fe23f932a8864fc140c4b5b" target="_top" xlink:title="Application wide fault object monitoring routine.">
<polygon fill="none" stroke="black" points="395,-38.5 395,-57.5 523,-57.5 523,-38.5 395,-38.5"/>
<text text-anchor="middle" x="459" y="-45.5" font-family="Helvetica,sans-Serif" font-size="10.00">appFaultMonitor_Execute</text>
</a>
</g>
</g>
<!-- Node20&#45;&gt;Node21 -->
<g id="edge20" class="edge">
<title>Node20&#45;&gt;Node21</title>
<path fill="none" stroke="midnightblue" d="M554.9,-50.24C544.35,-49.99 533.58,-49.74 523.26,-49.49"/>
<polygon fill="midnightblue" stroke="midnightblue" points="554.86,-53.74 564.94,-50.48 555.02,-46.74 554.86,-53.74"/>
</g>
<!-- Node21&#45;&gt;Node18 -->
<g id="edge21" class="edge">
<title>Node21&#45;&gt;Node18</title>
<path fill="none" stroke="midnightblue" d="M384.82,-39.47C372.62,-38.05 360.18,-36.6 348.59,-35.25"/>
<polygon fill="midnightblue" stroke="midnightblue" points="384.64,-42.97 394.98,-40.65 385.45,-36.02 384.64,-42.97"/>
</g>
<!-- Node23 -->
<g id="node23" class="node">
<title>Node23</title>
<g id="a_node23"><a xlink:href="a00502.html#gafa4e90d260e60cf20f06acee067c39cd" target="_top" xlink:title="This function stops the power supply operation.">
<polygon fill="none" stroke="black" points="564,-114.5 564,-133.5 697,-133.5 697,-114.5 564,-114.5"/>
<text text-anchor="middle" x="630.5" y="-121.5" font-family="Helvetica,sans-Serif" font-size="10.00">appPowerSupply_Suspend</text>
</a>
</g>
</g>
<!-- Node22&#45;&gt;Node23 -->
<g id="edge23" class="edge">
<title>Node22&#45;&gt;Node23</title>
<path fill="none" stroke="midnightblue" d="M739.96,-117.49C726.16,-118.31 711.33,-119.21 697.21,-120.05"/>
<polygon fill="midnightblue" stroke="midnightblue" points="740.52,-120.96 750.29,-116.87 740.1,-113.97 740.52,-120.96"/>
</g>
<!-- Node24 -->
<g id="node24" class="node">
<title>Node24</title>
<g id="a_node24"><a xlink:href="a00468.html#ga54f9db91ea0782b08aa16ee77a57c5e5" target="_top" xlink:title="Initializes the user&#45;defined fault objects for overcurrent protection.">
<polygon fill="none" stroke="black" points="411.5,-114.5 411.5,-133.5 506.5,-133.5 506.5,-114.5 411.5,-114.5"/>
<text text-anchor="middle" x="459" y="-121.5" font-family="Helvetica,sans-Serif" font-size="10.00">ocp_FaultInitialize</text>
</a>
</g>
</g>
<!-- Node23&#45;&gt;Node24 -->
<g id="edge24" class="edge">
<title>Node23&#45;&gt;Node24</title>
<path fill="none" stroke="midnightblue" d="M553.56,-124C537.6,-124 521.22,-124 506.71,-124"/>
<polygon fill="midnightblue" stroke="midnightblue" points="553.97,-127.5 563.97,-124 553.97,-120.5 553.97,-127.5"/>
</g>
<!-- Node26 -->
<g id="node26" class="node">
<title>Node26</title>
<g id="a_node26"><a xlink:href="a00468.html#gade437244e8f6e5ff7c57a73442063350" target="_top" xlink:title="Initializes the user&#45;defined fault objects for overvoltage lockout.">
<polygon fill="none" stroke="black" points="411.5,-76.5 411.5,-95.5 506.5,-95.5 506.5,-76.5 411.5,-76.5"/>
<text text-anchor="middle" x="459" y="-83.5" font-family="Helvetica,sans-Serif" font-size="10.00">ovlo_FaultInitialize</text>
</a>
</g>
</g>
<!-- Node23&#45;&gt;Node26 -->
<g id="edge27" class="edge">
<title>Node23&#45;&gt;Node26</title>
<path fill="none" stroke="midnightblue" d="M576.76,-112.18C552.86,-106.82 524.98,-100.57 502.46,-95.52"/>
<polygon fill="midnightblue" stroke="midnightblue" points="576.2,-115.64 586.73,-114.41 577.74,-108.81 576.2,-115.64"/>
</g>
<!-- Node27 -->
<g id="node27" class="node">
<title>Node27</title>
<g id="a_node27"><a xlink:href="a00468.html#ga82dc317e3adac0308e5ac3f5ad321605" target="_top" xlink:title="Initializes the user&#45;defined fault objects for regulation error.">
<polygon fill="none" stroke="black" points="407,-190.5 407,-209.5 511,-209.5 511,-190.5 407,-190.5"/>
<text text-anchor="middle" x="459" y="-197.5" font-family="Helvetica,sans-Serif" font-size="10.00">regerr_FaultInitialize</text>
</a>
</g>
</g>
<!-- Node23&#45;&gt;Node27 -->
<g id="edge29" class="edge">
<title>Node23&#45;&gt;Node27</title>
<path fill="none" stroke="midnightblue" d="M605.46,-138.65C584.3,-151.11 552.37,-168.85 523,-181 514.45,-184.54 505,-187.74 496.08,-190.46"/>
<polygon fill="midnightblue" stroke="midnightblue" points="607.3,-141.63 614.1,-133.51 603.72,-135.61 607.3,-141.63"/>
</g>
<!-- Node28 -->
<g id="node28" class="node">
<title>Node28</title>
<g id="a_node28"><a xlink:href="a00468.html#ga9441220f8a7d4a6805467d04b734e6b5" target="_top" xlink:title="Initializes the user&#45;defined fault objects for under&#45;voltage lockout.">
<polygon fill="none" stroke="black" points="411.5,-152.5 411.5,-171.5 506.5,-171.5 506.5,-152.5 411.5,-152.5"/>
<text text-anchor="middle" x="459" y="-159.5" font-family="Helvetica,sans-Serif" font-size="10.00">uvlo_FaultInitialize</text>
</a>
</g>
</g>
<!-- Node23&#45;&gt;Node28 -->
<g id="edge31" class="edge">
<title>Node23&#45;&gt;Node28</title>
<path fill="none" stroke="midnightblue" d="M576.76,-135.82C552.86,-141.18 524.98,-147.43 502.46,-152.48"/>
<polygon fill="midnightblue" stroke="midnightblue" points="577.74,-139.19 586.73,-133.59 576.2,-132.36 577.74,-139.19"/>
</g>
<!-- Node25 -->
<g id="node25" class="node">
<title>Node25</title>
<g id="a_node25"><a xlink:href="a00466.html#ga830e5c7087a8e5ee8ea39b7e3df94b68" target="_top" xlink:title="Initialization of user&#45;defined fault objects.">
<polygon fill="none" stroke="black" points="230.5,-152.5 230.5,-171.5 357.5,-171.5 357.5,-152.5 230.5,-152.5"/>
<text text-anchor="middle" x="294" y="-159.5" font-family="Helvetica,sans-Serif" font-size="10.00">appFaultMonitor_Initialize</text>
</a>
</g>
</g>
<!-- Node24&#45;&gt;Node25 -->
<g id="edge25" class="edge">
<title>Node24&#45;&gt;Node25</title>
<path fill="none" stroke="midnightblue" d="M406.97,-135.9C384.06,-141.24 357.4,-147.45 335.84,-152.48"/>
<polygon fill="midnightblue" stroke="midnightblue" points="407.92,-139.27 416.87,-133.59 406.33,-132.45 407.92,-139.27"/>
</g>
<!-- Node25&#45;&gt;Node7 -->
<g id="edge26" class="edge">
<title>Node25&#45;&gt;Node7</title>
<path fill="none" stroke="midnightblue" d="M228.78,-173.34C215.37,-175.71 201.35,-178.19 188.36,-180.49"/>
<polygon fill="midnightblue" stroke="midnightblue" points="229.66,-176.74 238.9,-171.56 228.44,-169.85 229.66,-176.74"/>
</g>
<!-- Node26&#45;&gt;Node25 -->
<g id="edge28" class="edge">
<title>Node26&#45;&gt;Node25</title>
<path fill="none" stroke="midnightblue" d="M411.67,-98.66C405.99,-100.6 400.31,-102.72 395,-105 363.05,-118.72 328.33,-140.12 309.37,-152.42"/>
<polygon fill="midnightblue" stroke="midnightblue" points="412.75,-101.99 421.19,-95.58 410.6,-95.33 412.75,-101.99"/>
</g>
<!-- Node27&#45;&gt;Node25 -->
<g id="edge30" class="edge">
<title>Node27&#45;&gt;Node25</title>
<path fill="none" stroke="midnightblue" d="M406.97,-188.1C384.06,-182.76 357.4,-176.55 335.84,-171.52"/>
<polygon fill="midnightblue" stroke="midnightblue" points="406.33,-191.55 416.87,-190.41 407.92,-184.73 406.33,-191.55"/>
</g>
<!-- Node28&#45;&gt;Node25 -->
<g id="edge32" class="edge">
<title>Node28&#45;&gt;Node25</title>
<path fill="none" stroke="midnightblue" d="M401.23,-162C387.11,-162 371.9,-162 357.52,-162"/>
<polygon fill="midnightblue" stroke="midnightblue" points="401.29,-165.5 411.29,-162 401.29,-158.5 401.29,-165.5"/>
</g>
<!-- Node29&#45;&gt;Node3 -->
<g id="edge34" class="edge">
<title>Node29&#45;&gt;Node3</title>
<path fill="none" stroke="midnightblue" d="M1061.98,-184C1046.33,-184 1030.21,-184 1015.72,-184"/>
<polygon fill="midnightblue" stroke="midnightblue" points="1062.16,-187.5 1072.16,-184 1062.16,-180.5 1062.16,-187.5"/>
</g>
<!-- Node31 -->
<g id="node31" class="node">
<title>Node31</title>
<g id="a_node31"><a xlink:href="a00520.html#gadfc2360fea5c8060908d58b134039f33" target="_top" xlink:title="In this function, a counter is incremented until the power good delay has expired.">
<polygon fill="none" stroke="black" points="896,-98.5 896,-117.5 1033,-117.5 1033,-98.5 896,-98.5"/>
<text text-anchor="middle" x="964.5" y="-105.5" font-family="Helvetica,sans-Serif" font-size="10.00">SubState_PowerGoodDelay</text>
</a>
</g>
</g>
<!-- Node30&#45;&gt;Node31 -->
<g id="edge36" class="edge">
<title>Node30&#45;&gt;Node31</title>
<path fill="none" stroke="midnightblue" d="M1086.7,-108C1070,-108 1051.11,-108 1033.31,-108"/>
<polygon fill="midnightblue" stroke="midnightblue" points="1086.79,-111.5 1096.79,-108 1086.79,-104.5 1086.79,-111.5"/>
</g>
<!-- Node32&#45;&gt;Node4 -->
<g id="edge38" class="edge">
<title>Node32&#45;&gt;Node4</title>
<path fill="none" stroke="midnightblue" d="M1058.56,-151.82C993.31,-156.66 902.54,-163.39 847.72,-167.46"/>
<polygon fill="midnightblue" stroke="midnightblue" points="1059.09,-155.29 1068.8,-151.06 1058.57,-148.31 1059.09,-155.29"/>
</g>
</g>
</svg>
