<?xml version="1.0" encoding="UTF-8" standalone="no"?>
<!DOCTYPE svg PUBLIC "-//W3C//DTD SVG 1.1//EN"
 "http://www.w3.org/Graphics/SVG/1.1/DTD/svg11.dtd">
<!-- Generated by graphviz version 2.44.1 (20200629.0846)
 -->
<!-- Title: Main Loop Pages: 1 -->
<svg width="348pt" height="86pt"
 viewBox="0.00 0.00 348.00 86.00" xmlns="http://www.w3.org/2000/svg" xmlns:xlink="http://www.w3.org/1999/xlink">
<g id="graph0" class="graph" transform="scale(1 1) rotate(0) translate(4 82)">
<title>Main Loop</title>
<!-- Node3 -->
<g id="node1" class="node">
<title>Node3</title>
<g id="a_node1"><a xlink:href="a00353.html" target="_top" xlink:title="Low priority task execution The execution of the sequence of low priority tasks is called from the ma...">
<polygon fill="none" stroke="black" points="339,-78 247,-78 247,-48 339,-48 339,-78"/>
<text text-anchor="start" x="255" y="-66" font-family="Helvetica,sans-Serif" font-size="10.00">Low&#45;Priority Task</text>
<text text-anchor="middle" x="293" y="-55" font-family="Helvetica,sans-Serif" font-size="10.00"> Execution</text>
</a>
</g>
</g>
<!-- Node1 -->
<g id="node2" class="node">
<title>Node1</title>
<g id="a_node2"><a xlink:title="Main Loop.">
<polygon fill="#bfbfbf" stroke="black" points="210,-48.5 148,-48.5 148,-29.5 210,-29.5 210,-48.5"/>
<text text-anchor="middle" x="179" y="-36.5" font-family="Helvetica,sans-Serif" font-size="10.00">Main Loop</text>
</a>
</g>
</g>
<!-- Node1&#45;&gt;Node3 -->
<g id="edge2" class="edge">
<title>Node1&#45;&gt;Node3</title>
<path fill="none" stroke="black" d="M219.9,-47.55C228.59,-49.41 237.84,-51.4 246.73,-53.3"/>
<polygon fill="black" stroke="black" points="220.53,-44.1 210.01,-45.43 219.06,-50.95 220.53,-44.1"/>
</g>
<!-- Node4 -->
<g id="node4" class="node">
<title>Node4</title>
<g id="a_node4"><a xlink:href="a00354.html" target="_top" xlink:title="High priority task execution.">
<polygon fill="none" stroke="black" points="340,-30 246,-30 246,0 340,0 340,-30"/>
<text text-anchor="start" x="254" y="-18" font-family="Helvetica,sans-Serif" font-size="10.00">High&#45;Priority Task</text>
<text text-anchor="middle" x="293" y="-7" font-family="Helvetica,sans-Serif" font-size="10.00"> Execution</text>
</a>
</g>
</g>
<!-- Node1&#45;&gt;Node4 -->
<g id="edge3" class="edge">
<title>Node1&#45;&gt;Node4</title>
<path fill="none" stroke="black" d="M219.94,-30.44C228.34,-28.64 237.27,-26.73 245.87,-24.88"/>
<polygon fill="black" stroke="black" points="219.06,-27.05 210.01,-32.57 220.53,-33.9 219.06,-27.05"/>
</g>
<!-- Node2 -->
<g id="node3" class="node">
<title>Node2</title>
<g id="a_node3"><a xlink:href="a00350.html" target="_top" xlink:title="Firmware Flowchart.">
<polygon fill="none" stroke="black" points="112,-48.5 0,-48.5 0,-29.5 112,-29.5 112,-48.5"/>
<text text-anchor="middle" x="56" y="-36.5" font-family="Helvetica,sans-Serif" font-size="10.00">Firmware Architecture</text>
</a>
</g>
</g>
<!-- Node2&#45;&gt;Node1 -->
<g id="edge1" class="edge">
<title>Node2&#45;&gt;Node1</title>
<path fill="none" stroke="black" d="M122.23,-39C131.12,-39 139.86,-39 147.7,-39"/>
<polygon fill="black" stroke="black" points="122.19,-35.5 112.19,-39 122.19,-42.5 122.19,-35.5"/>
</g>
</g>
</svg>
