<?xml version="1.0" encoding="UTF-8" standalone="no"?>
<!DOCTYPE svg PUBLIC "-//W3C//DTD SVG 1.1//EN"
 "http://www.w3.org/Graphics/SVG/1.1/DTD/svg11.dtd">
<!-- Generated by graphviz version 2.44.1 (20200629.0846)
 -->
<!-- Title: Peripheral Register Abstraction Layer (PRAL) Library Pages: 1 -->
<svg width="408pt" height="374pt"
 viewBox="0.00 0.00 408.00 374.00" xmlns="http://www.w3.org/2000/svg" xmlns:xlink="http://www.w3.org/1999/xlink">
<g id="graph0" class="graph" transform="scale(1 1) rotate(0) translate(4 370)">
<title>Peripheral Register Abstraction Layer (PRAL) Library</title>
<!-- Node6 -->
<g id="node1" class="node">
<title>Node6</title>
<g id="a_node1"><a xlink:href="a00375.html" target="_top" xlink:title="General Purpose Input/Output Special Function Register Abstraction Driver.">
<polygon fill="none" stroke="black" points="392,-366 279,-366 279,-336 392,-336 392,-366"/>
<text text-anchor="start" x="287" y="-354" font-family="Helvetica,sans-Serif" font-size="10.00">General Purpose Input</text>
<text text-anchor="middle" x="335.5" y="-343" font-family="Helvetica,sans-Serif" font-size="10.00">/Output (GPIO)</text>
</a>
</g>
</g>
<!-- Node8 -->
<g id="node2" class="node">
<title>Node8</title>
<g id="a_node2"><a xlink:href="a00377.html" target="_top" xlink:title="Oscillator Module Special Function Register Abstraction Driver.">
<polygon fill="none" stroke="black" points="381.5,-318 289.5,-318 289.5,-288 381.5,-288 381.5,-318"/>
<text text-anchor="start" x="297.5" y="-306" font-family="Helvetica,sans-Serif" font-size="10.00">Oscillator Module</text>
<text text-anchor="middle" x="335.5" y="-295" font-family="Helvetica,sans-Serif" font-size="10.00"> (OSC)</text>
</a>
</g>
</g>
<!-- Node4 -->
<g id="node3" class="node">
<title>Node4</title>
<g id="a_node3"><a xlink:href="a00373.html" target="_top" xlink:title="Digital&#45;To&#45;Analog Converter Peripheral Module Special Function Register Abstraction Driver.">
<polygon fill="none" stroke="black" points="397.5,-270 273.5,-270 273.5,-240 397.5,-240 397.5,-270"/>
<text text-anchor="start" x="281.5" y="-258" font-family="Helvetica,sans-Serif" font-size="10.00">Digital&#45;To&#45;Analog</text>
<text text-anchor="middle" x="335.5" y="-247" font-family="Helvetica,sans-Serif" font-size="10.00"> Converter Module (DAC)</text>
</a>
</g>
</g>
<!-- Node3 -->
<g id="node4" class="node">
<title>Node3</title>
<g id="a_node4"><a xlink:href="a00372.html" target="_top" xlink:title="Capture Compare Peripheral Module Special Function Register Abstraction Driver.">
<polygon fill="none" stroke="black" points="399,-222 272,-222 272,-192 399,-192 399,-222"/>
<text text-anchor="start" x="280" y="-210" font-family="Helvetica,sans-Serif" font-size="10.00">Capture Compare Module</text>
<text text-anchor="middle" x="335.5" y="-199" font-family="Helvetica,sans-Serif" font-size="10.00"> (SCCP/MCCP)</text>
</a>
</g>
</g>
<!-- Node5 -->
<g id="node5" class="node">
<title>Node5</title>
<g id="a_node5"><a xlink:href="a00374.html" target="_top" xlink:title="Digital Signal Processor Special Function Register Abstraction Driver.">
<polygon fill="none" stroke="black" points="397.5,-174 273.5,-174 273.5,-144 397.5,-144 397.5,-174"/>
<text text-anchor="start" x="281.5" y="-162" font-family="Helvetica,sans-Serif" font-size="10.00">Digital Signal Processor</text>
<text text-anchor="middle" x="335.5" y="-151" font-family="Helvetica,sans-Serif" font-size="10.00"> Converter Module (DSP)</text>
</a>
</g>
</g>
<!-- Node2 -->
<g id="node6" class="node">
<title>Node2</title>
<g id="a_node6"><a xlink:href="a00370.html" target="_top" xlink:title="Generic Library Driver Layer.">
<polygon fill="none" stroke="black" points="100,-192.5 0,-192.5 0,-173.5 100,-173.5 100,-192.5"/>
<text text-anchor="middle" x="50" y="-180.5" font-family="Helvetica,sans-Serif" font-size="10.00">Library Driver Layer</text>
</a>
</g>
</g>
<!-- Node1 -->
<g id="node10" class="node">
<title>Node1</title>
<g id="a_node10"><a xlink:title=" ">
<polygon fill="#bfbfbf" stroke="black" points="235,-203.5 136,-203.5 136,-162.5 235,-162.5 235,-203.5"/>
<text text-anchor="start" x="144" y="-191.5" font-family="Helvetica,sans-Serif" font-size="10.00">Peripheral Register</text>
<text text-anchor="start" x="144" y="-180.5" font-family="Helvetica,sans-Serif" font-size="10.00"> Abstraction Layer </text>
<text text-anchor="middle" x="185.5" y="-169.5" font-family="Helvetica,sans-Serif" font-size="10.00">(PRAL) Library</text>
</a>
</g>
</g>
<!-- Node2&#45;&gt;Node1 -->
<g id="edge1" class="edge">
<title>Node2&#45;&gt;Node1</title>
<path fill="none" stroke="black" d="M110.53,-183C118.99,-183 127.6,-183 135.82,-183"/>
<polygon fill="black" stroke="black" points="110.33,-179.5 100.33,-183 110.33,-186.5 110.33,-179.5"/>
</g>
<!-- Node7 -->
<g id="node7" class="node">
<title>Node7</title>
<g id="a_node7"><a xlink:href="a00376.html" target="_top" xlink:title="Operational Amplifier Peripheral Module Special Function Register Abstraction Driver.">
<polygon fill="none" stroke="black" points="389,-126 282,-126 282,-96 389,-96 389,-126"/>
<text text-anchor="start" x="290" y="-114" font-family="Helvetica,sans-Serif" font-size="10.00">Operational Amplifier</text>
<text text-anchor="middle" x="335.5" y="-103" font-family="Helvetica,sans-Serif" font-size="10.00"> Module (AMP)</text>
</a>
</g>
</g>
<!-- Node9 -->
<g id="node8" class="node">
<title>Node9</title>
<g id="a_node8"><a xlink:href="a00378.html" target="_top" xlink:title="Peripheral Pin Select Module Special Function Register Abstraction Driver.">
<polygon fill="none" stroke="black" points="389.5,-78 281.5,-78 281.5,-48 389.5,-48 389.5,-78"/>
<text text-anchor="start" x="289.5" y="-66" font-family="Helvetica,sans-Serif" font-size="10.00">Peripheral Pin Select</text>
<text text-anchor="middle" x="335.5" y="-55" font-family="Helvetica,sans-Serif" font-size="10.00"> Module (PPS)</text>
</a>
</g>
</g>
<!-- Node10 -->
<g id="node9" class="node">
<title>Node10</title>
<g id="a_node9"><a xlink:href="a00379.html" target="_top" xlink:title="High&#45;Speed PWM Module Special Function Register Abstraction Driver.">
<polygon fill="none" stroke="black" points="400,-30 271,-30 271,0 400,0 400,-30"/>
<text text-anchor="start" x="279" y="-18" font-family="Helvetica,sans-Serif" font-size="10.00">High&#45;Speed PWM Module</text>
<text text-anchor="middle" x="335.5" y="-7" font-family="Helvetica,sans-Serif" font-size="10.00"> (HSPWM)</text>
</a>
</g>
</g>
<!-- Node1&#45;&gt;Node6 -->
<g id="edge5" class="edge">
<title>Node1&#45;&gt;Node6</title>
<path fill="none" stroke="black" d="M197.1,-213C209.93,-245.29 234.46,-296.17 271,-327 275.05,-330.42 279.64,-333.38 284.46,-335.93"/>
<polygon fill="black" stroke="black" points="200.35,-211.69 193.49,-203.61 193.81,-214.2 200.35,-211.69"/>
</g>
<!-- Node1&#45;&gt;Node8 -->
<g id="edge7" class="edge">
<title>Node1&#45;&gt;Node8</title>
<path fill="none" stroke="black" d="M206.01,-211.93C221.5,-233 244.84,-260.9 271,-279 276.62,-282.89 282.96,-286.25 289.39,-289.12"/>
<polygon fill="black" stroke="black" points="208.74,-209.73 200.07,-203.65 203.06,-213.82 208.74,-209.73"/>
</g>
<!-- Node1&#45;&gt;Node4 -->
<g id="edge3" class="edge">
<title>Node1&#45;&gt;Node4</title>
<path fill="none" stroke="black" d="M228.89,-208.78C242.15,-216.38 256.98,-224.42 271,-231 277.61,-234.11 284.75,-237.11 291.76,-239.89"/>
<polygon fill="black" stroke="black" points="230.39,-205.61 219.99,-203.61 226.88,-211.66 230.39,-205.61"/>
</g>
<!-- Node1&#45;&gt;Node3 -->
<g id="edge2" class="edge">
<title>Node1&#45;&gt;Node3</title>
<path fill="none" stroke="black" d="M245.44,-192.56C254.16,-193.97 263.17,-195.43 271.96,-196.86"/>
<polygon fill="black" stroke="black" points="245.8,-189.07 235.37,-190.93 244.68,-195.98 245.8,-189.07"/>
</g>
<!-- Node1&#45;&gt;Node5 -->
<g id="edge4" class="edge">
<title>Node1&#45;&gt;Node5</title>
<path fill="none" stroke="black" d="M245.51,-173.43C254.65,-171.95 264.1,-170.42 273.27,-168.93"/>
<polygon fill="black" stroke="black" points="244.68,-170.02 235.37,-175.07 245.8,-176.93 244.68,-170.02"/>
</g>
<!-- Node1&#45;&gt;Node7 -->
<g id="edge6" class="edge">
<title>Node1&#45;&gt;Node7</title>
<path fill="none" stroke="black" d="M228.89,-157.22C242.15,-149.62 256.98,-141.58 271,-135 277.61,-131.89 284.75,-128.89 291.76,-126.11"/>
<polygon fill="black" stroke="black" points="226.88,-154.34 219.99,-162.39 230.39,-160.39 226.88,-154.34"/>
</g>
<!-- Node1&#45;&gt;Node9 -->
<g id="edge8" class="edge">
<title>Node1&#45;&gt;Node9</title>
<path fill="none" stroke="black" d="M206.01,-154.07C221.5,-133 244.84,-105.1 271,-87 275.85,-83.65 281.22,-80.69 286.73,-78.1"/>
<polygon fill="black" stroke="black" points="203.06,-152.18 200.07,-162.35 208.74,-156.27 203.06,-152.18"/>
</g>
<!-- Node1&#45;&gt;Node10 -->
<g id="edge9" class="edge">
<title>Node1&#45;&gt;Node10</title>
<path fill="none" stroke="black" d="M197.1,-153C209.93,-120.71 234.46,-69.83 271,-39 275.05,-35.58 279.64,-32.62 284.46,-30.07"/>
<polygon fill="black" stroke="black" points="193.81,-151.8 193.49,-162.39 200.35,-154.31 193.81,-151.8"/>
</g>
</g>
</svg>
