<?xml version="1.0" encoding="UTF-8" standalone="no"?>
<!DOCTYPE svg PUBLIC "-//W3C//DTD SVG 1.1//EN"
 "http://www.w3.org/Graphics/SVG/1.1/DTD/svg11.dtd">
<!-- Generated by graphviz version 2.44.1 (20200629.0846)
 -->
<!-- Title: Initializing Hardware&#45;Specific Chip Resources Pages: 1 -->
<svg width="427pt" height="124pt"
 viewBox="0.00 0.00 427.00 123.50" xmlns="http://www.w3.org/2000/svg" xmlns:xlink="http://www.w3.org/1999/xlink">
<g id="graph0" class="graph" transform="scale(1 1) rotate(0) translate(4 119.5)">
<title>Initializing Hardware&#45;Specific Chip Resources</title>
<!-- Node3 -->
<g id="node1" class="node">
<title>Node3</title>
<g id="a_node1"><a xlink:href="a00361.html" target="_top" xlink:title=" ">
<polygon fill="none" stroke="black" points="419,-115.5 282,-115.5 282,-96.5 419,-96.5 419,-115.5"/>
<text text-anchor="middle" x="350.5" y="-103.5" font-family="Helvetica,sans-Serif" font-size="10.00">User Peripheral Initialization</text>
</a>
</g>
</g>
<!-- Node4 -->
<g id="node2" class="node">
<title>Node4</title>
<g id="a_node2"><a xlink:href="a00362.html" target="_top" xlink:title=" ">
<polygon fill="none" stroke="black" points="394.5,-78 306.5,-78 306.5,-48 394.5,-48 394.5,-78"/>
<text text-anchor="start" x="314.5" y="-66" font-family="Helvetica,sans-Serif" font-size="10.00">Digital&#45;to&#45;Analog</text>
<text text-anchor="middle" x="350.5" y="-55" font-family="Helvetica,sans-Serif" font-size="10.00"> Converter</text>
</a>
</g>
</g>
<!-- Node1 -->
<g id="node3" class="node">
<title>Node1</title>
<g id="a_node3"><a xlink:title=" ">
<polygon fill="#bfbfbf" stroke="black" points="246,-78 120,-78 120,-48 246,-48 246,-78"/>
<text text-anchor="start" x="128" y="-66" font-family="Helvetica,sans-Serif" font-size="10.00">Initializing Hardware</text>
<text text-anchor="middle" x="183" y="-55" font-family="Helvetica,sans-Serif" font-size="10.00">&#45;Specific Chip Resources</text>
</a>
</g>
</g>
<!-- Node1&#45;&gt;Node3 -->
<g id="edge2" class="edge">
<title>Node1&#45;&gt;Node3</title>
<path fill="none" stroke="black" d="M251.66,-80.58C272.5,-85.99 294.65,-91.75 312.6,-96.41"/>
<polygon fill="black" stroke="black" points="252.44,-77.17 241.88,-78.04 250.68,-83.94 252.44,-77.17"/>
</g>
<!-- Node1&#45;&gt;Node4 -->
<g id="edge3" class="edge">
<title>Node1&#45;&gt;Node4</title>
<path fill="none" stroke="black" d="M256.1,-63C273.25,-63 291.02,-63 306.4,-63"/>
<polygon fill="black" stroke="black" points="256.1,-59.5 246.1,-63 256.1,-66.5 256.1,-59.5"/>
</g>
<!-- Node5 -->
<g id="node4" class="node">
<title>Node5</title>
<g id="a_node4"><a xlink:href="a00363.html" target="_top" xlink:title=" ">
<polygon fill="none" stroke="black" points="404,-30 297,-30 297,0 404,0 404,-30"/>
<text text-anchor="start" x="305" y="-18" font-family="Helvetica,sans-Serif" font-size="10.00">Operational Amplifier</text>
<text text-anchor="middle" x="350.5" y="-7" font-family="Helvetica,sans-Serif" font-size="10.00"> Configuration</text>
</a>
</g>
</g>
<!-- Node1&#45;&gt;Node5 -->
<g id="edge4" class="edge">
<title>Node1&#45;&gt;Node5</title>
<path fill="none" stroke="black" d="M245.81,-45.07C262.92,-40.11 281.3,-34.78 297.77,-30"/>
<polygon fill="black" stroke="black" points="244.54,-41.8 235.91,-47.94 246.49,-48.52 244.54,-41.8"/>
</g>
<!-- Node2 -->
<g id="node5" class="node">
<title>Node2</title>
<g id="a_node5"><a xlink:href="a00351.html" target="_top" xlink:title="Device Start Up.">
<polygon fill="none" stroke="black" points="84,-72.5 0,-72.5 0,-53.5 84,-53.5 84,-72.5"/>
<text text-anchor="middle" x="42" y="-60.5" font-family="Helvetica,sans-Serif" font-size="10.00">Device Start Up</text>
</a>
</g>
</g>
<!-- Node2&#45;&gt;Node1 -->
<g id="edge1" class="edge">
<title>Node2&#45;&gt;Node1</title>
<path fill="none" stroke="black" d="M94.58,-63C102.86,-63 111.5,-63 119.99,-63"/>
<polygon fill="black" stroke="black" points="94.33,-59.5 84.33,-63 94.33,-66.5 94.33,-59.5"/>
</g>
</g>
</svg>
