<?xml version="1.0" encoding="UTF-8" standalone="no"?>
<!DOCTYPE svg PUBLIC "-//W3C//DTD SVG 1.1//EN"
 "http://www.w3.org/Graphics/SVG/1.1/DTD/svg11.dtd">
<!-- Generated by graphviz version 2.44.1 (20200629.0846)
 -->
<!-- Title: sysGpio_Initialize Pages: 1 -->
<svg width="309pt" height="28pt"
 viewBox="0.00 0.00 309.00 28.00" xmlns="http://www.w3.org/2000/svg" xmlns:xlink="http://www.w3.org/1999/xlink">
<g id="graph0" class="graph" transform="scale(1 1) rotate(0) translate(4 24)">
<title>sysGpio_Initialize</title>
<!-- Node1 -->
<g id="node1" class="node">
<title>Node1</title>
<g id="a_node1"><a xlink:title="Resets the device input/output pins to digital inputs.">
<polygon fill="#bfbfbf" stroke="black" points="208,-0.5 208,-19.5 301,-19.5 301,-0.5 208,-0.5"/>
<text text-anchor="middle" x="254.5" y="-7.5" font-family="Helvetica,sans-Serif" font-size="10.00">sysGpio_Initialize</text>
</a>
</g>
</g>
<!-- Node2 -->
<g id="node2" class="node">
<title>Node2</title>
<g id="a_node2"><a xlink:href="a00356.html#ga12ce46460ff0657fc879f5b23ed8ccb1" target="_top" xlink:title="Initializes essential chip resources.">
<polygon fill="none" stroke="black" points="74,-0.5 74,-19.5 172,-19.5 172,-0.5 74,-0.5"/>
<text text-anchor="middle" x="123" y="-7.5" font-family="Helvetica,sans-Serif" font-size="10.00">SYSTEM_Initialize</text>
</a>
</g>
</g>
<!-- Node1&#45;&gt;Node2 -->
<g id="edge1" class="edge">
<title>Node1&#45;&gt;Node2</title>
<path fill="none" stroke="midnightblue" d="M197.68,-10C189.24,-10 180.59,-10 172.32,-10"/>
<polygon fill="midnightblue" stroke="midnightblue" points="197.84,-13.5 207.84,-10 197.84,-6.5 197.84,-13.5"/>
</g>
<!-- Node3 -->
<g id="node3" class="node">
<title>Node3</title>
<g id="a_node3"><a xlink:href="a00350.html#ga840291bc02cba5474a4cb46a9b9566fe" target="_top" xlink:title="Application main function executed after device comes out of RESET.">
<polygon fill="none" stroke="black" points="0,-0.5 0,-19.5 38,-19.5 38,-0.5 0,-0.5"/>
<text text-anchor="middle" x="19" y="-7.5" font-family="Helvetica,sans-Serif" font-size="10.00">main</text>
</a>
</g>
</g>
<!-- Node2&#45;&gt;Node3 -->
<g id="edge2" class="edge">
<title>Node2&#45;&gt;Node3</title>
<path fill="none" stroke="midnightblue" d="M63.78,-10C54.44,-10 45.43,-10 38.04,-10"/>
<polygon fill="midnightblue" stroke="midnightblue" points="63.99,-13.5 73.99,-10 63.99,-6.5 63.99,-13.5"/>
</g>
</g>
</svg>
