<?xml version="1.0" encoding="UTF-8" standalone="no"?>
<!DOCTYPE svg PUBLIC "-//W3C//DTD SVG 1.1//EN"
 "http://www.w3.org/Graphics/SVG/1.1/DTD/svg11.dtd">
<!-- Generated by graphviz version 2.44.1 (20200629.0846)
 -->
<!-- Title: p33c_PwmGenerator_GetHandle Pages: 1 -->
<svg width="1021pt" height="253pt"
 viewBox="0.00 0.00 1021.00 253.00" xmlns="http://www.w3.org/2000/svg" xmlns:xlink="http://www.w3.org/1999/xlink">
<g id="graph0" class="graph" transform="scale(1 1) rotate(0) translate(4 249)">
<title>p33c_PwmGenerator_GetHandle</title>
<!-- Node1 -->
<g id="node1" class="node">
<title>Node1</title>
<g id="a_node1"><a xlink:title="Returns the PWM generator index.">
<polygon fill="#bfbfbf" stroke="black" points="906,-102.5 906,-132.5 1013,-132.5 1013,-102.5 906,-102.5"/>
<text text-anchor="start" x="914" y="-120.5" font-family="Helvetica,sans-Serif" font-size="10.00">p33c_PwmGenerator</text>
<text text-anchor="middle" x="959.5" y="-109.5" font-family="Helvetica,sans-Serif" font-size="10.00">_GetHandle</text>
</a>
</g>
</g>
<!-- Node2 -->
<g id="node2" class="node">
<title>Node2</title>
<g id="a_node2"><a xlink:href="a00532.html#ga45a54def97cc67eb8d36e22a3867d95f" target="_top" xlink:title="This function initializes the output pins for the PWM output and the default buck PWM settings.">
<polygon fill="none" stroke="black" points="732,-215 732,-234 870,-234 870,-215 732,-215"/>
<text text-anchor="middle" x="801" y="-222" font-family="Helvetica,sans-Serif" font-size="10.00">buckPWM_ChannelInitialize</text>
</a>
</g>
</g>
<!-- Node1&#45;&gt;Node2 -->
<g id="edge1" class="edge">
<title>Node1&#45;&gt;Node2</title>
<path fill="none" stroke="midnightblue" d="M938.86,-140.6C922.15,-158.99 896.69,-184.27 870,-200.5 860.16,-206.48 848.61,-211.27 837.85,-214.94"/>
<polygon fill="midnightblue" stroke="midnightblue" points="941.86,-142.49 945.89,-132.69 936.63,-137.84 941.86,-142.49"/>
</g>
<!-- Node8 -->
<g id="node8" class="node">
<title>Node8</title>
<g id="a_node8"><a xlink:href="a00532.html#ga2d46a45c20d84e1a7c6cfd5743b68c47" target="_top" xlink:title="This function resumes the buck PWM operation.">
<polygon fill="none" stroke="black" points="749,-172 749,-191 853,-191 853,-172 749,-172"/>
<text text-anchor="middle" x="801" y="-179" font-family="Helvetica,sans-Serif" font-size="10.00">buckPWM_Resume</text>
</a>
</g>
</g>
<!-- Node1&#45;&gt;Node8 -->
<g id="edge7" class="edge">
<title>Node1&#45;&gt;Node8</title>
<path fill="none" stroke="midnightblue" d="M919.03,-136.89C903.86,-144.05 886.28,-152 870,-158.5 857.85,-163.35 844.22,-168.1 832.38,-172"/>
<polygon fill="midnightblue" stroke="midnightblue" points="920.61,-140.01 928.14,-132.55 917.6,-133.7 920.61,-140.01"/>
</g>
<!-- Node10 -->
<g id="node10" class="node">
<title>Node10</title>
<g id="a_node10"><a xlink:href="a00532.html#gac63073d04bc35c0cce5df47ea0d33165" target="_top" xlink:title="This function enables the buck PWM operation.">
<polygon fill="none" stroke="black" points="756.5,-130 756.5,-149 845.5,-149 845.5,-130 756.5,-130"/>
<text text-anchor="middle" x="801" y="-137" font-family="Helvetica,sans-Serif" font-size="10.00">buckPWM_Start</text>
</a>
</g>
</g>
<!-- Node1&#45;&gt;Node10 -->
<g id="edge9" class="edge">
<title>Node1&#45;&gt;Node10</title>
<path fill="none" stroke="midnightblue" d="M895.65,-126.34C878.85,-128.7 861.06,-131.2 845.55,-133.38"/>
<polygon fill="midnightblue" stroke="midnightblue" points="896.54,-129.74 905.95,-124.89 895.56,-122.81 896.54,-129.74"/>
</g>
<!-- Node13 -->
<g id="node13" class="node">
<title>Node13</title>
<g id="a_node13"><a xlink:href="a00532.html#gab2905ddac9f94bf8bfa203444c0d3691" target="_top" xlink:title="This function stops the buck PWM output.">
<polygon fill="none" stroke="black" points="757,-89 757,-108 845,-108 845,-89 757,-89"/>
<text text-anchor="middle" x="801" y="-96" font-family="Helvetica,sans-Serif" font-size="10.00">buckPWM_Stop</text>
</a>
</g>
</g>
<!-- Node1&#45;&gt;Node13 -->
<g id="edge13" class="edge">
<title>Node1&#45;&gt;Node13</title>
<path fill="none" stroke="midnightblue" d="M895.55,-109.86C878.6,-107.8 860.64,-105.62 845.04,-103.73"/>
<polygon fill="midnightblue" stroke="midnightblue" points="895.6,-113.39 905.95,-111.12 896.45,-106.44 895.6,-113.39"/>
</g>
<!-- Node16 -->
<g id="node16" class="node">
<title>Node16</title>
<g id="a_node16"><a xlink:href="a00532.html#gae63dbb1465ca458b8b7f6733a30f7d0b" target="_top" xlink:title="This function disables the PWM generator IOs.">
<polygon fill="none" stroke="black" points="748,-50 748,-69 854,-69 854,-50 748,-50"/>
<text text-anchor="middle" x="801" y="-57" font-family="Helvetica,sans-Serif" font-size="10.00">buckPWM_Suspend</text>
</a>
</g>
</g>
<!-- Node1&#45;&gt;Node16 -->
<g id="edge16" class="edge">
<title>Node1&#45;&gt;Node16</title>
<path fill="none" stroke="midnightblue" d="M916.79,-98.38C902.15,-91.99 885.49,-85.08 870,-79.5 859.58,-75.75 848.08,-72.16 837.55,-69.09"/>
<polygon fill="midnightblue" stroke="midnightblue" points="915.53,-101.64 926.09,-102.48 918.35,-95.24 915.53,-101.64"/>
</g>
<!-- Node19 -->
<g id="node19" class="node">
<title>Node19</title>
<g id="a_node19"><a xlink:href="a00387.html#ga7f779276e0cf4c974267fdbb7c1ea86c" target="_top" xlink:title="Initializes a given PWM generator by resetting all its registers to default.">
<polygon fill="none" stroke="black" points="747.5,-0.5 747.5,-30.5 854.5,-30.5 854.5,-0.5 747.5,-0.5"/>
<text text-anchor="start" x="755.5" y="-18.5" font-family="Helvetica,sans-Serif" font-size="10.00">p33c_PwmGenerator</text>
<text text-anchor="middle" x="801" y="-7.5" font-family="Helvetica,sans-Serif" font-size="10.00">_Initialize</text>
</a>
</g>
</g>
<!-- Node1&#45;&gt;Node19 -->
<g id="edge19" class="edge">
<title>Node1&#45;&gt;Node19</title>
<path fill="none" stroke="midnightblue" d="M937.29,-95.04C920.37,-78.18 895.39,-55.52 870,-40.5 863.72,-36.79 856.8,-33.47 849.84,-30.57"/>
<polygon fill="midnightblue" stroke="midnightblue" points="934.95,-97.66 944.46,-102.33 939.94,-92.75 934.95,-97.66"/>
</g>
<!-- Node3 -->
<g id="node3" class="node">
<title>Node3</title>
<g id="a_node3"><a xlink:href="a00509.html#gaf3c64772d6dfd473d6924fb8893bd180" target="_top" xlink:title="This function initializes all peripheral modules and their instances used by the power controller.">
<polygon fill="none" stroke="black" points="586.5,-214.5 586.5,-244.5 683.5,-244.5 683.5,-214.5 586.5,-214.5"/>
<text text-anchor="start" x="594.5" y="-232.5" font-family="Helvetica,sans-Serif" font-size="10.00">drv_BuckConverter</text>
<text text-anchor="middle" x="635" y="-221.5" font-family="Helvetica,sans-Serif" font-size="10.00">_Initialize</text>
</a>
</g>
</g>
<!-- Node2&#45;&gt;Node3 -->
<g id="edge2" class="edge">
<title>Node2&#45;&gt;Node3</title>
<path fill="none" stroke="midnightblue" d="M721.55,-226.89C708.62,-227.29 695.57,-227.68 683.69,-228.05"/>
<polygon fill="midnightblue" stroke="midnightblue" points="721.99,-230.38 731.87,-226.58 721.77,-223.38 721.99,-230.38"/>
</g>
<!-- Node4 -->
<g id="node4" class="node">
<title>Node4</title>
<g id="a_node4"><a xlink:href="a00505.html#ga0b26acfec74d1804384b4ba1a3cffab4" target="_top" xlink:title="This function is used to load peripheral configuration templates from the power controller device dri...">
<polygon fill="none" stroke="black" points="395,-212.5 395,-242.5 538,-242.5 538,-212.5 395,-212.5"/>
<text text-anchor="start" x="403" y="-230.5" font-family="Helvetica,sans-Serif" font-size="10.00">appPowerSupply_Peripherals</text>
<text text-anchor="middle" x="466.5" y="-219.5" font-family="Helvetica,sans-Serif" font-size="10.00">Initialize</text>
</a>
</g>
</g>
<!-- Node3&#45;&gt;Node4 -->
<g id="edge3" class="edge">
<title>Node3&#45;&gt;Node4</title>
<path fill="none" stroke="midnightblue" d="M576.21,-228.81C563.94,-228.66 550.86,-228.5 538.18,-228.35"/>
<polygon fill="midnightblue" stroke="midnightblue" points="576.25,-232.31 586.29,-228.93 576.33,-225.31 576.25,-232.31"/>
</g>
<!-- Node5 -->
<g id="node5" class="node">
<title>Node5</title>
<g id="a_node5"><a xlink:href="a00502.html#ga7a4cf6371d09457539f96a74b2809ca0" target="_top" xlink:title="Calls the application layer power controller initialization.">
<polygon fill="none" stroke="black" points="229,-195 229,-214 359,-214 359,-195 229,-195"/>
<text text-anchor="middle" x="294" y="-202" font-family="Helvetica,sans-Serif" font-size="10.00">appPowerSupply_Initialize</text>
</a>
</g>
</g>
<!-- Node4&#45;&gt;Node5 -->
<g id="edge4" class="edge">
<title>Node4&#45;&gt;Node5</title>
<path fill="none" stroke="midnightblue" d="M384.65,-216.59C376.06,-215.44 367.42,-214.27 359.07,-213.14"/>
<polygon fill="midnightblue" stroke="midnightblue" points="384.3,-220.08 394.67,-217.95 385.23,-213.14 384.3,-220.08"/>
</g>
<!-- Node6 -->
<g id="node6" class="node">
<title>Node6</title>
<g id="a_node6"><a xlink:href="a00366.html#ga2be64f5f0b9a2c0c6713f5a69d793e05" target="_top" xlink:title="Initializes the user&#45;defined tasks.">
<polygon fill="none" stroke="black" points="74,-195 74,-214 193,-214 193,-195 74,-195"/>
<text text-anchor="middle" x="133.5" y="-202" font-family="Helvetica,sans-Serif" font-size="10.00">sysUserTasks_Initialize</text>
</a>
</g>
</g>
<!-- Node5&#45;&gt;Node6 -->
<g id="edge5" class="edge">
<title>Node5&#45;&gt;Node6</title>
<path fill="none" stroke="midnightblue" d="M218.9,-204.5C210.25,-204.5 201.52,-204.5 193.12,-204.5"/>
<polygon fill="midnightblue" stroke="midnightblue" points="218.99,-208 228.99,-204.5 218.99,-201 218.99,-208"/>
</g>
<!-- Node7 -->
<g id="node7" class="node">
<title>Node7</title>
<g id="a_node7"><a xlink:href="a00350.html#ga840291bc02cba5474a4cb46a9b9566fe" target="_top" xlink:title="Application main function executed after device comes out of RESET.">
<polygon fill="none" stroke="black" points="0,-195 0,-214 38,-214 38,-195 0,-195"/>
<text text-anchor="middle" x="19" y="-202" font-family="Helvetica,sans-Serif" font-size="10.00">main</text>
</a>
</g>
</g>
<!-- Node6&#45;&gt;Node7 -->
<g id="edge6" class="edge">
<title>Node6&#45;&gt;Node7</title>
<path fill="none" stroke="midnightblue" d="M63.65,-204.5C54.29,-204.5 45.43,-204.5 38.16,-204.5"/>
<polygon fill="midnightblue" stroke="midnightblue" points="63.94,-208 73.94,-204.5 63.94,-201 63.94,-208"/>
</g>
<!-- Node9 -->
<g id="node9" class="node">
<title>Node9</title>
<g id="a_node9"><a xlink:href="a00520.html#ga588a594f3e5f4a20cf955b9445887be1" target="_top" xlink:title="This function ramps up the output voltage to its nominal regulation point.">
<polygon fill="none" stroke="black" points="581.5,-176 581.5,-195 688.5,-195 688.5,-176 581.5,-176"/>
<text text-anchor="middle" x="635" y="-183" font-family="Helvetica,sans-Serif" font-size="10.00">SubState_VRampUp</text>
</a>
</g>
</g>
<!-- Node8&#45;&gt;Node9 -->
<g id="edge8" class="edge">
<title>Node8&#45;&gt;Node9</title>
<path fill="none" stroke="midnightblue" d="M738.52,-183C722.12,-183.4 704.55,-183.83 688.67,-184.22"/>
<polygon fill="midnightblue" stroke="midnightblue" points="738.65,-186.5 748.56,-182.75 738.48,-179.5 738.65,-186.5"/>
</g>
<!-- Node11 -->
<g id="node11" class="node">
<title>Node11</title>
<g id="a_node11"><a xlink:href="a00509.html#ga86289c82938655142075e84ac90aa603" target="_top" xlink:title="This function starts the buck converter.">
<polygon fill="none" stroke="black" points="586.5,-126.5 586.5,-156.5 683.5,-156.5 683.5,-126.5 586.5,-126.5"/>
<text text-anchor="start" x="594.5" y="-144.5" font-family="Helvetica,sans-Serif" font-size="10.00">drv_BuckConverter</text>
<text text-anchor="middle" x="635" y="-133.5" font-family="Helvetica,sans-Serif" font-size="10.00">_Start</text>
</a>
</g>
</g>
<!-- Node10&#45;&gt;Node11 -->
<g id="edge10" class="edge">
<title>Node10&#45;&gt;Node11</title>
<path fill="none" stroke="midnightblue" d="M746.21,-140.16C726.06,-140.4 703.33,-140.68 683.76,-140.92"/>
<polygon fill="midnightblue" stroke="midnightblue" points="746.53,-143.65 756.48,-140.03 746.44,-136.65 746.53,-143.65"/>
</g>
<!-- Node11&#45;&gt;Node5 -->
<g id="edge11" class="edge">
<title>Node11&#45;&gt;Node5</title>
<path fill="none" stroke="midnightblue" d="M576.25,-153.09C563.65,-155.57 550.38,-158.15 538,-160.5 473.13,-172.79 398.37,-186.22 349.09,-194.96"/>
<polygon fill="midnightblue" stroke="midnightblue" points="577.05,-156.5 586.18,-151.12 575.69,-149.63 577.05,-156.5"/>
</g>
<!-- Node12 -->
<g id="node12" class="node">
<title>Node12</title>
<g id="a_node12"><a xlink:href="a00502.html#ga9210070749c2ed49abd8a30b27f64151" target="_top" xlink:title="This function calls the buck converter device driver function starting the power supply.">
<polygon fill="none" stroke="black" points="408.5,-132 408.5,-151 524.5,-151 524.5,-132 408.5,-132"/>
<text text-anchor="middle" x="466.5" y="-139" font-family="Helvetica,sans-Serif" font-size="10.00">appPowerSupply_Start</text>
</a>
</g>
</g>
<!-- Node11&#45;&gt;Node12 -->
<g id="edge12" class="edge">
<title>Node11&#45;&gt;Node12</title>
<path fill="none" stroke="midnightblue" d="M576.13,-141.5C559.46,-141.5 541.29,-141.5 524.66,-141.5"/>
<polygon fill="midnightblue" stroke="midnightblue" points="576.29,-145 586.29,-141.5 576.29,-138 576.29,-145"/>
</g>
<!-- Node14 -->
<g id="node14" class="node">
<title>Node14</title>
<g id="a_node14"><a xlink:href="a00509.html#ga61726ccfa8287fe57683d2aa6423d6e0" target="_top" xlink:title="This function stop the buck converter opration.">
<polygon fill="none" stroke="black" points="574,-88 574,-107 696,-107 696,-88 574,-88"/>
<text text-anchor="middle" x="635" y="-95" font-family="Helvetica,sans-Serif" font-size="10.00">drv_BuckConverter_Stop</text>
</a>
</g>
</g>
<!-- Node13&#45;&gt;Node14 -->
<g id="edge14" class="edge">
<title>Node13&#45;&gt;Node14</title>
<path fill="none" stroke="midnightblue" d="M746.58,-98.17C730.44,-98.08 712.61,-97.97 696.06,-97.87"/>
<polygon fill="midnightblue" stroke="midnightblue" points="746.89,-101.68 756.91,-98.24 746.93,-94.68 746.89,-101.68"/>
</g>
<!-- Node15 -->
<g id="node15" class="node">
<title>Node15</title>
<g id="a_node15"><a xlink:href="a00502.html#gaa7d413f62f7b5f25d152cc12354241f0" target="_top" xlink:title="This function calls the buck converter device driver function stopping the power supply.">
<polygon fill="none" stroke="black" points="409,-88 409,-107 524,-107 524,-88 409,-88"/>
<text text-anchor="middle" x="466.5" y="-95" font-family="Helvetica,sans-Serif" font-size="10.00">appPowerSupply_Stop</text>
</a>
</g>
</g>
<!-- Node14&#45;&gt;Node15 -->
<g id="edge15" class="edge">
<title>Node14&#45;&gt;Node15</title>
<path fill="none" stroke="midnightblue" d="M563.88,-97.5C550.64,-97.5 536.95,-97.5 524.19,-97.5"/>
<polygon fill="midnightblue" stroke="midnightblue" points="563.89,-101 573.89,-97.5 563.89,-94 563.89,-101"/>
</g>
<!-- Node17 -->
<g id="node17" class="node">
<title>Node17</title>
<g id="a_node17"><a xlink:href="a00520.html#ga35f16ef7f56a1abf97896440b041161b" target="_top" xlink:title="If this function is called, the state machine is reset to INITIALIZE (URL=State_Initialize).">
<polygon fill="none" stroke="black" points="602,-50 602,-69 668,-69 668,-50 602,-50"/>
<text text-anchor="middle" x="635" y="-57" font-family="Helvetica,sans-Serif" font-size="10.00">State_Error</text>
</a>
</g>
</g>
<!-- Node16&#45;&gt;Node17 -->
<g id="edge17" class="edge">
<title>Node16&#45;&gt;Node17</title>
<path fill="none" stroke="midnightblue" d="M737.38,-59.5C713.82,-59.5 688.01,-59.5 668.32,-59.5"/>
<polygon fill="midnightblue" stroke="midnightblue" points="737.66,-63 747.66,-59.5 737.66,-56 737.66,-63"/>
</g>
<!-- Node18 -->
<g id="node18" class="node">
<title>Node18</title>
<g id="a_node18"><a xlink:href="a00520.html#ga402a47948ae8a83bdde86943817dc563" target="_top" xlink:title="This function resets the buck control operation by re&#45;initiating the control mode,...">
<polygon fill="none" stroke="black" points="599.5,-12 599.5,-31 670.5,-31 670.5,-12 599.5,-12"/>
<text text-anchor="middle" x="635" y="-19" font-family="Helvetica,sans-Serif" font-size="10.00">State_Reset</text>
</a>
</g>
</g>
<!-- Node16&#45;&gt;Node18 -->
<g id="edge18" class="edge">
<title>Node16&#45;&gt;Node18</title>
<path fill="none" stroke="midnightblue" d="M748.78,-47.63C723.38,-41.75 693.39,-34.8 670.72,-29.54"/>
<polygon fill="midnightblue" stroke="midnightblue" points="748.08,-51.06 758.62,-49.91 749.66,-44.24 748.08,-51.06"/>
</g>
</g>
</svg>
