<?xml version="1.0" encoding="UTF-8" standalone="no"?>
<!DOCTYPE svg PUBLIC "-//W3C//DTD SVG 1.1//EN"
 "http://www.w3.org/Graphics/SVG/1.1/DTD/svg11.dtd">
<!-- Generated by graphviz version 2.44.1 (20200629.0846)
 -->
<!-- Title: sysUserTasks_Initialize Pages: 1 -->
<svg width="1341pt" height="668pt"
 viewBox="0.00 0.00 1341.00 668.00" xmlns="http://www.w3.org/2000/svg" xmlns:xlink="http://www.w3.org/1999/xlink">
<g id="graph0" class="graph" transform="scale(1 1) rotate(0) translate(4 664)">
<title>sysUserTasks_Initialize</title>
<!-- Node1 -->
<g id="node1" class="node">
<title>Node1</title>
<g id="a_node1"><a xlink:title="Initializes the user&#45;defined tasks.">
<polygon fill="#bfbfbf" stroke="black" points="0,-262.5 0,-281.5 119,-281.5 119,-262.5 0,-262.5"/>
<text text-anchor="middle" x="59.5" y="-269.5" font-family="Helvetica,sans-Serif" font-size="10.00">sysUserTasks_Initialize</text>
</a>
</g>
</g>
<!-- Node2 -->
<g id="node2" class="node">
<title>Node2</title>
<g id="a_node2"><a xlink:href="a00466.html#ga830e5c7087a8e5ee8ea39b7e3df94b68" target="_top" xlink:title="Initialization of user&#45;defined fault objects.">
<polygon fill="none" stroke="black" points="156.5,-564.5 156.5,-583.5 283.5,-583.5 283.5,-564.5 156.5,-564.5"/>
<text text-anchor="middle" x="220" y="-571.5" font-family="Helvetica,sans-Serif" font-size="10.00">appFaultMonitor_Initialize</text>
</a>
</g>
</g>
<!-- Node1&#45;&gt;Node2 -->
<g id="edge1" class="edge">
<title>Node1&#45;&gt;Node2</title>
<path fill="none" stroke="midnightblue" d="M65.26,-281.87C78.85,-309.94 119.16,-392.59 155,-460 173.1,-494.04 195.36,-533.1 208.29,-555.53"/>
<polygon fill="midnightblue" stroke="midnightblue" points="205.34,-557.42 213.37,-564.32 211.4,-553.91 205.34,-557.42"/>
</g>
<!-- Node12 -->
<g id="node10" class="node">
<title>Node12</title>
<g id="a_node10"><a xlink:href="a00482.html#gab93992748ced72fdc2989d0b0f369e54" target="_top" xlink:title="Initializes the LC display.">
<polygon fill="none" stroke="black" points="174,-431.5 174,-450.5 266,-450.5 266,-431.5 174,-431.5"/>
<text text-anchor="middle" x="220" y="-438.5" font-family="Helvetica,sans-Serif" font-size="10.00">appLCD_Initialize</text>
</a>
</g>
</g>
<!-- Node1&#45;&gt;Node12 -->
<g id="edge12" class="edge">
<title>Node1&#45;&gt;Node12</title>
<path fill="none" stroke="midnightblue" d="M69.48,-281.57C95.18,-308.98 169.36,-388.07 202.57,-423.49"/>
<polygon fill="midnightblue" stroke="midnightblue" points="200.33,-426.21 209.73,-431.11 205.44,-421.43 200.33,-426.21"/>
</g>
<!-- Node23 -->
<g id="node21" class="node">
<title>Node23</title>
<g id="a_node21"><a xlink:href="a00497.html#ga900c95201f101cb3c8644bcf7aab8af9" target="_top" xlink:title="Initializes the LED driving GPIO.">
<polygon fill="none" stroke="black" points="174,-281.5 174,-300.5 266,-300.5 266,-281.5 174,-281.5"/>
<text text-anchor="middle" x="220" y="-288.5" font-family="Helvetica,sans-Serif" font-size="10.00">appLED_Initialize</text>
</a>
</g>
</g>
<!-- Node1&#45;&gt;Node23 -->
<g id="edge26" class="edge">
<title>Node1&#45;&gt;Node23</title>
<path fill="none" stroke="midnightblue" d="M119.07,-279.02C133.55,-280.76 149.01,-282.61 163.34,-284.33"/>
<polygon fill="midnightblue" stroke="midnightblue" points="163.2,-287.84 173.55,-285.55 164.04,-280.89 163.2,-287.84"/>
</g>
<!-- Node24 -->
<g id="node22" class="node">
<title>Node24</title>
<g id="a_node22"><a xlink:href="a00502.html#ga7a4cf6371d09457539f96a74b2809ca0" target="_top" xlink:title="Calls the application layer power controller initialization.">
<polygon fill="none" stroke="black" points="155,-243.5 155,-262.5 285,-262.5 285,-243.5 155,-243.5"/>
<text text-anchor="middle" x="220" y="-250.5" font-family="Helvetica,sans-Serif" font-size="10.00">appPowerSupply_Initialize</text>
</a>
</g>
</g>
<!-- Node1&#45;&gt;Node24 -->
<g id="edge27" class="edge">
<title>Node1&#45;&gt;Node24</title>
<path fill="none" stroke="midnightblue" d="M119.07,-264.98C127.44,-263.98 136.13,-262.93 144.75,-261.9"/>
<polygon fill="midnightblue" stroke="midnightblue" points="145.29,-265.36 154.81,-260.7 144.46,-258.41 145.29,-265.36"/>
</g>
<!-- Node53 -->
<g id="node45" class="node">
<title>Node53</title>
<g id="a_node45"><a xlink:href="a00552.html#ga7c903bd2ce5b08d78de218d726830947" target="_top" xlink:title="Initializes the USER push button on DPSK3.">
<polygon fill="none" stroke="black" points="158,-104.5 158,-123.5 282,-123.5 282,-104.5 158,-104.5"/>
<text text-anchor="middle" x="220" y="-111.5" font-family="Helvetica,sans-Serif" font-size="10.00">appPushButton_Initialize</text>
</a>
</g>
</g>
<!-- Node1&#45;&gt;Node53 -->
<g id="edge54" class="edge">
<title>Node1&#45;&gt;Node53</title>
<path fill="none" stroke="midnightblue" d="M70.41,-262.12C96.77,-235.85 168.79,-164.05 201.92,-131.03"/>
<polygon fill="midnightblue" stroke="midnightblue" points="204.48,-133.42 209.09,-123.88 199.54,-128.46 204.48,-133.42"/>
</g>
<!-- Node58 -->
<g id="node50" class="node">
<title>Node58</title>
<g id="a_node50"><a xlink:href="a00365.html#ga8e89a1a4ee5bf8c794bd29163b92bf49" target="_top" xlink:title="Initializes the timer used as time&#45;base for the task scheduler.">
<polygon fill="none" stroke="black" points="165,-66.5 165,-85.5 275,-85.5 275,-66.5 165,-66.5"/>
<text text-anchor="middle" x="220" y="-73.5" font-family="Helvetica,sans-Serif" font-size="10.00">sysOsTimer_Initialize</text>
</a>
</g>
</g>
<!-- Node1&#45;&gt;Node58 -->
<g id="edge59" class="edge">
<title>Node1&#45;&gt;Node58</title>
<path fill="none" stroke="midnightblue" d="M62.84,-262.25C70.53,-232.44 97.79,-141.69 155,-95 157.16,-93.24 159.47,-91.64 161.9,-90.19"/>
<polygon fill="midnightblue" stroke="midnightblue" points="163.72,-93.2 171.07,-85.57 160.57,-86.94 163.72,-93.2"/>
</g>
<!-- Node3 -->
<g id="node3" class="node">
<title>Node3</title>
<g id="a_node3"><a xlink:href="a00468.html#ga54f9db91ea0782b08aa16ee77a57c5e5" target="_top" xlink:title="Initializes the user&#45;defined fault objects for overcurrent protection.">
<polygon fill="none" stroke="black" points="356,-640.5 356,-659.5 451,-659.5 451,-640.5 356,-640.5"/>
<text text-anchor="middle" x="403.5" y="-647.5" font-family="Helvetica,sans-Serif" font-size="10.00">ocp_FaultInitialize</text>
</a>
</g>
</g>
<!-- Node2&#45;&gt;Node3 -->
<g id="edge2" class="edge">
<title>Node2&#45;&gt;Node3</title>
<path fill="none" stroke="midnightblue" d="M234.92,-583.68C253.67,-596.29 288.44,-618.24 321,-631 328.88,-634.09 337.38,-636.75 345.83,-639.03"/>
<polygon fill="midnightblue" stroke="midnightblue" points="345.12,-642.46 355.67,-641.52 346.84,-635.67 345.12,-642.46"/>
</g>
<!-- Node9 -->
<g id="node7" class="node">
<title>Node9</title>
<g id="a_node7"><a xlink:href="a00468.html#gade437244e8f6e5ff7c57a73442063350" target="_top" xlink:title="Initializes the user&#45;defined fault objects for overvoltage lockout.">
<polygon fill="none" stroke="black" points="356,-602.5 356,-621.5 451,-621.5 451,-602.5 356,-602.5"/>
<text text-anchor="middle" x="403.5" y="-609.5" font-family="Helvetica,sans-Serif" font-size="10.00">ovlo_FaultInitialize</text>
</a>
</g>
</g>
<!-- Node2&#45;&gt;Node9 -->
<g id="edge6" class="edge">
<title>Node2&#45;&gt;Node9</title>
<path fill="none" stroke="midnightblue" d="M266.8,-583.59C291.18,-588.69 321.36,-595.01 347.06,-600.39"/>
<polygon fill="midnightblue" stroke="midnightblue" points="346.52,-603.86 357.03,-602.48 347.96,-597 346.52,-603.86"/>
</g>
<!-- Node10 -->
<g id="node8" class="node">
<title>Node10</title>
<g id="a_node8"><a xlink:href="a00468.html#ga82dc317e3adac0308e5ac3f5ad321605" target="_top" xlink:title="Initializes the user&#45;defined fault objects for regulation error.">
<polygon fill="none" stroke="black" points="351.5,-564.5 351.5,-583.5 455.5,-583.5 455.5,-564.5 351.5,-564.5"/>
<text text-anchor="middle" x="403.5" y="-571.5" font-family="Helvetica,sans-Serif" font-size="10.00">regerr_FaultInitialize</text>
</a>
</g>
</g>
<!-- Node2&#45;&gt;Node10 -->
<g id="edge8" class="edge">
<title>Node2&#45;&gt;Node10</title>
<path fill="none" stroke="midnightblue" d="M283.72,-574C302.39,-574 322.82,-574 341.39,-574"/>
<polygon fill="midnightblue" stroke="midnightblue" points="341.49,-577.5 351.49,-574 341.49,-570.5 341.49,-577.5"/>
</g>
<!-- Node11 -->
<g id="node9" class="node">
<title>Node11</title>
<g id="a_node9"><a xlink:href="a00468.html#ga9441220f8a7d4a6805467d04b734e6b5" target="_top" xlink:title="Initializes the user&#45;defined fault objects for under&#45;voltage lockout.">
<polygon fill="none" stroke="black" points="356,-526.5 356,-545.5 451,-545.5 451,-526.5 356,-526.5"/>
<text text-anchor="middle" x="403.5" y="-533.5" font-family="Helvetica,sans-Serif" font-size="10.00">uvlo_FaultInitialize</text>
</a>
</g>
</g>
<!-- Node2&#45;&gt;Node11 -->
<g id="edge10" class="edge">
<title>Node2&#45;&gt;Node11</title>
<path fill="none" stroke="midnightblue" d="M266.8,-564.41C291.18,-559.31 321.36,-552.99 347.06,-547.61"/>
<polygon fill="midnightblue" stroke="midnightblue" points="347.96,-551 357.03,-545.52 346.52,-544.14 347.96,-551"/>
</g>
<!-- Node4 -->
<g id="node4" class="node">
<title>Node4</title>
<g id="a_node4"><a xlink:href="a00502.html#gafa4e90d260e60cf20f06acee067c39cd" target="_top" xlink:title="This function stops the power supply operation.">
<polygon fill="none" stroke="black" points="522,-602.5 522,-621.5 655,-621.5 655,-602.5 522,-602.5"/>
<text text-anchor="middle" x="588.5" y="-609.5" font-family="Helvetica,sans-Serif" font-size="10.00">appPowerSupply_Suspend</text>
</a>
</g>
</g>
<!-- Node3&#45;&gt;Node4 -->
<g id="edge3" class="edge">
<title>Node3&#45;&gt;Node4</title>
<path fill="none" stroke="midnightblue" d="M450.68,-640.41C475.26,-635.31 505.69,-628.99 531.6,-623.61"/>
<polygon fill="midnightblue" stroke="midnightblue" points="532.57,-626.98 541.65,-621.52 531.15,-620.13 532.57,-626.98"/>
</g>
<!-- Node5 -->
<g id="node5" class="node">
<title>Node5</title>
<g id="a_node5"><a xlink:href="a00509.html#ga0d68d132b52175c43503c9b5794bae64" target="_top" xlink:title="This function suspends the operation of the buck converter.">
<polygon fill="none" stroke="black" points="711.5,-597 711.5,-627 808.5,-627 808.5,-597 711.5,-597"/>
<text text-anchor="start" x="719.5" y="-615" font-family="Helvetica,sans-Serif" font-size="10.00">drv_BuckConverter</text>
<text text-anchor="middle" x="760" y="-604" font-family="Helvetica,sans-Serif" font-size="10.00">_Suspend</text>
</a>
</g>
</g>
<!-- Node4&#45;&gt;Node5 -->
<g id="edge4" class="edge">
<title>Node4&#45;&gt;Node5</title>
<path fill="none" stroke="midnightblue" d="M655.03,-612C670.25,-612 686.33,-612 701.19,-612"/>
<polygon fill="midnightblue" stroke="midnightblue" points="701.25,-615.5 711.25,-612 701.25,-608.5 701.25,-615.5"/>
</g>
<!-- Node6 -->
<g id="node6" class="node">
<title>Node6</title>
<g id="a_node6"><a xlink:href="a00509.html#gab9877f90ffb129964ae42ce2921b3fe1" target="_top" xlink:title="This function is the main buck converter state machine executing the most recent state.">
<polygon fill="none" stroke="red" points="883.5,-597 883.5,-627 980.5,-627 980.5,-597 883.5,-597"/>
<text text-anchor="start" x="891.5" y="-615" font-family="Helvetica,sans-Serif" font-size="10.00">drv_BuckConverter</text>
<text text-anchor="middle" x="932" y="-604" font-family="Helvetica,sans-Serif" font-size="10.00">_Execute</text>
</a>
</g>
</g>
<!-- Node5&#45;&gt;Node6 -->
<g id="edge5" class="edge">
<title>Node5&#45;&gt;Node6</title>
<path fill="none" stroke="midnightblue" d="M808.81,-612C828.81,-612 852.23,-612 873.19,-612"/>
<polygon fill="midnightblue" stroke="midnightblue" points="873.26,-615.5 883.26,-612 873.26,-608.5 873.26,-615.5"/>
</g>
<!-- Node9&#45;&gt;Node4 -->
<g id="edge7" class="edge">
<title>Node9&#45;&gt;Node4</title>
<path fill="none" stroke="midnightblue" d="M451.15,-612C469.63,-612 491.34,-612 511.94,-612"/>
<polygon fill="midnightblue" stroke="midnightblue" points="511.95,-615.5 521.95,-612 511.95,-608.5 511.95,-615.5"/>
</g>
<!-- Node10&#45;&gt;Node4 -->
<g id="edge9" class="edge">
<title>Node10&#45;&gt;Node4</title>
<path fill="none" stroke="midnightblue" d="M450.68,-583.59C475.26,-588.69 505.69,-595.01 531.6,-600.39"/>
<polygon fill="midnightblue" stroke="midnightblue" points="531.15,-603.87 541.65,-602.48 532.57,-597.02 531.15,-603.87"/>
</g>
<!-- Node11&#45;&gt;Node4 -->
<g id="edge11" class="edge">
<title>Node11&#45;&gt;Node4</title>
<path fill="none" stroke="midnightblue" d="M451.1,-541.98C463,-544.8 475.41,-548.93 486,-555 506.18,-566.57 502.13,-580.89 522,-593 525.43,-595.09 529.1,-596.96 532.88,-598.63"/>
<polygon fill="midnightblue" stroke="midnightblue" points="531.88,-601.99 542.46,-602.39 534.43,-595.48 531.88,-601.99"/>
</g>
<!-- Node13 -->
<g id="node11" class="node">
<title>Node13</title>
<g id="a_node11"><a xlink:href="a00487.html#ga5d8f09855e28846e87400692d186781a" target="_top" xlink:title="Initializes the LCD Device.">
<polygon fill="none" stroke="black" points="357.5,-488.5 357.5,-507.5 449.5,-507.5 449.5,-488.5 357.5,-488.5"/>
<text text-anchor="middle" x="403.5" y="-495.5" font-family="Helvetica,sans-Serif" font-size="10.00">dev_Lcd_Initialize</text>
</a>
</g>
</g>
<!-- Node12&#45;&gt;Node13 -->
<g id="edge13" class="edge">
<title>Node12&#45;&gt;Node13</title>
<path fill="none" stroke="midnightblue" d="M251.38,-450.54C281.74,-460.08 328.61,-474.79 362.09,-485.31"/>
<polygon fill="midnightblue" stroke="midnightblue" points="361.43,-488.77 372.02,-488.43 363.53,-482.09 361.43,-488.77"/>
</g>
<!-- Node18 -->
<g id="node16" class="node">
<title>Node18</title>
<g id="a_node16"><a xlink:href="a00487.html#ga24701a4c3ae760e7e0b9c70d93370ff3" target="_top" xlink:title="Sets the cursor position to the given x&#45; and y&#45;coordinates and writes the given string on the lcd scr...">
<polygon fill="none" stroke="black" points="344.5,-431.5 344.5,-450.5 462.5,-450.5 462.5,-431.5 344.5,-431.5"/>
<text text-anchor="middle" x="403.5" y="-438.5" font-family="Helvetica,sans-Serif" font-size="10.00">dev_Lcd_WriteStringXY</text>
</a>
</g>
</g>
<!-- Node12&#45;&gt;Node18 -->
<g id="edge18" class="edge">
<title>Node12&#45;&gt;Node18</title>
<path fill="none" stroke="midnightblue" d="M266.33,-441C286.82,-441 311.47,-441 334.13,-441"/>
<polygon fill="midnightblue" stroke="midnightblue" points="334.38,-444.5 344.38,-441 334.38,-437.5 334.38,-444.5"/>
</g>
<!-- Node14 -->
<g id="node12" class="node">
<title>Node14</title>
<g id="a_node12"><a xlink:href="a00492.html#gaeb25fdecced4c325cd0d986a30d57e90" target="_top" xlink:title="Initializes the LCD interface driver.">
<polygon fill="none" stroke="black" points="525,-564.5 525,-583.5 652,-583.5 652,-564.5 525,-564.5"/>
<text text-anchor="middle" x="588.5" y="-571.5" font-family="Helvetica,sans-Serif" font-size="10.00">drv_LcdInterface_Initialize</text>
</a>
</g>
</g>
<!-- Node13&#45;&gt;Node14 -->
<g id="edge14" class="edge">
<title>Node13&#45;&gt;Node14</title>
<path fill="none" stroke="midnightblue" d="M449.82,-503.69C462.11,-506.5 475.04,-510.71 486,-517 506.18,-528.57 502.13,-542.89 522,-555 525.43,-557.09 529.1,-558.96 532.88,-560.63"/>
<polygon fill="midnightblue" stroke="midnightblue" points="531.88,-563.99 542.46,-564.39 534.43,-557.48 531.88,-563.99"/>
</g>
<!-- Node15 -->
<g id="node13" class="node">
<title>Node15</title>
<g id="a_node13"><a xlink:href="a00492.html#ga3f10606b6c67ff33338ab2c5c6a2d4c8" target="_top" xlink:title="Resets the LCD controller.">
<polygon fill="none" stroke="black" points="530,-526.5 530,-545.5 647,-545.5 647,-526.5 530,-526.5"/>
<text text-anchor="middle" x="588.5" y="-533.5" font-family="Helvetica,sans-Serif" font-size="10.00">drv_LcdInterface_Reset</text>
</a>
</g>
</g>
<!-- Node13&#45;&gt;Node15 -->
<g id="edge15" class="edge">
<title>Node13&#45;&gt;Node15</title>
<path fill="none" stroke="midnightblue" d="M449.74,-507.39C474.51,-512.54 505.43,-518.96 531.7,-524.41"/>
<polygon fill="midnightblue" stroke="midnightblue" points="531.01,-527.84 541.51,-526.45 532.43,-520.99 531.01,-527.84"/>
</g>
<!-- Node16 -->
<g id="node14" class="node">
<title>Node16</title>
<g id="a_node14"><a xlink:href="a00492.html#ga3e045335a3463f6a53e4fd91b50bb0ca" target="_top" xlink:title="Sends a command to the LCD controller.">
<polygon fill="none" stroke="black" points="1035,-450.5 1035,-469.5 1169,-469.5 1169,-450.5 1035,-450.5"/>
<text text-anchor="middle" x="1102" y="-457.5" font-family="Helvetica,sans-Serif" font-size="10.00">drv_LcdInterface_SendCmd</text>
</a>
</g>
</g>
<!-- Node13&#45;&gt;Node16 -->
<g id="edge16" class="edge">
<title>Node13&#45;&gt;Node16</title>
<path fill="none" stroke="midnightblue" d="M449.78,-498.9C549.41,-500.35 794.96,-501.13 999,-479 1015.01,-477.26 1032.28,-474.42 1047.98,-471.46"/>
<polygon fill="midnightblue" stroke="midnightblue" points="1048.89,-474.85 1058.04,-469.51 1047.55,-467.98 1048.89,-474.85"/>
</g>
<!-- Node17 -->
<g id="node15" class="node">
<title>Node17</title>
<g id="a_node15"><a xlink:href="a00494.html#ga50b8734fca19fc75dd778a9902c63082" target="_top" xlink:title="Sends data through the SPI interface to the LCD controller.">
<polygon fill="none" stroke="black" points="1205,-450.5 1205,-469.5 1333,-469.5 1333,-450.5 1205,-450.5"/>
<text text-anchor="middle" x="1269" y="-457.5" font-family="Helvetica,sans-Serif" font-size="10.00">drv_LcdInterface_SpiSend</text>
</a>
</g>
</g>
<!-- Node16&#45;&gt;Node17 -->
<g id="edge17" class="edge">
<title>Node16&#45;&gt;Node17</title>
<path fill="none" stroke="midnightblue" d="M1169.16,-460C1177.51,-460 1186.09,-460 1194.55,-460"/>
<polygon fill="midnightblue" stroke="midnightblue" points="1194.77,-463.5 1204.77,-460 1194.77,-456.5 1194.77,-463.5"/>
</g>
<!-- Node19 -->
<g id="node17" class="node">
<title>Node19</title>
<g id="a_node17"><a xlink:href="a00487.html#ga5c431635cb94750b2f6e938d7f1f0cf1" target="_top" xlink:title="Sets the cursor position to the given x&#45; and y&#45;coordinates.">
<polygon fill="none" stroke="black" points="887,-450.5 887,-469.5 977,-469.5 977,-450.5 887,-450.5"/>
<text text-anchor="middle" x="932" y="-457.5" font-family="Helvetica,sans-Serif" font-size="10.00">dev_Lcd_GotoXY</text>
</a>
</g>
</g>
<!-- Node18&#45;&gt;Node19 -->
<g id="edge19" class="edge">
<title>Node18&#45;&gt;Node19</title>
<path fill="none" stroke="midnightblue" d="M462.6,-443.1C565.15,-446.8 776.79,-454.44 876.62,-458.04"/>
<polygon fill="midnightblue" stroke="midnightblue" points="876.67,-461.54 886.79,-458.4 876.93,-454.55 876.67,-461.54"/>
</g>
<!-- Node20 -->
<g id="node18" class="node">
<title>Node20</title>
<g id="a_node18"><a xlink:href="a00487.html#gac07de05132918ca2db8cf4492819eca6" target="_top" xlink:title="Writes a complete string on the LCD screen.">
<polygon fill="none" stroke="black" points="535.5,-412.5 535.5,-431.5 641.5,-431.5 641.5,-412.5 535.5,-412.5"/>
<text text-anchor="middle" x="588.5" y="-419.5" font-family="Helvetica,sans-Serif" font-size="10.00">dev_Lcd_WriteString</text>
</a>
</g>
</g>
<!-- Node18&#45;&gt;Node20 -->
<g id="edge21" class="edge">
<title>Node18&#45;&gt;Node20</title>
<path fill="none" stroke="midnightblue" d="M462.65,-434.96C482.62,-432.89 505.04,-430.56 525.31,-428.46"/>
<polygon fill="midnightblue" stroke="midnightblue" points="525.8,-431.93 535.38,-427.41 525.07,-424.96 525.8,-431.93"/>
</g>
<!-- Node19&#45;&gt;Node16 -->
<g id="edge20" class="edge">
<title>Node19&#45;&gt;Node16</title>
<path fill="none" stroke="midnightblue" d="M977.14,-460C991.71,-460 1008.37,-460 1024.64,-460"/>
<polygon fill="midnightblue" stroke="midnightblue" points="1024.7,-463.5 1034.7,-460 1024.7,-456.5 1024.7,-463.5"/>
</g>
<!-- Node21 -->
<g id="node19" class="node">
<title>Node21</title>
<g id="a_node19"><a xlink:href="a00487.html#ga3cb1303cba012af043a87af0bcab16d8" target="_top" xlink:title="Writes a character on the LCD screen.">
<polygon fill="none" stroke="black" points="709.5,-412.5 709.5,-431.5 810.5,-431.5 810.5,-412.5 709.5,-412.5"/>
<text text-anchor="middle" x="760" y="-419.5" font-family="Helvetica,sans-Serif" font-size="10.00">dev_Lcd_WriteChar</text>
</a>
</g>
</g>
<!-- Node20&#45;&gt;Node21 -->
<g id="edge22" class="edge">
<title>Node20&#45;&gt;Node21</title>
<path fill="none" stroke="midnightblue" d="M641.74,-422C659.88,-422 680.36,-422 699.07,-422"/>
<polygon fill="midnightblue" stroke="midnightblue" points="699.25,-425.5 709.25,-422 699.25,-418.5 699.25,-425.5"/>
</g>
<!-- Node21&#45;&gt;Node19 -->
<g id="edge25" class="edge">
<title>Node21&#45;&gt;Node19</title>
<path fill="none" stroke="midnightblue" d="M803.9,-431.59C826.53,-436.65 854.5,-442.9 878.43,-448.25"/>
<polygon fill="midnightblue" stroke="midnightblue" points="877.89,-451.71 888.41,-450.48 879.41,-444.88 877.89,-451.71"/>
</g>
<!-- Node22 -->
<g id="node20" class="node">
<title>Node22</title>
<g id="a_node20"><a xlink:href="a00487.html#ga0bff8adf9ea1196bdd69b3e47b2b77cd" target="_top" xlink:title="Clears the LC Display Screen.">
<polygon fill="none" stroke="black" points="892,-412.5 892,-431.5 972,-431.5 972,-412.5 892,-412.5"/>
<text text-anchor="middle" x="932" y="-419.5" font-family="Helvetica,sans-Serif" font-size="10.00">dev_Lcd_Clear</text>
</a>
</g>
</g>
<!-- Node21&#45;&gt;Node22 -->
<g id="edge23" class="edge">
<title>Node21&#45;&gt;Node22</title>
<path fill="none" stroke="midnightblue" d="M810.63,-422C832.96,-422 859.27,-422 881.58,-422"/>
<polygon fill="midnightblue" stroke="midnightblue" points="881.85,-425.5 891.85,-422 881.85,-418.5 881.85,-425.5"/>
</g>
<!-- Node22&#45;&gt;Node16 -->
<g id="edge24" class="edge">
<title>Node22&#45;&gt;Node16</title>
<path fill="none" stroke="midnightblue" d="M972.39,-430.91C995.23,-436.08 1024.28,-442.65 1048.98,-448.23"/>
<polygon fill="midnightblue" stroke="midnightblue" points="1048.4,-451.69 1058.92,-450.48 1049.94,-444.86 1048.4,-451.69"/>
</g>
<!-- Node25 -->
<g id="node23" class="node">
<title>Node25</title>
<g id="a_node23"><a xlink:href="a00505.html#ga0b4cabdb02c8c9ea94ea1dfa39de3764" target="_top" xlink:title="This function initializes the control system feedback loop objects.">
<polygon fill="none" stroke="black" points="335.5,-312 335.5,-342 471.5,-342 471.5,-312 335.5,-312"/>
<text text-anchor="start" x="343.5" y="-330" font-family="Helvetica,sans-Serif" font-size="10.00">appPowerSupply_Controller</text>
<text text-anchor="middle" x="403.5" y="-319" font-family="Helvetica,sans-Serif" font-size="10.00">Initialize</text>
</a>
</g>
</g>
<!-- Node24&#45;&gt;Node25 -->
<g id="edge28" class="edge">
<title>Node24&#45;&gt;Node25</title>
<path fill="none" stroke="midnightblue" d="M262.66,-262.58C270.32,-265.11 278.08,-268.22 285,-272 303.53,-282.12 302.46,-292.9 321,-303 324.3,-304.8 327.76,-306.48 331.3,-308.04"/>
<polygon fill="midnightblue" stroke="midnightblue" points="330.25,-311.4 340.84,-311.92 332.89,-304.91 330.25,-311.4"/>
</g>
<!-- Node30 -->
<g id="node28" class="node">
<title>Node30</title>
<g id="a_node28"><a xlink:href="a00505.html#gad0f6ff4894bf23722884c60bbcdcacd0" target="_top" xlink:title="This function initializes the buck converter device driver instance.">
<polygon fill="none" stroke="black" points="336,-263 336,-293 471,-293 471,-263 336,-263"/>
<text text-anchor="start" x="344" y="-281" font-family="Helvetica,sans-Serif" font-size="10.00">appPowerSupply_Converter</text>
<text text-anchor="middle" x="403.5" y="-270" font-family="Helvetica,sans-Serif" font-size="10.00">ObjectInitialize</text>
</a>
</g>
</g>
<!-- Node24&#45;&gt;Node30 -->
<g id="edge34" class="edge">
<title>Node24&#45;&gt;Node30</title>
<path fill="none" stroke="midnightblue" d="M285.25,-261.85C298.33,-263.65 312.22,-265.56 325.69,-267.42"/>
<polygon fill="midnightblue" stroke="midnightblue" points="325.5,-270.93 335.88,-268.82 326.46,-263.99 325.5,-270.93"/>
</g>
<!-- Node31 -->
<g id="node29" class="node">
<title>Node31</title>
<g id="a_node29"><a xlink:href="a00505.html#ga0b26acfec74d1804384b4ba1a3cffab4" target="_top" xlink:title="This function is used to load peripheral configuration templates from the power controller device dri...">
<polygon fill="none" stroke="black" points="332,-214 332,-244 475,-244 475,-214 332,-214"/>
<text text-anchor="start" x="340" y="-232" font-family="Helvetica,sans-Serif" font-size="10.00">appPowerSupply_Peripherals</text>
<text text-anchor="middle" x="403.5" y="-221" font-family="Helvetica,sans-Serif" font-size="10.00">Initialize</text>
</a>
</g>
</g>
<!-- Node24&#45;&gt;Node31 -->
<g id="edge35" class="edge">
<title>Node24&#45;&gt;Node31</title>
<path fill="none" stroke="midnightblue" d="M285.25,-244.5C297.04,-242.95 309.48,-241.3 321.68,-239.69"/>
<polygon fill="midnightblue" stroke="midnightblue" points="322.4,-243.12 331.86,-238.34 321.49,-236.18 322.4,-243.12"/>
</g>
<!-- Node50 -->
<g id="node42" class="node">
<title>Node50</title>
<g id="a_node42"><a xlink:href="a00509.html#ga86289c82938655142075e84ac90aa603" target="_top" xlink:title="This function starts the buck converter.">
<polygon fill="none" stroke="black" points="355,-165 355,-195 452,-195 452,-165 355,-165"/>
<text text-anchor="start" x="363" y="-183" font-family="Helvetica,sans-Serif" font-size="10.00">drv_BuckConverter</text>
<text text-anchor="middle" x="403.5" y="-172" font-family="Helvetica,sans-Serif" font-size="10.00">_Start</text>
</a>
</g>
</g>
<!-- Node24&#45;&gt;Node50 -->
<g id="edge50" class="edge">
<title>Node24&#45;&gt;Node50</title>
<path fill="none" stroke="midnightblue" d="M239.07,-243.31C258.82,-232.96 291.58,-216.5 321,-205 328.73,-201.98 336.98,-199.08 345.16,-196.4"/>
<polygon fill="midnightblue" stroke="midnightblue" points="346.22,-199.73 354.68,-193.36 344.09,-193.07 346.22,-199.73"/>
</g>
<!-- Node26 -->
<g id="node24" class="node">
<title>Node26</title>
<g id="a_node24"><a xlink:href="a00544.html#ga62d45a18f3dd47fa691fbb463f90e051" target="_top" xlink:title="Initializes controller coefficient arrays and normalization factors.">
<polygon fill="none" stroke="black" points="546.5,-374.5 546.5,-393.5 630.5,-393.5 630.5,-374.5 546.5,-374.5"/>
<text text-anchor="middle" x="588.5" y="-381.5" font-family="Helvetica,sans-Serif" font-size="10.00">v_loop_Initialize</text>
</a>
</g>
</g>
<!-- Node25&#45;&gt;Node26 -->
<g id="edge29" class="edge">
<title>Node25&#45;&gt;Node26</title>
<path fill="none" stroke="midnightblue" d="M453.06,-342.13C482.39,-351.26 519.33,-362.77 547.07,-371.41"/>
<polygon fill="midnightblue" stroke="midnightblue" points="546.25,-374.82 556.84,-374.45 548.33,-368.13 546.25,-374.82"/>
</g>
<!-- Node27 -->
<g id="node25" class="node">
<title>Node27</title>
<g id="a_node25"><a xlink:href="a00544.html#gabb35e824b8586b680f54d59975ada3c7" target="_top" xlink:title="Prototype of the Assembly routine &#39;_v_loop_Reset&#39; clearing the NPNZ16b controller output and error hi...">
<polygon fill="none" stroke="black" points="723,-350.5 723,-369.5 797,-369.5 797,-350.5 723,-350.5"/>
<text text-anchor="middle" x="760" y="-357.5" font-family="Helvetica,sans-Serif" font-size="10.00">v_loop_Reset</text>
</a>
</g>
</g>
<!-- Node25&#45;&gt;Node27 -->
<g id="edge32" class="edge">
<title>Node25&#45;&gt;Node27</title>
<path fill="none" stroke="midnightblue" d="M471.6,-333.25C541.99,-339.8 650.8,-349.93 712.36,-355.66"/>
<polygon fill="midnightblue" stroke="midnightblue" points="712.28,-359.17 722.56,-356.61 712.93,-352.2 712.28,-359.17"/>
</g>
<!-- Node28 -->
<g id="node26" class="node">
<title>Node28</title>
<g id="a_node26"><a xlink:href="a00544.html#ga3cdf7d86ab440015768706f04bd588e9" target="_top" xlink:title="Prototype of the Assembly routine &#39;_v_loop_Precharge&#39; loading user&#45;defined values into the NPNZ16b co...">
<polygon fill="none" stroke="black" points="542,-298.5 542,-317.5 635,-317.5 635,-298.5 542,-298.5"/>
<text text-anchor="middle" x="588.5" y="-305.5" font-family="Helvetica,sans-Serif" font-size="10.00">v_loop_Precharge</text>
</a>
</g>
</g>
<!-- Node25&#45;&gt;Node28 -->
<g id="edge31" class="edge">
<title>Node25&#45;&gt;Node28</title>
<path fill="none" stroke="midnightblue" d="M471.6,-320.03C491.4,-317.98 512.85,-315.75 531.85,-313.78"/>
<polygon fill="midnightblue" stroke="midnightblue" points="532.24,-317.26 541.83,-312.74 531.52,-310.29 532.24,-317.26"/>
</g>
<!-- Node29 -->
<g id="node27" class="node">
<title>Node29</title>
<g id="a_node27"><a xlink:href="a00544.html#gab8180f1cb973d694be5caffaec3ce940" target="_top" xlink:title="Prototype of the Assembly feedback control loop routine helping to call the v_loop controller from C&#45;...">
<polygon fill="none" stroke="black" points="548.5,-260.5 548.5,-279.5 628.5,-279.5 628.5,-260.5 548.5,-260.5"/>
<text text-anchor="middle" x="588.5" y="-267.5" font-family="Helvetica,sans-Serif" font-size="10.00">v_loop_Update</text>
</a>
</g>
</g>
<!-- Node25&#45;&gt;Node29 -->
<g id="edge33" class="edge">
<title>Node25&#45;&gt;Node29</title>
<path fill="none" stroke="midnightblue" d="M458.19,-311.89C467.5,-309.07 477.07,-306.05 486,-303 502.25,-297.46 505.74,-294.51 522,-289 528.56,-286.78 535.53,-284.58 542.4,-282.51"/>
<polygon fill="midnightblue" stroke="midnightblue" points="543.71,-285.78 552.31,-279.59 541.73,-279.06 543.71,-285.78"/>
</g>
<!-- Node26&#45;&gt;Node27 -->
<g id="edge30" class="edge">
<title>Node26&#45;&gt;Node27</title>
<path fill="none" stroke="midnightblue" d="M630.53,-378.19C655.44,-374.66 687.29,-370.15 713.05,-366.51"/>
<polygon fill="midnightblue" stroke="midnightblue" points="713.54,-369.97 722.95,-365.1 712.56,-363.04 713.54,-369.97"/>
</g>
<!-- Node32 -->
<g id="node30" class="node">
<title>Node32</title>
<g id="a_node30"><a xlink:href="a00509.html#gaf3c64772d6dfd473d6924fb8893bd180" target="_top" xlink:title="This function initializes all peripheral modules and their instances used by the power controller.">
<polygon fill="none" stroke="black" points="540,-211 540,-241 637,-241 637,-211 540,-211"/>
<text text-anchor="start" x="548" y="-229" font-family="Helvetica,sans-Serif" font-size="10.00">drv_BuckConverter</text>
<text text-anchor="middle" x="588.5" y="-218" font-family="Helvetica,sans-Serif" font-size="10.00">_Initialize</text>
</a>
</g>
</g>
<!-- Node31&#45;&gt;Node32 -->
<g id="edge36" class="edge">
<title>Node31&#45;&gt;Node32</title>
<path fill="none" stroke="midnightblue" d="M475.25,-227.84C493.16,-227.55 512.19,-227.23 529.39,-226.95"/>
<polygon fill="midnightblue" stroke="midnightblue" points="529.9,-230.44 539.84,-226.78 529.78,-223.45 529.9,-230.44"/>
</g>
<!-- Node33 -->
<g id="node31" class="node">
<title>Node33</title>
<g id="a_node31"><a xlink:href="a00532.html#gac2bfd6c3ccd9ec11b8e91322ea9354d2" target="_top" xlink:title="This function initializes the settings for the ADC channel.">
<polygon fill="none" stroke="black" points="693,-300.5 693,-319.5 827,-319.5 827,-300.5 693,-300.5"/>
<text text-anchor="middle" x="760" y="-307.5" font-family="Helvetica,sans-Serif" font-size="10.00">buckADC_ChannelInitialize</text>
</a>
</g>
</g>
<!-- Node32&#45;&gt;Node33 -->
<g id="edge37" class="edge">
<title>Node32&#45;&gt;Node33</title>
<path fill="none" stroke="midnightblue" d="M637.02,-241.03C643.31,-243.9 649.48,-247.21 655,-251 674.72,-264.53 670.68,-278.39 691,-291 694.42,-293.12 698.08,-295.01 701.86,-296.69"/>
<polygon fill="midnightblue" stroke="midnightblue" points="700.86,-300.06 711.45,-300.46 703.42,-293.54 700.86,-300.06"/>
</g>
<!-- Node34 -->
<g id="node32" class="node">
<title>Node34</title>
<g id="a_node32"><a xlink:href="a00532.html#ga44f537d9ad5dcb0e744480802cfbf170" target="_top" xlink:title="This fucntion initializes the buck by resetting all its registers to default.">
<polygon fill="none" stroke="black" points="695,-262.5 695,-281.5 825,-281.5 825,-262.5 695,-262.5"/>
<text text-anchor="middle" x="760" y="-269.5" font-family="Helvetica,sans-Serif" font-size="10.00">buckADC_ModuleInitialize</text>
</a>
</g>
</g>
<!-- Node32&#45;&gt;Node34 -->
<g id="edge38" class="edge">
<title>Node32&#45;&gt;Node34</title>
<path fill="none" stroke="midnightblue" d="M637.17,-238.94C661.24,-245.47 690.29,-253.35 713.98,-259.78"/>
<polygon fill="midnightblue" stroke="midnightblue" points="713.21,-263.2 723.78,-262.44 715.05,-256.44 713.21,-263.2"/>
</g>
<!-- Node35 -->
<g id="node33" class="node">
<title>Node35</title>
<g id="a_node33"><a xlink:href="a00532.html#gac7e5924475733c189b2318844ae01844" target="_top" xlink:title="This function initializes the buck input pins.">
<polygon fill="none" stroke="black" points="709,-224.5 709,-243.5 811,-243.5 811,-224.5 709,-224.5"/>
<text text-anchor="middle" x="760" y="-231.5" font-family="Helvetica,sans-Serif" font-size="10.00">buckGPIO_Initialize</text>
</a>
</g>
</g>
<!-- Node32&#45;&gt;Node35 -->
<g id="edge39" class="edge">
<title>Node32&#45;&gt;Node35</title>
<path fill="none" stroke="midnightblue" d="M637.17,-228.25C656.26,-229.15 678.49,-230.2 698.69,-231.15"/>
<polygon fill="midnightblue" stroke="midnightblue" points="698.58,-234.65 708.74,-231.63 698.91,-227.66 698.58,-234.65"/>
</g>
<!-- Node38 -->
<g id="node37" class="node">
<title>Node38</title>
<g id="a_node37"><a xlink:href="a00532.html#ga45a54def97cc67eb8d36e22a3867d95f" target="_top" xlink:title="This function initializes the output pins for the PWM output and the default buck PWM settings.">
<polygon fill="none" stroke="red" points="691,-186.5 691,-205.5 829,-205.5 829,-186.5 691,-186.5"/>
<text text-anchor="middle" x="760" y="-193.5" font-family="Helvetica,sans-Serif" font-size="10.00">buckPWM_ChannelInitialize</text>
</a>
</g>
</g>
<!-- Node32&#45;&gt;Node38 -->
<g id="edge44" class="edge">
<title>Node32&#45;&gt;Node38</title>
<path fill="none" stroke="midnightblue" d="M637.17,-217.56C655.18,-214.38 675.97,-210.7 695.22,-207.29"/>
<polygon fill="midnightblue" stroke="midnightblue" points="695.89,-210.72 705.13,-205.53 694.67,-203.83 695.89,-210.72"/>
</g>
<!-- Node47 -->
<g id="node41" class="node">
<title>Node47</title>
<g id="a_node41"><a xlink:href="a00532.html#ga6d12fd9e2f1d4f01ec6db21454693863" target="_top" xlink:title="Initializes the buck PWM module by resetting its registers to default.">
<polygon fill="none" stroke="red" points="693,-148.5 693,-167.5 827,-167.5 827,-148.5 693,-148.5"/>
<text text-anchor="middle" x="760" y="-155.5" font-family="Helvetica,sans-Serif" font-size="10.00">buckPWM_ModuleInitialize</text>
</a>
</g>
</g>
<!-- Node32&#45;&gt;Node47 -->
<g id="edge49" class="edge">
<title>Node32&#45;&gt;Node47</title>
<path fill="none" stroke="midnightblue" d="M629.09,-210.86C637.75,-207.22 646.77,-203.18 655,-199 671.72,-190.51 673.81,-184.48 691,-177 696.4,-174.65 702.17,-172.51 707.98,-170.59"/>
<polygon fill="midnightblue" stroke="midnightblue" points="709.22,-173.87 717.73,-167.56 707.14,-167.18 709.22,-173.87"/>
</g>
<!-- Node36 -->
<g id="node34" class="node">
<title>Node36</title>
<g id="a_node34"><a xlink:href="a00532.html#ga7f1d554e08d756b8677b572216908a3a" target="_top" xlink:title="This function clears the selected general purpose input/output pin.">
<polygon fill="none" stroke="black" points="887.5,-300.5 887.5,-319.5 976.5,-319.5 976.5,-300.5 887.5,-300.5"/>
<text text-anchor="middle" x="932" y="-307.5" font-family="Helvetica,sans-Serif" font-size="10.00">buckGPIO_Clear</text>
</a>
</g>
</g>
<!-- Node35&#45;&gt;Node36 -->
<g id="edge40" class="edge">
<title>Node35&#45;&gt;Node36</title>
<path fill="none" stroke="midnightblue" d="M808.11,-243.56C815.38,-246.04 822.6,-249.14 829,-253 848.92,-265.01 845.12,-278.91 865,-291 869.05,-293.46 873.44,-295.62 877.96,-297.51"/>
<polygon fill="midnightblue" stroke="midnightblue" points="876.76,-300.8 887.36,-301.01 879.21,-294.24 876.76,-300.8"/>
</g>
<!-- Node37 -->
<g id="node36" class="node">
<title>Node37</title>
<g id="a_node36"><a xlink:href="a00532.html#ga3d3f91c0e40884874e7df3a67fff23f3" target="_top" xlink:title="This function sets the pin as input or output.">
<polygon fill="none" stroke="black" points="866.5,-262.5 866.5,-281.5 997.5,-281.5 997.5,-262.5 866.5,-262.5"/>
<text text-anchor="middle" x="932" y="-269.5" font-family="Helvetica,sans-Serif" font-size="10.00">buckGPIO_PrivateInitialize</text>
</a>
</g>
</g>
<!-- Node35&#45;&gt;Node37 -->
<g id="edge42" class="edge">
<title>Node35&#45;&gt;Node37</title>
<path fill="none" stroke="midnightblue" d="M803.9,-243.59C826.53,-248.65 854.5,-254.9 878.43,-260.25"/>
<polygon fill="midnightblue" stroke="midnightblue" points="877.89,-263.71 888.41,-262.48 879.41,-256.88 877.89,-263.71"/>
</g>
<!-- Node8 -->
<g id="node35" class="node">
<title>Node8</title>
<g id="a_node35"><a xlink:href="a00383.html#ga4d67af688d8f7f911d79107974e11e6b" target="_top" xlink:title="Gets pointer to GPIO Instance SFR set.">
<polygon fill="none" stroke="black" points="1052,-257 1052,-287 1152,-287 1152,-257 1052,-257"/>
<text text-anchor="start" x="1060" y="-275" font-family="Helvetica,sans-Serif" font-size="10.00">p33c_GpioInstance</text>
<text text-anchor="middle" x="1102" y="-264" font-family="Helvetica,sans-Serif" font-size="10.00">_GetHandle</text>
</a>
</g>
</g>
<!-- Node36&#45;&gt;Node8 -->
<g id="edge41" class="edge">
<title>Node36&#45;&gt;Node8</title>
<path fill="none" stroke="midnightblue" d="M975.39,-300.41C995.54,-295.85 1019.96,-290.33 1041.89,-285.37"/>
<polygon fill="midnightblue" stroke="midnightblue" points="1042.78,-288.76 1051.76,-283.14 1041.24,-281.93 1042.78,-288.76"/>
</g>
<!-- Node37&#45;&gt;Node8 -->
<g id="edge43" class="edge">
<title>Node37&#45;&gt;Node8</title>
<path fill="none" stroke="midnightblue" d="M997.95,-272C1012.37,-272 1027.57,-272 1041.74,-272"/>
<polygon fill="midnightblue" stroke="midnightblue" points="1041.86,-275.5 1051.86,-272 1041.86,-268.5 1041.86,-275.5"/>
</g>
<!-- Node38&#45;&gt;Node8 -->
<g id="edge47" class="edge">
<title>Node38&#45;&gt;Node8</title>
<path fill="none" stroke="midnightblue" d="M803.72,-205.55C863.86,-218.99 973.72,-243.55 1041.73,-258.75"/>
<polygon fill="midnightblue" stroke="midnightblue" points="1041.34,-262.25 1051.86,-261.02 1042.87,-255.42 1041.34,-262.25"/>
</g>
<!-- Node39 -->
<g id="node38" class="node">
<title>Node39</title>
<g id="a_node38"><a xlink:href="a00532.html#ga91be1e9c6cefeb362af454e71869d042" target="_top" xlink:title="This function initializes the Digital&#45;To&#45;Analog converter, slope compensation and analog comparator u...">
<polygon fill="none" stroke="red" points="865,-186.5 865,-205.5 999,-205.5 999,-186.5 865,-186.5"/>
<text text-anchor="middle" x="932" y="-193.5" font-family="Helvetica,sans-Serif" font-size="10.00">buckDAC_ChannelInitialize</text>
</a>
</g>
</g>
<!-- Node38&#45;&gt;Node39 -->
<g id="edge45" class="edge">
<title>Node38&#45;&gt;Node39</title>
<path fill="none" stroke="midnightblue" d="M829.17,-196C837.51,-196 846.07,-196 854.52,-196"/>
<polygon fill="midnightblue" stroke="midnightblue" points="854.75,-199.5 864.75,-196 854.75,-192.5 854.75,-199.5"/>
</g>
<!-- Node42 -->
<g id="node39" class="node">
<title>Node42</title>
<g id="a_node39"><a xlink:href="a00532.html#gaaabec2f1ada3085513665d34125a7291" target="_top" xlink:title="This function initializes the Digital&#45;To&#45;Analog converter peripheral module.">
<polygon fill="none" stroke="red" points="867,-148.5 867,-167.5 997,-167.5 997,-148.5 867,-148.5"/>
<text text-anchor="middle" x="932" y="-155.5" font-family="Helvetica,sans-Serif" font-size="10.00">buckDAC_ModuleInitialize</text>
</a>
</g>
</g>
<!-- Node38&#45;&gt;Node42 -->
<g id="edge46" class="edge">
<title>Node38&#45;&gt;Node42</title>
<path fill="none" stroke="midnightblue" d="M803.9,-186.41C826.53,-181.35 854.5,-175.1 878.43,-169.75"/>
<polygon fill="midnightblue" stroke="midnightblue" points="879.41,-173.12 888.41,-167.52 877.89,-166.29 879.41,-173.12"/>
</g>
<!-- Node46 -->
<g id="node40" class="node">
<title>Node46</title>
<g id="a_node40"><a xlink:href="a00387.html#ga55e525c7ac54a365ab6dad558ec17f0b" target="_top" xlink:title="Returns the PWM generator index.">
<polygon fill="none" stroke="black" points="878.5,-99 878.5,-129 985.5,-129 985.5,-99 878.5,-99"/>
<text text-anchor="start" x="886.5" y="-117" font-family="Helvetica,sans-Serif" font-size="10.00">p33c_PwmGenerator</text>
<text text-anchor="middle" x="932" y="-106" font-family="Helvetica,sans-Serif" font-size="10.00">_GetHandle</text>
</a>
</g>
</g>
<!-- Node38&#45;&gt;Node46 -->
<g id="edge48" class="edge">
<title>Node38&#45;&gt;Node46</title>
<path fill="none" stroke="midnightblue" d="M808.11,-186.44C815.38,-183.96 822.6,-180.86 829,-177 848.92,-164.99 845.63,-151.89 865,-139 867.89,-137.07 870.95,-135.27 874.11,-133.58"/>
<polygon fill="midnightblue" stroke="midnightblue" points="875.76,-136.67 883.21,-129.13 872.69,-130.38 875.76,-136.67"/>
</g>
<!-- Node51 -->
<g id="node43" class="node">
<title>Node51</title>
<g id="a_node43"><a xlink:href="a00532.html#gab089e35bcd5d68072aa53298ee276959" target="_top" xlink:title="This function enables the ADC module and starts the ADC cores analog inputs for the required input si...">
<polygon fill="none" stroke="black" points="546.5,-170.5 546.5,-189.5 630.5,-189.5 630.5,-170.5 546.5,-170.5"/>
<text text-anchor="middle" x="588.5" y="-177.5" font-family="Helvetica,sans-Serif" font-size="10.00">buckADC_Start</text>
</a>
</g>
</g>
<!-- Node50&#45;&gt;Node51 -->
<g id="edge51" class="edge">
<title>Node50&#45;&gt;Node51</title>
<path fill="none" stroke="midnightblue" d="M452.1,-180C477.91,-180 509.81,-180 536.17,-180"/>
<polygon fill="midnightblue" stroke="midnightblue" points="536.35,-183.5 546.35,-180 536.35,-176.5 536.35,-183.5"/>
</g>
<!-- Node52 -->
<g id="node44" class="node">
<title>Node52</title>
<g id="a_node44"><a xlink:href="a00532.html#gac63073d04bc35c0cce5df47ea0d33165" target="_top" xlink:title="This function enables the buck PWM operation.">
<polygon fill="none" stroke="black" points="715.5,-107.5 715.5,-126.5 804.5,-126.5 804.5,-107.5 715.5,-107.5"/>
<text text-anchor="middle" x="760" y="-114.5" font-family="Helvetica,sans-Serif" font-size="10.00">buckPWM_Start</text>
</a>
</g>
</g>
<!-- Node50&#45;&gt;Node52 -->
<g id="edge52" class="edge">
<title>Node50&#45;&gt;Node52</title>
<path fill="none" stroke="midnightblue" d="M452.31,-171.5C518.1,-159.81 636.21,-138.82 705.08,-126.58"/>
<polygon fill="midnightblue" stroke="midnightblue" points="706.05,-129.97 715.28,-124.77 704.82,-123.07 706.05,-129.97"/>
</g>
<!-- Node52&#45;&gt;Node46 -->
<g id="edge53" class="edge">
<title>Node52&#45;&gt;Node46</title>
<path fill="none" stroke="midnightblue" d="M804.78,-116.23C824.06,-115.89 847.06,-115.48 868.12,-115.11"/>
<polygon fill="midnightblue" stroke="midnightblue" points="868.34,-118.61 878.28,-114.93 868.22,-111.61 868.34,-118.61"/>
</g>
<!-- Node54 -->
<g id="node46" class="node">
<title>Node54</title>
<g id="a_node46"><a xlink:href="a00554.html#ga3966fddf4ec29e64c6d51a93eee8706f" target="_top" xlink:title="Push button event raised at the &quot;pressed&quot; transition.">
<polygon fill="none" stroke="black" points="321,-126.5 321,-145.5 486,-145.5 486,-126.5 321,-126.5"/>
<text text-anchor="middle" x="403.5" y="-133.5" font-family="Helvetica,sans-Serif" font-size="10.00">appPushButton_EventButtonDown</text>
</a>
</g>
</g>
<!-- Node53&#45;&gt;Node54 -->
<g id="edge55" class="edge">
<title>Node53&#45;&gt;Node54</title>
<path fill="none" stroke="midnightblue" d="M282.19,-121.42C292.33,-122.65 303.02,-123.94 313.68,-125.23"/>
<polygon fill="midnightblue" stroke="midnightblue" points="313.52,-128.74 323.87,-126.47 314.36,-121.79 313.52,-128.74"/>
</g>
<!-- Node55 -->
<g id="node47" class="node">
<title>Node55</title>
<g id="a_node47"><a xlink:href="a00554.html#ga6192986e06dbca144461c0315a2a100f" target="_top" xlink:title="Push button event raised at the &quot;is long pressed&quot; detection.">
<polygon fill="none" stroke="black" points="333,-77 333,-107 474,-107 474,-77 333,-77"/>
<text text-anchor="start" x="341" y="-95" font-family="Helvetica,sans-Serif" font-size="10.00">appPushButton_EventButton</text>
<text text-anchor="middle" x="403.5" y="-84" font-family="Helvetica,sans-Serif" font-size="10.00">LongPress</text>
</a>
</g>
</g>
<!-- Node53&#45;&gt;Node55 -->
<g id="edge56" class="edge">
<title>Node53&#45;&gt;Node55</title>
<path fill="none" stroke="midnightblue" d="M282.19,-106.58C295.15,-105.01 309.01,-103.33 322.55,-101.69"/>
<polygon fill="midnightblue" stroke="midnightblue" points="323.31,-105.12 332.81,-100.45 322.46,-98.18 323.31,-105.12"/>
</g>
<!-- Node56 -->
<g id="node48" class="node">
<title>Node56</title>
<g id="a_node48"><a xlink:href="a00554.html#ga13f736396ad1222ff5cbe35947bd60ac" target="_top" xlink:title="Push button event raised at the &quot;not pressed&quot; transition.">
<polygon fill="none" stroke="black" points="327,-38.5 327,-57.5 480,-57.5 480,-38.5 327,-38.5"/>
<text text-anchor="middle" x="403.5" y="-45.5" font-family="Helvetica,sans-Serif" font-size="10.00">appPushButton_EventButtonUp</text>
</a>
</g>
</g>
<!-- Node53&#45;&gt;Node56 -->
<g id="edge57" class="edge">
<title>Node53&#45;&gt;Node56</title>
<path fill="none" stroke="midnightblue" d="M261.11,-104.48C269.22,-101.89 277.54,-98.75 285,-95 302.87,-86.01 302.92,-76.56 321,-68 327.1,-65.11 333.67,-62.61 340.33,-60.46"/>
<polygon fill="midnightblue" stroke="midnightblue" points="341.53,-63.75 350.12,-57.54 339.53,-57.04 341.53,-63.75"/>
</g>
<!-- Node57 -->
<g id="node49" class="node">
<title>Node57</title>
<g id="a_node49"><a xlink:href="a00557.html#gaa3ce9c320a37ebc6e1ae113c82e68747" target="_top" xlink:title="Initializes the push button device driver.">
<polygon fill="none" stroke="black" points="341,-0.5 341,-19.5 466,-19.5 466,-0.5 341,-0.5"/>
<text text-anchor="middle" x="403.5" y="-7.5" font-family="Helvetica,sans-Serif" font-size="10.00">drv_PushButton_Initialize</text>
</a>
</g>
</g>
<!-- Node53&#45;&gt;Node57 -->
<g id="edge58" class="edge">
<title>Node53&#45;&gt;Node57</title>
<path fill="none" stroke="midnightblue" d="M268.9,-104.39C274.68,-101.94 280.22,-98.86 285,-95 310.98,-73.99 294.41,-49.23 321,-29 324.23,-26.55 327.72,-24.4 331.37,-22.53"/>
<polygon fill="midnightblue" stroke="midnightblue" points="333.01,-25.63 340.76,-18.41 330.2,-19.22 333.01,-25.63"/>
</g>
</g>
</svg>
