<?xml version="1.0" encoding="UTF-8" standalone="no"?>
<!DOCTYPE svg PUBLIC "-//W3C//DTD SVG 1.1//EN"
 "http://www.w3.org/Graphics/SVG/1.1/DTD/svg11.dtd">
<!-- Generated by graphviz version 2.44.1 (20200629.0846)
 -->
<!-- Title: Oscillator Module (OSC) Pages: 1 -->
<svg width="364pt" height="64pt"
 viewBox="0.00 0.00 364.00 64.00" xmlns="http://www.w3.org/2000/svg" xmlns:xlink="http://www.w3.org/1999/xlink">
<g id="graph0" class="graph" transform="scale(1 1) rotate(0) translate(4 60)">
<title>Oscillator Module (OSC)</title>
<!-- Node1 -->
<g id="node1" class="node">
<title>Node1</title>
<g id="a_node1"><a xlink:title="Oscillator Module Special Function Register Abstraction Driver.">
<polygon fill="#bfbfbf" stroke="black" points="227,-42.5 135,-42.5 135,-12.5 227,-12.5 227,-42.5"/>
<text text-anchor="start" x="143" y="-30.5" font-family="Helvetica,sans-Serif" font-size="10.00">Oscillator Module</text>
<text text-anchor="middle" x="181" y="-19.5" font-family="Helvetica,sans-Serif" font-size="10.00"> (OSC)</text>
</a>
</g>
</g>
<!-- Node4 -->
<g id="node2" class="node">
<title>Node4</title>
<g id="a_node2"><a xlink:href="a00393.html" target="_top" xlink:title="Private properties of the OSC PRAL driver.">
<polygon fill="none" stroke="black" points="356,-56 263,-56 263,-37 356,-37 356,-56"/>
<text text-anchor="middle" x="309.5" y="-44" font-family="Helvetica,sans-Serif" font-size="10.00">Private Properties</text>
</a>
</g>
</g>
<!-- Node1&#45;&gt;Node4 -->
<g id="edge3" class="edge">
<title>Node1&#45;&gt;Node4</title>
<path fill="none" stroke="black" d="M237.45,-35.83C245.86,-37.09 254.47,-38.38 262.65,-39.61"/>
<polygon fill="black" stroke="black" points="237.72,-32.33 227.31,-34.31 236.68,-39.25 237.72,-32.33"/>
</g>
<!-- Node3 -->
<g id="node4" class="node">
<title>Node3</title>
<g id="a_node4"><a xlink:href="a00385.html" target="_top" xlink:title="Public functions of the OSC PRAL driver.">
<polygon fill="none" stroke="black" points="354,-19 265,-19 265,0 354,0 354,-19"/>
<text text-anchor="middle" x="309.5" y="-7" font-family="Helvetica,sans-Serif" font-size="10.00">Public Functions</text>
</a>
</g>
</g>
<!-- Node1&#45;&gt;Node3 -->
<g id="edge2" class="edge">
<title>Node1&#45;&gt;Node3</title>
<path fill="none" stroke="black" d="M237.49,-19.6C246.63,-18.3 255.98,-16.97 264.77,-15.72"/>
<polygon fill="black" stroke="black" points="236.72,-16.18 227.31,-21.05 237.71,-23.11 236.72,-16.18"/>
</g>
<!-- Node2 -->
<g id="node3" class="node">
<title>Node2</title>
<g id="a_node3"><a xlink:href="a00371.html" target="_top" xlink:title=" ">
<polygon fill="none" stroke="black" points="99,-48 0,-48 0,-7 99,-7 99,-48"/>
<text text-anchor="start" x="8" y="-36" font-family="Helvetica,sans-Serif" font-size="10.00">Peripheral Register</text>
<text text-anchor="start" x="8" y="-25" font-family="Helvetica,sans-Serif" font-size="10.00"> Abstraction Layer </text>
<text text-anchor="middle" x="49.5" y="-14" font-family="Helvetica,sans-Serif" font-size="10.00">(PRAL) Library</text>
</a>
</g>
</g>
<!-- Node2&#45;&gt;Node1 -->
<g id="edge1" class="edge">
<title>Node2&#45;&gt;Node1</title>
<path fill="none" stroke="black" d="M109.16,-27.5C117.83,-27.5 126.65,-27.5 134.99,-27.5"/>
<polygon fill="black" stroke="black" points="109.09,-24 99.09,-27.5 109.09,-31 109.09,-24"/>
</g>
</g>
</svg>
