<?xml version="1.0" encoding="UTF-8" standalone="no"?>
<!DOCTYPE svg PUBLIC "-//W3C//DTD SVG 1.1//EN"
 "http://www.w3.org/Graphics/SVG/1.1/DTD/svg11.dtd">
<!-- Generated by graphviz version 2.44.1 (20200629.0846)
 -->
<!-- Title: main Pages: 1 -->
<!--zoomable 1035 -->
<svg id="main" version="1.1" xmlns="http://www.w3.org/2000/svg" xmlns:xlink="http://www.w3.org/1999/xlink" xml:space="preserve" onload="init(evt)">
<style type="text/css"><![CDATA[
.edge:hover path { stroke: red; }
.edge:hover polygon { stroke: red; fill: red; }
]]></style>
<script type="text/javascript"><![CDATA[
var edges = document.getElementsByTagName('g');
if (edges && edges.length) {
  for (var i=0;i<edges.length;i++) {
    if (edges[i].id.substr(0,4)=='edge') {
      edges[i].setAttribute('class','edge');
    }
  }
}
]]></script>
        <defs>
                <circle id="rim" cx="0" cy="0" r="7"/>
                <circle id="rim2" cx="0" cy="0" r="3.5"/>
                <g id="zoomPlus">
                        <use xlink:href="#rim" fill="#404040">
                                <set attributeName="fill" to="#808080" begin="zoomplus.mouseover" end="zoomplus.mouseout"/>
                        </use>
                        <path d="M-4,0h8M0,-4v8" fill="none" stroke="white" stroke-width="1.5" pointer-events="none"/>
                </g>
                <g id="zoomMin">
                        <use xlink:href="#rim" fill="#404040">
                                <set attributeName="fill" to="#808080" begin="zoomminus.mouseover" end="zoomminus.mouseout"/>
                        </use>
                        <path d="M-4,0h8" fill="none" stroke="white" stroke-width="1.5" pointer-events="none"/>
                </g>
                <g id="dirArrow">
                        <path fill="none" stroke="white" stroke-width="1.5" d="M0,-3.0v7 M-2.5,-0.5L0,-3.0L2.5,-0.5"/>
                </g>
               <g id="resetDef">
                       <use xlink:href="#rim2" fill="#404040">
                               <set attributeName="fill" to="#808080" begin="reset.mouseover" end="reset.mouseout"/>
                       </use>
               </g>
        </defs>

<script type="text/javascript">
var viewWidth = 712;
var viewHeight = 1035;
var sectionId = 'dynsection-1';
</script>
<script xlink:href="svgpan.js"/>
<svg id="graph" class="graph">
<g id="viewport">
<title>main</title>
<!-- Node1 -->
<g id="node1" class="node">
<title>Node1</title>
<g id="a_node1"><a xlink:title="Application main function executed after device comes out of RESET.">
<polygon fill="#bfbfbf" stroke="black" points="0,-358.5 0,-377.5 38,-377.5 38,-358.5 0,-358.5"/>
<text text-anchor="middle" x="19" y="-365.5" font-family="Helvetica,sans-Serif" font-size="10.00">main</text>
</a>
</g>
</g>
<!-- Node2 -->
<g id="node2" class="node">
<title>Node2</title>
<g id="a_node2"><a xlink:href="a00353.html#gaa1ec8154dbf983b02b3b2dc186c5079d" target="_top" xlink:title="Low priority task sequence executed after the high priority task sequence execution is complete.">
<polygon fill="none" stroke="black" points="80,-405 80,-435 187,-435 187,-405 80,-405"/>
<text text-anchor="start" x="88" y="-423" font-family="Helvetica,sans-Serif" font-size="10.00">sysLowPriorityTasks</text>
<text text-anchor="middle" x="133.5" y="-412" font-family="Helvetica,sans-Serif" font-size="10.00">_Execute</text>
</a>
</g>
</g>
<!-- Node1&#45;&gt;Node2 -->
<g id="edge1" class="edge">
<title>Node1&#45;&gt;Node2</title>
<path fill="none" stroke="midnightblue" d="M38.08,-376.35C52.25,-382.91 72.55,-392.29 90.7,-400.68"/>
<polygon fill="midnightblue" stroke="midnightblue" points="89.4,-403.93 99.95,-404.95 92.34,-397.58 89.4,-403.93"/>
</g>
<!-- Node14 -->
<g id="node10" class="node">
<title>Node14</title>
<g id="a_node10"><a xlink:href="a00365.html#ga4c811c3414a3785423f828be293562f0" target="_top" xlink:title=" ">
<polygon fill="none" stroke="black" points="81.5,-358.5 81.5,-377.5 185.5,-377.5 185.5,-358.5 81.5,-358.5"/>
<text text-anchor="middle" x="133.5" y="-365.5" font-family="Helvetica,sans-Serif" font-size="10.00">sysOsTimer_Enable</text>
</a>
</g>
</g>
<!-- Node1&#45;&gt;Node14 -->
<g id="edge9" class="edge">
<title>Node1&#45;&gt;Node14</title>
<path fill="none" stroke="midnightblue" d="M38.08,-368C47.29,-368 59.11,-368 71.23,-368"/>
<polygon fill="midnightblue" stroke="midnightblue" points="71.44,-371.5 81.44,-368 71.44,-364.5 71.44,-371.5"/>
</g>
<!-- Node15 -->
<g id="node11" class="node">
<title>Node15</title>
<g id="a_node11"><a xlink:href="a00356.html#ga12ce46460ff0657fc879f5b23ed8ccb1" target="_top" xlink:title="Initializes essential chip resources.">
<polygon fill="none" stroke="black" points="84.5,-304.5 84.5,-323.5 182.5,-323.5 182.5,-304.5 84.5,-304.5"/>
<text text-anchor="middle" x="133.5" y="-311.5" font-family="Helvetica,sans-Serif" font-size="10.00">SYSTEM_Initialize</text>
</a>
</g>
</g>
<!-- Node1&#45;&gt;Node15 -->
<g id="edge10" class="edge">
<title>Node1&#45;&gt;Node15</title>
<path fill="none" stroke="midnightblue" d="M38.08,-359.32C55.66,-350.88 82.68,-337.92 103.31,-328.01"/>
<polygon fill="midnightblue" stroke="midnightblue" points="105.07,-331.05 112.57,-323.56 102.04,-324.74 105.07,-331.05"/>
</g>
<!-- Node23 -->
<g id="node18" class="node">
<title>Node23</title>
<g id="a_node18"><a xlink:href="a00361.html#ga70c5cba054e38a4e8c8285a187ff61fa" target="_top" xlink:title="Initializes the user&#45;defined chip resources.">
<polygon fill="none" stroke="black" points="83,-109 83,-139 184,-139 184,-109 83,-109"/>
<text text-anchor="start" x="91" y="-127" font-family="Helvetica,sans-Serif" font-size="10.00">sysUserPeriperhals</text>
<text text-anchor="middle" x="133.5" y="-116" font-family="Helvetica,sans-Serif" font-size="10.00">_Initialize</text>
</a>
</g>
</g>
<!-- Node1&#45;&gt;Node23 -->
<g id="edge17" class="edge">
<title>Node1&#45;&gt;Node23</title>
<path fill="none" stroke="midnightblue" d="M24.41,-358.43C40.59,-323.34 97.02,-200.96 121.28,-148.35"/>
<polygon fill="midnightblue" stroke="midnightblue" points="124.54,-149.63 125.54,-139.08 118.18,-146.7 124.54,-149.63"/>
</g>
<!-- Node36 -->
<g id="node31" class="node">
<title>Node36</title>
<g id="a_node31"><a xlink:href="a00366.html#ga2be64f5f0b9a2c0c6713f5a69d793e05" target="_top" xlink:title="Initializes the user&#45;defined tasks.">
<polygon fill="none" stroke="black" points="74,-636.5 74,-655.5 193,-655.5 193,-636.5 74,-636.5"/>
<text text-anchor="middle" x="133.5" y="-643.5" font-family="Helvetica,sans-Serif" font-size="10.00">sysUserTasks_Initialize</text>
</a>
</g>
</g>
<!-- Node1&#45;&gt;Node36 -->
<g id="edge34" class="edge">
<title>Node1&#45;&gt;Node36</title>
<path fill="none" stroke="midnightblue" d="M23.87,-377.57C40.1,-417.67 102.8,-572.61 124.81,-627"/>
<polygon fill="midnightblue" stroke="midnightblue" points="121.65,-628.51 128.64,-636.47 128.14,-625.89 121.65,-628.51"/>
</g>
<!-- Node3 -->
<g id="node3" class="node">
<title>Node3</title>
<g id="a_node3"><a xlink:href="a00482.html#gacd8e3f8ca8af94f13f7efa0df7ced6f5" target="_top" xlink:title="Refreshes the LC display.">
<polygon fill="none" stroke="black" points="249,-456.5 249,-475.5 341,-475.5 341,-456.5 249,-456.5"/>
<text text-anchor="middle" x="295" y="-463.5" font-family="Helvetica,sans-Serif" font-size="10.00">appLCD_Execute</text>
</a>
</g>
</g>
<!-- Node2&#45;&gt;Node3 -->
<g id="edge2" class="edge">
<title>Node2&#45;&gt;Node3</title>
<path fill="none" stroke="midnightblue" d="M186.73,-435.06C207.56,-441.07 231.24,-447.9 251.05,-453.61"/>
<polygon fill="midnightblue" stroke="midnightblue" points="250.14,-456.99 260.72,-456.4 252.08,-450.27 250.14,-456.99"/>
</g>
<!-- Node11 -->
<g id="node7" class="node">
<title>Node11</title>
<g id="a_node7"><a xlink:href="a00497.html#gaaa8c86cbd692a090f955022c93593a68" target="_top" xlink:title="Executes the debugging LED driver.">
<polygon fill="none" stroke="black" points="249,-418.5 249,-437.5 341,-437.5 341,-418.5 249,-418.5"/>
<text text-anchor="middle" x="295" y="-425.5" font-family="Helvetica,sans-Serif" font-size="10.00">appLED_Execute</text>
</a>
</g>
</g>
<!-- Node2&#45;&gt;Node11 -->
<g id="edge6" class="edge">
<title>Node2&#45;&gt;Node11</title>
<path fill="none" stroke="midnightblue" d="M187.17,-422.64C203.7,-423.47 221.99,-424.39 238.7,-425.23"/>
<polygon fill="midnightblue" stroke="midnightblue" points="238.71,-428.73 248.87,-425.74 239.06,-421.74 238.71,-428.73"/>
</g>
<!-- Node12 -->
<g id="node8" class="node">
<title>Node12</title>
<g id="a_node8"><a xlink:href="a00552.html#gac8eaed20cfb248e14fe71e45483203f7" target="_top" xlink:title="Executes the USER push button monitor.">
<polygon fill="none" stroke="black" points="232.5,-380.5 232.5,-399.5 357.5,-399.5 357.5,-380.5 232.5,-380.5"/>
<text text-anchor="middle" x="295" y="-387.5" font-family="Helvetica,sans-Serif" font-size="10.00">appPushButton_Execute</text>
</a>
</g>
</g>
<!-- Node2&#45;&gt;Node12 -->
<g id="edge7" class="edge">
<title>Node2&#45;&gt;Node12</title>
<path fill="none" stroke="midnightblue" d="M187.17,-410.09C201.98,-407.31 218.21,-404.26 233.44,-401.39"/>
<polygon fill="midnightblue" stroke="midnightblue" points="234.1,-404.83 243.28,-399.54 232.81,-397.95 234.1,-404.83"/>
</g>
<!-- Node4 -->
<g id="node4" class="node">
<title>Node4</title>
<g id="a_node4"><a xlink:href="a00487.html#ga24701a4c3ae760e7e0b9c70d93370ff3" target="_top" xlink:title="Sets the cursor position to the given x&#45; and y&#45;coordinates and writes the given string on the lcd scr...">
<polygon fill="none" stroke="black" points="420.5,-456.5 420.5,-475.5 538.5,-475.5 538.5,-456.5 420.5,-456.5"/>
<text text-anchor="middle" x="479.5" y="-463.5" font-family="Helvetica,sans-Serif" font-size="10.00">dev_Lcd_WriteStringXY</text>
</a>
</g>
</g>
<!-- Node3&#45;&gt;Node4 -->
<g id="edge3" class="edge">
<title>Node3&#45;&gt;Node4</title>
<path fill="none" stroke="midnightblue" d="M341.11,-466C361.98,-466 387.23,-466 410.35,-466"/>
<polygon fill="midnightblue" stroke="midnightblue" points="410.46,-469.5 420.46,-466 410.46,-462.5 410.46,-469.5"/>
</g>
<!-- Node5 -->
<g id="node5" class="node">
<title>Node5</title>
<g id="a_node5"><a xlink:href="a00487.html#ga5c431635cb94750b2f6e938d7f1f0cf1" target="_top" xlink:title="Sets the cursor position to the given x&#45; and y&#45;coordinates.">
<polygon fill="none" stroke="red" points="606,-475.5 606,-494.5 696,-494.5 696,-475.5 606,-475.5"/>
<text text-anchor="middle" x="651" y="-482.5" font-family="Helvetica,sans-Serif" font-size="10.00">dev_Lcd_GotoXY</text>
</a>
</g>
</g>
<!-- Node4&#45;&gt;Node5 -->
<g id="edge4" class="edge">
<title>Node4&#45;&gt;Node5</title>
<path fill="none" stroke="midnightblue" d="M538.83,-472.54C557.25,-474.6 577.52,-476.88 595.64,-478.91"/>
<polygon fill="midnightblue" stroke="midnightblue" points="595.43,-482.4 605.75,-480.04 596.21,-475.45 595.43,-482.4"/>
</g>
<!-- Node8 -->
<g id="node6" class="node">
<title>Node8</title>
<g id="a_node6"><a xlink:href="a00487.html#gac07de05132918ca2db8cf4492819eca6" target="_top" xlink:title="Writes a complete string on the LCD screen.">
<polygon fill="none" stroke="red" points="598,-437.5 598,-456.5 704,-456.5 704,-437.5 598,-437.5"/>
<text text-anchor="middle" x="651" y="-444.5" font-family="Helvetica,sans-Serif" font-size="10.00">dev_Lcd_WriteString</text>
</a>
</g>
</g>
<!-- Node4&#45;&gt;Node8 -->
<g id="edge5" class="edge">
<title>Node4&#45;&gt;Node8</title>
<path fill="none" stroke="midnightblue" d="M538.83,-459.46C554.54,-457.7 571.6,-455.79 587.53,-454"/>
<polygon fill="midnightblue" stroke="midnightblue" points="588.26,-457.44 597.8,-452.85 587.48,-450.49 588.26,-457.44"/>
</g>
<!-- Node13 -->
<g id="node9" class="node">
<title>Node13</title>
<g id="a_node9"><a xlink:href="a00557.html#ga29d5123115f34320a92fabc8be2f796c" target="_top" xlink:title="Initializes the push button device driver.">
<polygon fill="none" stroke="black" points="416.5,-380.5 416.5,-399.5 542.5,-399.5 542.5,-380.5 416.5,-380.5"/>
<text text-anchor="middle" x="479.5" y="-387.5" font-family="Helvetica,sans-Serif" font-size="10.00">drv_PushButton_Execute</text>
</a>
</g>
</g>
<!-- Node12&#45;&gt;Node13 -->
<g id="edge8" class="edge">
<title>Node12&#45;&gt;Node13</title>
<path fill="none" stroke="midnightblue" d="M357.53,-390C373.07,-390 389.89,-390 405.91,-390"/>
<polygon fill="midnightblue" stroke="midnightblue" points="406.3,-393.5 416.3,-390 406.3,-386.5 406.3,-393.5"/>
</g>
<!-- Node16 -->
<g id="node12" class="node">
<title>Node16</title>
<g id="a_node12"><a xlink:href="a00357.html#ga3f3f3c22c6c2b95518271fae8f58b03f" target="_top" xlink:title="Initializes the auxiliary clock of the device.">
<polygon fill="none" stroke="black" points="249,-266.5 249,-285.5 341,-285.5 341,-266.5 249,-266.5"/>
<text text-anchor="middle" x="295" y="-273.5" font-family="Helvetica,sans-Serif" font-size="10.00">sysAclk_Initialize</text>
</a>
</g>
</g>
<!-- Node15&#45;&gt;Node16 -->
<g id="edge11" class="edge">
<title>Node15&#45;&gt;Node16</title>
<path fill="none" stroke="midnightblue" d="M174.75,-304.41C195.8,-299.4 221.76,-293.21 244.07,-287.89"/>
<polygon fill="midnightblue" stroke="midnightblue" points="245.12,-291.24 254.04,-285.52 243.5,-284.43 245.12,-291.24"/>
</g>
<!-- Node19 -->
<g id="node14" class="node">
<title>Node19</title>
<g id="a_node14"><a xlink:href="a00359.html#gae104c8e1fd4160f749fefbcf540f5a07" target="_top" xlink:title="Digital Signal Processor initialization.">
<polygon fill="none" stroke="black" points="250,-228.5 250,-247.5 340,-247.5 340,-228.5 250,-228.5"/>
<text text-anchor="middle" x="295" y="-235.5" font-family="Helvetica,sans-Serif" font-size="10.00">sysDsp_Initialize</text>
</a>
</g>
</g>
<!-- Node15&#45;&gt;Node19 -->
<g id="edge13" class="edge">
<title>Node15&#45;&gt;Node19</title>
<path fill="none" stroke="midnightblue" d="M147.98,-304.33C165.79,-291.92 198.47,-270.4 229,-257 234.31,-254.67 239.99,-252.53 245.69,-250.6"/>
<polygon fill="midnightblue" stroke="midnightblue" points="246.8,-253.92 255.26,-247.54 244.67,-247.25 246.8,-253.92"/>
</g>
<!-- Node20 -->
<g id="node15" class="node">
<title>Node20</title>
<g id="a_node15"><a xlink:href="a00357.html#ga40d0188218fbc4f682cbddffff9e1269" target="_top" xlink:title="System oscillator initialization.">
<polygon fill="none" stroke="black" points="247.5,-342.5 247.5,-361.5 342.5,-361.5 342.5,-342.5 247.5,-342.5"/>
<text text-anchor="middle" x="295" y="-349.5" font-family="Helvetica,sans-Serif" font-size="10.00">sysFosc_Initialize</text>
</a>
</g>
</g>
<!-- Node15&#45;&gt;Node20 -->
<g id="edge14" class="edge">
<title>Node15&#45;&gt;Node20</title>
<path fill="none" stroke="midnightblue" d="M174.75,-323.59C195.8,-328.6 221.76,-334.79 244.07,-340.11"/>
<polygon fill="midnightblue" stroke="midnightblue" points="243.5,-343.57 254.04,-342.48 245.12,-336.76 243.5,-343.57"/>
</g>
<!-- Node22 -->
<g id="node17" class="node">
<title>Node22</title>
<g id="a_node17"><a xlink:href="a00358.html#ga79cb6e309797560a9a262a562fe40fee" target="_top" xlink:title="Resets the device input/output pins to digital inputs.">
<polygon fill="none" stroke="black" points="248.5,-304.5 248.5,-323.5 341.5,-323.5 341.5,-304.5 248.5,-304.5"/>
<text text-anchor="middle" x="295" y="-311.5" font-family="Helvetica,sans-Serif" font-size="10.00">sysGpio_Initialize</text>
</a>
</g>
</g>
<!-- Node15&#45;&gt;Node22 -->
<g id="edge16" class="edge">
<title>Node15&#45;&gt;Node22</title>
<path fill="none" stroke="midnightblue" d="M182.79,-314C200.27,-314 220.15,-314 238.22,-314"/>
<polygon fill="midnightblue" stroke="midnightblue" points="238.33,-317.5 248.33,-314 238.33,-310.5 238.33,-317.5"/>
</g>
<!-- Node17 -->
<g id="node13" class="node">
<title>Node17</title>
<g id="a_node13"><a xlink:href="a00385.html#gab06b90f28b398245a399304dde2c1576" target="_top" xlink:title="Initializes the auxiliary clock and its PLL module step by step in software. Each step is tested and ...">
<polygon fill="none" stroke="red" points="398,-266.5 398,-285.5 561,-285.5 561,-266.5 398,-266.5"/>
<text text-anchor="middle" x="479.5" y="-273.5" font-family="Helvetica,sans-Serif" font-size="10.00">p33c_OscAuxClk_DefaultInitialize</text>
</a>
</g>
</g>
<!-- Node16&#45;&gt;Node17 -->
<g id="edge12" class="edge">
<title>Node16&#45;&gt;Node17</title>
<path fill="none" stroke="midnightblue" d="M341.11,-276C355.27,-276 371.45,-276 387.6,-276"/>
<polygon fill="midnightblue" stroke="midnightblue" points="387.64,-279.5 397.64,-276 387.64,-272.5 387.64,-279.5"/>
</g>
<!-- Node21 -->
<g id="node16" class="node">
<title>Node21</title>
<g id="a_node16"><a xlink:href="a00385.html#ga110faf14914c3a8ebb3a4c1486aefb9d" target="_top" xlink:title="Initializes the major oscillator and the PLL module step by step by using clock switching in software...">
<polygon fill="none" stroke="black" points="406.5,-342.5 406.5,-361.5 552.5,-361.5 552.5,-342.5 406.5,-342.5"/>
<text text-anchor="middle" x="479.5" y="-349.5" font-family="Helvetica,sans-Serif" font-size="10.00">p33c_OscFrc_DefaultInitialize</text>
</a>
</g>
</g>
<!-- Node20&#45;&gt;Node21 -->
<g id="edge15" class="edge">
<title>Node20&#45;&gt;Node21</title>
<path fill="none" stroke="midnightblue" d="M342.52,-352C358.83,-352 377.67,-352 396.03,-352"/>
<polygon fill="midnightblue" stroke="midnightblue" points="396.16,-355.5 406.16,-352 396.16,-348.5 396.16,-355.5"/>
</g>
<!-- Node24 -->
<g id="node19" class="node">
<title>Node24</title>
<g id="a_node19"><a xlink:href="a00362.html#gab420e63336f317e197b1cb8861561c3f" target="_top" xlink:title="DAC Module Base Register Initialization.">
<polygon fill="none" stroke="black" points="234,-190.5 234,-209.5 356,-209.5 356,-190.5 234,-190.5"/>
<text text-anchor="middle" x="295" y="-197.5" font-family="Helvetica,sans-Serif" font-size="10.00">sysDacModule_Initialize</text>
</a>
</g>
</g>
<!-- Node23&#45;&gt;Node24 -->
<g id="edge18" class="edge">
<title>Node23&#45;&gt;Node24</title>
<path fill="none" stroke="midnightblue" d="M155.78,-139.03C174.39,-151.63 202.51,-169.37 229,-181 234.31,-183.33 239.99,-185.47 245.69,-187.4"/>
<polygon fill="midnightblue" stroke="midnightblue" points="244.67,-190.75 255.26,-190.46 246.8,-184.08 244.67,-190.75"/>
</g>
<!-- Node28 -->
<g id="node23" class="node">
<title>Node28</title>
<g id="a_node23"><a xlink:href="a00362.html#ga2f97c3082e0d6f724cea482c10c2d08f" target="_top" xlink:title=" ">
<polygon fill="none" stroke="black" points="238,-152.5 238,-171.5 352,-171.5 352,-152.5 238,-152.5"/>
<text text-anchor="middle" x="295" y="-159.5" font-family="Helvetica,sans-Serif" font-size="10.00">sysDacOutput_Enable</text>
</a>
</g>
</g>
<!-- Node23&#45;&gt;Node28 -->
<g id="edge22" class="edge">
<title>Node23&#45;&gt;Node28</title>
<path fill="none" stroke="midnightblue" d="M184.09,-135.82C203.25,-140.38 225.13,-145.59 244.3,-150.16"/>
<polygon fill="midnightblue" stroke="midnightblue" points="243.51,-153.57 254.04,-152.48 245.13,-146.76 243.51,-153.57"/>
</g>
<!-- Node30 -->
<g id="node25" class="node">
<title>Node30</title>
<g id="a_node25"><a xlink:href="a00362.html#ga231ffdd65b0ae520b467cbc6fbbf8d03" target="_top" xlink:title="Initializes a user specified DAC instance with DAC output enabled.">
<polygon fill="none" stroke="black" points="235.5,-114.5 235.5,-133.5 354.5,-133.5 354.5,-114.5 235.5,-114.5"/>
<text text-anchor="middle" x="295" y="-121.5" font-family="Helvetica,sans-Serif" font-size="10.00">sysDacOutput_Initialize</text>
</a>
</g>
</g>
<!-- Node23&#45;&gt;Node30 -->
<g id="edge25" class="edge">
<title>Node23&#45;&gt;Node30</title>
<path fill="none" stroke="midnightblue" d="M184.09,-124C197.19,-124 211.56,-124 225.47,-124"/>
<polygon fill="midnightblue" stroke="midnightblue" points="225.49,-127.5 235.49,-124 225.49,-120.5 225.49,-127.5"/>
</g>
<!-- Node32 -->
<g id="node27" class="node">
<title>Node32</title>
<g id="a_node27"><a xlink:href="a00363.html#gaf4c74cf390185b49d99838e0f9885076" target="_top" xlink:title="Initializes the on&#45;chip operational amplifier module.">
<polygon fill="none" stroke="black" points="242,-38.5 242,-57.5 348,-57.5 348,-38.5 242,-38.5"/>
<text text-anchor="middle" x="295" y="-45.5" font-family="Helvetica,sans-Serif" font-size="10.00">sysOpAmp_Initialize</text>
</a>
</g>
</g>
<!-- Node23&#45;&gt;Node32 -->
<g id="edge28" class="edge">
<title>Node23&#45;&gt;Node32</title>
<path fill="none" stroke="midnightblue" d="M155.78,-108.97C174.39,-96.37 202.51,-78.63 229,-67 234.31,-64.67 239.99,-62.53 245.69,-60.6"/>
<polygon fill="midnightblue" stroke="midnightblue" points="246.8,-63.92 255.26,-57.54 244.67,-57.25 246.8,-63.92"/>
</g>
<!-- Node34 -->
<g id="node29" class="node">
<title>Node34</title>
<g id="a_node29"><a xlink:href="a00363.html#ga3cd080c9a48a5d74d8b2f89fdec161da" target="_top" xlink:title="Enables the on&#45;chip operational amplifier module.">
<polygon fill="none" stroke="black" points="229,-0.5 229,-19.5 361,-19.5 361,-0.5 229,-0.5"/>
<text text-anchor="middle" x="295" y="-7.5" font-family="Helvetica,sans-Serif" font-size="10.00">sysOpAmp_ModuleEnable</text>
</a>
</g>
</g>
<!-- Node23&#45;&gt;Node34 -->
<g id="edge30" class="edge">
<title>Node23&#45;&gt;Node34</title>
<path fill="none" stroke="midnightblue" d="M145.56,-108.81C161.62,-87.82 193.4,-50.16 229,-29 232.64,-26.84 236.54,-24.91 240.56,-23.19"/>
<polygon fill="midnightblue" stroke="midnightblue" points="241.98,-26.39 250.07,-19.54 239.48,-19.85 241.98,-26.39"/>
</g>
<!-- Node35 -->
<g id="node30" class="node">
<title>Node35</title>
<g id="a_node30"><a xlink:href="a00363.html#ga4dbd2367ecd449226460b0b0a52cbe8b" target="_top" xlink:title="Resets the on&#45;chip operational amplifier module.">
<polygon fill="none" stroke="black" points="231,-76.5 231,-95.5 359,-95.5 359,-76.5 231,-76.5"/>
<text text-anchor="middle" x="295" y="-83.5" font-family="Helvetica,sans-Serif" font-size="10.00">sysOpAmp_ModuleReset</text>
</a>
</g>
</g>
<!-- Node23&#45;&gt;Node35 -->
<g id="edge32" class="edge">
<title>Node23&#45;&gt;Node35</title>
<path fill="none" stroke="midnightblue" d="M184.09,-112.18C203.25,-107.62 225.13,-102.41 244.3,-97.84"/>
<polygon fill="midnightblue" stroke="midnightblue" points="245.13,-101.24 254.04,-95.52 243.51,-94.43 245.13,-101.24"/>
</g>
<!-- Node25 -->
<g id="node20" class="node">
<title>Node25</title>
<g id="a_node20"><a xlink:href="a00381.html#gaddf7b491a947c7f557b89235588c0219" target="_top" xlink:title="Writes a user&#45;defined configuration to the DAC module base registers.">
<polygon fill="none" stroke="black" points="406,-228.5 406,-247.5 553,-247.5 553,-228.5 406,-228.5"/>
<text text-anchor="middle" x="479.5" y="-235.5" font-family="Helvetica,sans-Serif" font-size="10.00">p33c_DacModule_ConfigWrite</text>
</a>
</g>
</g>
<!-- Node24&#45;&gt;Node25 -->
<g id="edge19" class="edge">
<title>Node24&#45;&gt;Node25</title>
<path fill="none" stroke="midnightblue" d="M342.05,-209.59C366.57,-214.69 396.91,-221.01 422.75,-226.39"/>
<polygon fill="midnightblue" stroke="midnightblue" points="422.28,-229.87 432.78,-228.48 423.7,-223.01 422.28,-229.87"/>
</g>
<!-- Node26 -->
<g id="node21" class="node">
<title>Node26</title>
<g id="a_node21"><a xlink:href="a00381.html#gaf0ea62728fde73f2119e47f67baf2ff0" target="_top" xlink:title="Resets all DAC Module registers to their RESET default values.">
<polygon fill="none" stroke="black" points="413.5,-190.5 413.5,-209.5 545.5,-209.5 545.5,-190.5 413.5,-190.5"/>
<text text-anchor="middle" x="479.5" y="-197.5" font-family="Helvetica,sans-Serif" font-size="10.00">p33c_DacModule_Dispose</text>
</a>
</g>
</g>
<!-- Node24&#45;&gt;Node26 -->
<g id="edge20" class="edge">
<title>Node24&#45;&gt;Node26</title>
<path fill="none" stroke="midnightblue" d="M356.01,-200C371.09,-200 387.47,-200 403.2,-200"/>
<polygon fill="midnightblue" stroke="midnightblue" points="403.42,-203.5 413.42,-200 403.42,-196.5 403.42,-203.5"/>
</g>
<!-- Node27 -->
<g id="node22" class="node">
<title>Node27</title>
<g id="a_node22"><a xlink:href="a00381.html#ga72e7cdf4177d0403e8ff925314ec1bc7" target="_top" xlink:title="Gets pointer to DAC Module SFR set.">
<polygon fill="none" stroke="black" points="408,-152.5 408,-171.5 551,-171.5 551,-152.5 408,-152.5"/>
<text text-anchor="middle" x="479.5" y="-159.5" font-family="Helvetica,sans-Serif" font-size="10.00">p33c_DacModule_GetHandle</text>
</a>
</g>
</g>
<!-- Node24&#45;&gt;Node27 -->
<g id="edge21" class="edge">
<title>Node24&#45;&gt;Node27</title>
<path fill="none" stroke="midnightblue" d="M342.05,-190.41C366.57,-185.31 396.91,-178.99 422.75,-173.61"/>
<polygon fill="midnightblue" stroke="midnightblue" points="423.7,-176.99 432.78,-171.52 422.28,-170.13 423.7,-176.99"/>
</g>
<!-- Node28&#45;&gt;Node27 -->
<g id="edge24" class="edge">
<title>Node28&#45;&gt;Node27</title>
<path fill="none" stroke="midnightblue" d="M352.25,-162C366.68,-162 382.49,-162 397.89,-162"/>
<polygon fill="midnightblue" stroke="midnightblue" points="397.93,-165.5 407.93,-162 397.93,-158.5 397.93,-165.5"/>
</g>
<!-- Node29 -->
<g id="node24" class="node">
<title>Node29</title>
<g id="a_node24"><a xlink:href="a00381.html#gac98f16c744b3712654c1bbb58acb4e33" target="_top" xlink:title="Gets pointer to DAC Instance SFR set.">
<polygon fill="none" stroke="black" points="405.5,-114.5 405.5,-133.5 553.5,-133.5 553.5,-114.5 405.5,-114.5"/>
<text text-anchor="middle" x="479.5" y="-121.5" font-family="Helvetica,sans-Serif" font-size="10.00">p33c_DacInstance_GetHandle</text>
</a>
</g>
</g>
<!-- Node28&#45;&gt;Node29 -->
<g id="edge23" class="edge">
<title>Node28&#45;&gt;Node29</title>
<path fill="none" stroke="midnightblue" d="M342.05,-152.41C366.57,-147.31 396.91,-140.99 422.75,-135.61"/>
<polygon fill="midnightblue" stroke="midnightblue" points="423.7,-138.99 432.78,-133.52 422.28,-132.13 423.7,-138.99"/>
</g>
<!-- Node30&#45;&gt;Node29 -->
<g id="edge27" class="edge">
<title>Node30&#45;&gt;Node29</title>
<path fill="none" stroke="midnightblue" d="M354.75,-124C367.62,-124 381.48,-124 395.11,-124"/>
<polygon fill="midnightblue" stroke="midnightblue" points="395.46,-127.5 405.46,-124 395.46,-120.5 395.46,-127.5"/>
</g>
<!-- Node31 -->
<g id="node26" class="node">
<title>Node31</title>
<g id="a_node26"><a xlink:href="a00381.html#ga39037bccfba783fdd8c9a52cbe651ca4" target="_top" xlink:title="Resets all DAC Instance registers to their RESET default values.">
<polygon fill="none" stroke="black" points="411,-76.5 411,-95.5 548,-95.5 548,-76.5 411,-76.5"/>
<text text-anchor="middle" x="479.5" y="-83.5" font-family="Helvetica,sans-Serif" font-size="10.00">p33c_DacInstance_Dispose</text>
</a>
</g>
</g>
<!-- Node30&#45;&gt;Node31 -->
<g id="edge26" class="edge">
<title>Node30&#45;&gt;Node31</title>
<path fill="none" stroke="midnightblue" d="M342.05,-114.41C366.57,-109.31 396.91,-102.99 422.75,-97.61"/>
<polygon fill="midnightblue" stroke="midnightblue" points="423.7,-100.99 432.78,-95.52 422.28,-94.13 423.7,-100.99"/>
</g>
<!-- Node33 -->
<g id="node28" class="node">
<title>Node33</title>
<g id="a_node28"><a xlink:href="a00384.html#gacaacda32efbc1383f62de2ba1bb95a34" target="_top" xlink:title="Gets pointer to op&#45;amp Module SFR set.">
<polygon fill="none" stroke="black" points="408,-38.5 408,-57.5 551,-57.5 551,-38.5 408,-38.5"/>
<text text-anchor="middle" x="479.5" y="-45.5" font-family="Helvetica,sans-Serif" font-size="10.00">p33c_OpaModule_GetHandle</text>
</a>
</g>
</g>
<!-- Node32&#45;&gt;Node33 -->
<g id="edge29" class="edge">
<title>Node32&#45;&gt;Node33</title>
<path fill="none" stroke="midnightblue" d="M348.3,-48C363.65,-48 380.81,-48 397.51,-48"/>
<polygon fill="midnightblue" stroke="midnightblue" points="397.83,-51.5 407.83,-48 397.83,-44.5 397.83,-51.5"/>
</g>
<!-- Node34&#45;&gt;Node33 -->
<g id="edge31" class="edge">
<title>Node34&#45;&gt;Node33</title>
<path fill="none" stroke="midnightblue" d="M342.05,-19.59C366.57,-24.69 396.91,-31.01 422.75,-36.39"/>
<polygon fill="midnightblue" stroke="midnightblue" points="422.28,-39.87 432.78,-38.48 423.7,-33.01 422.28,-39.87"/>
</g>
<!-- Node35&#45;&gt;Node33 -->
<g id="edge33" class="edge">
<title>Node35&#45;&gt;Node33</title>
<path fill="none" stroke="midnightblue" d="M342.05,-76.41C366.57,-71.31 396.91,-64.99 422.75,-59.61"/>
<polygon fill="midnightblue" stroke="midnightblue" points="423.7,-62.99 432.78,-57.52 422.28,-56.13 423.7,-62.99"/>
</g>
<!-- Node37 -->
<g id="node32" class="node">
<title>Node37</title>
<g id="a_node32"><a xlink:href="a00466.html#ga830e5c7087a8e5ee8ea39b7e3df94b68" target="_top" xlink:title="Initialization of user&#45;defined fault objects.">
<polygon fill="none" stroke="black" points="231.5,-748.5 231.5,-767.5 358.5,-767.5 358.5,-748.5 231.5,-748.5"/>
<text text-anchor="middle" x="295" y="-755.5" font-family="Helvetica,sans-Serif" font-size="10.00">appFaultMonitor_Initialize</text>
</a>
</g>
</g>
<!-- Node36&#45;&gt;Node37 -->
<g id="edge35" class="edge">
<title>Node36&#45;&gt;Node37</title>
<path fill="none" stroke="midnightblue" d="M148.1,-655.55C175.76,-674.97 238.79,-719.23 272.23,-742.71"/>
<polygon fill="midnightblue" stroke="midnightblue" points="270.24,-745.59 280.44,-748.48 274.26,-739.86 270.24,-745.59"/>
</g>
<!-- Node47 -->
<g id="node37" class="node">
<title>Node47</title>
<g id="a_node37"><a xlink:href="a00482.html#gab93992748ced72fdc2989d0b0f369e54" target="_top" xlink:title="Initializes the LC display.">
<polygon fill="none" stroke="black" points="249,-494.5 249,-513.5 341,-513.5 341,-494.5 249,-494.5"/>
<text text-anchor="middle" x="295" y="-501.5" font-family="Helvetica,sans-Serif" font-size="10.00">appLCD_Initialize</text>
</a>
</g>
</g>
<!-- Node36&#45;&gt;Node47 -->
<g id="edge40" class="edge">
<title>Node36&#45;&gt;Node47</title>
<path fill="none" stroke="midnightblue" d="M145.21,-636.46C171.87,-612.73 241.46,-550.78 275.16,-520.77"/>
<polygon fill="midnightblue" stroke="midnightblue" points="277.77,-523.14 282.91,-513.87 273.12,-517.91 277.77,-523.14"/>
</g>
<!-- Node51 -->
<g id="node39" class="node">
<title>Node51</title>
<g id="a_node39"><a xlink:href="a00497.html#ga900c95201f101cb3c8644bcf7aab8af9" target="_top" xlink:title="Initializes the LED driving GPIO.">
<polygon fill="none" stroke="black" points="249,-598.5 249,-617.5 341,-617.5 341,-598.5 249,-598.5"/>
<text text-anchor="middle" x="295" y="-605.5" font-family="Helvetica,sans-Serif" font-size="10.00">appLED_Initialize</text>
</a>
</g>
</g>
<!-- Node36&#45;&gt;Node51 -->
<g id="edge43" class="edge">
<title>Node36&#45;&gt;Node51</title>
<path fill="none" stroke="midnightblue" d="M174.75,-636.41C195.8,-631.4 221.76,-625.21 244.07,-619.89"/>
<polygon fill="midnightblue" stroke="midnightblue" points="245.12,-623.24 254.04,-617.52 243.5,-616.43 245.12,-623.24"/>
</g>
<!-- Node52 -->
<g id="node40" class="node">
<title>Node52</title>
<g id="a_node40"><a xlink:href="a00502.html#ga7a4cf6371d09457539f96a74b2809ca0" target="_top" xlink:title="Calls the application layer power controller initialization.">
<polygon fill="none" stroke="black" points="230,-636.5 230,-655.5 360,-655.5 360,-636.5 230,-636.5"/>
<text text-anchor="middle" x="295" y="-643.5" font-family="Helvetica,sans-Serif" font-size="10.00">appPowerSupply_Initialize</text>
</a>
</g>
</g>
<!-- Node36&#45;&gt;Node52 -->
<g id="edge44" class="edge">
<title>Node36&#45;&gt;Node52</title>
<path fill="none" stroke="midnightblue" d="M193.44,-646C201.99,-646 210.88,-646 219.68,-646"/>
<polygon fill="midnightblue" stroke="midnightblue" points="219.94,-649.5 229.94,-646 219.94,-642.5 219.94,-649.5"/>
</g>
<!-- Node78 -->
<g id="node45" class="node">
<title>Node78</title>
<g id="a_node45"><a xlink:href="a00552.html#ga7c903bd2ce5b08d78de218d726830947" target="_top" xlink:title="Initializes the USER push button on DPSK3.">
<polygon fill="none" stroke="black" points="233,-931.5 233,-950.5 357,-950.5 357,-931.5 233,-931.5"/>
<text text-anchor="middle" x="295" y="-938.5" font-family="Helvetica,sans-Serif" font-size="10.00">appPushButton_Initialize</text>
</a>
</g>
</g>
<!-- Node36&#45;&gt;Node78 -->
<g id="edge49" class="edge">
<title>Node36&#45;&gt;Node78</title>
<path fill="none" stroke="midnightblue" d="M139.81,-655.82C162.75,-698.26 253.65,-866.37 284.04,-922.58"/>
<polygon fill="midnightblue" stroke="midnightblue" points="281,-924.31 288.83,-931.45 287.16,-920.99 281,-924.31"/>
</g>
<!-- Node83 -->
<g id="node50" class="node">
<title>Node83</title>
<g id="a_node50"><a xlink:href="a00365.html#ga8e89a1a4ee5bf8c794bd29163b92bf49" target="_top" xlink:title="Initializes the timer used as time&#45;base for the task scheduler.">
<polygon fill="none" stroke="black" points="240,-786.5 240,-805.5 350,-805.5 350,-786.5 240,-786.5"/>
<text text-anchor="middle" x="295" y="-793.5" font-family="Helvetica,sans-Serif" font-size="10.00">sysOsTimer_Initialize</text>
</a>
</g>
</g>
<!-- Node36&#45;&gt;Node83 -->
<g id="edge54" class="edge">
<title>Node36&#45;&gt;Node83</title>
<path fill="none" stroke="midnightblue" d="M138.67,-655.58C149.69,-679.78 182.05,-743.83 229,-777 231.74,-778.93 234.67,-780.67 237.72,-782.24"/>
<polygon fill="midnightblue" stroke="midnightblue" points="236.59,-785.56 247.15,-786.42 239.43,-779.16 236.59,-785.56"/>
</g>
<!-- Node38 -->
<g id="node33" class="node">
<title>Node38</title>
<g id="a_node33"><a xlink:href="a00468.html#ga54f9db91ea0782b08aa16ee77a57c5e5" target="_top" xlink:title="Initializes the user&#45;defined fault objects for overcurrent protection.">
<polygon fill="none" stroke="red" points="432,-767.5 432,-786.5 527,-786.5 527,-767.5 432,-767.5"/>
<text text-anchor="middle" x="479.5" y="-774.5" font-family="Helvetica,sans-Serif" font-size="10.00">ocp_FaultInitialize</text>
</a>
</g>
</g>
<!-- Node37&#45;&gt;Node38 -->
<g id="edge36" class="edge">
<title>Node37&#45;&gt;Node38</title>
<path fill="none" stroke="midnightblue" d="M358.55,-764.51C379.02,-766.64 401.64,-769 421.67,-771.08"/>
<polygon fill="midnightblue" stroke="midnightblue" points="421.57,-774.59 431.88,-772.15 422.3,-767.63 421.57,-774.59"/>
</g>
<!-- Node44 -->
<g id="node34" class="node">
<title>Node44</title>
<g id="a_node34"><a xlink:href="a00468.html#gade437244e8f6e5ff7c57a73442063350" target="_top" xlink:title="Initializes the user&#45;defined fault objects for overvoltage lockout.">
<polygon fill="none" stroke="red" points="432,-729.5 432,-748.5 527,-748.5 527,-729.5 432,-729.5"/>
<text text-anchor="middle" x="479.5" y="-736.5" font-family="Helvetica,sans-Serif" font-size="10.00">ovlo_FaultInitialize</text>
</a>
</g>
</g>
<!-- Node37&#45;&gt;Node44 -->
<g id="edge37" class="edge">
<title>Node37&#45;&gt;Node44</title>
<path fill="none" stroke="midnightblue" d="M358.55,-751.49C379.02,-749.36 401.64,-747 421.67,-744.92"/>
<polygon fill="midnightblue" stroke="midnightblue" points="422.3,-748.37 431.88,-743.85 421.57,-741.41 422.3,-748.37"/>
</g>
<!-- Node45 -->
<g id="node35" class="node">
<title>Node45</title>
<g id="a_node35"><a xlink:href="a00468.html#ga82dc317e3adac0308e5ac3f5ad321605" target="_top" xlink:title="Initializes the user&#45;defined fault objects for regulation error.">
<polygon fill="none" stroke="red" points="427.5,-843.5 427.5,-862.5 531.5,-862.5 531.5,-843.5 427.5,-843.5"/>
<text text-anchor="middle" x="479.5" y="-850.5" font-family="Helvetica,sans-Serif" font-size="10.00">regerr_FaultInitialize</text>
</a>
</g>
</g>
<!-- Node37&#45;&gt;Node45 -->
<g id="edge38" class="edge">
<title>Node37&#45;&gt;Node45</title>
<path fill="none" stroke="midnightblue" d="M343.74,-767.55C349.89,-770.01 355.84,-773.11 361,-777 384.93,-795.04 372.58,-816.63 397,-834 403.1,-838.34 410.06,-841.71 417.27,-844.31"/>
<polygon fill="midnightblue" stroke="midnightblue" points="416.61,-847.77 427.2,-847.41 418.7,-841.09 416.61,-847.77"/>
</g>
<!-- Node46 -->
<g id="node36" class="node">
<title>Node46</title>
<g id="a_node36"><a xlink:href="a00468.html#ga9441220f8a7d4a6805467d04b734e6b5" target="_top" xlink:title="Initializes the user&#45;defined fault objects for under&#45;voltage lockout.">
<polygon fill="none" stroke="red" points="432,-805.5 432,-824.5 527,-824.5 527,-805.5 432,-805.5"/>
<text text-anchor="middle" x="479.5" y="-812.5" font-family="Helvetica,sans-Serif" font-size="10.00">uvlo_FaultInitialize</text>
</a>
</g>
</g>
<!-- Node37&#45;&gt;Node46 -->
<g id="edge39" class="edge">
<title>Node37&#45;&gt;Node46</title>
<path fill="none" stroke="midnightblue" d="M333.56,-767.58C342.67,-770.29 352.28,-773.47 361,-777 377.77,-783.79 380.05,-789.67 397,-796 404.92,-798.96 413.46,-801.55 421.92,-803.8"/>
<polygon fill="midnightblue" stroke="midnightblue" points="421.22,-807.23 431.77,-806.27 422.92,-800.44 421.22,-807.23"/>
</g>
<!-- Node47&#45;&gt;Node4 -->
<g id="edge42" class="edge">
<title>Node47&#45;&gt;Node4</title>
<path fill="none" stroke="midnightblue" d="M341.11,-494.61C365.71,-489.48 396.38,-483.1 422.5,-477.66"/>
<polygon fill="midnightblue" stroke="midnightblue" points="423.56,-481.01 432.64,-475.55 422.14,-474.16 423.56,-481.01"/>
</g>
<!-- Node48 -->
<g id="node38" class="node">
<title>Node48</title>
<g id="a_node38"><a xlink:href="a00487.html#ga5d8f09855e28846e87400692d186781a" target="_top" xlink:title="Initializes the LCD Device.">
<polygon fill="none" stroke="red" points="433.5,-494.5 433.5,-513.5 525.5,-513.5 525.5,-494.5 433.5,-494.5"/>
<text text-anchor="middle" x="479.5" y="-501.5" font-family="Helvetica,sans-Serif" font-size="10.00">dev_Lcd_Initialize</text>
</a>
</g>
</g>
<!-- Node47&#45;&gt;Node48 -->
<g id="edge41" class="edge">
<title>Node47&#45;&gt;Node48</title>
<path fill="none" stroke="midnightblue" d="M341.11,-504C365.9,-504 396.85,-504 423.1,-504"/>
<polygon fill="midnightblue" stroke="midnightblue" points="423.27,-507.5 433.27,-504 423.27,-500.5 423.27,-507.5"/>
</g>
<!-- Node53 -->
<g id="node41" class="node">
<title>Node53</title>
<g id="a_node41"><a xlink:href="a00505.html#ga0b4cabdb02c8c9ea94ea1dfa39de3764" target="_top" xlink:title="This function initializes the control system feedback loop objects.">
<polygon fill="none" stroke="red" points="411.5,-533 411.5,-563 547.5,-563 547.5,-533 411.5,-533"/>
<text text-anchor="start" x="419.5" y="-551" font-family="Helvetica,sans-Serif" font-size="10.00">appPowerSupply_Controller</text>
<text text-anchor="middle" x="479.5" y="-540" font-family="Helvetica,sans-Serif" font-size="10.00">Initialize</text>
</a>
</g>
</g>
<!-- Node52&#45;&gt;Node53 -->
<g id="edge45" class="edge">
<title>Node52&#45;&gt;Node53</title>
<path fill="none" stroke="midnightblue" d="M343.31,-636.47C349.6,-634 355.69,-630.9 361,-627 384.25,-609.92 373.87,-590.23 397,-573 399.53,-571.12 402.2,-569.37 404.98,-567.76"/>
<polygon fill="midnightblue" stroke="midnightblue" points="406.86,-570.73 414.14,-563.03 403.65,-564.51 406.86,-570.73"/>
</g>
<!-- Node58 -->
<g id="node42" class="node">
<title>Node58</title>
<g id="a_node42"><a xlink:href="a00505.html#gad0f6ff4894bf23722884c60bbcdcacd0" target="_top" xlink:title="This function initializes the buck converter device driver instance.">
<polygon fill="none" stroke="black" points="412,-680 412,-710 547,-710 547,-680 412,-680"/>
<text text-anchor="start" x="420" y="-698" font-family="Helvetica,sans-Serif" font-size="10.00">appPowerSupply_Converter</text>
<text text-anchor="middle" x="479.5" y="-687" font-family="Helvetica,sans-Serif" font-size="10.00">ObjectInitialize</text>
</a>
</g>
</g>
<!-- Node52&#45;&gt;Node58 -->
<g id="edge46" class="edge">
<title>Node52&#45;&gt;Node58</title>
<path fill="none" stroke="midnightblue" d="M331.62,-655.56C354.63,-661.74 385.26,-669.96 412.59,-677.3"/>
<polygon fill="midnightblue" stroke="midnightblue" points="411.93,-680.75 422.49,-679.96 413.74,-673.99 411.93,-680.75"/>
</g>
<!-- Node59 -->
<g id="node43" class="node">
<title>Node59</title>
<g id="a_node43"><a xlink:href="a00505.html#ga0b26acfec74d1804384b4ba1a3cffab4" target="_top" xlink:title="This function is used to load peripheral configuration templates from the power controller device dri...">
<polygon fill="none" stroke="red" points="408,-631 408,-661 551,-661 551,-631 408,-631"/>
<text text-anchor="start" x="416" y="-649" font-family="Helvetica,sans-Serif" font-size="10.00">appPowerSupply_Peripherals</text>
<text text-anchor="middle" x="479.5" y="-638" font-family="Helvetica,sans-Serif" font-size="10.00">Initialize</text>
</a>
</g>
</g>
<!-- Node52&#45;&gt;Node59 -->
<g id="edge47" class="edge">
<title>Node52&#45;&gt;Node59</title>
<path fill="none" stroke="midnightblue" d="M360.09,-646C372.24,-646 385.11,-646 397.7,-646"/>
<polygon fill="midnightblue" stroke="midnightblue" points="397.73,-649.5 407.73,-646 397.73,-642.5 397.73,-649.5"/>
</g>
<!-- Node75 -->
<g id="node44" class="node">
<title>Node75</title>
<g id="a_node44"><a xlink:href="a00509.html#ga86289c82938655142075e84ac90aa603" target="_top" xlink:title="This function starts the buck converter.">
<polygon fill="none" stroke="red" points="431,-582 431,-612 528,-612 528,-582 431,-582"/>
<text text-anchor="start" x="439" y="-600" font-family="Helvetica,sans-Serif" font-size="10.00">drv_BuckConverter</text>
<text text-anchor="middle" x="479.5" y="-589" font-family="Helvetica,sans-Serif" font-size="10.00">_Start</text>
</a>
</g>
</g>
<!-- Node52&#45;&gt;Node75 -->
<g id="edge48" class="edge">
<title>Node52&#45;&gt;Node75</title>
<path fill="none" stroke="midnightblue" d="M331.62,-636.44C357.06,-629.6 391.84,-620.27 421.16,-612.39"/>
<polygon fill="midnightblue" stroke="midnightblue" points="422.13,-615.76 430.88,-609.79 420.31,-609 422.13,-615.76"/>
</g>
<!-- Node79 -->
<g id="node46" class="node">
<title>Node79</title>
<g id="a_node46"><a xlink:href="a00554.html#ga3966fddf4ec29e64c6d51a93eee8706f" target="_top" xlink:title="Push button event raised at the &quot;pressed&quot; transition.">
<polygon fill="none" stroke="black" points="397,-931.5 397,-950.5 562,-950.5 562,-931.5 397,-931.5"/>
<text text-anchor="middle" x="479.5" y="-938.5" font-family="Helvetica,sans-Serif" font-size="10.00">appPushButton_EventButtonDown</text>
</a>
</g>
</g>
<!-- Node78&#45;&gt;Node79 -->
<g id="edge50" class="edge">
<title>Node78&#45;&gt;Node79</title>
<path fill="none" stroke="midnightblue" d="M357.02,-941C366.58,-941 376.64,-941 386.71,-941"/>
<polygon fill="midnightblue" stroke="midnightblue" points="386.76,-944.5 396.76,-941 386.76,-937.5 386.76,-944.5"/>
</g>
<!-- Node80 -->
<g id="node47" class="node">
<title>Node80</title>
<g id="a_node47"><a xlink:href="a00554.html#ga6192986e06dbca144461c0315a2a100f" target="_top" xlink:title="Push button event raised at the &quot;is long pressed&quot; detection.">
<polygon fill="none" stroke="black" points="409,-882 409,-912 550,-912 550,-882 409,-882"/>
<text text-anchor="start" x="417" y="-900" font-family="Helvetica,sans-Serif" font-size="10.00">appPushButton_EventButton</text>
<text text-anchor="middle" x="479.5" y="-889" font-family="Helvetica,sans-Serif" font-size="10.00">LongPress</text>
</a>
</g>
</g>
<!-- Node78&#45;&gt;Node80 -->
<g id="edge51" class="edge">
<title>Node78&#45;&gt;Node80</title>
<path fill="none" stroke="midnightblue" d="M335.6,-931.45C356.24,-926.48 382.13,-920.23 406.19,-914.43"/>
<polygon fill="midnightblue" stroke="midnightblue" points="407.11,-917.81 416.01,-912.07 405.47,-911.01 407.11,-917.81"/>
</g>
<!-- Node81 -->
<g id="node48" class="node">
<title>Node81</title>
<g id="a_node48"><a xlink:href="a00554.html#ga13f736396ad1222ff5cbe35947bd60ac" target="_top" xlink:title="Push button event raised at the &quot;not pressed&quot; transition.">
<polygon fill="none" stroke="black" points="403,-1007.5 403,-1026.5 556,-1026.5 556,-1007.5 403,-1007.5"/>
<text text-anchor="middle" x="479.5" y="-1014.5" font-family="Helvetica,sans-Serif" font-size="10.00">appPushButton_EventButtonUp</text>
</a>
</g>
</g>
<!-- Node78&#45;&gt;Node81 -->
<g id="edge52" class="edge">
<title>Node78&#45;&gt;Node81</title>
<path fill="none" stroke="midnightblue" d="M310.07,-950.67C329.03,-963.27 364.17,-985.21 397,-998 403.46,-1000.52 410.34,-1002.75 417.26,-1004.73"/>
<polygon fill="midnightblue" stroke="midnightblue" points="416.82,-1008.24 427.39,-1007.44 418.63,-1001.47 416.82,-1008.24"/>
</g>
<!-- Node82 -->
<g id="node49" class="node">
<title>Node82</title>
<g id="a_node49"><a xlink:href="a00557.html#gaa3ce9c320a37ebc6e1ae113c82e68747" target="_top" xlink:title="Initializes the push button device driver.">
<polygon fill="none" stroke="black" points="417,-969.5 417,-988.5 542,-988.5 542,-969.5 417,-969.5"/>
<text text-anchor="middle" x="479.5" y="-976.5" font-family="Helvetica,sans-Serif" font-size="10.00">drv_PushButton_Initialize</text>
</a>
</g>
</g>
<!-- Node78&#45;&gt;Node82 -->
<g id="edge53" class="edge">
<title>Node78&#45;&gt;Node82</title>
<path fill="none" stroke="midnightblue" d="M342.05,-950.59C366.57,-955.69 396.91,-962.01 422.75,-967.39"/>
<polygon fill="midnightblue" stroke="midnightblue" points="422.28,-970.87 432.78,-969.48 423.7,-964.01 422.28,-970.87"/>
</g>
</g>
</svg>
        <g id="navigator" transform="translate(0 0)" fill="#404254">
                <rect fill="#f2f5e9" fill-opacity="0.5" stroke="#606060" stroke-width=".5" x="0" y="0" width="60" height="60"/>
                <use id="zoomplus" xlink:href="#zoomPlus" x="17" y="9" onmousedown="handleZoom(evt,'in')"/>
                <use id="zoomminus" xlink:href="#zoomMin" x="42" y="9" onmousedown="handleZoom(evt,'out')"/>
                <use id="reset" xlink:href="#resetDef" x="30" y="36" onmousedown="handleReset()"/>
                <g id="arrowUp" xlink:href="#dirArrow" transform="translate(30 24)" onmousedown="handlePan(0,-1)">
                  <use xlink:href="#rim" fill="#404040">
                        <set attributeName="fill" to="#808080" begin="arrowUp.mouseover" end="arrowUp.mouseout"/>
                  </use>
                  <path fill="none" stroke="white" stroke-width="1.5" d="M0,-3.0v7 M-2.5,-0.5L0,-3.0L2.5,-0.5"/>
                </g>
                <g id="arrowRight" xlink:href="#dirArrow" transform="rotate(90) translate(36 -43)" onmousedown="handlePan(1,0)">
                  <use xlink:href="#rim" fill="#404040">
                        <set attributeName="fill" to="#808080" begin="arrowRight.mouseover" end="arrowRight.mouseout"/>
                  </use>
                  <path fill="none" stroke="white" stroke-width="1.5" d="M0,-3.0v7 M-2.5,-0.5L0,-3.0L2.5,-0.5"/>
                </g>
                <g id="arrowDown" xlink:href="#dirArrow" transform="rotate(180) translate(-30 -48)" onmousedown="handlePan(0,1)">
                  <use xlink:href="#rim" fill="#404040">
                        <set attributeName="fill" to="#808080" begin="arrowDown.mouseover" end="arrowDown.mouseout"/>
                  </use>
                  <path fill="none" stroke="white" stroke-width="1.5" d="M0,-3.0v7 M-2.5,-0.5L0,-3.0L2.5,-0.5"/>
                </g>
                <g id="arrowLeft" xlink:href="#dirArrow" transform="rotate(270) translate(-36 17)" onmousedown="handlePan(-1,0)">
                  <use xlink:href="#rim" fill="#404040">
                        <set attributeName="fill" to="#808080" begin="arrowLeft.mouseover" end="arrowLeft.mouseout"/>
                  </use>
                  <path fill="none" stroke="white" stroke-width="1.5" d="M0,-3.0v7 M-2.5,-0.5L0,-3.0L2.5,-0.5"/>
                </g>
        </g>
        <svg viewBox="0 0 15 15" width="100%" height="30px" preserveAspectRatio="xMaxYMin meet">
         <g id="arrow_out" transform="scale(0.3 0.3)">
          <a xlink:href="a00350_ga840291bc02cba5474a4cb46a9b9566fe_cgraph_org.svg" target="_base">
           <rect id="button" ry="5" rx="5" y="6" x="6" height="38" width="38"
                fill="#f2f5e9" fill-opacity="0.5" stroke="#606060" stroke-width="1.0"/>
           <path id="arrow"
             d="M 11.500037,31.436501 C 11.940474,20.09759 22.043105,11.32322 32.158766,21.979434 L 37.068811,17.246167 C 37.068811,17.246167 37.088388,32 37.088388,32 L 22.160133,31.978069 C 22.160133,31.978069 26.997745,27.140456 26.997745,27.140456 C 18.528582,18.264221 13.291696,25.230495 11.500037,31.436501 z"
             style="fill:#404040;"/>
          </a>
         </g>
        </svg>
</svg>
