<?xml version="1.0" encoding="UTF-8" standalone="no"?>
<!DOCTYPE svg PUBLIC "-//W3C//DTD SVG 1.1//EN"
 "http://www.w3.org/Graphics/SVG/1.1/DTD/svg11.dtd">
<!-- Generated by graphviz version 2.44.1 (20200629.0846)
 -->
<!-- Title: sysHighPriorityTasks_Execute Pages: 1 -->
<svg width="1028pt" height="142pt"
 viewBox="0.00 0.00 1028.00 142.00" xmlns="http://www.w3.org/2000/svg" xmlns:xlink="http://www.w3.org/1999/xlink">
<g id="graph0" class="graph" transform="scale(1 1) rotate(0) translate(4 138)">
<title>sysHighPriorityTasks_Execute</title>
<!-- Node1 -->
<g id="node1" class="node">
<title>Node1</title>
<g id="a_node1"><a xlink:title="High priority task sequence executed at a fixed repetition frequency.">
<polygon fill="#bfbfbf" stroke="black" points="0,-52 0,-82 109,-82 109,-52 0,-52"/>
<text text-anchor="start" x="8" y="-70" font-family="Helvetica,sans-Serif" font-size="10.00">sysHighPriorityTasks</text>
<text text-anchor="middle" x="54.5" y="-59" font-family="Helvetica,sans-Serif" font-size="10.00">_Execute</text>
</a>
</g>
</g>
<!-- Node2 -->
<g id="node2" class="node">
<title>Node2</title>
<g id="a_node2"><a xlink:href="a00466.html#ga8842f6a41fe23f932a8864fc140c4b5b" target="_top" xlink:title="Application wide fault object monitoring routine.">
<polygon fill="none" stroke="black" points="146.5,-76.5 146.5,-95.5 274.5,-95.5 274.5,-76.5 146.5,-76.5"/>
<text text-anchor="middle" x="210.5" y="-83.5" font-family="Helvetica,sans-Serif" font-size="10.00">appFaultMonitor_Execute</text>
</a>
</g>
</g>
<!-- Node1&#45;&gt;Node2 -->
<g id="edge1" class="edge">
<title>Node1&#45;&gt;Node2</title>
<path fill="none" stroke="midnightblue" d="M109.36,-73.65C118.06,-74.72 127.19,-75.84 136.25,-76.96"/>
<polygon fill="midnightblue" stroke="midnightblue" points="136.07,-80.47 146.42,-78.22 136.93,-73.52 136.07,-80.47"/>
</g>
<!-- Node9 -->
<g id="node9" class="node">
<title>Node9</title>
<g id="a_node9"><a xlink:href="a00502.html#ga13094235dd6cc123d9299925359ca178" target="_top" xlink:title="This is the top&#45;level function call triggering the most recent state machine of all associated power ...">
<polygon fill="none" stroke="black" points="145,-38.5 145,-57.5 276,-57.5 276,-38.5 145,-38.5"/>
<text text-anchor="middle" x="210.5" y="-45.5" font-family="Helvetica,sans-Serif" font-size="10.00">appPowerSupply_Execute</text>
</a>
</g>
</g>
<!-- Node1&#45;&gt;Node9 -->
<g id="edge8" class="edge">
<title>Node1&#45;&gt;Node9</title>
<path fill="none" stroke="midnightblue" d="M109.36,-60.35C117.59,-59.34 126.21,-58.28 134.79,-57.22"/>
<polygon fill="midnightblue" stroke="midnightblue" points="135.32,-60.68 144.82,-55.98 134.46,-53.73 135.32,-60.68"/>
</g>
<!-- Node3 -->
<g id="node3" class="node">
<title>Node3</title>
<g id="a_node3"><a xlink:href="a00502.html#ga3c7bf6b771bc1296401a270da4a95bff" target="_top" xlink:title="This function resumes the power supply operation.">
<polygon fill="none" stroke="black" points="321.5,-114.5 321.5,-133.5 452.5,-133.5 452.5,-114.5 321.5,-114.5"/>
<text text-anchor="middle" x="387" y="-121.5" font-family="Helvetica,sans-Serif" font-size="10.00">appPowerSupply_Resume</text>
</a>
</g>
</g>
<!-- Node2&#45;&gt;Node3 -->
<g id="edge2" class="edge">
<title>Node2&#45;&gt;Node3</title>
<path fill="none" stroke="midnightblue" d="M255.53,-95.59C278.87,-100.67 307.73,-106.96 332.37,-112.32"/>
<polygon fill="midnightblue" stroke="midnightblue" points="331.77,-115.77 342.28,-114.48 333.26,-108.93 331.77,-115.77"/>
</g>
<!-- Node8 -->
<g id="node8" class="node">
<title>Node8</title>
<g id="a_node8"><a xlink:href="a00471.html#gaa513cf169f787b56d70d5d793d2367f7" target="_top" xlink:title="Check current fault status of a user&#45;defined fault object.">
<polygon fill="none" stroke="black" points="312,-76.5 312,-95.5 462,-95.5 462,-76.5 312,-76.5"/>
<text text-anchor="middle" x="387" y="-83.5" font-family="Helvetica,sans-Serif" font-size="10.00">drv_FaultHandler_CheckObject</text>
</a>
</g>
</g>
<!-- Node2&#45;&gt;Node8 -->
<g id="edge7" class="edge">
<title>Node2&#45;&gt;Node8</title>
<path fill="none" stroke="midnightblue" d="M274.99,-86C283.7,-86 292.75,-86 301.76,-86"/>
<polygon fill="midnightblue" stroke="midnightblue" points="301.89,-89.5 311.89,-86 301.89,-82.5 301.89,-89.5"/>
</g>
<!-- Node4 -->
<g id="node4" class="node">
<title>Node4</title>
<g id="a_node4"><a xlink:href="a00509.html#gaadb710d81053fd0ab75b305f1f329bf6" target="_top" xlink:title="This function resume the operation of the buck converter.">
<polygon fill="none" stroke="black" points="498,-93 498,-123 595,-123 595,-93 498,-93"/>
<text text-anchor="start" x="506" y="-111" font-family="Helvetica,sans-Serif" font-size="10.00">drv_BuckConverter</text>
<text text-anchor="middle" x="546.5" y="-100" font-family="Helvetica,sans-Serif" font-size="10.00">_Resume</text>
</a>
</g>
</g>
<!-- Node3&#45;&gt;Node4 -->
<g id="edge3" class="edge">
<title>Node3&#45;&gt;Node4</title>
<path fill="none" stroke="midnightblue" d="M452.52,-117.45C464.09,-116.27 476.1,-115.05 487.48,-113.89"/>
<polygon fill="midnightblue" stroke="midnightblue" points="488.13,-117.35 497.72,-112.85 487.42,-110.38 488.13,-117.35"/>
</g>
<!-- Node5 -->
<g id="node5" class="node">
<title>Node5</title>
<g id="a_node5"><a xlink:href="a00509.html#gab9877f90ffb129964ae42ce2921b3fe1" target="_top" xlink:title="This function is the main buck converter state machine executing the most recent state.">
<polygon fill="none" stroke="black" points="631,-55 631,-85 728,-85 728,-55 631,-55"/>
<text text-anchor="start" x="639" y="-73" font-family="Helvetica,sans-Serif" font-size="10.00">drv_BuckConverter</text>
<text text-anchor="middle" x="679.5" y="-62" font-family="Helvetica,sans-Serif" font-size="10.00">_Execute</text>
</a>
</g>
</g>
<!-- Node4&#45;&gt;Node5 -->
<g id="edge4" class="edge">
<title>Node4&#45;&gt;Node5</title>
<path fill="none" stroke="midnightblue" d="M595.16,-94.17C603.56,-91.74 612.38,-89.18 621.02,-86.67"/>
<polygon fill="midnightblue" stroke="midnightblue" points="622.02,-90.03 630.65,-83.88 620.07,-83.3 622.02,-90.03"/>
</g>
<!-- Node6 -->
<g id="node6" class="node">
<title>Node6</title>
<g id="a_node6"><a xlink:href="a00532.html#ga8e2253c136f05033e774d09032b283a1" target="_top" xlink:title="This function gets the state of the selected pin.">
<polygon fill="none" stroke="black" points="764,-60.5 764,-79.5 884,-79.5 884,-60.5 764,-60.5"/>
<text text-anchor="middle" x="824" y="-67.5" font-family="Helvetica,sans-Serif" font-size="10.00">buckGPIO_GetPinState</text>
</a>
</g>
</g>
<!-- Node5&#45;&gt;Node6 -->
<g id="edge5" class="edge">
<title>Node5&#45;&gt;Node6</title>
<path fill="none" stroke="midnightblue" d="M728.35,-70C736.54,-70 745.2,-70 753.82,-70"/>
<polygon fill="midnightblue" stroke="midnightblue" points="753.89,-73.5 763.89,-70 753.89,-66.5 753.89,-73.5"/>
</g>
<!-- Node7 -->
<g id="node7" class="node">
<title>Node7</title>
<g id="a_node7"><a xlink:href="a00383.html#ga4d67af688d8f7f911d79107974e11e6b" target="_top" xlink:title="Gets pointer to GPIO Instance SFR set.">
<polygon fill="none" stroke="black" points="920,-55 920,-85 1020,-85 1020,-55 920,-55"/>
<text text-anchor="start" x="928" y="-73" font-family="Helvetica,sans-Serif" font-size="10.00">p33c_GpioInstance</text>
<text text-anchor="middle" x="970" y="-62" font-family="Helvetica,sans-Serif" font-size="10.00">_GetHandle</text>
</a>
</g>
</g>
<!-- Node6&#45;&gt;Node7 -->
<g id="edge6" class="edge">
<title>Node6&#45;&gt;Node7</title>
<path fill="none" stroke="midnightblue" d="M884.4,-70C892.77,-70 901.38,-70 909.75,-70"/>
<polygon fill="midnightblue" stroke="midnightblue" points="909.81,-73.5 919.81,-70 909.81,-66.5 909.81,-73.5"/>
</g>
<!-- Node9&#45;&gt;Node5 -->
<g id="edge10" class="edge">
<title>Node9&#45;&gt;Node5</title>
<path fill="none" stroke="midnightblue" d="M276.43,-51.06C367.92,-55.37 533.34,-63.16 620.76,-67.28"/>
<polygon fill="midnightblue" stroke="midnightblue" points="620.61,-70.78 630.77,-67.75 620.94,-63.78 620.61,-70.78"/>
</g>
<!-- Node10 -->
<g id="node10" class="node">
<title>Node10</title>
<g id="a_node10"><a xlink:href="a00505.html#ga04ed53cc1f7374ca23d91cc2da8943a8" target="_top" xlink:title="Captures runtime data not captured automatically by other firmware modules.">
<polygon fill="none" stroke="black" points="312.5,-0.5 312.5,-19.5 461.5,-19.5 461.5,-0.5 312.5,-0.5"/>
<text text-anchor="middle" x="387" y="-7.5" font-family="Helvetica,sans-Serif" font-size="10.00">appPowerSupply_DataCapture</text>
</a>
</g>
</g>
<!-- Node9&#45;&gt;Node10 -->
<g id="edge9" class="edge">
<title>Node9&#45;&gt;Node10</title>
<path fill="none" stroke="midnightblue" d="M255.53,-38.41C278.87,-33.33 307.73,-27.04 332.37,-21.68"/>
<polygon fill="midnightblue" stroke="midnightblue" points="333.26,-25.07 342.28,-19.52 331.77,-18.23 333.26,-25.07"/>
</g>
</g>
</svg>
