<?xml version="1.0" encoding="UTF-8" standalone="no"?>
<!DOCTYPE svg PUBLIC "-//W3C//DTD SVG 1.1//EN"
 "http://www.w3.org/Graphics/SVG/1.1/DTD/svg11.dtd">
<!-- Generated by graphviz version 2.44.1 (20200629.0846)
 -->
<!-- Title: p33c_OpaModule_GetHandle Pages: 1 -->
<svg width="530pt" height="104pt"
 viewBox="0.00 0.00 530.00 104.00" xmlns="http://www.w3.org/2000/svg" xmlns:xlink="http://www.w3.org/1999/xlink">
<g id="graph0" class="graph" transform="scale(1 1) rotate(0) translate(4 100)">
<title>p33c_OpaModule_GetHandle</title>
<!-- Node1 -->
<g id="node1" class="node">
<title>Node1</title>
<g id="a_node1"><a xlink:title="Gets pointer to op&#45;amp Module SFR set.">
<polygon fill="#bfbfbf" stroke="black" points="379,-38.5 379,-57.5 522,-57.5 522,-38.5 379,-38.5"/>
<text text-anchor="middle" x="450.5" y="-45.5" font-family="Helvetica,sans-Serif" font-size="10.00">p33c_OpaModule_GetHandle</text>
</a>
</g>
</g>
<!-- Node2 -->
<g id="node2" class="node">
<title>Node2</title>
<g id="a_node2"><a xlink:href="a00363.html#gaf4c74cf390185b49d99838e0f9885076" target="_top" xlink:title="Initializes the on&#45;chip operational amplifier module.">
<polygon fill="none" stroke="black" points="224,-76.5 224,-95.5 330,-95.5 330,-76.5 224,-76.5"/>
<text text-anchor="middle" x="277" y="-83.5" font-family="Helvetica,sans-Serif" font-size="10.00">sysOpAmp_Initialize</text>
</a>
</g>
</g>
<!-- Node1&#45;&gt;Node2 -->
<g id="edge1" class="edge">
<title>Node1&#45;&gt;Node2</title>
<path fill="none" stroke="midnightblue" d="M396.46,-59.75C372.21,-65.13 343.85,-71.41 320.97,-76.48"/>
<polygon fill="midnightblue" stroke="midnightblue" points="397.22,-63.17 406.22,-57.59 395.7,-56.34 397.22,-63.17"/>
</g>
<!-- Node5 -->
<g id="node5" class="node">
<title>Node5</title>
<g id="a_node5"><a xlink:href="a00363.html#ga3cd080c9a48a5d74d8b2f89fdec161da" target="_top" xlink:title="Enables the on&#45;chip operational amplifier module.">
<polygon fill="none" stroke="black" points="211,-38.5 211,-57.5 343,-57.5 343,-38.5 211,-38.5"/>
<text text-anchor="middle" x="277" y="-45.5" font-family="Helvetica,sans-Serif" font-size="10.00">sysOpAmp_ModuleEnable</text>
</a>
</g>
</g>
<!-- Node1&#45;&gt;Node5 -->
<g id="edge4" class="edge">
<title>Node1&#45;&gt;Node5</title>
<path fill="none" stroke="midnightblue" d="M368.72,-48C360.12,-48 351.46,-48 343.08,-48"/>
<polygon fill="midnightblue" stroke="midnightblue" points="368.75,-51.5 378.75,-48 368.75,-44.5 368.75,-51.5"/>
</g>
<!-- Node6 -->
<g id="node6" class="node">
<title>Node6</title>
<g id="a_node6"><a xlink:href="a00363.html#ga4dbd2367ecd449226460b0b0a52cbe8b" target="_top" xlink:title="Resets the on&#45;chip operational amplifier module.">
<polygon fill="none" stroke="black" points="213,-0.5 213,-19.5 341,-19.5 341,-0.5 213,-0.5"/>
<text text-anchor="middle" x="277" y="-7.5" font-family="Helvetica,sans-Serif" font-size="10.00">sysOpAmp_ModuleReset</text>
</a>
</g>
</g>
<!-- Node1&#45;&gt;Node6 -->
<g id="edge6" class="edge">
<title>Node1&#45;&gt;Node6</title>
<path fill="none" stroke="midnightblue" d="M396.46,-36.25C372.21,-30.87 343.85,-24.59 320.97,-19.52"/>
<polygon fill="midnightblue" stroke="midnightblue" points="395.7,-39.66 406.22,-38.41 397.22,-32.83 395.7,-39.66"/>
</g>
<!-- Node3 -->
<g id="node3" class="node">
<title>Node3</title>
<g id="a_node3"><a xlink:href="a00361.html#ga70c5cba054e38a4e8c8285a187ff61fa" target="_top" xlink:title="Initializes the user&#45;defined chip resources.">
<polygon fill="none" stroke="black" points="74,-33 74,-63 175,-63 175,-33 74,-33"/>
<text text-anchor="start" x="82" y="-51" font-family="Helvetica,sans-Serif" font-size="10.00">sysUserPeriperhals</text>
<text text-anchor="middle" x="124.5" y="-40" font-family="Helvetica,sans-Serif" font-size="10.00">_Initialize</text>
</a>
</g>
</g>
<!-- Node2&#45;&gt;Node3 -->
<g id="edge2" class="edge">
<title>Node2&#45;&gt;Node3</title>
<path fill="none" stroke="midnightblue" d="M228.32,-73.96C211.37,-69.68 192.25,-64.85 175.14,-60.53"/>
<polygon fill="midnightblue" stroke="midnightblue" points="227.47,-77.36 238.02,-76.41 229.18,-70.57 227.47,-77.36"/>
</g>
<!-- Node4 -->
<g id="node4" class="node">
<title>Node4</title>
<g id="a_node4"><a xlink:href="a00350.html#ga840291bc02cba5474a4cb46a9b9566fe" target="_top" xlink:title="Application main function executed after device comes out of RESET.">
<polygon fill="none" stroke="black" points="0,-38.5 0,-57.5 38,-57.5 38,-38.5 0,-38.5"/>
<text text-anchor="middle" x="19" y="-45.5" font-family="Helvetica,sans-Serif" font-size="10.00">main</text>
</a>
</g>
</g>
<!-- Node3&#45;&gt;Node4 -->
<g id="edge3" class="edge">
<title>Node3&#45;&gt;Node4</title>
<path fill="none" stroke="midnightblue" d="M63.81,-48C54.6,-48 45.74,-48 38.42,-48"/>
<polygon fill="midnightblue" stroke="midnightblue" points="63.87,-51.5 73.87,-48 63.87,-44.5 63.87,-51.5"/>
</g>
<!-- Node5&#45;&gt;Node3 -->
<g id="edge5" class="edge">
<title>Node5&#45;&gt;Node3</title>
<path fill="none" stroke="midnightblue" d="M200.75,-48C192.12,-48 183.49,-48 175.31,-48"/>
<polygon fill="midnightblue" stroke="midnightblue" points="200.86,-51.5 210.86,-48 200.86,-44.5 200.86,-51.5"/>
</g>
<!-- Node6&#45;&gt;Node3 -->
<g id="edge7" class="edge">
<title>Node6&#45;&gt;Node3</title>
<path fill="none" stroke="midnightblue" d="M228.32,-22.04C211.37,-26.32 192.25,-31.15 175.14,-35.47"/>
<polygon fill="midnightblue" stroke="midnightblue" points="229.18,-25.43 238.02,-19.59 227.47,-18.64 229.18,-25.43"/>
</g>
</g>
</svg>
