<?xml version="1.0" encoding="UTF-8" standalone="no"?>
<!DOCTYPE svg PUBLIC "-//W3C//DTD SVG 1.1//EN"
 "http://www.w3.org/Graphics/SVG/1.1/DTD/svg11.dtd">
<!-- Generated by graphviz version 2.44.1 (20200629.0846)
 -->
<!-- Title: drv_LcdInterface_SendCmd Pages: 1 -->
<svg width="1058pt" height="107pt"
 viewBox="0.00 0.00 1058.00 107.00" xmlns="http://www.w3.org/2000/svg" xmlns:xlink="http://www.w3.org/1999/xlink">
<g id="graph0" class="graph" transform="scale(1 1) rotate(0) translate(4 103)">
<title>drv_LcdInterface_SendCmd</title>
<!-- Node1 -->
<g id="node1" class="node">
<title>Node1</title>
<g id="a_node1"><a xlink:title="Sends a command to the LCD controller.">
<polygon fill="#bfbfbf" stroke="black" points="916,-41.5 916,-60.5 1050,-60.5 1050,-41.5 916,-41.5"/>
<text text-anchor="middle" x="983" y="-48.5" font-family="Helvetica,sans-Serif" font-size="10.00">drv_LcdInterface_SendCmd</text>
</a>
</g>
</g>
<!-- Node2 -->
<g id="node2" class="node">
<title>Node2</title>
<g id="a_node2"><a xlink:href="a00487.html#ga0bff8adf9ea1196bdd69b3e47b2b77cd" target="_top" xlink:title="Clears the LC Display Screen.">
<polygon fill="none" stroke="black" points="795,-79.5 795,-98.5 875,-98.5 875,-79.5 795,-79.5"/>
<text text-anchor="middle" x="835" y="-86.5" font-family="Helvetica,sans-Serif" font-size="10.00">dev_Lcd_Clear</text>
</a>
</g>
</g>
<!-- Node1&#45;&gt;Node2 -->
<g id="edge1" class="edge">
<title>Node1&#45;&gt;Node2</title>
<path fill="none" stroke="midnightblue" d="M935.46,-63.11C915.13,-68.4 891.63,-74.52 872.58,-79.48"/>
<polygon fill="midnightblue" stroke="midnightblue" points="936.36,-66.5 945.16,-60.59 934.6,-59.72 936.36,-66.5"/>
</g>
<!-- Node11 -->
<g id="node11" class="node">
<title>Node11</title>
<g id="a_node11"><a xlink:href="a00487.html#ga5c431635cb94750b2f6e938d7f1f0cf1" target="_top" xlink:title="Sets the cursor position to the given x&#45; and y&#45;coordinates.">
<polygon fill="none" stroke="black" points="790,-41.5 790,-60.5 880,-60.5 880,-41.5 790,-41.5"/>
<text text-anchor="middle" x="835" y="-48.5" font-family="Helvetica,sans-Serif" font-size="10.00">dev_Lcd_GotoXY</text>
</a>
</g>
</g>
<!-- Node1&#45;&gt;Node11 -->
<g id="edge11" class="edge">
<title>Node1&#45;&gt;Node11</title>
<path fill="none" stroke="midnightblue" d="M905.62,-51C896.92,-51 888.28,-51 880.2,-51"/>
<polygon fill="midnightblue" stroke="midnightblue" points="905.83,-54.5 915.83,-51 905.83,-47.5 905.83,-54.5"/>
</g>
<!-- Node12 -->
<g id="node12" class="node">
<title>Node12</title>
<g id="a_node12"><a xlink:href="a00487.html#ga5d8f09855e28846e87400692d186781a" target="_top" xlink:title="Initializes the LCD Device.">
<polygon fill="none" stroke="black" points="657.5,-3.5 657.5,-22.5 749.5,-22.5 749.5,-3.5 657.5,-3.5"/>
<text text-anchor="middle" x="703.5" y="-10.5" font-family="Helvetica,sans-Serif" font-size="10.00">dev_Lcd_Initialize</text>
</a>
</g>
</g>
<!-- Node1&#45;&gt;Node12 -->
<g id="edge14" class="edge">
<title>Node1&#45;&gt;Node12</title>
<path fill="none" stroke="midnightblue" d="M925.2,-39.62C910.51,-36.9 894.7,-34.16 880,-32 835.88,-25.51 785.22,-20.26 749.71,-16.94"/>
<polygon fill="midnightblue" stroke="midnightblue" points="924.68,-43.09 935.15,-41.5 925.97,-36.21 924.68,-43.09"/>
</g>
<!-- Node3 -->
<g id="node3" class="node">
<title>Node3</title>
<g id="a_node3"><a xlink:href="a00487.html#ga3cb1303cba012af043a87af0bcab16d8" target="_top" xlink:title="Writes a character on the LCD screen.">
<polygon fill="none" stroke="black" points="653,-79.5 653,-98.5 754,-98.5 754,-79.5 653,-79.5"/>
<text text-anchor="middle" x="703.5" y="-86.5" font-family="Helvetica,sans-Serif" font-size="10.00">dev_Lcd_WriteChar</text>
</a>
</g>
</g>
<!-- Node2&#45;&gt;Node3 -->
<g id="edge2" class="edge">
<title>Node2&#45;&gt;Node3</title>
<path fill="none" stroke="midnightblue" d="M784.62,-89C774.63,-89 764.13,-89 754.13,-89"/>
<polygon fill="midnightblue" stroke="midnightblue" points="784.79,-92.5 794.79,-89 784.79,-85.5 784.79,-92.5"/>
</g>
<!-- Node4 -->
<g id="node4" class="node">
<title>Node4</title>
<g id="a_node4"><a xlink:href="a00487.html#gac07de05132918ca2db8cf4492819eca6" target="_top" xlink:title="Writes a complete string on the LCD screen.">
<polygon fill="none" stroke="black" points="511,-79.5 511,-98.5 617,-98.5 617,-79.5 511,-79.5"/>
<text text-anchor="middle" x="564" y="-86.5" font-family="Helvetica,sans-Serif" font-size="10.00">dev_Lcd_WriteString</text>
</a>
</g>
</g>
<!-- Node3&#45;&gt;Node4 -->
<g id="edge3" class="edge">
<title>Node3&#45;&gt;Node4</title>
<path fill="none" stroke="midnightblue" d="M642.69,-89C634.25,-89 625.63,-89 617.35,-89"/>
<polygon fill="midnightblue" stroke="midnightblue" points="642.86,-92.5 652.86,-89 642.86,-85.5 642.86,-92.5"/>
</g>
<!-- Node5 -->
<g id="node5" class="node">
<title>Node5</title>
<g id="a_node5"><a xlink:href="a00487.html#ga24701a4c3ae760e7e0b9c70d93370ff3" target="_top" xlink:title="Sets the cursor position to the given x&#45; and y&#45;coordinates and writes the given string on the lcd scr...">
<polygon fill="none" stroke="black" points="357,-41.5 357,-60.5 475,-60.5 475,-41.5 357,-41.5"/>
<text text-anchor="middle" x="416" y="-48.5" font-family="Helvetica,sans-Serif" font-size="10.00">dev_Lcd_WriteStringXY</text>
</a>
</g>
</g>
<!-- Node4&#45;&gt;Node5 -->
<g id="edge4" class="edge">
<title>Node4&#45;&gt;Node5</title>
<path fill="none" stroke="midnightblue" d="M516.46,-76.89C496.13,-71.6 472.63,-65.48 453.58,-60.52"/>
<polygon fill="midnightblue" stroke="midnightblue" points="515.6,-80.28 526.16,-79.41 517.36,-73.5 515.6,-80.28"/>
</g>
<!-- Node6 -->
<g id="node6" class="node">
<title>Node6</title>
<g id="a_node6"><a xlink:href="a00482.html#gacd8e3f8ca8af94f13f7efa0df7ced6f5" target="_top" xlink:title="Refreshes the LC display.">
<polygon fill="none" stroke="black" points="229,-42.5 229,-61.5 321,-61.5 321,-42.5 229,-42.5"/>
<text text-anchor="middle" x="275" y="-49.5" font-family="Helvetica,sans-Serif" font-size="10.00">appLCD_Execute</text>
</a>
</g>
</g>
<!-- Node5&#45;&gt;Node6 -->
<g id="edge5" class="edge">
<title>Node5&#45;&gt;Node6</title>
<path fill="none" stroke="midnightblue" d="M346.74,-51.49C338.08,-51.55 329.4,-51.62 321.23,-51.67"/>
<polygon fill="midnightblue" stroke="midnightblue" points="346.88,-54.99 356.86,-51.42 346.83,-47.99 346.88,-54.99"/>
</g>
<!-- Node9 -->
<g id="node9" class="node">
<title>Node9</title>
<g id="a_node9"><a xlink:href="a00482.html#gab93992748ced72fdc2989d0b0f369e54" target="_top" xlink:title="Initializes the LC display.">
<polygon fill="none" stroke="black" points="229,-3.5 229,-22.5 321,-22.5 321,-3.5 229,-3.5"/>
<text text-anchor="middle" x="275" y="-10.5" font-family="Helvetica,sans-Serif" font-size="10.00">appLCD_Initialize</text>
</a>
</g>
</g>
<!-- Node5&#45;&gt;Node9 -->
<g id="edge8" class="edge">
<title>Node5&#45;&gt;Node9</title>
<path fill="none" stroke="midnightblue" d="M370.2,-38.75C351.05,-33.52 329.01,-27.49 311.06,-22.59"/>
<polygon fill="midnightblue" stroke="midnightblue" points="369.36,-42.15 379.92,-41.41 371.2,-35.4 369.36,-42.15"/>
</g>
<!-- Node7 -->
<g id="node7" class="node">
<title>Node7</title>
<g id="a_node7"><a xlink:href="a00353.html#gaa1ec8154dbf983b02b3b2dc186c5079d" target="_top" xlink:title="Low priority task sequence executed after the high priority task sequence execution is complete.">
<polygon fill="none" stroke="black" points="80,-39 80,-69 187,-69 187,-39 80,-39"/>
<text text-anchor="start" x="88" y="-57" font-family="Helvetica,sans-Serif" font-size="10.00">sysLowPriorityTasks</text>
<text text-anchor="middle" x="133.5" y="-46" font-family="Helvetica,sans-Serif" font-size="10.00">_Execute</text>
</a>
</g>
</g>
<!-- Node6&#45;&gt;Node7 -->
<g id="edge6" class="edge">
<title>Node6&#45;&gt;Node7</title>
<path fill="none" stroke="midnightblue" d="M218.59,-52.79C208.29,-52.94 197.55,-53.1 187.33,-53.24"/>
<polygon fill="midnightblue" stroke="midnightblue" points="218.76,-56.29 228.71,-52.65 218.66,-49.29 218.76,-56.29"/>
</g>
<!-- Node8 -->
<g id="node8" class="node">
<title>Node8</title>
<g id="a_node8"><a xlink:href="a00350.html#ga840291bc02cba5474a4cb46a9b9566fe" target="_top" xlink:title="Application main function executed after device comes out of RESET.">
<polygon fill="none" stroke="black" points="0,-22.5 0,-41.5 38,-41.5 38,-22.5 0,-22.5"/>
<text text-anchor="middle" x="19" y="-29.5" font-family="Helvetica,sans-Serif" font-size="10.00">main</text>
</a>
</g>
</g>
<!-- Node7&#45;&gt;Node8 -->
<g id="edge7" class="edge">
<title>Node7&#45;&gt;Node8</title>
<path fill="none" stroke="midnightblue" d="M70.04,-41.78C58.37,-39.5 47.07,-37.29 38.17,-35.55"/>
<polygon fill="midnightblue" stroke="midnightblue" points="69.39,-45.22 79.87,-43.71 70.73,-38.35 69.39,-45.22"/>
</g>
<!-- Node10 -->
<g id="node10" class="node">
<title>Node10</title>
<g id="a_node10"><a xlink:href="a00366.html#ga2be64f5f0b9a2c0c6713f5a69d793e05" target="_top" xlink:title="Initializes the user&#45;defined tasks.">
<polygon fill="none" stroke="black" points="74,-0.5 74,-19.5 193,-19.5 193,-0.5 74,-0.5"/>
<text text-anchor="middle" x="133.5" y="-7.5" font-family="Helvetica,sans-Serif" font-size="10.00">sysUserTasks_Initialize</text>
</a>
</g>
</g>
<!-- Node9&#45;&gt;Node10 -->
<g id="edge9" class="edge">
<title>Node9&#45;&gt;Node10</title>
<path fill="none" stroke="midnightblue" d="M218.63,-11.81C210.22,-11.63 201.51,-11.44 193.04,-11.26"/>
<polygon fill="midnightblue" stroke="midnightblue" points="218.64,-15.31 228.71,-12.03 218.79,-8.31 218.64,-15.31"/>
</g>
<!-- Node10&#45;&gt;Node8 -->
<g id="edge10" class="edge">
<title>Node10&#45;&gt;Node8</title>
<path fill="none" stroke="midnightblue" d="M73.91,-21.46C60.94,-23.99 48.14,-26.5 38.27,-28.43"/>
<polygon fill="midnightblue" stroke="midnightblue" points="74.67,-24.88 83.81,-19.52 73.32,-18.01 74.67,-24.88"/>
</g>
<!-- Node11&#45;&gt;Node3 -->
<g id="edge12" class="edge">
<title>Node11&#45;&gt;Node3</title>
<path fill="none" stroke="midnightblue" d="M791.28,-63.54C773.66,-68.7 753.58,-74.6 737.17,-79.41"/>
<polygon fill="midnightblue" stroke="midnightblue" points="792.71,-66.76 801.32,-60.59 790.74,-60.05 792.71,-66.76"/>
</g>
<!-- Node11&#45;&gt;Node5 -->
<g id="edge13" class="edge">
<title>Node11&#45;&gt;Node5</title>
<path fill="none" stroke="midnightblue" d="M779.58,-51C700.84,-51 555.77,-51 475.05,-51"/>
<polygon fill="midnightblue" stroke="midnightblue" points="779.77,-54.5 789.77,-51 779.77,-47.5 779.77,-54.5"/>
</g>
<!-- Node12&#45;&gt;Node9 -->
<g id="edge15" class="edge">
<title>Node12&#45;&gt;Node9</title>
<path fill="none" stroke="midnightblue" d="M647.25,-13C561.94,-13 399.79,-13 321.1,-13"/>
<polygon fill="midnightblue" stroke="midnightblue" points="647.26,-16.5 657.26,-13 647.26,-9.5 647.26,-16.5"/>
</g>
</g>
</svg>
