<?xml version="1.0" encoding="UTF-8" standalone="no"?>
<!DOCTYPE svg PUBLIC "-//W3C//DTD SVG 1.1//EN"
 "http://www.w3.org/Graphics/SVG/1.1/DTD/svg11.dtd">
<!-- Generated by graphviz version 2.44.1 (20200629.0846)
 -->
<!-- Title: appFaultMonitor_Execute Pages: 1 -->
<svg width="880pt" height="72pt"
 viewBox="0.00 0.00 880.00 71.50" xmlns="http://www.w3.org/2000/svg" xmlns:xlink="http://www.w3.org/1999/xlink">
<g id="graph0" class="graph" transform="scale(1 1) rotate(0) translate(4 67.5)">
<title>appFaultMonitor_Execute</title>
<!-- Node1 -->
<g id="node1" class="node">
<title>Node1</title>
<g id="a_node1"><a xlink:title="Application wide fault object monitoring routine.">
<polygon fill="#bfbfbf" stroke="black" points="0,-19.5 0,-38.5 128,-38.5 128,-19.5 0,-19.5"/>
<text text-anchor="middle" x="64" y="-26.5" font-family="Helvetica,sans-Serif" font-size="10.00">appFaultMonitor_Execute</text>
</a>
</g>
</g>
<!-- Node2 -->
<g id="node2" class="node">
<title>Node2</title>
<g id="a_node2"><a xlink:href="a00502.html#ga3c7bf6b771bc1296401a270da4a95bff" target="_top" xlink:title="This function resumes the power supply operation.">
<polygon fill="none" stroke="black" points="173.5,-38.5 173.5,-57.5 304.5,-57.5 304.5,-38.5 173.5,-38.5"/>
<text text-anchor="middle" x="239" y="-45.5" font-family="Helvetica,sans-Serif" font-size="10.00">appPowerSupply_Resume</text>
</a>
</g>
</g>
<!-- Node1&#45;&gt;Node2 -->
<g id="edge1" class="edge">
<title>Node1&#45;&gt;Node2</title>
<path fill="none" stroke="midnightblue" d="M128.44,-35.97C139.77,-37.21 151.68,-38.52 163.3,-39.8"/>
<polygon fill="midnightblue" stroke="midnightblue" points="163.09,-43.29 173.41,-40.91 163.85,-36.34 163.09,-43.29"/>
</g>
<!-- Node7 -->
<g id="node7" class="node">
<title>Node7</title>
<g id="a_node7"><a xlink:href="a00471.html#gaa513cf169f787b56d70d5d793d2367f7" target="_top" xlink:title="Check current fault status of a user&#45;defined fault object.">
<polygon fill="none" stroke="black" points="164,-0.5 164,-19.5 314,-19.5 314,-0.5 164,-0.5"/>
<text text-anchor="middle" x="239" y="-7.5" font-family="Helvetica,sans-Serif" font-size="10.00">drv_FaultHandler_CheckObject</text>
</a>
</g>
</g>
<!-- Node1&#45;&gt;Node7 -->
<g id="edge6" class="edge">
<title>Node1&#45;&gt;Node7</title>
<path fill="none" stroke="midnightblue" d="M128.44,-22.03C136.68,-21.13 145.23,-20.19 153.76,-19.25"/>
<polygon fill="midnightblue" stroke="midnightblue" points="154.17,-22.73 163.72,-18.16 153.4,-15.77 154.17,-22.73"/>
</g>
<!-- Node3 -->
<g id="node3" class="node">
<title>Node3</title>
<g id="a_node3"><a xlink:href="a00509.html#gaadb710d81053fd0ab75b305f1f329bf6" target="_top" xlink:title="This function resume the operation of the buck converter.">
<polygon fill="none" stroke="black" points="350,-33 350,-63 447,-63 447,-33 350,-33"/>
<text text-anchor="start" x="358" y="-51" font-family="Helvetica,sans-Serif" font-size="10.00">drv_BuckConverter</text>
<text text-anchor="middle" x="398.5" y="-40" font-family="Helvetica,sans-Serif" font-size="10.00">_Resume</text>
</a>
</g>
</g>
<!-- Node2&#45;&gt;Node3 -->
<g id="edge2" class="edge">
<title>Node2&#45;&gt;Node3</title>
<path fill="none" stroke="midnightblue" d="M304.52,-48C316.09,-48 328.1,-48 339.48,-48"/>
<polygon fill="midnightblue" stroke="midnightblue" points="339.72,-51.5 349.72,-48 339.72,-44.5 339.72,-51.5"/>
</g>
<!-- Node4 -->
<g id="node4" class="node">
<title>Node4</title>
<g id="a_node4"><a xlink:href="a00509.html#gab9877f90ffb129964ae42ce2921b3fe1" target="_top" xlink:title="This function is the main buck converter state machine executing the most recent state.">
<polygon fill="none" stroke="black" points="483,-33 483,-63 580,-63 580,-33 483,-33"/>
<text text-anchor="start" x="491" y="-51" font-family="Helvetica,sans-Serif" font-size="10.00">drv_BuckConverter</text>
<text text-anchor="middle" x="531.5" y="-40" font-family="Helvetica,sans-Serif" font-size="10.00">_Execute</text>
</a>
</g>
</g>
<!-- Node3&#45;&gt;Node4 -->
<g id="edge3" class="edge">
<title>Node3&#45;&gt;Node4</title>
<path fill="none" stroke="midnightblue" d="M447.16,-48C455.38,-48 464.01,-48 472.46,-48"/>
<polygon fill="midnightblue" stroke="midnightblue" points="472.65,-51.5 482.65,-48 472.65,-44.5 472.65,-51.5"/>
</g>
<!-- Node5 -->
<g id="node5" class="node">
<title>Node5</title>
<g id="a_node5"><a xlink:href="a00532.html#ga8e2253c136f05033e774d09032b283a1" target="_top" xlink:title="This function gets the state of the selected pin.">
<polygon fill="none" stroke="black" points="616,-38.5 616,-57.5 736,-57.5 736,-38.5 616,-38.5"/>
<text text-anchor="middle" x="676" y="-45.5" font-family="Helvetica,sans-Serif" font-size="10.00">buckGPIO_GetPinState</text>
</a>
</g>
</g>
<!-- Node4&#45;&gt;Node5 -->
<g id="edge4" class="edge">
<title>Node4&#45;&gt;Node5</title>
<path fill="none" stroke="midnightblue" d="M580.35,-48C588.54,-48 597.2,-48 605.82,-48"/>
<polygon fill="midnightblue" stroke="midnightblue" points="605.89,-51.5 615.89,-48 605.89,-44.5 605.89,-51.5"/>
</g>
<!-- Node6 -->
<g id="node6" class="node">
<title>Node6</title>
<g id="a_node6"><a xlink:href="a00383.html#ga4d67af688d8f7f911d79107974e11e6b" target="_top" xlink:title="Gets pointer to GPIO Instance SFR set.">
<polygon fill="none" stroke="black" points="772,-33 772,-63 872,-63 872,-33 772,-33"/>
<text text-anchor="start" x="780" y="-51" font-family="Helvetica,sans-Serif" font-size="10.00">p33c_GpioInstance</text>
<text text-anchor="middle" x="822" y="-40" font-family="Helvetica,sans-Serif" font-size="10.00">_GetHandle</text>
</a>
</g>
</g>
<!-- Node5&#45;&gt;Node6 -->
<g id="edge5" class="edge">
<title>Node5&#45;&gt;Node6</title>
<path fill="none" stroke="midnightblue" d="M736.4,-48C744.77,-48 753.38,-48 761.75,-48"/>
<polygon fill="midnightblue" stroke="midnightblue" points="761.81,-51.5 771.81,-48 761.81,-44.5 761.81,-51.5"/>
</g>
</g>
</svg>
