<?xml version="1.0" encoding="UTF-8" standalone="no"?>
<!DOCTYPE svg PUBLIC "-//W3C//DTD SVG 1.1//EN"
 "http://www.w3.org/Graphics/SVG/1.1/DTD/svg11.dtd">
<!-- Generated by graphviz version 2.44.1 (20200629.0846)
 -->
<!-- Title: Conversion Macros Pages: 1 -->
<svg width="400pt" height="38pt"
 viewBox="0.00 0.00 400.00 38.00" xmlns="http://www.w3.org/2000/svg" xmlns:xlink="http://www.w3.org/1999/xlink">
<g id="graph0" class="graph" transform="scale(1 1) rotate(0) translate(4 34)">
<title>Conversion Macros</title>
<!-- Node2 -->
<g id="node1" class="node">
<title>Node2</title>
<g id="a_node1"><a xlink:href="a00421.html" target="_top" xlink:title="Declaration of fundamental PCMC slope compensation comparator &amp; DAC parameters.">
<polygon fill="none" stroke="black" points="138,-30 0,-30 0,0 138,0 138,-30"/>
<text text-anchor="start" x="8" y="-18" font-family="Helvetica,sans-Serif" font-size="10.00">PCMC Slope Compensation</text>
<text text-anchor="middle" x="69" y="-7" font-family="Helvetica,sans-Serif" font-size="10.00"> Settings</text>
</a>
</g>
</g>
<!-- Node1 -->
<g id="node3" class="node">
<title>Node1</title>
<g id="a_node3"><a xlink:title="Conversion macros converting physical quantities of parameters into binary (integer) numbers for regi...">
<polygon fill="#bfbfbf" stroke="black" points="273,-24.5 174,-24.5 174,-5.5 273,-5.5 273,-24.5"/>
<text text-anchor="middle" x="223.5" y="-12.5" font-family="Helvetica,sans-Serif" font-size="10.00">Conversion Macros</text>
</a>
</g>
</g>
<!-- Node2&#45;&gt;Node1 -->
<g id="edge1" class="edge">
<title>Node2&#45;&gt;Node1</title>
<path fill="none" stroke="black" d="M148.43,-15C157.13,-15 165.8,-15 173.97,-15"/>
<polygon fill="black" stroke="black" points="148.22,-11.5 138.22,-15 148.22,-18.5 148.22,-11.5"/>
</g>
<!-- Node3 -->
<g id="node2" class="node">
<title>Node3</title>
<g id="a_node2"><a xlink:href="a00425.html" target="_top" xlink:title="Conversion macros converting physical quantities of PWM parameters of the buck converter &#160;&#160;into binar...">
<polygon fill="none" stroke="black" points="392,-24.5 309,-24.5 309,-5.5 392,-5.5 392,-24.5"/>
<text text-anchor="middle" x="350.5" y="-12.5" font-family="Helvetica,sans-Serif" font-size="10.00">Buck Converter</text>
</a>
</g>
</g>
<!-- Node1&#45;&gt;Node3 -->
<g id="edge2" class="edge">
<title>Node1&#45;&gt;Node3</title>
<path fill="none" stroke="black" d="M283.26,-15C291.91,-15 300.66,-15 308.84,-15"/>
<polygon fill="black" stroke="black" points="283.19,-11.5 273.19,-15 283.19,-18.5 283.19,-11.5"/>
</g>
</g>
</svg>
