<?xml version="1.0" encoding="UTF-8" standalone="no"?>
<!DOCTYPE svg PUBLIC "-//W3C//DTD SVG 1.1//EN"
 "http://www.w3.org/Graphics/SVG/1.1/DTD/svg11.dtd">
<!-- Generated by graphviz version 2.44.1 (20200629.0846)
 -->
<!-- Title: User Settings Pages: 1 -->
<svg width="377pt" height="38pt"
 viewBox="0.00 0.00 377.00 38.00" xmlns="http://www.w3.org/2000/svg" xmlns:xlink="http://www.w3.org/1999/xlink">
<g id="graph0" class="graph" transform="scale(1 1) rotate(0) translate(4 34)">
<title>User Settings</title>
<!-- Node2 -->
<g id="node1" class="node">
<title>Node2</title>
<g id="a_node1"><a xlink:href="a00421.html" target="_top" xlink:title="Declaration of fundamental PCMC slope compensation comparator &amp; DAC parameters.">
<polygon fill="none" stroke="black" points="138,-30 0,-30 0,0 138,0 138,-30"/>
<text text-anchor="start" x="8" y="-18" font-family="Helvetica,sans-Serif" font-size="10.00">PCMC Slope Compensation</text>
<text text-anchor="middle" x="69" y="-7" font-family="Helvetica,sans-Serif" font-size="10.00"> Settings</text>
</a>
</g>
</g>
<!-- Node1 -->
<g id="node3" class="node">
<title>Node1</title>
<g id="a_node3"><a xlink:title="Parameter definitions using physical quantities.">
<polygon fill="#bfbfbf" stroke="black" points="250,-24.5 174,-24.5 174,-5.5 250,-5.5 250,-24.5"/>
<text text-anchor="middle" x="212" y="-12.5" font-family="Helvetica,sans-Serif" font-size="10.00">User Settings</text>
</a>
</g>
</g>
<!-- Node2&#45;&gt;Node1 -->
<g id="edge1" class="edge">
<title>Node2&#45;&gt;Node1</title>
<path fill="none" stroke="black" d="M148.18,-15C157.14,-15 165.94,-15 173.98,-15"/>
<polygon fill="black" stroke="black" points="148.02,-11.5 138.02,-15 148.02,-18.5 148.02,-11.5"/>
</g>
<!-- Node3 -->
<g id="node2" class="node">
<title>Node3</title>
<g id="a_node2"><a xlink:href="a00423.html" target="_top" xlink:title="PWM parameter definitions of the buck converter using physical quantities.">
<polygon fill="none" stroke="black" points="369,-24.5 286,-24.5 286,-5.5 369,-5.5 369,-24.5"/>
<text text-anchor="middle" x="327.5" y="-12.5" font-family="Helvetica,sans-Serif" font-size="10.00">Buck Converter</text>
</a>
</g>
</g>
<!-- Node1&#45;&gt;Node3 -->
<g id="edge2" class="edge">
<title>Node1&#45;&gt;Node3</title>
<path fill="none" stroke="black" d="M260.28,-15C268.73,-15 277.47,-15 285.72,-15"/>
<polygon fill="black" stroke="black" points="260.16,-11.5 250.16,-15 260.16,-18.5 260.16,-11.5"/>
</g>
</g>
</svg>
