<?xml version="1.0" encoding="UTF-8" standalone="no"?>
<!DOCTYPE svg PUBLIC "-//W3C//DTD SVG 1.1//EN"
 "http://www.w3.org/Graphics/SVG/1.1/DTD/svg11.dtd">
<!-- Generated by graphviz version 2.44.1 (20200629.0846)
 -->
<!-- Title: dev_Lcd_WriteStringXY Pages: 1 -->
<svg width="483pt" height="78pt"
 viewBox="0.00 0.00 483.00 77.50" xmlns="http://www.w3.org/2000/svg" xmlns:xlink="http://www.w3.org/1999/xlink">
<g id="graph0" class="graph" transform="scale(1 1) rotate(0) translate(4 73.5)">
<title>dev_Lcd_WriteStringXY</title>
<!-- Node1 -->
<g id="node1" class="node">
<title>Node1</title>
<g id="a_node1"><a xlink:title="Sets the cursor position to the given x&#45; and y&#45;coordinates and writes the given string on the lcd scr...">
<polygon fill="#bfbfbf" stroke="black" points="357,-22.5 357,-41.5 475,-41.5 475,-22.5 357,-22.5"/>
<text text-anchor="middle" x="416" y="-29.5" font-family="Helvetica,sans-Serif" font-size="10.00">dev_Lcd_WriteStringXY</text>
</a>
</g>
</g>
<!-- Node2 -->
<g id="node2" class="node">
<title>Node2</title>
<g id="a_node2"><a xlink:href="a00482.html#gacd8e3f8ca8af94f13f7efa0df7ced6f5" target="_top" xlink:title="Refreshes the LC display.">
<polygon fill="none" stroke="black" points="229,-42.5 229,-61.5 321,-61.5 321,-42.5 229,-42.5"/>
<text text-anchor="middle" x="275" y="-49.5" font-family="Helvetica,sans-Serif" font-size="10.00">appLCD_Execute</text>
</a>
</g>
</g>
<!-- Node1&#45;&gt;Node2 -->
<g id="edge1" class="edge">
<title>Node1&#45;&gt;Node2</title>
<path fill="none" stroke="midnightblue" d="M346.74,-41.82C338.08,-43.07 329.4,-44.32 321.23,-45.49"/>
<polygon fill="midnightblue" stroke="midnightblue" points="347.46,-45.25 356.86,-40.37 346.46,-38.33 347.46,-45.25"/>
</g>
<!-- Node5 -->
<g id="node5" class="node">
<title>Node5</title>
<g id="a_node5"><a xlink:href="a00482.html#gab93992748ced72fdc2989d0b0f369e54" target="_top" xlink:title="Initializes the LC display.">
<polygon fill="none" stroke="black" points="229,-3.5 229,-22.5 321,-22.5 321,-3.5 229,-3.5"/>
<text text-anchor="middle" x="275" y="-10.5" font-family="Helvetica,sans-Serif" font-size="10.00">appLCD_Initialize</text>
</a>
</g>
</g>
<!-- Node1&#45;&gt;Node5 -->
<g id="edge4" class="edge">
<title>Node1&#45;&gt;Node5</title>
<path fill="none" stroke="midnightblue" d="M346.74,-22.67C338.08,-21.49 329.4,-20.3 321.23,-19.18"/>
<polygon fill="midnightblue" stroke="midnightblue" points="346.47,-26.17 356.86,-24.05 347.42,-19.23 346.47,-26.17"/>
</g>
<!-- Node3 -->
<g id="node3" class="node">
<title>Node3</title>
<g id="a_node3"><a xlink:href="a00353.html#gaa1ec8154dbf983b02b3b2dc186c5079d" target="_top" xlink:title="Low priority task sequence executed after the high priority task sequence execution is complete.">
<polygon fill="none" stroke="black" points="80,-39 80,-69 187,-69 187,-39 80,-39"/>
<text text-anchor="start" x="88" y="-57" font-family="Helvetica,sans-Serif" font-size="10.00">sysLowPriorityTasks</text>
<text text-anchor="middle" x="133.5" y="-46" font-family="Helvetica,sans-Serif" font-size="10.00">_Execute</text>
</a>
</g>
</g>
<!-- Node2&#45;&gt;Node3 -->
<g id="edge2" class="edge">
<title>Node2&#45;&gt;Node3</title>
<path fill="none" stroke="midnightblue" d="M218.59,-52.79C208.29,-52.94 197.55,-53.1 187.33,-53.24"/>
<polygon fill="midnightblue" stroke="midnightblue" points="218.76,-56.29 228.71,-52.65 218.66,-49.29 218.76,-56.29"/>
</g>
<!-- Node4 -->
<g id="node4" class="node">
<title>Node4</title>
<g id="a_node4"><a xlink:href="a00350.html#ga840291bc02cba5474a4cb46a9b9566fe" target="_top" xlink:title="Application main function executed after device comes out of RESET.">
<polygon fill="none" stroke="black" points="0,-22.5 0,-41.5 38,-41.5 38,-22.5 0,-22.5"/>
<text text-anchor="middle" x="19" y="-29.5" font-family="Helvetica,sans-Serif" font-size="10.00">main</text>
</a>
</g>
</g>
<!-- Node3&#45;&gt;Node4 -->
<g id="edge3" class="edge">
<title>Node3&#45;&gt;Node4</title>
<path fill="none" stroke="midnightblue" d="M70.04,-41.78C58.37,-39.5 47.07,-37.29 38.17,-35.55"/>
<polygon fill="midnightblue" stroke="midnightblue" points="69.39,-45.22 79.87,-43.71 70.73,-38.35 69.39,-45.22"/>
</g>
<!-- Node6 -->
<g id="node6" class="node">
<title>Node6</title>
<g id="a_node6"><a xlink:href="a00366.html#ga2be64f5f0b9a2c0c6713f5a69d793e05" target="_top" xlink:title="Initializes the user&#45;defined tasks.">
<polygon fill="none" stroke="black" points="74,-0.5 74,-19.5 193,-19.5 193,-0.5 74,-0.5"/>
<text text-anchor="middle" x="133.5" y="-7.5" font-family="Helvetica,sans-Serif" font-size="10.00">sysUserTasks_Initialize</text>
</a>
</g>
</g>
<!-- Node5&#45;&gt;Node6 -->
<g id="edge5" class="edge">
<title>Node5&#45;&gt;Node6</title>
<path fill="none" stroke="midnightblue" d="M218.63,-11.81C210.22,-11.63 201.51,-11.44 193.04,-11.26"/>
<polygon fill="midnightblue" stroke="midnightblue" points="218.64,-15.31 228.71,-12.03 218.79,-8.31 218.64,-15.31"/>
</g>
<!-- Node6&#45;&gt;Node4 -->
<g id="edge6" class="edge">
<title>Node6&#45;&gt;Node4</title>
<path fill="none" stroke="midnightblue" d="M73.91,-21.46C60.94,-23.99 48.14,-26.5 38.27,-28.43"/>
<polygon fill="midnightblue" stroke="midnightblue" points="74.67,-24.88 83.81,-19.52 73.32,-18.01 74.67,-24.88"/>
</g>
</g>
</svg>
