<?xml version="1.0" encoding="UTF-8" standalone="no"?>
<!DOCTYPE svg PUBLIC "-//W3C//DTD SVG 1.1//EN"
 "http://www.w3.org/Graphics/SVG/1.1/DTD/svg11.dtd">
<!-- Generated by graphviz version 2.44.1 (20200629.0846)
 -->
<!-- Title: Special Circuit Signals Pages: 1 -->
<svg width="437pt" height="76pt"
 viewBox="0.00 0.00 437.00 75.50" xmlns="http://www.w3.org/2000/svg" xmlns:xlink="http://www.w3.org/1999/xlink">
<g id="graph0" class="graph" transform="scale(1 1) rotate(0) translate(4 71.5)">
<title>Special Circuit Signals</title>
<!-- Node2 -->
<g id="node1" class="node">
<title>Node2</title>
<g id="a_node1"><a xlink:href="a00367.html" target="_top" xlink:title="Hardware Abstraction Layer Declarations.">
<polygon fill="none" stroke="black" points="110,-45.5 0,-45.5 0,-15.5 110,-15.5 110,-45.5"/>
<text text-anchor="start" x="8" y="-33.5" font-family="Helvetica,sans-Serif" font-size="10.00">Hardware Abstraction</text>
<text text-anchor="middle" x="55" y="-22.5" font-family="Helvetica,sans-Serif" font-size="10.00"> Layer</text>
</a>
</g>
</g>
<!-- Node1 -->
<g id="node2" class="node">
<title>Node1</title>
<g id="a_node2"><a xlink:title=" ">
<polygon fill="#bfbfbf" stroke="black" points="261,-40 146,-40 146,-21 261,-21 261,-40"/>
<text text-anchor="middle" x="203.5" y="-28" font-family="Helvetica,sans-Serif" font-size="10.00">Special Circuit Signals</text>
</a>
</g>
</g>
<!-- Node2&#45;&gt;Node1 -->
<g id="edge1" class="edge">
<title>Node2&#45;&gt;Node1</title>
<path fill="none" stroke="black" d="M120.31,-30.5C128.75,-30.5 137.34,-30.5 145.64,-30.5"/>
<polygon fill="black" stroke="black" points="120.13,-27 110.13,-30.5 120.13,-34 120.13,-27"/>
</g>
<!-- Node4 -->
<g id="node3" class="node">
<title>Node4</title>
<g id="a_node3"><a xlink:href="a00463.html" target="_top" xlink:title="Assignment of microcontroller device specific chip&#45;resources to circuit functions and signals.">
<polygon fill="none" stroke="black" points="409,-67.5 317,-67.5 317,-37.5 409,-37.5 409,-67.5"/>
<text text-anchor="start" x="325" y="-55.5" font-family="Helvetica,sans-Serif" font-size="10.00">Device Peripheral</text>
<text text-anchor="middle" x="363" y="-44.5" font-family="Helvetica,sans-Serif" font-size="10.00"> Assignments</text>
</a>
</g>
</g>
<!-- Node1&#45;&gt;Node4 -->
<g id="edge3" class="edge">
<title>Node1&#45;&gt;Node4</title>
<path fill="none" stroke="black" d="M271.33,-39.84C286.68,-41.98 302.65,-44.21 316.83,-46.19"/>
<polygon fill="black" stroke="black" points="271.75,-36.36 261.36,-38.44 270.78,-43.29 271.75,-36.36"/>
</g>
<!-- Node3 -->
<g id="node4" class="node">
<title>Node3</title>
<g id="a_node4"><a xlink:href="a00462.html" target="_top" xlink:title="Assignment of microcontroller device pins to circuit functions and signals.">
<polygon fill="none" stroke="black" points="429,-19 297,-19 297,0 429,0 429,-19"/>
<text text-anchor="middle" x="363" y="-7" font-family="Helvetica,sans-Serif" font-size="10.00">Device GPIO Assignments</text>
</a>
</g>
</g>
<!-- Node1&#45;&gt;Node3 -->
<g id="edge2" class="edge">
<title>Node1&#45;&gt;Node3</title>
<path fill="none" stroke="black" d="M271.52,-21.56C279.94,-20.44 288.54,-19.29 296.93,-18.18"/>
<polygon fill="black" stroke="black" points="270.81,-18.13 261.36,-22.92 271.74,-25.07 270.81,-18.13"/>
</g>
</g>
</svg>
