<?xml version="1.0" encoding="UTF-8" standalone="no"?>
<!DOCTYPE svg PUBLIC "-//W3C//DTD SVG 1.1//EN"
 "http://www.w3.org/Graphics/SVG/1.1/DTD/svg11.dtd">
<!-- Generated by graphviz version 2.44.1 (20200629.0846)
 -->
<!-- Title: Control Interrupt Vector Declarations Pages: 1 -->
<svg width="378pt" height="38pt"
 viewBox="0.00 0.00 378.00 38.00" xmlns="http://www.w3.org/2000/svg" xmlns:xlink="http://www.w3.org/1999/xlink">
<g id="graph0" class="graph" transform="scale(1 1) rotate(0) translate(4 34)">
<title>Control Interrupt Vector Declarations</title>
<!-- Node2 -->
<g id="node1" class="node">
<title>Node2</title>
<g id="a_node1"><a xlink:href="a00367.html" target="_top" xlink:title="Hardware Abstraction Layer Declarations.">
<polygon fill="none" stroke="black" points="110,-30 0,-30 0,0 110,0 110,-30"/>
<text text-anchor="start" x="8" y="-18" font-family="Helvetica,sans-Serif" font-size="10.00">Hardware Abstraction</text>
<text text-anchor="middle" x="55" y="-7" font-family="Helvetica,sans-Serif" font-size="10.00"> Layer</text>
</a>
</g>
</g>
<!-- Node1 -->
<g id="node2" class="node">
<title>Node1</title>
<g id="a_node2"><a xlink:title="Real&#45;time control loop interrupt service routine declarations.">
<polygon fill="#bfbfbf" stroke="black" points="251,-30 146,-30 146,0 251,0 251,-30"/>
<text text-anchor="start" x="154" y="-18" font-family="Helvetica,sans-Serif" font-size="10.00">Control Interrupt</text>
<text text-anchor="middle" x="198.5" y="-7" font-family="Helvetica,sans-Serif" font-size="10.00"> Vector Declarations</text>
</a>
</g>
</g>
<!-- Node2&#45;&gt;Node1 -->
<g id="edge1" class="edge">
<title>Node2&#45;&gt;Node1</title>
<path fill="none" stroke="black" d="M120.57,-15C129.06,-15 137.67,-15 145.9,-15"/>
<polygon fill="black" stroke="black" points="120.3,-11.5 110.3,-15 120.3,-18.5 120.3,-11.5"/>
</g>
<!-- Node3 -->
<g id="node3" class="node">
<title>Node3</title>
<g id="a_node3"><a xlink:href="a00459.html" target="_top" xlink:title="Control loop Interrupt Vector Settings of the buck converter.">
<polygon fill="none" stroke="black" points="370,-24.5 287,-24.5 287,-5.5 370,-5.5 370,-24.5"/>
<text text-anchor="middle" x="328.5" y="-12.5" font-family="Helvetica,sans-Serif" font-size="10.00">Buck Converter</text>
</a>
</g>
</g>
<!-- Node1&#45;&gt;Node3 -->
<g id="edge2" class="edge">
<title>Node1&#45;&gt;Node3</title>
<path fill="none" stroke="black" d="M261.25,-15C269.86,-15 278.53,-15 286.63,-15"/>
<polygon fill="black" stroke="black" points="261.19,-11.5 251.19,-15 261.19,-18.5 261.19,-11.5"/>
</g>
</g>
</svg>
