<?xml version="1.0" encoding="UTF-8" standalone="no"?>
<!DOCTYPE svg PUBLIC "-//W3C//DTD SVG 1.1//EN"
 "http://www.w3.org/Graphics/SVG/1.1/DTD/svg11.dtd">
<!-- Generated by graphviz version 2.44.1 (20200629.0846)
 -->
<!-- Title: PCMC Slope Compensation Settings Pages: 1 -->
<svg width="461pt" height="101pt"
 viewBox="0.00 0.00 461.00 101.00" xmlns="http://www.w3.org/2000/svg" xmlns:xlink="http://www.w3.org/1999/xlink">
<g id="graph0" class="graph" transform="scale(1 1) rotate(0) translate(4 97)">
<title>PCMC Slope Compensation Settings</title>
<!-- Node2 -->
<g id="node1" class="node">
<title>Node2</title>
<g id="a_node1"><a xlink:href="a00367.html" target="_top" xlink:title="Hardware Abstraction Layer Declarations.">
<polygon fill="none" stroke="black" points="110,-61.5 0,-61.5 0,-31.5 110,-31.5 110,-61.5"/>
<text text-anchor="start" x="8" y="-49.5" font-family="Helvetica,sans-Serif" font-size="10.00">Hardware Abstraction</text>
<text text-anchor="middle" x="55" y="-38.5" font-family="Helvetica,sans-Serif" font-size="10.00"> Layer</text>
</a>
</g>
</g>
<!-- Node1 -->
<g id="node2" class="node">
<title>Node1</title>
<g id="a_node2"><a xlink:title="Declaration of fundamental PCMC slope compensation comparator &amp; DAC parameters.">
<polygon fill="#bfbfbf" stroke="black" points="284,-61.5 146,-61.5 146,-31.5 284,-31.5 284,-61.5"/>
<text text-anchor="start" x="154" y="-49.5" font-family="Helvetica,sans-Serif" font-size="10.00">PCMC Slope Compensation</text>
<text text-anchor="middle" x="215" y="-38.5" font-family="Helvetica,sans-Serif" font-size="10.00"> Settings</text>
</a>
</g>
</g>
<!-- Node2&#45;&gt;Node1 -->
<g id="edge1" class="edge">
<title>Node2&#45;&gt;Node1</title>
<path fill="none" stroke="black" d="M120.45,-46.5C128.82,-46.5 137.42,-46.5 145.85,-46.5"/>
<polygon fill="black" stroke="black" points="120.37,-43 110.37,-46.5 120.37,-50 120.37,-43"/>
</g>
<!-- Node5 -->
<g id="node3" class="node">
<title>Node5</title>
<g id="a_node3"><a xlink:href="a00426.html" target="_top" xlink:title="PWM peripheral output pins, control signals and register assignments.">
<polygon fill="none" stroke="black" points="453,-93 320,-93 320,-74 453,-74 453,-93"/>
<text text-anchor="middle" x="386.5" y="-81" font-family="Helvetica,sans-Serif" font-size="10.00">Microcontroller Abstraction</text>
</a>
</g>
</g>
<!-- Node1&#45;&gt;Node5 -->
<g id="edge4" class="edge">
<title>Node1&#45;&gt;Node5</title>
<path fill="none" stroke="black" d="M294.48,-63.63C310.69,-67.17 327.21,-70.78 341.64,-73.93"/>
<polygon fill="black" stroke="black" points="294.97,-60.16 284.45,-61.44 293.48,-66.99 294.97,-60.16"/>
</g>
<!-- Node4 -->
<g id="node4" class="node">
<title>Node4</title>
<g id="a_node4"><a xlink:href="a00424.html" target="_top" xlink:title="Conversion macros converting physical quantities of parameters into binary (integer) numbers for regi...">
<polygon fill="none" stroke="black" points="436,-56 337,-56 337,-37 436,-37 436,-56"/>
<text text-anchor="middle" x="386.5" y="-44" font-family="Helvetica,sans-Serif" font-size="10.00">Conversion Macros</text>
</a>
</g>
</g>
<!-- Node1&#45;&gt;Node4 -->
<g id="edge3" class="edge">
<title>Node1&#45;&gt;Node4</title>
<path fill="none" stroke="black" d="M294.82,-46.5C309.15,-46.5 323.71,-46.5 336.84,-46.5"/>
<polygon fill="black" stroke="black" points="294.45,-43 284.45,-46.5 294.45,-50 294.45,-43"/>
</g>
<!-- Node3 -->
<g id="node5" class="node">
<title>Node3</title>
<g id="a_node5"><a xlink:href="a00422.html" target="_top" xlink:title="Parameter definitions using physical quantities.">
<polygon fill="none" stroke="black" points="424.5,-19 348.5,-19 348.5,0 424.5,0 424.5,-19"/>
<text text-anchor="middle" x="386.5" y="-7" font-family="Helvetica,sans-Serif" font-size="10.00">User Settings</text>
</a>
</g>
</g>
<!-- Node1&#45;&gt;Node3 -->
<g id="edge2" class="edge">
<title>Node1&#45;&gt;Node3</title>
<path fill="none" stroke="black" d="M294.27,-29.41C313.16,-25.29 332.48,-21.07 348.44,-17.59"/>
<polygon fill="black" stroke="black" points="293.48,-26.01 284.45,-31.56 294.97,-32.84 293.48,-26.01"/>
</g>
</g>
</svg>
