<?xml version="1.0" encoding="UTF-8" standalone="no"?>
<!DOCTYPE svg PUBLIC "-//W3C//DTD SVG 1.1//EN"
 "http://www.w3.org/Graphics/SVG/1.1/DTD/svg11.dtd">
<!-- Generated by graphviz version 2.44.1 (20200629.0846)
 -->
<!-- Title: State Machine Settings Pages: 1 -->
<svg width="408pt" height="113pt"
 viewBox="0.00 0.00 408.00 112.50" xmlns="http://www.w3.org/2000/svg" xmlns:xlink="http://www.w3.org/1999/xlink">
<g id="graph0" class="graph" transform="scale(1 1) rotate(0) translate(4 108.5)">
<title>State Machine Settings</title>
<!-- Node2 -->
<g id="node1" class="node">
<title>Node2</title>
<g id="a_node1"><a xlink:href="a00367.html" target="_top" xlink:title="Hardware Abstraction Layer Declarations.">
<polygon fill="none" stroke="black" points="110,-73 0,-73 0,-43 110,-43 110,-73"/>
<text text-anchor="start" x="8" y="-61" font-family="Helvetica,sans-Serif" font-size="10.00">Hardware Abstraction</text>
<text text-anchor="middle" x="55" y="-50" font-family="Helvetica,sans-Serif" font-size="10.00"> Layer</text>
</a>
</g>
</g>
<!-- Node1 -->
<g id="node3" class="node">
<title>Node1</title>
<g id="a_node3"><a xlink:title="Declaration of global state&#45;machine parameters.">
<polygon fill="#bfbfbf" stroke="black" points="265,-67.5 146,-67.5 146,-48.5 265,-48.5 265,-67.5"/>
<text text-anchor="middle" x="205.5" y="-55.5" font-family="Helvetica,sans-Serif" font-size="10.00">State Machine Settings</text>
</a>
</g>
</g>
<!-- Node2&#45;&gt;Node1 -->
<g id="edge1" class="edge">
<title>Node2&#45;&gt;Node1</title>
<path fill="none" stroke="black" d="M120.04,-58C128.67,-58 137.48,-58 146,-58"/>
<polygon fill="black" stroke="black" points="120.03,-54.5 110.03,-58 120.03,-61.5 120.03,-54.5"/>
</g>
<!-- Node3 -->
<g id="node2" class="node">
<title>Node3</title>
<g id="a_node2"><a xlink:href="a00401.html" target="_top" xlink:title="Parameter definitions using physical quantities.">
<polygon fill="none" stroke="black" points="388.5,-104.5 312.5,-104.5 312.5,-85.5 388.5,-85.5 388.5,-104.5"/>
<text text-anchor="middle" x="350.5" y="-92.5" font-family="Helvetica,sans-Serif" font-size="10.00">User Settings</text>
</a>
</g>
</g>
<!-- Node1&#45;&gt;Node3 -->
<g id="edge2" class="edge">
<title>Node1&#45;&gt;Node3</title>
<path fill="none" stroke="black" d="M253.08,-70.05C272.27,-75.02 294.21,-80.69 312.3,-85.38"/>
<polygon fill="black" stroke="black" points="253.88,-66.64 243.33,-67.53 252.13,-73.42 253.88,-66.64"/>
</g>
<!-- Node4 -->
<g id="node4" class="node">
<title>Node4</title>
<g id="a_node4"><a xlink:href="a00402.html" target="_top" xlink:title="Conversion macros converting physical quantities of parameters into binary (integer) numbers for regi...">
<polygon fill="none" stroke="black" points="400,-67.5 301,-67.5 301,-48.5 400,-48.5 400,-67.5"/>
<text text-anchor="middle" x="350.5" y="-55.5" font-family="Helvetica,sans-Serif" font-size="10.00">Conversion Macros</text>
</a>
</g>
</g>
<!-- Node1&#45;&gt;Node4 -->
<g id="edge3" class="edge">
<title>Node1&#45;&gt;Node4</title>
<path fill="none" stroke="black" d="M275.18,-58C283.84,-58 292.56,-58 300.82,-58"/>
<polygon fill="black" stroke="black" points="275.08,-54.5 265.08,-58 275.08,-61.5 275.08,-54.5"/>
</g>
<!-- Node5 -->
<g id="node5" class="node">
<title>Node5</title>
<g id="a_node5"><a xlink:href="a00403.html" target="_top" xlink:title="Assignment of microcontroller device specific chip&#45;resources to circuit functions and signals.">
<polygon fill="none" stroke="black" points="396.5,-30 304.5,-30 304.5,0 396.5,0 396.5,-30"/>
<text text-anchor="start" x="312.5" y="-18" font-family="Helvetica,sans-Serif" font-size="10.00">Device Peripheral</text>
<text text-anchor="middle" x="350.5" y="-7" font-family="Helvetica,sans-Serif" font-size="10.00"> Assignments</text>
</a>
</g>
</g>
<!-- Node1&#45;&gt;Node5 -->
<g id="edge4" class="edge">
<title>Node1&#45;&gt;Node5</title>
<path fill="none" stroke="black" d="M248.22,-45.46C265.81,-40.17 286.34,-33.99 304.29,-28.59"/>
<polygon fill="black" stroke="black" points="246.8,-42.23 238.24,-48.46 248.82,-48.93 246.8,-42.23"/>
</g>
</g>
</svg>
