<?xml version="1.0" encoding="UTF-8" standalone="no"?>
<!DOCTYPE svg PUBLIC "-//W3C//DTD SVG 1.1//EN"
 "http://www.w3.org/Graphics/SVG/1.1/DTD/svg11.dtd">
<!-- Generated by graphviz version 2.44.1 (20200629.0846)
 -->
<!-- Title: Microcontroller Abstraction Pages: 1 -->
<svg width="434pt" height="38pt"
 viewBox="0.00 0.00 434.00 38.00" xmlns="http://www.w3.org/2000/svg" xmlns:xlink="http://www.w3.org/1999/xlink">
<g id="graph0" class="graph" transform="scale(1 1) rotate(0) translate(4 34)">
<title>Microcontroller Abstraction</title>
<!-- Node2 -->
<g id="node1" class="node">
<title>Node2</title>
<g id="a_node1"><a xlink:href="a00421.html" target="_top" xlink:title="Declaration of fundamental PCMC slope compensation comparator &amp; DAC parameters.">
<polygon fill="none" stroke="black" points="138,-30 0,-30 0,0 138,0 138,-30"/>
<text text-anchor="start" x="8" y="-18" font-family="Helvetica,sans-Serif" font-size="10.00">PCMC Slope Compensation</text>
<text text-anchor="middle" x="69" y="-7" font-family="Helvetica,sans-Serif" font-size="10.00"> Settings</text>
</a>
</g>
</g>
<!-- Node1 -->
<g id="node3" class="node">
<title>Node1</title>
<g id="a_node3"><a xlink:title="PWM peripheral output pins, control signals and register assignments.">
<polygon fill="#bfbfbf" stroke="black" points="307,-24.5 174,-24.5 174,-5.5 307,-5.5 307,-24.5"/>
<text text-anchor="middle" x="240.5" y="-12.5" font-family="Helvetica,sans-Serif" font-size="10.00">Microcontroller Abstraction</text>
</a>
</g>
</g>
<!-- Node2&#45;&gt;Node1 -->
<g id="edge1" class="edge">
<title>Node2&#45;&gt;Node1</title>
<path fill="none" stroke="black" d="M148.66,-15C157.07,-15 165.57,-15 173.81,-15"/>
<polygon fill="black" stroke="black" points="148.45,-11.5 138.45,-15 148.45,-18.5 148.45,-11.5"/>
</g>
<!-- Node3 -->
<g id="node2" class="node">
<title>Node3</title>
<g id="a_node2"><a xlink:href="a00427.html" target="_top" xlink:title="PWM peripheral output pins, control signals and register assignments used to drive the buck converter...">
<polygon fill="none" stroke="black" points="426,-24.5 343,-24.5 343,-5.5 426,-5.5 426,-24.5"/>
<text text-anchor="middle" x="384.5" y="-12.5" font-family="Helvetica,sans-Serif" font-size="10.00">Buck Converter</text>
</a>
</g>
</g>
<!-- Node1&#45;&gt;Node3 -->
<g id="edge2" class="edge">
<title>Node1&#45;&gt;Node3</title>
<path fill="none" stroke="black" d="M317.13,-15C326.01,-15 334.79,-15 342.91,-15"/>
<polygon fill="black" stroke="black" points="317.1,-11.5 307.1,-15 317.1,-18.5 317.1,-11.5"/>
</g>
</g>
</svg>
