<?xml version="1.0" encoding="UTF-8" standalone="no"?>
<!DOCTYPE svg PUBLIC "-//W3C//DTD SVG 1.1//EN"
 "http://www.w3.org/Graphics/SVG/1.1/DTD/svg11.dtd">
<!-- Generated by graphviz version 2.44.1 (20200629.0846)
 -->
<!-- Title: DefaultTrapHandler Pages: 1 -->
<svg width="236pt" height="218pt"
 viewBox="0.00 0.00 236.00 218.00" xmlns="http://www.w3.org/2000/svg" xmlns:xlink="http://www.w3.org/1999/xlink">
<g id="graph0" class="graph" transform="scale(1 1) rotate(0) translate(4 214)">
<title>DefaultTrapHandler</title>
<!-- Node1 -->
<g id="node1" class="node">
<title>Node1</title>
<g id="a_node1"><a xlink:title="Centralized trap handler routine.">
<polygon fill="#bfbfbf" stroke="black" points="130,-95.5 130,-114.5 228,-114.5 228,-95.5 130,-95.5"/>
<text text-anchor="middle" x="179" y="-102.5" font-family="Helvetica,sans-Serif" font-size="10.00">DefaultTrapHandler</text>
</a>
</g>
</g>
<!-- Node2 -->
<g id="node2" class="node">
<title>Node2</title>
<g id="a_node2"><a xlink:href="a00477.html#ga6855e014f3fc9e07fbb8def5728b5d1a" target="_top" xlink:title=" ">
<polygon fill="none" stroke="black" points="1.5,-190.5 1.5,-209.5 92.5,-209.5 92.5,-190.5 1.5,-190.5"/>
<text text-anchor="middle" x="47" y="-197.5" font-family="Helvetica,sans-Serif" font-size="10.00">_AltAddressError</text>
</a>
</g>
</g>
<!-- Node1&#45;&gt;Node2 -->
<g id="edge1" class="edge">
<title>Node1&#45;&gt;Node2</title>
<path fill="none" stroke="midnightblue" d="M162.6,-122C146.71,-138.76 120.57,-164.21 94,-181 88.3,-184.6 81.81,-187.77 75.53,-190.44"/>
<polygon fill="midnightblue" stroke="midnightblue" points="165.28,-124.26 169.53,-114.56 160.15,-119.49 165.28,-124.26"/>
</g>
<!-- Node3 -->
<g id="node3" class="node">
<title>Node3</title>
<g id="a_node3"><a xlink:href="a00477.html#ga14bd0c958f774dfbf3d4d4d950f8dcf1" target="_top" xlink:title=" ">
<polygon fill="none" stroke="black" points="0,-152.5 0,-171.5 94,-171.5 94,-152.5 0,-152.5"/>
<text text-anchor="middle" x="47" y="-159.5" font-family="Helvetica,sans-Serif" font-size="10.00">_AltHardTrapError</text>
</a>
</g>
</g>
<!-- Node1&#45;&gt;Node3 -->
<g id="edge2" class="edge">
<title>Node1&#45;&gt;Node3</title>
<path fill="none" stroke="midnightblue" d="M148,-118.86C132.02,-126.17 112.01,-135.21 94,-143 86.7,-146.16 78.71,-149.5 71.46,-152.48"/>
<polygon fill="midnightblue" stroke="midnightblue" points="149.74,-121.91 157.37,-114.56 146.82,-115.55 149.74,-121.91"/>
</g>
<!-- Node4 -->
<g id="node4" class="node">
<title>Node4</title>
<g id="a_node4"><a xlink:href="a00477.html#ga3c610dd81348a730f31a2254d3f60534" target="_top" xlink:title=" ">
<polygon fill="none" stroke="black" points="8.5,-114.5 8.5,-133.5 85.5,-133.5 85.5,-114.5 8.5,-114.5"/>
<text text-anchor="middle" x="47" y="-121.5" font-family="Helvetica,sans-Serif" font-size="10.00">_AltMathError</text>
</a>
</g>
</g>
<!-- Node1&#45;&gt;Node4 -->
<g id="edge3" class="edge">
<title>Node1&#45;&gt;Node4</title>
<path fill="none" stroke="midnightblue" d="M119.88,-113.49C108.28,-115.19 96.38,-116.93 85.69,-118.49"/>
<polygon fill="midnightblue" stroke="midnightblue" points="120.57,-116.93 129.96,-112.02 119.56,-110 120.57,-116.93"/>
</g>
<!-- Node5 -->
<g id="node5" class="node">
<title>Node5</title>
<g id="a_node5"><a xlink:href="a00477.html#gaccde53e07b6a899156520f91b2d15dff" target="_top" xlink:title=" ">
<polygon fill="none" stroke="black" points="1.5,-76.5 1.5,-95.5 92.5,-95.5 92.5,-76.5 1.5,-76.5"/>
<text text-anchor="middle" x="47" y="-83.5" font-family="Helvetica,sans-Serif" font-size="10.00">_AltOscillatorFail</text>
</a>
</g>
</g>
<!-- Node1&#45;&gt;Node5 -->
<g id="edge4" class="edge">
<title>Node1&#45;&gt;Node5</title>
<path fill="none" stroke="midnightblue" d="M119.84,-96.5C110.78,-95.18 101.53,-93.82 92.82,-92.55"/>
<polygon fill="midnightblue" stroke="midnightblue" points="119.56,-100 129.96,-97.98 120.57,-93.07 119.56,-100"/>
</g>
<!-- Node6 -->
<g id="node6" class="node">
<title>Node6</title>
<g id="a_node6"><a xlink:href="a00477.html#ga6ea99a093a3103485163c0f9c073b335" target="_top" xlink:title=" ">
<polygon fill="none" stroke="black" points="1.5,-38.5 1.5,-57.5 92.5,-57.5 92.5,-38.5 1.5,-38.5"/>
<text text-anchor="middle" x="47" y="-45.5" font-family="Helvetica,sans-Serif" font-size="10.00">_AltSoftTrapError</text>
</a>
</g>
</g>
<!-- Node1&#45;&gt;Node6 -->
<g id="edge5" class="edge">
<title>Node1&#45;&gt;Node6</title>
<path fill="none" stroke="midnightblue" d="M148,-91.14C132.02,-83.83 112.01,-74.79 94,-67 86.7,-63.84 78.71,-60.5 71.46,-57.52"/>
<polygon fill="midnightblue" stroke="midnightblue" points="146.82,-94.45 157.37,-95.44 149.74,-88.09 146.82,-94.45"/>
</g>
<!-- Node7 -->
<g id="node7" class="node">
<title>Node7</title>
<g id="a_node7"><a xlink:href="a00477.html#gaba6f01652f97e1d96442449fa9ac249c" target="_top" xlink:title=" ">
<polygon fill="none" stroke="black" points="7,-0.5 7,-19.5 87,-19.5 87,-0.5 7,-0.5"/>
<text text-anchor="middle" x="47" y="-7.5" font-family="Helvetica,sans-Serif" font-size="10.00">_AltStackError</text>
</a>
</g>
</g>
<!-- Node1&#45;&gt;Node7 -->
<g id="edge6" class="edge">
<title>Node1&#45;&gt;Node7</title>
<path fill="none" stroke="midnightblue" d="M162.6,-88C146.71,-71.24 120.57,-45.79 94,-29 88.3,-25.4 81.81,-22.23 75.53,-19.56"/>
<polygon fill="midnightblue" stroke="midnightblue" points="160.15,-90.51 169.53,-95.44 165.28,-85.74 160.15,-90.51"/>
</g>
</g>
</svg>
