<?xml version="1.0" encoding="UTF-8" standalone="no"?>
<!DOCTYPE svg PUBLIC "-//W3C//DTD SVG 1.1//EN"
 "http://www.w3.org/Graphics/SVG/1.1/DTD/svg11.dtd">
<!-- Generated by graphviz version 2.44.1 (20200629.0846)
 -->
<!-- Title: drv_BuckConverter_Execute Pages: 1 -->
<svg width="963pt" height="218pt"
 viewBox="0.00 0.00 963.00 218.00" xmlns="http://www.w3.org/2000/svg" xmlns:xlink="http://www.w3.org/1999/xlink">
<g id="graph0" class="graph" transform="scale(1 1) rotate(0) translate(4 214)">
<title>drv_BuckConverter_Execute</title>
<!-- Node1 -->
<g id="node1" class="node">
<title>Node1</title>
<g id="a_node1"><a xlink:title="This function is the main buck converter state machine executing the most recent state.">
<polygon fill="#bfbfbf" stroke="black" points="858,-141 858,-171 955,-171 955,-141 858,-141"/>
<text text-anchor="start" x="866" y="-159" font-family="Helvetica,sans-Serif" font-size="10.00">drv_BuckConverter</text>
<text text-anchor="middle" x="906.5" y="-148" font-family="Helvetica,sans-Serif" font-size="10.00">_Execute</text>
</a>
</g>
</g>
<!-- Node2 -->
<g id="node2" class="node">
<title>Node2</title>
<g id="a_node2"><a xlink:href="a00502.html#ga13094235dd6cc123d9299925359ca178" target="_top" xlink:title="This is the top&#45;level function call triggering the most recent state machine of all associated power ...">
<polygon fill="none" stroke="black" points="557,-190.5 557,-209.5 688,-209.5 688,-190.5 557,-190.5"/>
<text text-anchor="middle" x="622.5" y="-197.5" font-family="Helvetica,sans-Serif" font-size="10.00">appPowerSupply_Execute</text>
</a>
</g>
</g>
<!-- Node1&#45;&gt;Node2 -->
<g id="edge1" class="edge">
<title>Node1&#45;&gt;Node2</title>
<path fill="none" stroke="midnightblue" d="M851.01,-173.98C841.42,-176.66 831.48,-179.15 822,-181 777.83,-189.64 727.33,-194.4 688.33,-197"/>
<polygon fill="midnightblue" stroke="midnightblue" points="852.21,-177.27 860.83,-171.13 850.26,-170.55 852.21,-177.27"/>
</g>
<!-- Node4 -->
<g id="node4" class="node">
<title>Node4</title>
<g id="a_node4"><a xlink:href="a00509.html#gaadb710d81053fd0ab75b305f1f329bf6" target="_top" xlink:title="This function resume the operation of the buck converter.">
<polygon fill="none" stroke="black" points="725,-141 725,-171 822,-171 822,-141 725,-141"/>
<text text-anchor="start" x="733" y="-159" font-family="Helvetica,sans-Serif" font-size="10.00">drv_BuckConverter</text>
<text text-anchor="middle" x="773.5" y="-148" font-family="Helvetica,sans-Serif" font-size="10.00">_Resume</text>
</a>
</g>
</g>
<!-- Node1&#45;&gt;Node4 -->
<g id="edge3" class="edge">
<title>Node1&#45;&gt;Node4</title>
<path fill="none" stroke="midnightblue" d="M847.65,-156C839.2,-156 830.57,-156 822.35,-156"/>
<polygon fill="midnightblue" stroke="midnightblue" points="847.84,-159.5 857.84,-156 847.84,-152.5 847.84,-159.5"/>
</g>
<!-- Node7 -->
<g id="node7" class="node">
<title>Node7</title>
<g id="a_node7"><a xlink:href="a00509.html#ga0d68d132b52175c43503c9b5794bae64" target="_top" xlink:title="This function suspends the operation of the buck converter.">
<polygon fill="none" stroke="black" points="725,-82 725,-112 822,-112 822,-82 725,-82"/>
<text text-anchor="start" x="733" y="-100" font-family="Helvetica,sans-Serif" font-size="10.00">drv_BuckConverter</text>
<text text-anchor="middle" x="773.5" y="-89" font-family="Helvetica,sans-Serif" font-size="10.00">_Suspend</text>
</a>
</g>
</g>
<!-- Node1&#45;&gt;Node7 -->
<g id="edge7" class="edge">
<title>Node1&#45;&gt;Node7</title>
<path fill="none" stroke="midnightblue" d="M862.53,-136.65C844.75,-128.64 824.46,-119.5 807.83,-112.01"/>
<polygon fill="midnightblue" stroke="midnightblue" points="861.55,-140.04 872.1,-140.96 864.42,-133.66 861.55,-140.04"/>
</g>
<!-- Node3 -->
<g id="node3" class="node">
<title>Node3</title>
<g id="a_node3"><a xlink:href="a00354.html#ga8dc4b233e7fa6fe932be5e8d5a2b19e3" target="_top" xlink:title="High priority task sequence executed at a fixed repetition frequency.">
<polygon fill="none" stroke="black" points="238,-166 238,-196 347,-196 347,-166 238,-166"/>
<text text-anchor="start" x="246" y="-184" font-family="Helvetica,sans-Serif" font-size="10.00">sysHighPriorityTasks</text>
<text text-anchor="middle" x="292.5" y="-173" font-family="Helvetica,sans-Serif" font-size="10.00">_Execute</text>
</a>
</g>
</g>
<!-- Node2&#45;&gt;Node3 -->
<g id="edge2" class="edge">
<title>Node2&#45;&gt;Node3</title>
<path fill="none" stroke="midnightblue" d="M546.38,-195.65C485.52,-192.12 401.25,-187.24 347.06,-184.1"/>
<polygon fill="midnightblue" stroke="midnightblue" points="546.51,-199.16 556.7,-196.25 546.92,-192.17 546.51,-199.16"/>
</g>
<!-- Node5 -->
<g id="node5" class="node">
<title>Node5</title>
<g id="a_node5"><a xlink:href="a00502.html#ga3c7bf6b771bc1296401a270da4a95bff" target="_top" xlink:title="This function resumes the power supply operation.">
<polygon fill="none" stroke="black" points="557,-149.5 557,-168.5 688,-168.5 688,-149.5 557,-149.5"/>
<text text-anchor="middle" x="622.5" y="-156.5" font-family="Helvetica,sans-Serif" font-size="10.00">appPowerSupply_Resume</text>
</a>
</g>
</g>
<!-- Node4&#45;&gt;Node5 -->
<g id="edge4" class="edge">
<title>Node4&#45;&gt;Node5</title>
<path fill="none" stroke="midnightblue" d="M714.89,-157.16C706.17,-157.34 697.12,-157.52 688.27,-157.7"/>
<polygon fill="midnightblue" stroke="midnightblue" points="715.02,-160.66 724.95,-156.96 714.88,-153.66 715.02,-160.66"/>
</g>
<!-- Node6 -->
<g id="node6" class="node">
<title>Node6</title>
<g id="a_node6"><a xlink:href="a00466.html#ga8842f6a41fe23f932a8864fc140c4b5b" target="_top" xlink:title="Application wide fault object monitoring routine.">
<polygon fill="none" stroke="black" points="392,-152.5 392,-171.5 520,-171.5 520,-152.5 392,-152.5"/>
<text text-anchor="middle" x="456" y="-159.5" font-family="Helvetica,sans-Serif" font-size="10.00">appFaultMonitor_Execute</text>
</a>
</g>
</g>
<!-- Node5&#45;&gt;Node6 -->
<g id="edge5" class="edge">
<title>Node5&#45;&gt;Node6</title>
<path fill="none" stroke="midnightblue" d="M546.89,-160.36C537.91,-160.52 528.8,-160.69 520.01,-160.85"/>
<polygon fill="midnightblue" stroke="midnightblue" points="547.02,-163.86 556.96,-160.18 546.9,-156.86 547.02,-163.86"/>
</g>
<!-- Node6&#45;&gt;Node3 -->
<g id="edge6" class="edge">
<title>Node6&#45;&gt;Node3</title>
<path fill="none" stroke="midnightblue" d="M381.5,-170.65C369.89,-172.01 358.07,-173.4 347.02,-174.7"/>
<polygon fill="midnightblue" stroke="midnightblue" points="382.11,-174.1 391.63,-169.45 381.29,-167.15 382.11,-174.1"/>
</g>
<!-- Node8 -->
<g id="node8" class="node">
<title>Node8</title>
<g id="a_node8"><a xlink:href="a00502.html#gafa4e90d260e60cf20f06acee067c39cd" target="_top" xlink:title="This function stops the power supply operation.">
<polygon fill="none" stroke="black" points="556,-76.5 556,-95.5 689,-95.5 689,-76.5 556,-76.5"/>
<text text-anchor="middle" x="622.5" y="-83.5" font-family="Helvetica,sans-Serif" font-size="10.00">appPowerSupply_Suspend</text>
</a>
</g>
</g>
<!-- Node7&#45;&gt;Node8 -->
<g id="edge8" class="edge">
<title>Node7&#45;&gt;Node8</title>
<path fill="none" stroke="midnightblue" d="M714.84,-92.74C706.4,-92.12 697.66,-91.47 689.08,-90.84"/>
<polygon fill="midnightblue" stroke="midnightblue" points="714.72,-96.24 724.95,-93.49 715.23,-89.26 714.72,-96.24"/>
</g>
<!-- Node9 -->
<g id="node9" class="node">
<title>Node9</title>
<g id="a_node9"><a xlink:href="a00468.html#ga54f9db91ea0782b08aa16ee77a57c5e5" target="_top" xlink:title="Initializes the user&#45;defined fault objects for overcurrent protection.">
<polygon fill="none" stroke="black" points="408.5,-114.5 408.5,-133.5 503.5,-133.5 503.5,-114.5 408.5,-114.5"/>
<text text-anchor="middle" x="456" y="-121.5" font-family="Helvetica,sans-Serif" font-size="10.00">ocp_FaultInitialize</text>
</a>
</g>
</g>
<!-- Node8&#45;&gt;Node9 -->
<g id="edge9" class="edge">
<title>Node8&#45;&gt;Node9</title>
<path fill="none" stroke="midnightblue" d="M570,-97.9C546.88,-103.24 519.97,-109.45 498.21,-114.48"/>
<polygon fill="midnightblue" stroke="midnightblue" points="571.03,-101.25 579.99,-95.59 569.46,-94.43 571.03,-101.25"/>
</g>
<!-- Node13 -->
<g id="node13" class="node">
<title>Node13</title>
<g id="a_node13"><a xlink:href="a00468.html#gade437244e8f6e5ff7c57a73442063350" target="_top" xlink:title="Initializes the user&#45;defined fault objects for overvoltage lockout.">
<polygon fill="none" stroke="black" points="408.5,-76.5 408.5,-95.5 503.5,-95.5 503.5,-76.5 408.5,-76.5"/>
<text text-anchor="middle" x="456" y="-83.5" font-family="Helvetica,sans-Serif" font-size="10.00">ovlo_FaultInitialize</text>
</a>
</g>
</g>
<!-- Node8&#45;&gt;Node13 -->
<g id="edge13" class="edge">
<title>Node8&#45;&gt;Node13</title>
<path fill="none" stroke="midnightblue" d="M545.29,-86C531.12,-86 516.71,-86 503.75,-86"/>
<polygon fill="midnightblue" stroke="midnightblue" points="545.54,-89.5 555.54,-86 545.54,-82.5 545.54,-89.5"/>
</g>
<!-- Node14 -->
<g id="node14" class="node">
<title>Node14</title>
<g id="a_node14"><a xlink:href="a00468.html#ga82dc317e3adac0308e5ac3f5ad321605" target="_top" xlink:title="Initializes the user&#45;defined fault objects for regulation error.">
<polygon fill="none" stroke="black" points="404,-38.5 404,-57.5 508,-57.5 508,-38.5 404,-38.5"/>
<text text-anchor="middle" x="456" y="-45.5" font-family="Helvetica,sans-Serif" font-size="10.00">regerr_FaultInitialize</text>
</a>
</g>
</g>
<!-- Node8&#45;&gt;Node14 -->
<g id="edge15" class="edge">
<title>Node8&#45;&gt;Node14</title>
<path fill="none" stroke="midnightblue" d="M570,-74.1C546.88,-68.76 519.97,-62.55 498.21,-57.52"/>
<polygon fill="midnightblue" stroke="midnightblue" points="569.46,-77.57 579.99,-76.41 571.03,-70.75 569.46,-77.57"/>
</g>
<!-- Node15 -->
<g id="node15" class="node">
<title>Node15</title>
<g id="a_node15"><a xlink:href="a00468.html#ga9441220f8a7d4a6805467d04b734e6b5" target="_top" xlink:title="Initializes the user&#45;defined fault objects for under&#45;voltage lockout.">
<polygon fill="none" stroke="black" points="408.5,-0.5 408.5,-19.5 503.5,-19.5 503.5,-0.5 408.5,-0.5"/>
<text text-anchor="middle" x="456" y="-7.5" font-family="Helvetica,sans-Serif" font-size="10.00">uvlo_FaultInitialize</text>
</a>
</g>
</g>
<!-- Node8&#45;&gt;Node15 -->
<g id="edge17" class="edge">
<title>Node8&#45;&gt;Node15</title>
<path fill="none" stroke="midnightblue" d="M598.41,-71.1C578.3,-58.61 548.06,-40.94 520,-29 511.59,-25.42 502.28,-22.22 493.46,-19.52"/>
<polygon fill="midnightblue" stroke="midnightblue" points="596.56,-74.07 606.89,-76.44 600.29,-68.15 596.56,-74.07"/>
</g>
<!-- Node10 -->
<g id="node10" class="node">
<title>Node10</title>
<g id="a_node10"><a xlink:href="a00466.html#ga830e5c7087a8e5ee8ea39b7e3df94b68" target="_top" xlink:title="Initialization of user&#45;defined fault objects.">
<polygon fill="none" stroke="black" points="229,-57.5 229,-76.5 356,-76.5 356,-57.5 229,-57.5"/>
<text text-anchor="middle" x="292.5" y="-64.5" font-family="Helvetica,sans-Serif" font-size="10.00">appFaultMonitor_Initialize</text>
</a>
</g>
</g>
<!-- Node9&#45;&gt;Node10 -->
<g id="edge10" class="edge">
<title>Node9&#45;&gt;Node10</title>
<path fill="none" stroke="midnightblue" d="M411.86,-111.46C405.19,-109.39 398.39,-107.19 392,-105 365.99,-96.08 336.65,-84.56 316.8,-76.56"/>
<polygon fill="midnightblue" stroke="midnightblue" points="410.91,-114.83 421.5,-114.41 412.96,-108.14 410.91,-114.83"/>
</g>
<!-- Node11 -->
<g id="node11" class="node">
<title>Node11</title>
<g id="a_node11"><a xlink:href="a00366.html#ga2be64f5f0b9a2c0c6713f5a69d793e05" target="_top" xlink:title="Initializes the user&#45;defined tasks.">
<polygon fill="none" stroke="black" points="74,-57.5 74,-76.5 193,-76.5 193,-57.5 74,-57.5"/>
<text text-anchor="middle" x="133.5" y="-64.5" font-family="Helvetica,sans-Serif" font-size="10.00">sysUserTasks_Initialize</text>
</a>
</g>
</g>
<!-- Node10&#45;&gt;Node11 -->
<g id="edge11" class="edge">
<title>Node10&#45;&gt;Node11</title>
<path fill="none" stroke="midnightblue" d="M218.95,-67C210.33,-67 201.61,-67 193.21,-67"/>
<polygon fill="midnightblue" stroke="midnightblue" points="219,-70.5 229,-67 219,-63.5 219,-70.5"/>
</g>
<!-- Node12 -->
<g id="node12" class="node">
<title>Node12</title>
<g id="a_node12"><a xlink:href="a00350.html#ga840291bc02cba5474a4cb46a9b9566fe" target="_top" xlink:title="Application main function executed after device comes out of RESET.">
<polygon fill="none" stroke="black" points="0,-57.5 0,-76.5 38,-76.5 38,-57.5 0,-57.5"/>
<text text-anchor="middle" x="19" y="-64.5" font-family="Helvetica,sans-Serif" font-size="10.00">main</text>
</a>
</g>
</g>
<!-- Node11&#45;&gt;Node12 -->
<g id="edge12" class="edge">
<title>Node11&#45;&gt;Node12</title>
<path fill="none" stroke="midnightblue" d="M63.65,-67C54.29,-67 45.43,-67 38.16,-67"/>
<polygon fill="midnightblue" stroke="midnightblue" points="63.94,-70.5 73.94,-67 63.94,-63.5 63.94,-70.5"/>
</g>
<!-- Node13&#45;&gt;Node10 -->
<g id="edge14" class="edge">
<title>Node13&#45;&gt;Node10</title>
<path fill="none" stroke="midnightblue" d="M398.1,-79.31C384.49,-77.7 369.89,-75.99 356.04,-74.36"/>
<polygon fill="midnightblue" stroke="midnightblue" points="397.95,-82.81 408.29,-80.5 398.76,-75.86 397.95,-82.81"/>
</g>
<!-- Node14&#45;&gt;Node10 -->
<g id="edge16" class="edge">
<title>Node14&#45;&gt;Node10</title>
<path fill="none" stroke="midnightblue" d="M393.75,-55.21C381.45,-56.65 368.52,-58.17 356.17,-59.63"/>
<polygon fill="midnightblue" stroke="midnightblue" points="394.38,-58.66 403.9,-54.01 393.56,-51.7 394.38,-58.66"/>
</g>
<!-- Node15&#45;&gt;Node10 -->
<g id="edge18" class="edge">
<title>Node15&#45;&gt;Node10</title>
<path fill="none" stroke="midnightblue" d="M411.86,-22.54C405.19,-24.61 398.39,-26.81 392,-29 365.99,-37.92 336.65,-49.44 316.8,-57.44"/>
<polygon fill="midnightblue" stroke="midnightblue" points="412.96,-25.86 421.5,-19.59 410.91,-19.17 412.96,-25.86"/>
</g>
</g>
</svg>
