<?xml version="1.0" encoding="UTF-8" standalone="no"?>
<!DOCTYPE svg PUBLIC "-//W3C//DTD SVG 1.1//EN"
 "http://www.w3.org/Graphics/SVG/1.1/DTD/svg11.dtd">
<!-- Generated by graphviz version 2.44.1 (20200629.0846)
 -->
<!-- Title: drv_BuckConverter_Initialize Pages: 1 -->
<svg width="651pt" height="374pt"
 viewBox="0.00 0.00 651.00 374.00" xmlns="http://www.w3.org/2000/svg" xmlns:xlink="http://www.w3.org/1999/xlink">
<g id="graph0" class="graph" transform="scale(1 1) rotate(0) translate(4 370)">
<title>drv_BuckConverter_Initialize</title>
<!-- Node1 -->
<g id="node1" class="node">
<title>Node1</title>
<g id="a_node1"><a xlink:title="This function initializes all peripheral modules and their instances used by the power controller.">
<polygon fill="#bfbfbf" stroke="black" points="0,-265 0,-295 97,-295 97,-265 0,-265"/>
<text text-anchor="start" x="8" y="-283" font-family="Helvetica,sans-Serif" font-size="10.00">drv_BuckConverter</text>
<text text-anchor="middle" x="48.5" y="-272" font-family="Helvetica,sans-Serif" font-size="10.00">_Initialize</text>
</a>
</g>
</g>
<!-- Node2 -->
<g id="node2" class="node">
<title>Node2</title>
<g id="a_node2"><a xlink:href="a00532.html#gac2bfd6c3ccd9ec11b8e91322ea9354d2" target="_top" xlink:title="This function initializes the settings for the ADC channel.">
<polygon fill="none" stroke="black" points="135,-346.5 135,-365.5 269,-365.5 269,-346.5 135,-346.5"/>
<text text-anchor="middle" x="202" y="-353.5" font-family="Helvetica,sans-Serif" font-size="10.00">buckADC_ChannelInitialize</text>
</a>
</g>
</g>
<!-- Node1&#45;&gt;Node2 -->
<g id="edge1" class="edge">
<title>Node1&#45;&gt;Node2</title>
<path fill="none" stroke="midnightblue" d="M67.67,-295C83.91,-307.76 108.81,-325.74 133,-337 138,-339.33 143.34,-341.42 148.76,-343.3"/>
<polygon fill="midnightblue" stroke="midnightblue" points="147.92,-346.71 158.51,-346.44 150.06,-340.04 147.92,-346.71"/>
</g>
<!-- Node3 -->
<g id="node3" class="node">
<title>Node3</title>
<g id="a_node3"><a xlink:href="a00532.html#ga44f537d9ad5dcb0e744480802cfbf170" target="_top" xlink:title="This fucntion initializes the buck by resetting all its registers to default.">
<polygon fill="none" stroke="black" points="137,-308.5 137,-327.5 267,-327.5 267,-308.5 137,-308.5"/>
<text text-anchor="middle" x="202" y="-315.5" font-family="Helvetica,sans-Serif" font-size="10.00">buckADC_ModuleInitialize</text>
</a>
</g>
</g>
<!-- Node1&#45;&gt;Node3 -->
<g id="edge2" class="edge">
<title>Node1&#45;&gt;Node3</title>
<path fill="none" stroke="midnightblue" d="M97.02,-291.92C114.72,-296.36 134.82,-301.4 152.6,-305.86"/>
<polygon fill="midnightblue" stroke="midnightblue" points="152.21,-309.37 162.76,-308.41 153.91,-302.58 152.21,-309.37"/>
</g>
<!-- Node4 -->
<g id="node4" class="node">
<title>Node4</title>
<g id="a_node4"><a xlink:href="a00532.html#gac7e5924475733c189b2318844ae01844" target="_top" xlink:title="This function initializes the buck input pins.">
<polygon fill="none" stroke="black" points="151,-270.5 151,-289.5 253,-289.5 253,-270.5 151,-270.5"/>
<text text-anchor="middle" x="202" y="-277.5" font-family="Helvetica,sans-Serif" font-size="10.00">buckGPIO_Initialize</text>
</a>
</g>
</g>
<!-- Node1&#45;&gt;Node4 -->
<g id="edge3" class="edge">
<title>Node1&#45;&gt;Node4</title>
<path fill="none" stroke="midnightblue" d="M97.02,-280C110.78,-280 125.98,-280 140.42,-280"/>
<polygon fill="midnightblue" stroke="midnightblue" points="140.77,-283.5 150.77,-280 140.77,-276.5 140.77,-283.5"/>
</g>
<!-- Node8 -->
<g id="node8" class="node">
<title>Node8</title>
<g id="a_node8"><a xlink:href="a00532.html#ga45a54def97cc67eb8d36e22a3867d95f" target="_top" xlink:title="This function initializes the output pins for the PWM output and the default buck PWM settings.">
<polygon fill="none" stroke="black" points="133,-194.5 133,-213.5 271,-213.5 271,-194.5 133,-194.5"/>
<text text-anchor="middle" x="202" y="-201.5" font-family="Helvetica,sans-Serif" font-size="10.00">buckPWM_ChannelInitialize</text>
</a>
</g>
</g>
<!-- Node1&#45;&gt;Node8 -->
<g id="edge8" class="edge">
<title>Node1&#45;&gt;Node8</title>
<path fill="none" stroke="midnightblue" d="M79.43,-264.98C106.47,-251.42 145.97,-231.6 172.54,-218.28"/>
<polygon fill="midnightblue" stroke="midnightblue" points="174.33,-221.3 181.7,-213.68 171.19,-215.04 174.33,-221.3"/>
</g>
<!-- Node17 -->
<g id="node17" class="node">
<title>Node17</title>
<g id="a_node17"><a xlink:href="a00532.html#ga6d12fd9e2f1d4f01ec6db21454693863" target="_top" xlink:title="Initializes the buck PWM module by resetting its registers to default.">
<polygon fill="none" stroke="black" points="135,-38.5 135,-57.5 269,-57.5 269,-38.5 135,-38.5"/>
<text text-anchor="middle" x="202" y="-45.5" font-family="Helvetica,sans-Serif" font-size="10.00">buckPWM_ModuleInitialize</text>
</a>
</g>
</g>
<!-- Node1&#45;&gt;Node17 -->
<g id="edge18" class="edge">
<title>Node1&#45;&gt;Node17</title>
<path fill="none" stroke="midnightblue" d="M59.44,-264.78C86.3,-223.64 160.26,-110.38 189.19,-66.09"/>
<polygon fill="midnightblue" stroke="midnightblue" points="192.25,-67.8 194.79,-57.51 186.39,-63.97 192.25,-67.8"/>
</g>
<!-- Node5 -->
<g id="node5" class="node">
<title>Node5</title>
<g id="a_node5"><a xlink:href="a00532.html#ga7f1d554e08d756b8677b572216908a3a" target="_top" xlink:title="This function clears the selected general purpose input/output pin.">
<polygon fill="none" stroke="black" points="338.5,-327.5 338.5,-346.5 427.5,-346.5 427.5,-327.5 338.5,-327.5"/>
<text text-anchor="middle" x="383" y="-334.5" font-family="Helvetica,sans-Serif" font-size="10.00">buckGPIO_Clear</text>
</a>
</g>
</g>
<!-- Node4&#45;&gt;Node5 -->
<g id="edge4" class="edge">
<title>Node4&#45;&gt;Node5</title>
<path fill="none" stroke="midnightblue" d="M242.67,-289.55C252.08,-292.24 262,-295.42 271,-299 287.81,-305.69 290.11,-311.51 307,-318 313.81,-320.62 321.11,-322.98 328.38,-325.08"/>
<polygon fill="midnightblue" stroke="midnightblue" points="327.65,-328.51 338.22,-327.77 329.5,-321.75 327.65,-328.51"/>
</g>
<!-- Node7 -->
<g id="node7" class="node">
<title>Node7</title>
<g id="a_node7"><a xlink:href="a00532.html#ga3d3f91c0e40884874e7df3a67fff23f3" target="_top" xlink:title="This function sets the pin as input or output.">
<polygon fill="none" stroke="black" points="317.5,-289.5 317.5,-308.5 448.5,-308.5 448.5,-289.5 317.5,-289.5"/>
<text text-anchor="middle" x="383" y="-296.5" font-family="Helvetica,sans-Serif" font-size="10.00">buckGPIO_PrivateInitialize</text>
</a>
</g>
</g>
<!-- Node4&#45;&gt;Node7 -->
<g id="edge6" class="edge">
<title>Node4&#45;&gt;Node7</title>
<path fill="none" stroke="midnightblue" d="M253.34,-285.34C270.09,-287.12 289.12,-289.14 307.31,-291.07"/>
<polygon fill="midnightblue" stroke="midnightblue" points="307,-294.56 317.31,-292.13 307.74,-287.6 307,-294.56"/>
</g>
<!-- Node6 -->
<g id="node6" class="node">
<title>Node6</title>
<g id="a_node6"><a xlink:href="a00383.html#ga4d67af688d8f7f911d79107974e11e6b" target="_top" xlink:title="Gets pointer to GPIO Instance SFR set.">
<polygon fill="none" stroke="black" points="519,-301 519,-331 619,-331 619,-301 519,-301"/>
<text text-anchor="start" x="527" y="-319" font-family="Helvetica,sans-Serif" font-size="10.00">p33c_GpioInstance</text>
<text text-anchor="middle" x="569" y="-308" font-family="Helvetica,sans-Serif" font-size="10.00">_GetHandle</text>
</a>
</g>
</g>
<!-- Node5&#45;&gt;Node6 -->
<g id="edge5" class="edge">
<title>Node5&#45;&gt;Node6</title>
<path fill="none" stroke="midnightblue" d="M427.61,-332.02C451.81,-329.26 482.26,-325.79 508.62,-322.78"/>
<polygon fill="midnightblue" stroke="midnightblue" points="509.33,-326.22 518.87,-321.61 508.54,-319.26 509.33,-326.22"/>
</g>
<!-- Node7&#45;&gt;Node6 -->
<g id="edge7" class="edge">
<title>Node7&#45;&gt;Node6</title>
<path fill="none" stroke="midnightblue" d="M448.61,-304.97C468.19,-306.78 489.58,-308.75 508.78,-310.53"/>
<polygon fill="midnightblue" stroke="midnightblue" points="508.62,-314.03 518.9,-311.46 509.26,-307.06 508.62,-314.03"/>
</g>
<!-- Node8&#45;&gt;Node6 -->
<g id="edge15" class="edge">
<title>Node8&#45;&gt;Node6</title>
<path fill="none" stroke="midnightblue" d="M227.13,-213.64C248.05,-221.8 279.25,-233.49 307,-242 373.57,-262.42 392.14,-260.53 459,-280 475.19,-284.72 478.99,-286.7 495,-292 500.6,-293.85 506.44,-295.78 512.27,-297.71"/>
<polygon fill="midnightblue" stroke="midnightblue" points="511.45,-301.12 522.04,-300.92 513.64,-294.47 511.45,-301.12"/>
</g>
<!-- Node9 -->
<g id="node9" class="node">
<title>Node9</title>
<g id="a_node9"><a xlink:href="a00532.html#ga91be1e9c6cefeb362af454e71869d042" target="_top" xlink:title="This function initializes the Digital&#45;To&#45;Analog converter, slope compensation and analog comparator u...">
<polygon fill="none" stroke="black" points="316,-213.5 316,-232.5 450,-232.5 450,-213.5 316,-213.5"/>
<text text-anchor="middle" x="383" y="-220.5" font-family="Helvetica,sans-Serif" font-size="10.00">buckDAC_ChannelInitialize</text>
</a>
</g>
</g>
<!-- Node8&#45;&gt;Node9 -->
<g id="edge9" class="edge">
<title>Node8&#45;&gt;Node9</title>
<path fill="none" stroke="midnightblue" d="M271.18,-211.24C282.49,-212.44 294.28,-213.69 305.78,-214.91"/>
<polygon fill="midnightblue" stroke="midnightblue" points="305.47,-218.4 315.78,-215.97 306.21,-211.44 305.47,-218.4"/>
</g>
<!-- Node12 -->
<g id="node12" class="node">
<title>Node12</title>
<g id="a_node12"><a xlink:href="a00532.html#gaaabec2f1ada3085513665d34125a7291" target="_top" xlink:title="This function initializes the Digital&#45;To&#45;Analog converter peripheral module.">
<polygon fill="none" stroke="black" points="318,-175.5 318,-194.5 448,-194.5 448,-175.5 318,-175.5"/>
<text text-anchor="middle" x="383" y="-182.5" font-family="Helvetica,sans-Serif" font-size="10.00">buckDAC_ModuleInitialize</text>
</a>
</g>
</g>
<!-- Node8&#45;&gt;Node12 -->
<g id="edge12" class="edge">
<title>Node8&#45;&gt;Node12</title>
<path fill="none" stroke="midnightblue" d="M271.18,-196.76C283.15,-195.49 295.65,-194.17 307.77,-192.88"/>
<polygon fill="midnightblue" stroke="midnightblue" points="308.26,-196.35 317.84,-191.81 307.52,-189.39 308.26,-196.35"/>
</g>
<!-- Node15 -->
<g id="node15" class="node">
<title>Node15</title>
<g id="a_node15"><a xlink:href="a00387.html#gab66f225bac6b132d1418a4c808e3babb" target="_top" xlink:title="Disposes a given PWM generator by resetting all its registers to default.">
<polygon fill="none" stroke="black" points="329.5,-126 329.5,-156 436.5,-156 436.5,-126 329.5,-126"/>
<text text-anchor="start" x="337.5" y="-144" font-family="Helvetica,sans-Serif" font-size="10.00">p33c_PwmGenerator</text>
<text text-anchor="middle" x="383" y="-133" font-family="Helvetica,sans-Serif" font-size="10.00">_ConfigWrite</text>
</a>
</g>
</g>
<!-- Node8&#45;&gt;Node15 -->
<g id="edge16" class="edge">
<title>Node8&#45;&gt;Node15</title>
<path fill="none" stroke="midnightblue" d="M228.57,-194.43C249.58,-186.62 280.14,-175.38 307,-166 313.27,-163.81 319.85,-161.56 326.39,-159.34"/>
<polygon fill="midnightblue" stroke="midnightblue" points="327.56,-162.64 335.92,-156.13 325.33,-156 327.56,-162.64"/>
</g>
<!-- Node16 -->
<g id="node16" class="node">
<title>Node16</title>
<g id="a_node16"><a xlink:href="a00387.html#ga55e525c7ac54a365ab6dad558ec17f0b" target="_top" xlink:title="Returns the PWM generator index.">
<polygon fill="none" stroke="black" points="329.5,-77 329.5,-107 436.5,-107 436.5,-77 329.5,-77"/>
<text text-anchor="start" x="337.5" y="-95" font-family="Helvetica,sans-Serif" font-size="10.00">p33c_PwmGenerator</text>
<text text-anchor="middle" x="383" y="-84" font-family="Helvetica,sans-Serif" font-size="10.00">_GetHandle</text>
</a>
</g>
</g>
<!-- Node8&#45;&gt;Node16 -->
<g id="edge17" class="edge">
<title>Node8&#45;&gt;Node16</title>
<path fill="none" stroke="midnightblue" d="M212.12,-194.26C229.17,-176.56 267.74,-138.92 307,-117 311.13,-114.7 315.5,-112.56 319.98,-110.59"/>
<polygon fill="midnightblue" stroke="midnightblue" points="321.36,-113.8 329.28,-106.77 318.7,-107.33 321.36,-113.8"/>
</g>
<!-- Node10 -->
<g id="node10" class="node">
<title>Node10</title>
<g id="a_node10"><a xlink:href="a00381.html#gac471660aeec8e8329369435914c5befa" target="_top" xlink:title="Writes a user&#45;defined configuration to the DAC instance registers.">
<polygon fill="none" stroke="black" points="504.5,-252 504.5,-282 633.5,-282 633.5,-252 504.5,-252"/>
<text text-anchor="start" x="512.5" y="-270" font-family="Helvetica,sans-Serif" font-size="10.00">p33c_DacInstance_Config</text>
<text text-anchor="middle" x="569" y="-259" font-family="Helvetica,sans-Serif" font-size="10.00">Write</text>
</a>
</g>
</g>
<!-- Node9&#45;&gt;Node10 -->
<g id="edge10" class="edge">
<title>Node9&#45;&gt;Node10</title>
<path fill="none" stroke="midnightblue" d="M423.93,-232.55C444.73,-237.52 470.84,-243.77 495.1,-249.57"/>
<polygon fill="midnightblue" stroke="midnightblue" points="494.46,-253.01 505,-251.93 496.09,-246.2 494.46,-253.01"/>
</g>
<!-- Node11 -->
<g id="node11" class="node">
<title>Node11</title>
<g id="a_node11"><a xlink:href="a00381.html#gac98f16c744b3712654c1bbb58acb4e33" target="_top" xlink:title="Gets pointer to DAC Instance SFR set.">
<polygon fill="none" stroke="black" points="495,-213.5 495,-232.5 643,-232.5 643,-213.5 495,-213.5"/>
<text text-anchor="middle" x="569" y="-220.5" font-family="Helvetica,sans-Serif" font-size="10.00">p33c_DacInstance_GetHandle</text>
</a>
</g>
</g>
<!-- Node9&#45;&gt;Node11 -->
<g id="edge11" class="edge">
<title>Node9&#45;&gt;Node11</title>
<path fill="none" stroke="midnightblue" d="M450.17,-223C461.4,-223 473.2,-223 484.81,-223"/>
<polygon fill="midnightblue" stroke="midnightblue" points="484.94,-226.5 494.94,-223 484.94,-219.5 484.94,-226.5"/>
</g>
<!-- Node13 -->
<g id="node13" class="node">
<title>Node13</title>
<g id="a_node13"><a xlink:href="a00381.html#gaddf7b491a947c7f557b89235588c0219" target="_top" xlink:title="Writes a user&#45;defined configuration to the DAC module base registers.">
<polygon fill="none" stroke="black" points="495.5,-175.5 495.5,-194.5 642.5,-194.5 642.5,-175.5 495.5,-175.5"/>
<text text-anchor="middle" x="569" y="-182.5" font-family="Helvetica,sans-Serif" font-size="10.00">p33c_DacModule_ConfigWrite</text>
</a>
</g>
</g>
<!-- Node12&#45;&gt;Node13 -->
<g id="edge13" class="edge">
<title>Node12&#45;&gt;Node13</title>
<path fill="none" stroke="midnightblue" d="M448.1,-185C460.01,-185 472.61,-185 484.99,-185"/>
<polygon fill="midnightblue" stroke="midnightblue" points="485.32,-188.5 495.32,-185 485.32,-181.5 485.32,-188.5"/>
</g>
<!-- Node14 -->
<g id="node14" class="node">
<title>Node14</title>
<g id="a_node14"><a xlink:href="a00381.html#ga72e7cdf4177d0403e8ff925314ec1bc7" target="_top" xlink:title="Gets pointer to DAC Module SFR set.">
<polygon fill="none" stroke="black" points="497.5,-137.5 497.5,-156.5 640.5,-156.5 640.5,-137.5 497.5,-137.5"/>
<text text-anchor="middle" x="569" y="-144.5" font-family="Helvetica,sans-Serif" font-size="10.00">p33c_DacModule_GetHandle</text>
</a>
</g>
</g>
<!-- Node12&#45;&gt;Node14 -->
<g id="edge14" class="edge">
<title>Node12&#45;&gt;Node14</title>
<path fill="none" stroke="midnightblue" d="M430.43,-175.41C455.15,-170.31 485.74,-163.99 511.79,-158.61"/>
<polygon fill="midnightblue" stroke="midnightblue" points="512.82,-161.97 521.9,-156.52 511.4,-155.11 512.82,-161.97"/>
</g>
<!-- Node18 -->
<g id="node18" class="node">
<title>Node18</title>
<g id="a_node18"><a xlink:href="a00387.html#ga8075fd40f867be8f42bb806622bd91bd" target="_top" xlink:title="Writes a user&#45;defined configuration to the PWM base module registers.">
<polygon fill="none" stroke="black" points="307,-38.5 307,-57.5 459,-57.5 459,-38.5 307,-38.5"/>
<text text-anchor="middle" x="383" y="-45.5" font-family="Helvetica,sans-Serif" font-size="10.00">p33c_PwmModule_ConfigWrite</text>
</a>
</g>
</g>
<!-- Node17&#45;&gt;Node18 -->
<g id="edge19" class="edge">
<title>Node17&#45;&gt;Node18</title>
<path fill="none" stroke="midnightblue" d="M269.14,-48C278.14,-48 287.47,-48 296.75,-48"/>
<polygon fill="midnightblue" stroke="midnightblue" points="296.77,-51.5 306.77,-48 296.77,-44.5 296.77,-51.5"/>
</g>
<!-- Node19 -->
<g id="node19" class="node">
<title>Node19</title>
<g id="a_node19"><a xlink:href="a00387.html#ga3ed5f08051a70f5cb426b8254119845f" target="_top" xlink:title="Gets pointer to PWM module SFR set.">
<polygon fill="none" stroke="black" points="309.5,-0.5 309.5,-19.5 456.5,-19.5 456.5,-0.5 309.5,-0.5"/>
<text text-anchor="middle" x="383" y="-7.5" font-family="Helvetica,sans-Serif" font-size="10.00">p33c_PwmModule_GetHandle</text>
</a>
</g>
</g>
<!-- Node17&#45;&gt;Node19 -->
<g id="edge20" class="edge">
<title>Node17&#45;&gt;Node19</title>
<path fill="none" stroke="midnightblue" d="M248.17,-38.41C272.22,-33.31 301.97,-26.99 327.32,-21.61"/>
<polygon fill="midnightblue" stroke="midnightblue" points="328.1,-25.02 337.16,-19.52 326.65,-18.17 328.1,-25.02"/>
</g>
</g>
</svg>
