<?xml version="1.0" encoding="UTF-8" standalone="no"?>
<!DOCTYPE svg PUBLIC "-//W3C//DTD SVG 1.1//EN"
 "http://www.w3.org/Graphics/SVG/1.1/DTD/svg11.dtd">
<!-- Generated by graphviz version 2.44.1 (20200629.0846)
 -->
<!-- Title: buckPWM_Stop Pages: 1 -->
<svg width="375pt" height="83pt"
 viewBox="0.00 0.00 375.00 83.00" xmlns="http://www.w3.org/2000/svg" xmlns:xlink="http://www.w3.org/1999/xlink">
<g id="graph0" class="graph" transform="scale(1 1) rotate(0) translate(4 79)">
<title>buckPWM_Stop</title>
<!-- Node1 -->
<g id="node1" class="node">
<title>Node1</title>
<g id="a_node1"><a xlink:title="This function stops the buck PWM output.">
<polygon fill="#bfbfbf" stroke="black" points="0,-28 0,-47 88,-47 88,-28 0,-28"/>
<text text-anchor="middle" x="44" y="-35" font-family="Helvetica,sans-Serif" font-size="10.00">buckPWM_Stop</text>
</a>
</g>
</g>
<!-- Node2 -->
<g id="node2" class="node">
<title>Node2</title>
<g id="a_node2"><a xlink:href="a00532.html#ga7f1d554e08d756b8677b572216908a3a" target="_top" xlink:title="This function clears the selected general purpose input/output pin.">
<polygon fill="none" stroke="black" points="133,-50 133,-69 222,-69 222,-50 133,-50"/>
<text text-anchor="middle" x="177.5" y="-57" font-family="Helvetica,sans-Serif" font-size="10.00">buckGPIO_Clear</text>
</a>
</g>
</g>
<!-- Node1&#45;&gt;Node2 -->
<g id="edge1" class="edge">
<title>Node1&#45;&gt;Node2</title>
<path fill="none" stroke="midnightblue" d="M88.06,-44.7C99.18,-46.56 111.29,-48.59 122.88,-50.53"/>
<polygon fill="midnightblue" stroke="midnightblue" points="122.45,-54.01 132.9,-52.2 123.61,-47.1 122.45,-54.01"/>
</g>
<!-- Node4 -->
<g id="node4" class="node">
<title>Node4</title>
<g id="a_node4"><a xlink:href="a00387.html#ga55e525c7ac54a365ab6dad558ec17f0b" target="_top" xlink:title="Returns the PWM generator index.">
<polygon fill="none" stroke="black" points="124,-0.5 124,-30.5 231,-30.5 231,-0.5 124,-0.5"/>
<text text-anchor="start" x="132" y="-18.5" font-family="Helvetica,sans-Serif" font-size="10.00">p33c_PwmGenerator</text>
<text text-anchor="middle" x="177.5" y="-7.5" font-family="Helvetica,sans-Serif" font-size="10.00">_GetHandle</text>
</a>
</g>
</g>
<!-- Node1&#45;&gt;Node4 -->
<g id="edge3" class="edge">
<title>Node1&#45;&gt;Node4</title>
<path fill="none" stroke="midnightblue" d="M88.06,-30.3C96.24,-28.93 104.96,-27.47 113.61,-26.02"/>
<polygon fill="midnightblue" stroke="midnightblue" points="114.42,-29.44 123.7,-24.33 113.26,-22.53 114.42,-29.44"/>
</g>
<!-- Node3 -->
<g id="node3" class="node">
<title>Node3</title>
<g id="a_node3"><a xlink:href="a00383.html#ga4d67af688d8f7f911d79107974e11e6b" target="_top" xlink:title="Gets pointer to GPIO Instance SFR set.">
<polygon fill="none" stroke="black" points="267,-44.5 267,-74.5 367,-74.5 367,-44.5 267,-44.5"/>
<text text-anchor="start" x="275" y="-62.5" font-family="Helvetica,sans-Serif" font-size="10.00">p33c_GpioInstance</text>
<text text-anchor="middle" x="317" y="-51.5" font-family="Helvetica,sans-Serif" font-size="10.00">_GetHandle</text>
</a>
</g>
</g>
<!-- Node2&#45;&gt;Node3 -->
<g id="edge2" class="edge">
<title>Node2&#45;&gt;Node3</title>
<path fill="none" stroke="midnightblue" d="M222.01,-59.5C232.96,-59.5 244.91,-59.5 256.49,-59.5"/>
<polygon fill="midnightblue" stroke="midnightblue" points="256.55,-63 266.55,-59.5 256.55,-56 256.55,-63"/>
</g>
</g>
</svg>
