<?xml version="1.0" encoding="UTF-8" standalone="no"?>
<!DOCTYPE svg PUBLIC "-//W3C//DTD SVG 1.1//EN"
 "http://www.w3.org/Graphics/SVG/1.1/DTD/svg11.dtd">
<!-- Generated by graphviz version 2.44.1 (20200629.0846)
 -->
<!-- Title: SubState_VRampUp Pages: 1 -->
<svg width="398pt" height="39pt"
 viewBox="0.00 0.00 398.00 39.00" xmlns="http://www.w3.org/2000/svg" xmlns:xlink="http://www.w3.org/1999/xlink">
<g id="graph0" class="graph" transform="scale(1 1) rotate(0) translate(4 35)">
<title>SubState_VRampUp</title>
<!-- Node1 -->
<g id="node1" class="node">
<title>Node1</title>
<g id="a_node1"><a xlink:title="This function ramps up the output voltage to its nominal regulation point.">
<polygon fill="#bfbfbf" stroke="black" points="0,-6 0,-25 107,-25 107,-6 0,-6"/>
<text text-anchor="middle" x="53.5" y="-13" font-family="Helvetica,sans-Serif" font-size="10.00">SubState_VRampUp</text>
</a>
</g>
</g>
<!-- Node2 -->
<g id="node2" class="node">
<title>Node2</title>
<g id="a_node2"><a xlink:href="a00532.html#ga2d46a45c20d84e1a7c6cfd5743b68c47" target="_top" xlink:title="This function resumes the buck PWM operation.">
<polygon fill="none" stroke="black" points="143,-6 143,-25 247,-25 247,-6 143,-6"/>
<text text-anchor="middle" x="195" y="-13" font-family="Helvetica,sans-Serif" font-size="10.00">buckPWM_Resume</text>
</a>
</g>
</g>
<!-- Node1&#45;&gt;Node2 -->
<g id="edge1" class="edge">
<title>Node1&#45;&gt;Node2</title>
<path fill="none" stroke="midnightblue" d="M107.24,-15.5C115.47,-15.5 124.03,-15.5 132.43,-15.5"/>
<polygon fill="midnightblue" stroke="midnightblue" points="132.57,-19 142.57,-15.5 132.57,-12 132.57,-19"/>
</g>
<!-- Node3 -->
<g id="node3" class="node">
<title>Node3</title>
<g id="a_node3"><a xlink:href="a00387.html#ga55e525c7ac54a365ab6dad558ec17f0b" target="_top" xlink:title="Returns the PWM generator index.">
<polygon fill="none" stroke="black" points="283,-0.5 283,-30.5 390,-30.5 390,-0.5 283,-0.5"/>
<text text-anchor="start" x="291" y="-18.5" font-family="Helvetica,sans-Serif" font-size="10.00">p33c_PwmGenerator</text>
<text text-anchor="middle" x="336.5" y="-7.5" font-family="Helvetica,sans-Serif" font-size="10.00">_GetHandle</text>
</a>
</g>
</g>
<!-- Node2&#45;&gt;Node3 -->
<g id="edge2" class="edge">
<title>Node2&#45;&gt;Node3</title>
<path fill="none" stroke="midnightblue" d="M247.15,-15.5C255.54,-15.5 264.31,-15.5 272.93,-15.5"/>
<polygon fill="midnightblue" stroke="midnightblue" points="272.95,-19 282.95,-15.5 272.95,-12 272.95,-19"/>
</g>
</g>
</svg>
