<?xml version="1.0" encoding="UTF-8" standalone="no"?>
<!DOCTYPE svg PUBLIC "-//W3C//DTD SVG 1.1//EN"
 "http://www.w3.org/Graphics/SVG/1.1/DTD/svg11.dtd">
<!-- Generated by graphviz version 2.44.1 (20200629.0846)
 -->
<!-- Title: appPowerSupply_PeripheralsInitialize Pages: 1 -->
<!--zoomable 374 -->
<svg id="main" version="1.1" xmlns="http://www.w3.org/2000/svg" xmlns:xlink="http://www.w3.org/1999/xlink" xml:space="preserve" onload="init(evt)">
<style type="text/css"><![CDATA[
.edge:hover path { stroke: red; }
.edge:hover polygon { stroke: red; fill: red; }
]]></style>
<script type="text/javascript"><![CDATA[
var edges = document.getElementsByTagName('g');
if (edges && edges.length) {
  for (var i=0;i<edges.length;i++) {
    if (edges[i].id.substr(0,4)=='edge') {
      edges[i].setAttribute('class','edge');
    }
  }
}
]]></script>
        <defs>
                <circle id="rim" cx="0" cy="0" r="7"/>
                <circle id="rim2" cx="0" cy="0" r="3.5"/>
                <g id="zoomPlus">
                        <use xlink:href="#rim" fill="#404040">
                                <set attributeName="fill" to="#808080" begin="zoomplus.mouseover" end="zoomplus.mouseout"/>
                        </use>
                        <path d="M-4,0h8M0,-4v8" fill="none" stroke="white" stroke-width="1.5" pointer-events="none"/>
                </g>
                <g id="zoomMin">
                        <use xlink:href="#rim" fill="#404040">
                                <set attributeName="fill" to="#808080" begin="zoomminus.mouseover" end="zoomminus.mouseout"/>
                        </use>
                        <path d="M-4,0h8" fill="none" stroke="white" stroke-width="1.5" pointer-events="none"/>
                </g>
                <g id="dirArrow">
                        <path fill="none" stroke="white" stroke-width="1.5" d="M0,-3.0v7 M-2.5,-0.5L0,-3.0L2.5,-0.5"/>
                </g>
               <g id="resetDef">
                       <use xlink:href="#rim2" fill="#404040">
                               <set attributeName="fill" to="#808080" begin="reset.mouseover" end="reset.mouseout"/>
                       </use>
               </g>
        </defs>

<script type="text/javascript">
var viewWidth = 830;
var viewHeight = 374;
var sectionId = 'dynsection-5';
</script>
<script xlink:href="svgpan.js"/>
<svg id="graph" class="graph">
<g id="viewport">
<title>appPowerSupply_PeripheralsInitialize</title>
<!-- Node1 -->
<g id="node1" class="node">
<title>Node1</title>
<g id="a_node1"><a xlink:title="This function is used to load peripheral configuration templates from the power controller device dri...">
<polygon fill="#bfbfbf" stroke="black" points="0,-265 0,-295 143,-295 143,-265 0,-265"/>
<text text-anchor="start" x="8" y="-283" font-family="Helvetica,sans-Serif" font-size="10.00">appPowerSupply_Peripherals</text>
<text text-anchor="middle" x="71.5" y="-272" font-family="Helvetica,sans-Serif" font-size="10.00">Initialize</text>
</a>
</g>
</g>
<!-- Node2 -->
<g id="node2" class="node">
<title>Node2</title>
<g id="a_node2"><a xlink:href="a00509.html#gaf3c64772d6dfd473d6924fb8893bd180" target="_top" xlink:title="This function initializes all peripheral modules and their instances used by the power controller.">
<polygon fill="none" stroke="black" points="179,-265 179,-295 276,-295 276,-265 179,-265"/>
<text text-anchor="start" x="187" y="-283" font-family="Helvetica,sans-Serif" font-size="10.00">drv_BuckConverter</text>
<text text-anchor="middle" x="227.5" y="-272" font-family="Helvetica,sans-Serif" font-size="10.00">_Initialize</text>
</a>
</g>
</g>
<!-- Node1&#45;&gt;Node2 -->
<g id="edge1" class="edge">
<title>Node1&#45;&gt;Node2</title>
<path fill="none" stroke="midnightblue" d="M143.19,-280C151.64,-280 160.19,-280 168.44,-280"/>
<polygon fill="midnightblue" stroke="midnightblue" points="168.68,-283.5 178.68,-280 168.68,-276.5 168.68,-283.5"/>
</g>
<!-- Node3 -->
<g id="node3" class="node">
<title>Node3</title>
<g id="a_node3"><a xlink:href="a00532.html#gac2bfd6c3ccd9ec11b8e91322ea9354d2" target="_top" xlink:title="This function initializes the settings for the ADC channel.">
<polygon fill="none" stroke="black" points="314,-346.5 314,-365.5 448,-365.5 448,-346.5 314,-346.5"/>
<text text-anchor="middle" x="381" y="-353.5" font-family="Helvetica,sans-Serif" font-size="10.00">buckADC_ChannelInitialize</text>
</a>
</g>
</g>
<!-- Node2&#45;&gt;Node3 -->
<g id="edge2" class="edge">
<title>Node2&#45;&gt;Node3</title>
<path fill="none" stroke="midnightblue" d="M246.67,-295C262.91,-307.76 287.81,-325.74 312,-337 317,-339.33 322.34,-341.42 327.76,-343.3"/>
<polygon fill="midnightblue" stroke="midnightblue" points="326.92,-346.71 337.51,-346.44 329.06,-340.04 326.92,-346.71"/>
</g>
<!-- Node4 -->
<g id="node4" class="node">
<title>Node4</title>
<g id="a_node4"><a xlink:href="a00532.html#ga44f537d9ad5dcb0e744480802cfbf170" target="_top" xlink:title="This fucntion initializes the buck by resetting all its registers to default.">
<polygon fill="none" stroke="black" points="316,-308.5 316,-327.5 446,-327.5 446,-308.5 316,-308.5"/>
<text text-anchor="middle" x="381" y="-315.5" font-family="Helvetica,sans-Serif" font-size="10.00">buckADC_ModuleInitialize</text>
</a>
</g>
</g>
<!-- Node2&#45;&gt;Node4 -->
<g id="edge3" class="edge">
<title>Node2&#45;&gt;Node4</title>
<path fill="none" stroke="midnightblue" d="M276.02,-291.92C293.72,-296.36 313.82,-301.4 331.6,-305.86"/>
<polygon fill="midnightblue" stroke="midnightblue" points="331.21,-309.37 341.76,-308.41 332.91,-302.58 331.21,-309.37"/>
</g>
<!-- Node5 -->
<g id="node5" class="node">
<title>Node5</title>
<g id="a_node5"><a xlink:href="a00532.html#gac7e5924475733c189b2318844ae01844" target="_top" xlink:title="This function initializes the buck input pins.">
<polygon fill="none" stroke="black" points="330,-270.5 330,-289.5 432,-289.5 432,-270.5 330,-270.5"/>
<text text-anchor="middle" x="381" y="-277.5" font-family="Helvetica,sans-Serif" font-size="10.00">buckGPIO_Initialize</text>
</a>
</g>
</g>
<!-- Node2&#45;&gt;Node5 -->
<g id="edge4" class="edge">
<title>Node2&#45;&gt;Node5</title>
<path fill="none" stroke="midnightblue" d="M276.02,-280C289.78,-280 304.98,-280 319.42,-280"/>
<polygon fill="midnightblue" stroke="midnightblue" points="319.77,-283.5 329.77,-280 319.77,-276.5 319.77,-283.5"/>
</g>
<!-- Node9 -->
<g id="node9" class="node">
<title>Node9</title>
<g id="a_node9"><a xlink:href="a00532.html#ga45a54def97cc67eb8d36e22a3867d95f" target="_top" xlink:title="This function initializes the output pins for the PWM output and the default buck PWM settings.">
<polygon fill="none" stroke="black" points="312,-194.5 312,-213.5 450,-213.5 450,-194.5 312,-194.5"/>
<text text-anchor="middle" x="381" y="-201.5" font-family="Helvetica,sans-Serif" font-size="10.00">buckPWM_ChannelInitialize</text>
</a>
</g>
</g>
<!-- Node2&#45;&gt;Node9 -->
<g id="edge9" class="edge">
<title>Node2&#45;&gt;Node9</title>
<path fill="none" stroke="midnightblue" d="M258.43,-264.98C285.47,-251.42 324.97,-231.6 351.54,-218.28"/>
<polygon fill="midnightblue" stroke="midnightblue" points="353.33,-221.3 360.7,-213.68 350.19,-215.04 353.33,-221.3"/>
</g>
<!-- Node18 -->
<g id="node18" class="node">
<title>Node18</title>
<g id="a_node18"><a xlink:href="a00532.html#ga6d12fd9e2f1d4f01ec6db21454693863" target="_top" xlink:title="Initializes the buck PWM module by resetting its registers to default.">
<polygon fill="none" stroke="black" points="314,-38.5 314,-57.5 448,-57.5 448,-38.5 314,-38.5"/>
<text text-anchor="middle" x="381" y="-45.5" font-family="Helvetica,sans-Serif" font-size="10.00">buckPWM_ModuleInitialize</text>
</a>
</g>
</g>
<!-- Node2&#45;&gt;Node18 -->
<g id="edge19" class="edge">
<title>Node2&#45;&gt;Node18</title>
<path fill="none" stroke="midnightblue" d="M238.44,-264.78C265.3,-223.64 339.26,-110.38 368.19,-66.09"/>
<polygon fill="midnightblue" stroke="midnightblue" points="371.25,-67.8 373.79,-57.51 365.39,-63.97 371.25,-67.8"/>
</g>
<!-- Node6 -->
<g id="node6" class="node">
<title>Node6</title>
<g id="a_node6"><a xlink:href="a00532.html#ga7f1d554e08d756b8677b572216908a3a" target="_top" xlink:title="This function clears the selected general purpose input/output pin.">
<polygon fill="none" stroke="black" points="517.5,-327.5 517.5,-346.5 606.5,-346.5 606.5,-327.5 517.5,-327.5"/>
<text text-anchor="middle" x="562" y="-334.5" font-family="Helvetica,sans-Serif" font-size="10.00">buckGPIO_Clear</text>
</a>
</g>
</g>
<!-- Node5&#45;&gt;Node6 -->
<g id="edge5" class="edge">
<title>Node5&#45;&gt;Node6</title>
<path fill="none" stroke="midnightblue" d="M421.67,-289.55C431.08,-292.24 441,-295.42 450,-299 466.81,-305.69 469.11,-311.51 486,-318 492.81,-320.62 500.11,-322.98 507.38,-325.08"/>
<polygon fill="midnightblue" stroke="midnightblue" points="506.65,-328.51 517.22,-327.77 508.5,-321.75 506.65,-328.51"/>
</g>
<!-- Node8 -->
<g id="node8" class="node">
<title>Node8</title>
<g id="a_node8"><a xlink:href="a00532.html#ga3d3f91c0e40884874e7df3a67fff23f3" target="_top" xlink:title="This function sets the pin as input or output.">
<polygon fill="none" stroke="black" points="496.5,-289.5 496.5,-308.5 627.5,-308.5 627.5,-289.5 496.5,-289.5"/>
<text text-anchor="middle" x="562" y="-296.5" font-family="Helvetica,sans-Serif" font-size="10.00">buckGPIO_PrivateInitialize</text>
</a>
</g>
</g>
<!-- Node5&#45;&gt;Node8 -->
<g id="edge7" class="edge">
<title>Node5&#45;&gt;Node8</title>
<path fill="none" stroke="midnightblue" d="M432.34,-285.34C449.09,-287.12 468.12,-289.14 486.31,-291.07"/>
<polygon fill="midnightblue" stroke="midnightblue" points="486,-294.56 496.31,-292.13 486.74,-287.6 486,-294.56"/>
</g>
<!-- Node7 -->
<g id="node7" class="node">
<title>Node7</title>
<g id="a_node7"><a xlink:href="a00383.html#ga4d67af688d8f7f911d79107974e11e6b" target="_top" xlink:title="Gets pointer to GPIO Instance SFR set.">
<polygon fill="none" stroke="black" points="698,-301 698,-331 798,-331 798,-301 698,-301"/>
<text text-anchor="start" x="706" y="-319" font-family="Helvetica,sans-Serif" font-size="10.00">p33c_GpioInstance</text>
<text text-anchor="middle" x="748" y="-308" font-family="Helvetica,sans-Serif" font-size="10.00">_GetHandle</text>
</a>
</g>
</g>
<!-- Node6&#45;&gt;Node7 -->
<g id="edge6" class="edge">
<title>Node6&#45;&gt;Node7</title>
<path fill="none" stroke="midnightblue" d="M606.61,-332.02C630.81,-329.26 661.26,-325.79 687.62,-322.78"/>
<polygon fill="midnightblue" stroke="midnightblue" points="688.33,-326.22 697.87,-321.61 687.54,-319.26 688.33,-326.22"/>
</g>
<!-- Node8&#45;&gt;Node7 -->
<g id="edge8" class="edge">
<title>Node8&#45;&gt;Node7</title>
<path fill="none" stroke="midnightblue" d="M627.61,-304.97C647.19,-306.78 668.58,-308.75 687.78,-310.53"/>
<polygon fill="midnightblue" stroke="midnightblue" points="687.62,-314.03 697.9,-311.46 688.26,-307.06 687.62,-314.03"/>
</g>
<!-- Node9&#45;&gt;Node7 -->
<g id="edge16" class="edge">
<title>Node9&#45;&gt;Node7</title>
<path fill="none" stroke="midnightblue" d="M406.13,-213.64C427.05,-221.8 458.25,-233.49 486,-242 552.57,-262.42 571.14,-260.53 638,-280 654.19,-284.72 657.99,-286.7 674,-292 679.6,-293.85 685.44,-295.78 691.27,-297.71"/>
<polygon fill="midnightblue" stroke="midnightblue" points="690.45,-301.12 701.04,-300.92 692.64,-294.47 690.45,-301.12"/>
</g>
<!-- Node10 -->
<g id="node10" class="node">
<title>Node10</title>
<g id="a_node10"><a xlink:href="a00532.html#ga91be1e9c6cefeb362af454e71869d042" target="_top" xlink:title="This function initializes the Digital&#45;To&#45;Analog converter, slope compensation and analog comparator u...">
<polygon fill="none" stroke="black" points="495,-213.5 495,-232.5 629,-232.5 629,-213.5 495,-213.5"/>
<text text-anchor="middle" x="562" y="-220.5" font-family="Helvetica,sans-Serif" font-size="10.00">buckDAC_ChannelInitialize</text>
</a>
</g>
</g>
<!-- Node9&#45;&gt;Node10 -->
<g id="edge10" class="edge">
<title>Node9&#45;&gt;Node10</title>
<path fill="none" stroke="midnightblue" d="M450.18,-211.24C461.49,-212.44 473.28,-213.69 484.78,-214.91"/>
<polygon fill="midnightblue" stroke="midnightblue" points="484.47,-218.4 494.78,-215.97 485.21,-211.44 484.47,-218.4"/>
</g>
<!-- Node13 -->
<g id="node13" class="node">
<title>Node13</title>
<g id="a_node13"><a xlink:href="a00532.html#gaaabec2f1ada3085513665d34125a7291" target="_top" xlink:title="This function initializes the Digital&#45;To&#45;Analog converter peripheral module.">
<polygon fill="none" stroke="black" points="497,-175.5 497,-194.5 627,-194.5 627,-175.5 497,-175.5"/>
<text text-anchor="middle" x="562" y="-182.5" font-family="Helvetica,sans-Serif" font-size="10.00">buckDAC_ModuleInitialize</text>
</a>
</g>
</g>
<!-- Node9&#45;&gt;Node13 -->
<g id="edge13" class="edge">
<title>Node9&#45;&gt;Node13</title>
<path fill="none" stroke="midnightblue" d="M450.18,-196.76C462.15,-195.49 474.65,-194.17 486.77,-192.88"/>
<polygon fill="midnightblue" stroke="midnightblue" points="487.26,-196.35 496.84,-191.81 486.52,-189.39 487.26,-196.35"/>
</g>
<!-- Node16 -->
<g id="node16" class="node">
<title>Node16</title>
<g id="a_node16"><a xlink:href="a00387.html#gab66f225bac6b132d1418a4c808e3babb" target="_top" xlink:title="Disposes a given PWM generator by resetting all its registers to default.">
<polygon fill="none" stroke="black" points="508.5,-126 508.5,-156 615.5,-156 615.5,-126 508.5,-126"/>
<text text-anchor="start" x="516.5" y="-144" font-family="Helvetica,sans-Serif" font-size="10.00">p33c_PwmGenerator</text>
<text text-anchor="middle" x="562" y="-133" font-family="Helvetica,sans-Serif" font-size="10.00">_ConfigWrite</text>
</a>
</g>
</g>
<!-- Node9&#45;&gt;Node16 -->
<g id="edge17" class="edge">
<title>Node9&#45;&gt;Node16</title>
<path fill="none" stroke="midnightblue" d="M407.57,-194.43C428.58,-186.62 459.14,-175.38 486,-166 492.27,-163.81 498.85,-161.56 505.39,-159.34"/>
<polygon fill="midnightblue" stroke="midnightblue" points="506.56,-162.64 514.92,-156.13 504.33,-156 506.56,-162.64"/>
</g>
<!-- Node17 -->
<g id="node17" class="node">
<title>Node17</title>
<g id="a_node17"><a xlink:href="a00387.html#ga55e525c7ac54a365ab6dad558ec17f0b" target="_top" xlink:title="Returns the PWM generator index.">
<polygon fill="none" stroke="black" points="508.5,-77 508.5,-107 615.5,-107 615.5,-77 508.5,-77"/>
<text text-anchor="start" x="516.5" y="-95" font-family="Helvetica,sans-Serif" font-size="10.00">p33c_PwmGenerator</text>
<text text-anchor="middle" x="562" y="-84" font-family="Helvetica,sans-Serif" font-size="10.00">_GetHandle</text>
</a>
</g>
</g>
<!-- Node9&#45;&gt;Node17 -->
<g id="edge18" class="edge">
<title>Node9&#45;&gt;Node17</title>
<path fill="none" stroke="midnightblue" d="M391.12,-194.26C408.17,-176.56 446.74,-138.92 486,-117 490.13,-114.7 494.5,-112.56 498.98,-110.59"/>
<polygon fill="midnightblue" stroke="midnightblue" points="500.36,-113.8 508.28,-106.77 497.7,-107.33 500.36,-113.8"/>
</g>
<!-- Node11 -->
<g id="node11" class="node">
<title>Node11</title>
<g id="a_node11"><a xlink:href="a00381.html#gac471660aeec8e8329369435914c5befa" target="_top" xlink:title="Writes a user&#45;defined configuration to the DAC instance registers.">
<polygon fill="none" stroke="black" points="683.5,-252 683.5,-282 812.5,-282 812.5,-252 683.5,-252"/>
<text text-anchor="start" x="691.5" y="-270" font-family="Helvetica,sans-Serif" font-size="10.00">p33c_DacInstance_Config</text>
<text text-anchor="middle" x="748" y="-259" font-family="Helvetica,sans-Serif" font-size="10.00">Write</text>
</a>
</g>
</g>
<!-- Node10&#45;&gt;Node11 -->
<g id="edge11" class="edge">
<title>Node10&#45;&gt;Node11</title>
<path fill="none" stroke="midnightblue" d="M602.93,-232.55C623.73,-237.52 649.84,-243.77 674.1,-249.57"/>
<polygon fill="midnightblue" stroke="midnightblue" points="673.46,-253.01 684,-251.93 675.09,-246.2 673.46,-253.01"/>
</g>
<!-- Node12 -->
<g id="node12" class="node">
<title>Node12</title>
<g id="a_node12"><a xlink:href="a00381.html#gac98f16c744b3712654c1bbb58acb4e33" target="_top" xlink:title="Gets pointer to DAC Instance SFR set.">
<polygon fill="none" stroke="black" points="674,-213.5 674,-232.5 822,-232.5 822,-213.5 674,-213.5"/>
<text text-anchor="middle" x="748" y="-220.5" font-family="Helvetica,sans-Serif" font-size="10.00">p33c_DacInstance_GetHandle</text>
</a>
</g>
</g>
<!-- Node10&#45;&gt;Node12 -->
<g id="edge12" class="edge">
<title>Node10&#45;&gt;Node12</title>
<path fill="none" stroke="midnightblue" d="M629.17,-223C640.4,-223 652.2,-223 663.81,-223"/>
<polygon fill="midnightblue" stroke="midnightblue" points="663.94,-226.5 673.94,-223 663.94,-219.5 663.94,-226.5"/>
</g>
<!-- Node14 -->
<g id="node14" class="node">
<title>Node14</title>
<g id="a_node14"><a xlink:href="a00381.html#gaddf7b491a947c7f557b89235588c0219" target="_top" xlink:title="Writes a user&#45;defined configuration to the DAC module base registers.">
<polygon fill="none" stroke="black" points="674.5,-175.5 674.5,-194.5 821.5,-194.5 821.5,-175.5 674.5,-175.5"/>
<text text-anchor="middle" x="748" y="-182.5" font-family="Helvetica,sans-Serif" font-size="10.00">p33c_DacModule_ConfigWrite</text>
</a>
</g>
</g>
<!-- Node13&#45;&gt;Node14 -->
<g id="edge14" class="edge">
<title>Node13&#45;&gt;Node14</title>
<path fill="none" stroke="midnightblue" d="M627.1,-185C639.01,-185 651.61,-185 663.99,-185"/>
<polygon fill="midnightblue" stroke="midnightblue" points="664.32,-188.5 674.32,-185 664.32,-181.5 664.32,-188.5"/>
</g>
<!-- Node15 -->
<g id="node15" class="node">
<title>Node15</title>
<g id="a_node15"><a xlink:href="a00381.html#ga72e7cdf4177d0403e8ff925314ec1bc7" target="_top" xlink:title="Gets pointer to DAC Module SFR set.">
<polygon fill="none" stroke="black" points="676.5,-137.5 676.5,-156.5 819.5,-156.5 819.5,-137.5 676.5,-137.5"/>
<text text-anchor="middle" x="748" y="-144.5" font-family="Helvetica,sans-Serif" font-size="10.00">p33c_DacModule_GetHandle</text>
</a>
</g>
</g>
<!-- Node13&#45;&gt;Node15 -->
<g id="edge15" class="edge">
<title>Node13&#45;&gt;Node15</title>
<path fill="none" stroke="midnightblue" d="M609.43,-175.41C634.15,-170.31 664.74,-163.99 690.79,-158.61"/>
<polygon fill="midnightblue" stroke="midnightblue" points="691.82,-161.97 700.9,-156.52 690.4,-155.11 691.82,-161.97"/>
</g>
<!-- Node19 -->
<g id="node19" class="node">
<title>Node19</title>
<g id="a_node19"><a xlink:href="a00387.html#ga8075fd40f867be8f42bb806622bd91bd" target="_top" xlink:title="Writes a user&#45;defined configuration to the PWM base module registers.">
<polygon fill="none" stroke="black" points="486,-38.5 486,-57.5 638,-57.5 638,-38.5 486,-38.5"/>
<text text-anchor="middle" x="562" y="-45.5" font-family="Helvetica,sans-Serif" font-size="10.00">p33c_PwmModule_ConfigWrite</text>
</a>
</g>
</g>
<!-- Node18&#45;&gt;Node19 -->
<g id="edge20" class="edge">
<title>Node18&#45;&gt;Node19</title>
<path fill="none" stroke="midnightblue" d="M448.14,-48C457.14,-48 466.47,-48 475.75,-48"/>
<polygon fill="midnightblue" stroke="midnightblue" points="475.77,-51.5 485.77,-48 475.77,-44.5 475.77,-51.5"/>
</g>
<!-- Node20 -->
<g id="node20" class="node">
<title>Node20</title>
<g id="a_node20"><a xlink:href="a00387.html#ga3ed5f08051a70f5cb426b8254119845f" target="_top" xlink:title="Gets pointer to PWM module SFR set.">
<polygon fill="none" stroke="black" points="488.5,-0.5 488.5,-19.5 635.5,-19.5 635.5,-0.5 488.5,-0.5"/>
<text text-anchor="middle" x="562" y="-7.5" font-family="Helvetica,sans-Serif" font-size="10.00">p33c_PwmModule_GetHandle</text>
</a>
</g>
</g>
<!-- Node18&#45;&gt;Node20 -->
<g id="edge21" class="edge">
<title>Node18&#45;&gt;Node20</title>
<path fill="none" stroke="midnightblue" d="M427.17,-38.41C451.22,-33.31 480.97,-26.99 506.32,-21.61"/>
<polygon fill="midnightblue" stroke="midnightblue" points="507.1,-25.02 516.16,-19.52 505.65,-18.17 507.1,-25.02"/>
</g>
</g>
</svg>
        <g id="navigator" transform="translate(0 0)" fill="#404254">
                <rect fill="#f2f5e9" fill-opacity="0.5" stroke="#606060" stroke-width=".5" x="0" y="0" width="60" height="60"/>
                <use id="zoomplus" xlink:href="#zoomPlus" x="17" y="9" onmousedown="handleZoom(evt,'in')"/>
                <use id="zoomminus" xlink:href="#zoomMin" x="42" y="9" onmousedown="handleZoom(evt,'out')"/>
                <use id="reset" xlink:href="#resetDef" x="30" y="36" onmousedown="handleReset()"/>
                <g id="arrowUp" xlink:href="#dirArrow" transform="translate(30 24)" onmousedown="handlePan(0,-1)">
                  <use xlink:href="#rim" fill="#404040">
                        <set attributeName="fill" to="#808080" begin="arrowUp.mouseover" end="arrowUp.mouseout"/>
                  </use>
                  <path fill="none" stroke="white" stroke-width="1.5" d="M0,-3.0v7 M-2.5,-0.5L0,-3.0L2.5,-0.5"/>
                </g>
                <g id="arrowRight" xlink:href="#dirArrow" transform="rotate(90) translate(36 -43)" onmousedown="handlePan(1,0)">
                  <use xlink:href="#rim" fill="#404040">
                        <set attributeName="fill" to="#808080" begin="arrowRight.mouseover" end="arrowRight.mouseout"/>
                  </use>
                  <path fill="none" stroke="white" stroke-width="1.5" d="M0,-3.0v7 M-2.5,-0.5L0,-3.0L2.5,-0.5"/>
                </g>
                <g id="arrowDown" xlink:href="#dirArrow" transform="rotate(180) translate(-30 -48)" onmousedown="handlePan(0,1)">
                  <use xlink:href="#rim" fill="#404040">
                        <set attributeName="fill" to="#808080" begin="arrowDown.mouseover" end="arrowDown.mouseout"/>
                  </use>
                  <path fill="none" stroke="white" stroke-width="1.5" d="M0,-3.0v7 M-2.5,-0.5L0,-3.0L2.5,-0.5"/>
                </g>
                <g id="arrowLeft" xlink:href="#dirArrow" transform="rotate(270) translate(-36 17)" onmousedown="handlePan(-1,0)">
                  <use xlink:href="#rim" fill="#404040">
                        <set attributeName="fill" to="#808080" begin="arrowLeft.mouseover" end="arrowLeft.mouseout"/>
                  </use>
                  <path fill="none" stroke="white" stroke-width="1.5" d="M0,-3.0v7 M-2.5,-0.5L0,-3.0L2.5,-0.5"/>
                </g>
        </g>
        <svg viewBox="0 0 15 15" width="100%" height="30px" preserveAspectRatio="xMaxYMin meet">
         <g id="arrow_out" transform="scale(0.3 0.3)">
          <a xlink:href="a00505_ga0b26acfec74d1804384b4ba1a3cffab4_cgraph_org.svg" target="_base">
           <rect id="button" ry="5" rx="5" y="6" x="6" height="38" width="38"
                fill="#f2f5e9" fill-opacity="0.5" stroke="#606060" stroke-width="1.0"/>
           <path id="arrow"
             d="M 11.500037,31.436501 C 11.940474,20.09759 22.043105,11.32322 32.158766,21.979434 L 37.068811,17.246167 C 37.068811,17.246167 37.088388,32 37.088388,32 L 22.160133,31.978069 C 22.160133,31.978069 26.997745,27.140456 26.997745,27.140456 C 18.528582,18.264221 13.291696,25.230495 11.500037,31.436501 z"
             style="fill:#404040;"/>
          </a>
         </g>
        </svg>
</svg>
