<?xml version="1.0" encoding="UTF-8" standalone="no"?>
<!DOCTYPE svg PUBLIC "-//W3C//DTD SVG 1.1//EN"
 "http://www.w3.org/Graphics/SVG/1.1/DTD/svg11.dtd">
<!-- Generated by graphviz version 2.44.1 (20200629.0846)
 -->
<!-- Title: appPushButton_EventButtonUp Pages: 1 -->
<svg width="550pt" height="28pt"
 viewBox="0.00 0.00 550.00 28.00" xmlns="http://www.w3.org/2000/svg" xmlns:xlink="http://www.w3.org/1999/xlink">
<g id="graph0" class="graph" transform="scale(1 1) rotate(0) translate(4 24)">
<title>appPushButton_EventButtonUp</title>
<!-- Node1 -->
<g id="node1" class="node">
<title>Node1</title>
<g id="a_node1"><a xlink:title="Push button event raised at the &quot;not pressed&quot; transition.">
<polygon fill="#bfbfbf" stroke="black" points="389,-0.5 389,-19.5 542,-19.5 542,-0.5 389,-0.5"/>
<text text-anchor="middle" x="465.5" y="-7.5" font-family="Helvetica,sans-Serif" font-size="10.00">appPushButton_EventButtonUp</text>
</a>
</g>
</g>
<!-- Node2 -->
<g id="node2" class="node">
<title>Node2</title>
<g id="a_node2"><a xlink:href="a00552.html#ga7c903bd2ce5b08d78de218d726830947" target="_top" xlink:title="Initializes the USER push button on DPSK3.">
<polygon fill="none" stroke="black" points="229,-0.5 229,-19.5 353,-19.5 353,-0.5 229,-0.5"/>
<text text-anchor="middle" x="291" y="-7.5" font-family="Helvetica,sans-Serif" font-size="10.00">appPushButton_Initialize</text>
</a>
</g>
</g>
<!-- Node1&#45;&gt;Node2 -->
<g id="edge1" class="edge">
<title>Node1&#45;&gt;Node2</title>
<path fill="none" stroke="midnightblue" d="M378.71,-10C370.07,-10 361.41,-10 353.1,-10"/>
<polygon fill="midnightblue" stroke="midnightblue" points="378.84,-13.5 388.84,-10 378.84,-6.5 378.84,-13.5"/>
</g>
<!-- Node3 -->
<g id="node3" class="node">
<title>Node3</title>
<g id="a_node3"><a xlink:href="a00366.html#ga2be64f5f0b9a2c0c6713f5a69d793e05" target="_top" xlink:title="Initializes the user&#45;defined tasks.">
<polygon fill="none" stroke="black" points="74,-0.5 74,-19.5 193,-19.5 193,-0.5 74,-0.5"/>
<text text-anchor="middle" x="133.5" y="-7.5" font-family="Helvetica,sans-Serif" font-size="10.00">sysUserTasks_Initialize</text>
</a>
</g>
</g>
<!-- Node2&#45;&gt;Node3 -->
<g id="edge2" class="edge">
<title>Node2&#45;&gt;Node3</title>
<path fill="none" stroke="midnightblue" d="M218.91,-10C210.25,-10 201.49,-10 193.05,-10"/>
<polygon fill="midnightblue" stroke="midnightblue" points="218.99,-13.5 228.99,-10 218.99,-6.5 218.99,-13.5"/>
</g>
<!-- Node4 -->
<g id="node4" class="node">
<title>Node4</title>
<g id="a_node4"><a xlink:href="a00350.html#ga840291bc02cba5474a4cb46a9b9566fe" target="_top" xlink:title="Application main function executed after device comes out of RESET.">
<polygon fill="none" stroke="black" points="0,-0.5 0,-19.5 38,-19.5 38,-0.5 0,-0.5"/>
<text text-anchor="middle" x="19" y="-7.5" font-family="Helvetica,sans-Serif" font-size="10.00">main</text>
</a>
</g>
</g>
<!-- Node3&#45;&gt;Node4 -->
<g id="edge3" class="edge">
<title>Node3&#45;&gt;Node4</title>
<path fill="none" stroke="midnightblue" d="M63.65,-10C54.29,-10 45.43,-10 38.16,-10"/>
<polygon fill="midnightblue" stroke="midnightblue" points="63.94,-13.5 73.94,-10 63.94,-6.5 63.94,-13.5"/>
</g>
</g>
</svg>
