<?xml version="1.0" encoding="UTF-8" standalone="no"?>
<!DOCTYPE svg PUBLIC "-//W3C//DTD SVG 1.1//EN"
 "http://www.w3.org/Graphics/SVG/1.1/DTD/svg11.dtd">
<!-- Generated by graphviz version 2.44.1 (20200629.0846)
 -->
<!-- Title: v_loop_Reset Pages: 1 -->
<svg width="769pt" height="53pt"
 viewBox="0.00 0.00 769.00 52.50" xmlns="http://www.w3.org/2000/svg" xmlns:xlink="http://www.w3.org/1999/xlink">
<g id="graph0" class="graph" transform="scale(1 1) rotate(0) translate(4 48.5)">
<title>v_loop_Reset</title>
<!-- Node1 -->
<g id="node1" class="node">
<title>Node1</title>
<g id="a_node1"><a xlink:title="Prototype of the Assembly routine &#39;_v_loop_Reset&#39; clearing the NPNZ16b controller output and error hi...">
<polygon fill="#bfbfbf" stroke="black" points="687,-19.5 687,-38.5 761,-38.5 761,-19.5 687,-19.5"/>
<text text-anchor="middle" x="724" y="-26.5" font-family="Helvetica,sans-Serif" font-size="10.00">v_loop_Reset</text>
</a>
</g>
</g>
<!-- Node2 -->
<g id="node2" class="node">
<title>Node2</title>
<g id="a_node2"><a xlink:href="a00505.html#ga0b4cabdb02c8c9ea94ea1dfa39de3764" target="_top" xlink:title="This function initializes the control system feedback loop objects.">
<polygon fill="none" stroke="black" points="395,-14 395,-44 531,-44 531,-14 395,-14"/>
<text text-anchor="start" x="403" y="-32" font-family="Helvetica,sans-Serif" font-size="10.00">appPowerSupply_Controller</text>
<text text-anchor="middle" x="463" y="-21" font-family="Helvetica,sans-Serif" font-size="10.00">Initialize</text>
</a>
</g>
</g>
<!-- Node1&#45;&gt;Node2 -->
<g id="edge1" class="edge">
<title>Node1&#45;&gt;Node2</title>
<path fill="none" stroke="midnightblue" d="M676.86,-29C636.37,-29 576.97,-29 531.19,-29"/>
<polygon fill="midnightblue" stroke="midnightblue" points="676.99,-32.5 686.99,-29 676.99,-25.5 676.99,-32.5"/>
</g>
<!-- Node6 -->
<g id="node6" class="node">
<title>Node6</title>
<g id="a_node6"><a xlink:href="a00544.html#ga62d45a18f3dd47fa691fbb463f90e051" target="_top" xlink:title="Initializes controller coefficient arrays and normalization factors.">
<polygon fill="none" stroke="black" points="567,-0.5 567,-19.5 651,-19.5 651,-0.5 567,-0.5"/>
<text text-anchor="middle" x="609" y="-7.5" font-family="Helvetica,sans-Serif" font-size="10.00">v_loop_Initialize</text>
</a>
</g>
</g>
<!-- Node1&#45;&gt;Node6 -->
<g id="edge5" class="edge">
<title>Node1&#45;&gt;Node6</title>
<path fill="none" stroke="midnightblue" d="M676.81,-21.23C668.34,-19.81 659.54,-18.33 651.23,-16.93"/>
<polygon fill="midnightblue" stroke="midnightblue" points="676.49,-24.73 686.94,-22.94 677.65,-17.83 676.49,-24.73"/>
</g>
<!-- Node3 -->
<g id="node3" class="node">
<title>Node3</title>
<g id="a_node3"><a xlink:href="a00502.html#ga7a4cf6371d09457539f96a74b2809ca0" target="_top" xlink:title="Calls the application layer power controller initialization.">
<polygon fill="none" stroke="black" points="229,-19.5 229,-38.5 359,-38.5 359,-19.5 229,-19.5"/>
<text text-anchor="middle" x="294" y="-26.5" font-family="Helvetica,sans-Serif" font-size="10.00">appPowerSupply_Initialize</text>
</a>
</g>
</g>
<!-- Node2&#45;&gt;Node3 -->
<g id="edge2" class="edge">
<title>Node2&#45;&gt;Node3</title>
<path fill="none" stroke="midnightblue" d="M384.34,-29C375.92,-29 367.42,-29 359.18,-29"/>
<polygon fill="midnightblue" stroke="midnightblue" points="384.56,-32.5 394.56,-29 384.56,-25.5 384.56,-32.5"/>
</g>
<!-- Node4 -->
<g id="node4" class="node">
<title>Node4</title>
<g id="a_node4"><a xlink:href="a00366.html#ga2be64f5f0b9a2c0c6713f5a69d793e05" target="_top" xlink:title="Initializes the user&#45;defined tasks.">
<polygon fill="none" stroke="black" points="74,-19.5 74,-38.5 193,-38.5 193,-19.5 74,-19.5"/>
<text text-anchor="middle" x="133.5" y="-26.5" font-family="Helvetica,sans-Serif" font-size="10.00">sysUserTasks_Initialize</text>
</a>
</g>
</g>
<!-- Node3&#45;&gt;Node4 -->
<g id="edge3" class="edge">
<title>Node3&#45;&gt;Node4</title>
<path fill="none" stroke="midnightblue" d="M218.9,-29C210.25,-29 201.52,-29 193.12,-29"/>
<polygon fill="midnightblue" stroke="midnightblue" points="218.99,-32.5 228.99,-29 218.99,-25.5 218.99,-32.5"/>
</g>
<!-- Node5 -->
<g id="node5" class="node">
<title>Node5</title>
<g id="a_node5"><a xlink:href="a00350.html#ga840291bc02cba5474a4cb46a9b9566fe" target="_top" xlink:title="Application main function executed after device comes out of RESET.">
<polygon fill="none" stroke="black" points="0,-19.5 0,-38.5 38,-38.5 38,-19.5 0,-19.5"/>
<text text-anchor="middle" x="19" y="-26.5" font-family="Helvetica,sans-Serif" font-size="10.00">main</text>
</a>
</g>
</g>
<!-- Node4&#45;&gt;Node5 -->
<g id="edge4" class="edge">
<title>Node4&#45;&gt;Node5</title>
<path fill="none" stroke="midnightblue" d="M63.65,-29C54.29,-29 45.43,-29 38.16,-29"/>
<polygon fill="midnightblue" stroke="midnightblue" points="63.94,-32.5 73.94,-29 63.94,-25.5 63.94,-32.5"/>
</g>
<!-- Node6&#45;&gt;Node2 -->
<g id="edge6" class="edge">
<title>Node6&#45;&gt;Node2</title>
<path fill="none" stroke="midnightblue" d="M556.81,-16.75C548.48,-17.85 539.74,-19.01 531.1,-20.15"/>
<polygon fill="midnightblue" stroke="midnightblue" points="557.28,-20.22 566.74,-15.44 556.36,-13.28 557.28,-20.22"/>
</g>
</g>
</svg>
