<?xml version="1.0" encoding="UTF-8" standalone="no"?>
<!DOCTYPE svg PUBLIC "-//W3C//DTD SVG 1.1//EN"
 "http://www.w3.org/Graphics/SVG/1.1/DTD/svg11.dtd">
<!-- Generated by graphviz version 2.44.1 (20200629.0846)
 -->
<!-- Title: appPowerSupply_Start Pages: 1 -->
<svg width="525pt" height="72pt"
 viewBox="0.00 0.00 525.00 71.50" xmlns="http://www.w3.org/2000/svg" xmlns:xlink="http://www.w3.org/1999/xlink">
<g id="graph0" class="graph" transform="scale(1 1) rotate(0) translate(4 67.5)">
<title>appPowerSupply_Start</title>
<!-- Node1 -->
<g id="node1" class="node">
<title>Node1</title>
<g id="a_node1"><a xlink:title="This function calls the buck converter device driver function starting the power supply.">
<polygon fill="#bfbfbf" stroke="black" points="0,-25 0,-44 116,-44 116,-25 0,-25"/>
<text text-anchor="middle" x="58" y="-32" font-family="Helvetica,sans-Serif" font-size="10.00">appPowerSupply_Start</text>
</a>
</g>
</g>
<!-- Node2 -->
<g id="node2" class="node">
<title>Node2</title>
<g id="a_node2"><a xlink:href="a00509.html#ga86289c82938655142075e84ac90aa603" target="_top" xlink:title="This function starts the buck converter.">
<polygon fill="none" stroke="black" points="152,-19.5 152,-49.5 249,-49.5 249,-19.5 152,-19.5"/>
<text text-anchor="start" x="160" y="-37.5" font-family="Helvetica,sans-Serif" font-size="10.00">drv_BuckConverter</text>
<text text-anchor="middle" x="200.5" y="-26.5" font-family="Helvetica,sans-Serif" font-size="10.00">_Start</text>
</a>
</g>
</g>
<!-- Node1&#45;&gt;Node2 -->
<g id="edge1" class="edge">
<title>Node1&#45;&gt;Node2</title>
<path fill="none" stroke="midnightblue" d="M116.15,-34.5C124.57,-34.5 133.26,-34.5 141.7,-34.5"/>
<polygon fill="midnightblue" stroke="midnightblue" points="141.84,-38 151.84,-34.5 141.84,-31 141.84,-38"/>
</g>
<!-- Node3 -->
<g id="node3" class="node">
<title>Node3</title>
<g id="a_node3"><a xlink:href="a00532.html#gab089e35bcd5d68072aa53298ee276959" target="_top" xlink:title="This function enables the ADC module and starts the ADC cores analog inputs for the required input si...">
<polygon fill="none" stroke="black" points="287.5,-44 287.5,-63 371.5,-63 371.5,-44 287.5,-44"/>
<text text-anchor="middle" x="329.5" y="-51" font-family="Helvetica,sans-Serif" font-size="10.00">buckADC_Start</text>
</a>
</g>
</g>
<!-- Node2&#45;&gt;Node3 -->
<g id="edge2" class="edge">
<title>Node2&#45;&gt;Node3</title>
<path fill="none" stroke="midnightblue" d="M249.15,-41.63C258.35,-43.01 268.03,-44.45 277.33,-45.85"/>
<polygon fill="midnightblue" stroke="midnightblue" points="276.84,-49.31 287.25,-47.33 277.88,-42.39 276.84,-49.31"/>
</g>
<!-- Node4 -->
<g id="node4" class="node">
<title>Node4</title>
<g id="a_node4"><a xlink:href="a00532.html#gac63073d04bc35c0cce5df47ea0d33165" target="_top" xlink:title="This function enables the buck PWM operation.">
<polygon fill="none" stroke="black" points="285,-6 285,-25 374,-25 374,-6 285,-6"/>
<text text-anchor="middle" x="329.5" y="-13" font-family="Helvetica,sans-Serif" font-size="10.00">buckPWM_Start</text>
</a>
</g>
</g>
<!-- Node2&#45;&gt;Node4 -->
<g id="edge3" class="edge">
<title>Node2&#45;&gt;Node4</title>
<path fill="none" stroke="midnightblue" d="M249.15,-27.37C257.46,-26.13 266.15,-24.83 274.61,-23.56"/>
<polygon fill="midnightblue" stroke="midnightblue" points="275.4,-26.98 284.77,-22.04 274.37,-20.06 275.4,-26.98"/>
</g>
<!-- Node5 -->
<g id="node5" class="node">
<title>Node5</title>
<g id="a_node5"><a xlink:href="a00387.html#ga55e525c7ac54a365ab6dad558ec17f0b" target="_top" xlink:title="Returns the PWM generator index.">
<polygon fill="none" stroke="black" points="410,-0.5 410,-30.5 517,-30.5 517,-0.5 410,-0.5"/>
<text text-anchor="start" x="418" y="-18.5" font-family="Helvetica,sans-Serif" font-size="10.00">p33c_PwmGenerator</text>
<text text-anchor="middle" x="463.5" y="-7.5" font-family="Helvetica,sans-Serif" font-size="10.00">_GetHandle</text>
</a>
</g>
</g>
<!-- Node4&#45;&gt;Node5 -->
<g id="edge4" class="edge">
<title>Node4&#45;&gt;Node5</title>
<path fill="none" stroke="midnightblue" d="M374.09,-15.5C382.29,-15.5 391.02,-15.5 399.68,-15.5"/>
<polygon fill="midnightblue" stroke="midnightblue" points="399.77,-19 409.77,-15.5 399.77,-12 399.77,-19"/>
</g>
</g>
</svg>
