<?xml version="1.0" encoding="UTF-8" standalone="no"?>
<!DOCTYPE svg PUBLIC "-//W3C//DTD SVG 1.1//EN"
 "http://www.w3.org/Graphics/SVG/1.1/DTD/svg11.dtd">
<!-- Generated by graphviz version 2.44.1 (20200629.0846)
 -->
<!-- Title: appPowerSupply_Suspend Pages: 1 -->
<svg width="699pt" height="39pt"
 viewBox="0.00 0.00 699.00 39.00" xmlns="http://www.w3.org/2000/svg" xmlns:xlink="http://www.w3.org/1999/xlink">
<g id="graph0" class="graph" transform="scale(1 1) rotate(0) translate(4 35)">
<title>appPowerSupply_Suspend</title>
<!-- Node1 -->
<g id="node1" class="node">
<title>Node1</title>
<g id="a_node1"><a xlink:title="This function stops the power supply operation.">
<polygon fill="#bfbfbf" stroke="black" points="0,-6 0,-25 133,-25 133,-6 0,-6"/>
<text text-anchor="middle" x="66.5" y="-13" font-family="Helvetica,sans-Serif" font-size="10.00">appPowerSupply_Suspend</text>
</a>
</g>
</g>
<!-- Node2 -->
<g id="node2" class="node">
<title>Node2</title>
<g id="a_node2"><a xlink:href="a00509.html#ga0d68d132b52175c43503c9b5794bae64" target="_top" xlink:title="This function suspends the operation of the buck converter.">
<polygon fill="none" stroke="black" points="169,-0.5 169,-30.5 266,-30.5 266,-0.5 169,-0.5"/>
<text text-anchor="start" x="177" y="-18.5" font-family="Helvetica,sans-Serif" font-size="10.00">drv_BuckConverter</text>
<text text-anchor="middle" x="217.5" y="-7.5" font-family="Helvetica,sans-Serif" font-size="10.00">_Suspend</text>
</a>
</g>
</g>
<!-- Node1&#45;&gt;Node2 -->
<g id="edge1" class="edge">
<title>Node1&#45;&gt;Node2</title>
<path fill="none" stroke="midnightblue" d="M133.29,-15.5C141.82,-15.5 150.51,-15.5 158.9,-15.5"/>
<polygon fill="midnightblue" stroke="midnightblue" points="158.95,-19 168.95,-15.5 158.95,-12 158.95,-19"/>
</g>
<!-- Node3 -->
<g id="node3" class="node">
<title>Node3</title>
<g id="a_node3"><a xlink:href="a00509.html#gab9877f90ffb129964ae42ce2921b3fe1" target="_top" xlink:title="This function is the main buck converter state machine executing the most recent state.">
<polygon fill="none" stroke="black" points="302,-0.5 302,-30.5 399,-30.5 399,-0.5 302,-0.5"/>
<text text-anchor="start" x="310" y="-18.5" font-family="Helvetica,sans-Serif" font-size="10.00">drv_BuckConverter</text>
<text text-anchor="middle" x="350.5" y="-7.5" font-family="Helvetica,sans-Serif" font-size="10.00">_Execute</text>
</a>
</g>
</g>
<!-- Node2&#45;&gt;Node3 -->
<g id="edge2" class="edge">
<title>Node2&#45;&gt;Node3</title>
<path fill="none" stroke="midnightblue" d="M266.16,-15.5C274.38,-15.5 283.01,-15.5 291.46,-15.5"/>
<polygon fill="midnightblue" stroke="midnightblue" points="291.65,-19 301.65,-15.5 291.65,-12 291.65,-19"/>
</g>
<!-- Node4 -->
<g id="node4" class="node">
<title>Node4</title>
<g id="a_node4"><a xlink:href="a00532.html#ga8e2253c136f05033e774d09032b283a1" target="_top" xlink:title="This function gets the state of the selected pin.">
<polygon fill="none" stroke="black" points="435,-6 435,-25 555,-25 555,-6 435,-6"/>
<text text-anchor="middle" x="495" y="-13" font-family="Helvetica,sans-Serif" font-size="10.00">buckGPIO_GetPinState</text>
</a>
</g>
</g>
<!-- Node3&#45;&gt;Node4 -->
<g id="edge3" class="edge">
<title>Node3&#45;&gt;Node4</title>
<path fill="none" stroke="midnightblue" d="M399.35,-15.5C407.54,-15.5 416.2,-15.5 424.82,-15.5"/>
<polygon fill="midnightblue" stroke="midnightblue" points="424.89,-19 434.89,-15.5 424.89,-12 424.89,-19"/>
</g>
<!-- Node5 -->
<g id="node5" class="node">
<title>Node5</title>
<g id="a_node5"><a xlink:href="a00383.html#ga4d67af688d8f7f911d79107974e11e6b" target="_top" xlink:title="Gets pointer to GPIO Instance SFR set.">
<polygon fill="none" stroke="black" points="591,-0.5 591,-30.5 691,-30.5 691,-0.5 591,-0.5"/>
<text text-anchor="start" x="599" y="-18.5" font-family="Helvetica,sans-Serif" font-size="10.00">p33c_GpioInstance</text>
<text text-anchor="middle" x="641" y="-7.5" font-family="Helvetica,sans-Serif" font-size="10.00">_GetHandle</text>
</a>
</g>
</g>
<!-- Node4&#45;&gt;Node5 -->
<g id="edge4" class="edge">
<title>Node4&#45;&gt;Node5</title>
<path fill="none" stroke="midnightblue" d="M555.4,-15.5C563.77,-15.5 572.38,-15.5 580.75,-15.5"/>
<polygon fill="midnightblue" stroke="midnightblue" points="580.81,-19 590.81,-15.5 580.81,-12 580.81,-19"/>
</g>
</g>
</svg>
