<?xml version="1.0" encoding="UTF-8" standalone="no"?>
<!DOCTYPE svg PUBLIC "-//W3C//DTD SVG 1.1//EN"
 "http://www.w3.org/Graphics/SVG/1.1/DTD/svg11.dtd">
<!-- Generated by graphviz version 2.44.1 (20200629.0846)
 -->
<!-- Title: State_Reset Pages: 1 -->
<svg width="500pt" height="83pt"
 viewBox="0.00 0.00 500.00 83.00" xmlns="http://www.w3.org/2000/svg" xmlns:xlink="http://www.w3.org/1999/xlink">
<g id="graph0" class="graph" transform="scale(1 1) rotate(0) translate(4 79)">
<title>State_Reset</title>
<!-- Node1 -->
<g id="node1" class="node">
<title>Node1</title>
<g id="a_node1"><a xlink:title="This function resets the buck control operation by re&#45;initiating the control mode,...">
<polygon fill="#bfbfbf" stroke="black" points="0,-28 0,-47 71,-47 71,-28 0,-28"/>
<text text-anchor="middle" x="35.5" y="-35" font-family="Helvetica,sans-Serif" font-size="10.00">State_Reset</text>
</a>
</g>
</g>
<!-- Node2 -->
<g id="node2" class="node">
<title>Node2</title>
<g id="a_node2"><a xlink:href="a00532.html#gae63dbb1465ca458b8b7f6733a30f7d0b" target="_top" xlink:title="This function disables the PWM generator IOs.">
<polygon fill="none" stroke="black" points="107,-28 107,-47 213,-47 213,-28 107,-28"/>
<text text-anchor="middle" x="160" y="-35" font-family="Helvetica,sans-Serif" font-size="10.00">buckPWM_Suspend</text>
</a>
</g>
</g>
<!-- Node1&#45;&gt;Node2 -->
<g id="edge1" class="edge">
<title>Node1&#45;&gt;Node2</title>
<path fill="none" stroke="midnightblue" d="M71.28,-37.5C79.21,-37.5 87.87,-37.5 96.57,-37.5"/>
<polygon fill="midnightblue" stroke="midnightblue" points="96.75,-41 106.75,-37.5 96.75,-34 96.75,-41"/>
</g>
<!-- Node3 -->
<g id="node3" class="node">
<title>Node3</title>
<g id="a_node3"><a xlink:href="a00532.html#ga7f1d554e08d756b8677b572216908a3a" target="_top" xlink:title="This function clears the selected general purpose input/output pin.">
<polygon fill="none" stroke="black" points="258,-50 258,-69 347,-69 347,-50 258,-50"/>
<text text-anchor="middle" x="302.5" y="-57" font-family="Helvetica,sans-Serif" font-size="10.00">buckGPIO_Clear</text>
</a>
</g>
</g>
<!-- Node2&#45;&gt;Node3 -->
<g id="edge2" class="edge">
<title>Node2&#45;&gt;Node3</title>
<path fill="none" stroke="midnightblue" d="M213.32,-45.69C224.55,-47.45 236.43,-49.31 247.72,-51.08"/>
<polygon fill="midnightblue" stroke="midnightblue" points="247.45,-54.58 257.88,-52.67 248.54,-47.66 247.45,-54.58"/>
</g>
<!-- Node5 -->
<g id="node5" class="node">
<title>Node5</title>
<g id="a_node5"><a xlink:href="a00387.html#ga55e525c7ac54a365ab6dad558ec17f0b" target="_top" xlink:title="Returns the PWM generator index.">
<polygon fill="none" stroke="black" points="249,-0.5 249,-30.5 356,-30.5 356,-0.5 249,-0.5"/>
<text text-anchor="start" x="257" y="-18.5" font-family="Helvetica,sans-Serif" font-size="10.00">p33c_PwmGenerator</text>
<text text-anchor="middle" x="302.5" y="-7.5" font-family="Helvetica,sans-Serif" font-size="10.00">_GetHandle</text>
</a>
</g>
</g>
<!-- Node2&#45;&gt;Node5 -->
<g id="edge4" class="edge">
<title>Node2&#45;&gt;Node5</title>
<path fill="none" stroke="midnightblue" d="M213.32,-29.31C221.62,-28.01 230.27,-26.65 238.78,-25.32"/>
<polygon fill="midnightblue" stroke="midnightblue" points="239.33,-28.78 248.67,-23.77 238.25,-21.86 239.33,-28.78"/>
</g>
<!-- Node4 -->
<g id="node4" class="node">
<title>Node4</title>
<g id="a_node4"><a xlink:href="a00383.html#ga4d67af688d8f7f911d79107974e11e6b" target="_top" xlink:title="Gets pointer to GPIO Instance SFR set.">
<polygon fill="none" stroke="black" points="392,-44.5 392,-74.5 492,-74.5 492,-44.5 392,-44.5"/>
<text text-anchor="start" x="400" y="-62.5" font-family="Helvetica,sans-Serif" font-size="10.00">p33c_GpioInstance</text>
<text text-anchor="middle" x="442" y="-51.5" font-family="Helvetica,sans-Serif" font-size="10.00">_GetHandle</text>
</a>
</g>
</g>
<!-- Node3&#45;&gt;Node4 -->
<g id="edge3" class="edge">
<title>Node3&#45;&gt;Node4</title>
<path fill="none" stroke="midnightblue" d="M347.01,-59.5C357.96,-59.5 369.91,-59.5 381.49,-59.5"/>
<polygon fill="midnightblue" stroke="midnightblue" points="381.55,-63 391.55,-59.5 381.55,-56 381.55,-63"/>
</g>
</g>
</svg>
