<?xml version="1.0" encoding="UTF-8" standalone="no"?>
<!DOCTYPE svg PUBLIC "-//W3C//DTD SVG 1.1//EN"
 "http://www.w3.org/Graphics/SVG/1.1/DTD/svg11.dtd">
<!-- Generated by graphviz version 2.44.1 (20200629.0846)
 -->
<!-- Title: buckPWM_Suspend Pages: 1 -->
<svg width="393pt" height="83pt"
 viewBox="0.00 0.00 393.00 83.00" xmlns="http://www.w3.org/2000/svg" xmlns:xlink="http://www.w3.org/1999/xlink">
<g id="graph0" class="graph" transform="scale(1 1) rotate(0) translate(4 79)">
<title>buckPWM_Suspend</title>
<!-- Node1 -->
<g id="node1" class="node">
<title>Node1</title>
<g id="a_node1"><a xlink:title="This function disables the PWM generator IOs.">
<polygon fill="#bfbfbf" stroke="black" points="0,-28 0,-47 106,-47 106,-28 0,-28"/>
<text text-anchor="middle" x="53" y="-35" font-family="Helvetica,sans-Serif" font-size="10.00">buckPWM_Suspend</text>
</a>
</g>
</g>
<!-- Node2 -->
<g id="node2" class="node">
<title>Node2</title>
<g id="a_node2"><a xlink:href="a00532.html#ga7f1d554e08d756b8677b572216908a3a" target="_top" xlink:title="This function clears the selected general purpose input/output pin.">
<polygon fill="none" stroke="black" points="151,-50 151,-69 240,-69 240,-50 151,-50"/>
<text text-anchor="middle" x="195.5" y="-57" font-family="Helvetica,sans-Serif" font-size="10.00">buckGPIO_Clear</text>
</a>
</g>
</g>
<!-- Node1&#45;&gt;Node2 -->
<g id="edge1" class="edge">
<title>Node1&#45;&gt;Node2</title>
<path fill="none" stroke="midnightblue" d="M106.32,-45.69C117.55,-47.45 129.43,-49.31 140.72,-51.08"/>
<polygon fill="midnightblue" stroke="midnightblue" points="140.45,-54.58 150.88,-52.67 141.54,-47.66 140.45,-54.58"/>
</g>
<!-- Node4 -->
<g id="node4" class="node">
<title>Node4</title>
<g id="a_node4"><a xlink:href="a00387.html#ga55e525c7ac54a365ab6dad558ec17f0b" target="_top" xlink:title="Returns the PWM generator index.">
<polygon fill="none" stroke="black" points="142,-0.5 142,-30.5 249,-30.5 249,-0.5 142,-0.5"/>
<text text-anchor="start" x="150" y="-18.5" font-family="Helvetica,sans-Serif" font-size="10.00">p33c_PwmGenerator</text>
<text text-anchor="middle" x="195.5" y="-7.5" font-family="Helvetica,sans-Serif" font-size="10.00">_GetHandle</text>
</a>
</g>
</g>
<!-- Node1&#45;&gt;Node4 -->
<g id="edge3" class="edge">
<title>Node1&#45;&gt;Node4</title>
<path fill="none" stroke="midnightblue" d="M106.32,-29.31C114.62,-28.01 123.27,-26.65 131.78,-25.32"/>
<polygon fill="midnightblue" stroke="midnightblue" points="132.33,-28.78 141.67,-23.77 131.25,-21.86 132.33,-28.78"/>
</g>
<!-- Node3 -->
<g id="node3" class="node">
<title>Node3</title>
<g id="a_node3"><a xlink:href="a00383.html#ga4d67af688d8f7f911d79107974e11e6b" target="_top" xlink:title="Gets pointer to GPIO Instance SFR set.">
<polygon fill="none" stroke="black" points="285,-44.5 285,-74.5 385,-74.5 385,-44.5 285,-44.5"/>
<text text-anchor="start" x="293" y="-62.5" font-family="Helvetica,sans-Serif" font-size="10.00">p33c_GpioInstance</text>
<text text-anchor="middle" x="335" y="-51.5" font-family="Helvetica,sans-Serif" font-size="10.00">_GetHandle</text>
</a>
</g>
</g>
<!-- Node2&#45;&gt;Node3 -->
<g id="edge2" class="edge">
<title>Node2&#45;&gt;Node3</title>
<path fill="none" stroke="midnightblue" d="M240.01,-59.5C250.96,-59.5 262.91,-59.5 274.49,-59.5"/>
<polygon fill="midnightblue" stroke="midnightblue" points="274.55,-63 284.55,-59.5 274.55,-56 274.55,-63"/>
</g>
</g>
</svg>
