<?xml version="1.0" encoding="UTF-8" standalone="no"?>
<!DOCTYPE svg PUBLIC "-//W3C//DTD SVG 1.1//EN"
 "http://www.w3.org/Graphics/SVG/1.1/DTD/svg11.dtd">
<!-- Generated by graphviz version 2.44.1 (20200629.0846)
 -->
<!-- Title: buckPWM_ChannelInitialize Pages: 1 -->
<svg width="500pt" height="263pt"
 viewBox="0.00 0.00 500.00 263.00" xmlns="http://www.w3.org/2000/svg" xmlns:xlink="http://www.w3.org/1999/xlink">
<g id="graph0" class="graph" transform="scale(1 1) rotate(0) translate(4 259)">
<title>buckPWM_ChannelInitialize</title>
<!-- Node1 -->
<g id="node1" class="node">
<title>Node1</title>
<g id="a_node1"><a xlink:title="This function initializes the output pins for the PWM output and the default buck PWM settings.">
<polygon fill="#bfbfbf" stroke="black" points="0,-104 0,-123 138,-123 138,-104 0,-104"/>
<text text-anchor="middle" x="69" y="-111" font-family="Helvetica,sans-Serif" font-size="10.00">buckPWM_ChannelInitialize</text>
</a>
</g>
</g>
<!-- Node2 -->
<g id="node2" class="node">
<title>Node2</title>
<g id="a_node2"><a xlink:href="a00532.html#ga91be1e9c6cefeb362af454e71869d042" target="_top" xlink:title="This function initializes the Digital&#45;To&#45;Analog converter, slope compensation and analog comparator u...">
<polygon fill="none" stroke="black" points="174,-186 174,-205 308,-205 308,-186 174,-186"/>
<text text-anchor="middle" x="241" y="-193" font-family="Helvetica,sans-Serif" font-size="10.00">buckDAC_ChannelInitialize</text>
</a>
</g>
</g>
<!-- Node1&#45;&gt;Node2 -->
<g id="edge1" class="edge">
<title>Node1&#45;&gt;Node2</title>
<path fill="none" stroke="midnightblue" d="M83.17,-123.06C102.33,-136.59 139.38,-161.35 174,-176.5 179.32,-178.83 185,-180.96 190.72,-182.88"/>
<polygon fill="midnightblue" stroke="midnightblue" points="189.72,-186.23 200.31,-185.92 191.83,-179.56 189.72,-186.23"/>
</g>
<!-- Node5 -->
<g id="node5" class="node">
<title>Node5</title>
<g id="a_node5"><a xlink:href="a00532.html#gaaabec2f1ada3085513665d34125a7291" target="_top" xlink:title="This function initializes the Digital&#45;To&#45;Analog converter peripheral module.">
<polygon fill="none" stroke="black" points="176,-148 176,-167 306,-167 306,-148 176,-148"/>
<text text-anchor="middle" x="241" y="-155" font-family="Helvetica,sans-Serif" font-size="10.00">buckDAC_ModuleInitialize</text>
</a>
</g>
</g>
<!-- Node1&#45;&gt;Node5 -->
<g id="edge4" class="edge">
<title>Node1&#45;&gt;Node5</title>
<path fill="none" stroke="midnightblue" d="M106.89,-123.05C132.28,-129.62 166.22,-138.4 193.48,-145.46"/>
<polygon fill="midnightblue" stroke="midnightblue" points="192.63,-148.85 203.18,-147.97 194.38,-142.08 192.63,-148.85"/>
</g>
<!-- Node8 -->
<g id="node8" class="node">
<title>Node8</title>
<g id="a_node8"><a xlink:href="a00383.html#ga4d67af688d8f7f911d79107974e11e6b" target="_top" xlink:title="Gets pointer to GPIO Instance SFR set.">
<polygon fill="none" stroke="black" points="191,-98.5 191,-128.5 291,-128.5 291,-98.5 191,-98.5"/>
<text text-anchor="start" x="199" y="-116.5" font-family="Helvetica,sans-Serif" font-size="10.00">p33c_GpioInstance</text>
<text text-anchor="middle" x="241" y="-105.5" font-family="Helvetica,sans-Serif" font-size="10.00">_GetHandle</text>
</a>
</g>
</g>
<!-- Node1&#45;&gt;Node8 -->
<g id="edge7" class="edge">
<title>Node1&#45;&gt;Node8</title>
<path fill="none" stroke="midnightblue" d="M138.17,-113.5C152.23,-113.5 166.93,-113.5 180.64,-113.5"/>
<polygon fill="midnightblue" stroke="midnightblue" points="180.91,-117 190.91,-113.5 180.91,-110 180.91,-117"/>
</g>
<!-- Node9 -->
<g id="node9" class="node">
<title>Node9</title>
<g id="a_node9"><a xlink:href="a00387.html#gab66f225bac6b132d1418a4c808e3babb" target="_top" xlink:title="Disposes a given PWM generator by resetting all its registers to default.">
<polygon fill="none" stroke="black" points="187.5,-49.5 187.5,-79.5 294.5,-79.5 294.5,-49.5 187.5,-49.5"/>
<text text-anchor="start" x="195.5" y="-67.5" font-family="Helvetica,sans-Serif" font-size="10.00">p33c_PwmGenerator</text>
<text text-anchor="middle" x="241" y="-56.5" font-family="Helvetica,sans-Serif" font-size="10.00">_ConfigWrite</text>
</a>
</g>
</g>
<!-- Node1&#45;&gt;Node9 -->
<g id="edge8" class="edge">
<title>Node1&#45;&gt;Node9</title>
<path fill="none" stroke="midnightblue" d="M103.18,-103.94C124.42,-97.81 152.64,-89.68 177.94,-82.39"/>
<polygon fill="midnightblue" stroke="midnightblue" points="179.19,-85.67 187.83,-79.54 177.25,-78.94 179.19,-85.67"/>
</g>
<!-- Node10 -->
<g id="node10" class="node">
<title>Node10</title>
<g id="a_node10"><a xlink:href="a00387.html#ga55e525c7ac54a365ab6dad558ec17f0b" target="_top" xlink:title="Returns the PWM generator index.">
<polygon fill="none" stroke="black" points="187.5,-0.5 187.5,-30.5 294.5,-30.5 294.5,-0.5 187.5,-0.5"/>
<text text-anchor="start" x="195.5" y="-18.5" font-family="Helvetica,sans-Serif" font-size="10.00">p33c_PwmGenerator</text>
<text text-anchor="middle" x="241" y="-7.5" font-family="Helvetica,sans-Serif" font-size="10.00">_GetHandle</text>
</a>
</g>
</g>
<!-- Node1&#45;&gt;Node10 -->
<g id="edge9" class="edge">
<title>Node1&#45;&gt;Node10</title>
<path fill="none" stroke="midnightblue" d="M81.19,-103.98C99.56,-88.72 137.71,-58.56 174,-39.5 177.27,-37.78 180.69,-36.14 184.18,-34.57"/>
<polygon fill="midnightblue" stroke="midnightblue" points="185.68,-37.73 193.51,-30.6 182.94,-31.29 185.68,-37.73"/>
</g>
<!-- Node3 -->
<g id="node3" class="node">
<title>Node3</title>
<g id="a_node3"><a xlink:href="a00381.html#gac471660aeec8e8329369435914c5befa" target="_top" xlink:title="Writes a user&#45;defined configuration to the DAC instance registers.">
<polygon fill="none" stroke="black" points="353.5,-224.5 353.5,-254.5 482.5,-254.5 482.5,-224.5 353.5,-224.5"/>
<text text-anchor="start" x="361.5" y="-242.5" font-family="Helvetica,sans-Serif" font-size="10.00">p33c_DacInstance_Config</text>
<text text-anchor="middle" x="418" y="-231.5" font-family="Helvetica,sans-Serif" font-size="10.00">Write</text>
</a>
</g>
</g>
<!-- Node2&#45;&gt;Node3 -->
<g id="edge2" class="edge">
<title>Node2&#45;&gt;Node3</title>
<path fill="none" stroke="midnightblue" d="M279.97,-205.05C299.68,-210 324.37,-216.21 347.36,-221.99"/>
<polygon fill="midnightblue" stroke="midnightblue" points="346.53,-225.39 357.08,-224.43 348.24,-218.6 346.53,-225.39"/>
</g>
<!-- Node4 -->
<g id="node4" class="node">
<title>Node4</title>
<g id="a_node4"><a xlink:href="a00381.html#gac98f16c744b3712654c1bbb58acb4e33" target="_top" xlink:title="Gets pointer to DAC Instance SFR set.">
<polygon fill="none" stroke="black" points="344,-186 344,-205 492,-205 492,-186 344,-186"/>
<text text-anchor="middle" x="418" y="-193" font-family="Helvetica,sans-Serif" font-size="10.00">p33c_DacInstance_GetHandle</text>
</a>
</g>
</g>
<!-- Node2&#45;&gt;Node4 -->
<g id="edge3" class="edge">
<title>Node2&#45;&gt;Node4</title>
<path fill="none" stroke="midnightblue" d="M308.16,-195.5C316.51,-195.5 325.13,-195.5 333.7,-195.5"/>
<polygon fill="midnightblue" stroke="midnightblue" points="333.72,-199 343.72,-195.5 333.72,-192 333.72,-199"/>
</g>
<!-- Node6 -->
<g id="node6" class="node">
<title>Node6</title>
<g id="a_node6"><a xlink:href="a00381.html#gaddf7b491a947c7f557b89235588c0219" target="_top" xlink:title="Writes a user&#45;defined configuration to the DAC module base registers.">
<polygon fill="none" stroke="black" points="344.5,-148 344.5,-167 491.5,-167 491.5,-148 344.5,-148"/>
<text text-anchor="middle" x="418" y="-155" font-family="Helvetica,sans-Serif" font-size="10.00">p33c_DacModule_ConfigWrite</text>
</a>
</g>
</g>
<!-- Node5&#45;&gt;Node6 -->
<g id="edge5" class="edge">
<title>Node5&#45;&gt;Node6</title>
<path fill="none" stroke="midnightblue" d="M306.17,-157.5C315.27,-157.5 324.73,-157.5 334.12,-157.5"/>
<polygon fill="midnightblue" stroke="midnightblue" points="334.26,-161 344.26,-157.5 334.26,-154 334.26,-161"/>
</g>
<!-- Node7 -->
<g id="node7" class="node">
<title>Node7</title>
<g id="a_node7"><a xlink:href="a00381.html#ga72e7cdf4177d0403e8ff925314ec1bc7" target="_top" xlink:title="Gets pointer to DAC Module SFR set.">
<polygon fill="none" stroke="black" points="346.5,-110 346.5,-129 489.5,-129 489.5,-110 346.5,-110"/>
<text text-anchor="middle" x="418" y="-117" font-family="Helvetica,sans-Serif" font-size="10.00">p33c_DacModule_GetHandle</text>
</a>
</g>
</g>
<!-- Node5&#45;&gt;Node7 -->
<g id="edge6" class="edge">
<title>Node5&#45;&gt;Node7</title>
<path fill="none" stroke="midnightblue" d="M286.16,-147.91C309.57,-142.83 338.51,-136.54 363.21,-131.18"/>
<polygon fill="midnightblue" stroke="midnightblue" points="364.13,-134.56 373.16,-129.02 362.64,-127.72 364.13,-134.56"/>
</g>
</g>
</svg>
