<?xml version="1.0" encoding="UTF-8" standalone="no"?>
<!DOCTYPE svg PUBLIC "-//W3C//DTD SVG 1.1//EN"
 "http://www.w3.org/Graphics/SVG/1.1/DTD/svg11.dtd">
<!-- Generated by graphviz version 2.44.1 (20200629.0846)
 -->
<!-- Title: appPowerSupply_Initialize Pages: 1 -->
<svg width="996pt" height="393pt"
 viewBox="0.00 0.00 996.00 393.00" xmlns="http://www.w3.org/2000/svg" xmlns:xlink="http://www.w3.org/1999/xlink">
<g id="graph0" class="graph" transform="scale(1 1) rotate(0) translate(4 389)">
<title>appPowerSupply_Initialize</title>
<!-- Node1 -->
<g id="node1" class="node">
<title>Node1</title>
<g id="a_node1"><a xlink:title="Calls the application layer power controller initialization.">
<polygon fill="#bfbfbf" stroke="black" points="0,-199.5 0,-218.5 130,-218.5 130,-199.5 0,-199.5"/>
<text text-anchor="middle" x="65" y="-206.5" font-family="Helvetica,sans-Serif" font-size="10.00">appPowerSupply_Initialize</text>
</a>
</g>
</g>
<!-- Node2 -->
<g id="node2" class="node">
<title>Node2</title>
<g id="a_node2"><a xlink:href="a00505.html#ga0b4cabdb02c8c9ea94ea1dfa39de3764" target="_top" xlink:title="This function initializes the control system feedback loop objects.">
<polygon fill="none" stroke="black" points="169.5,-284 169.5,-314 305.5,-314 305.5,-284 169.5,-284"/>
<text text-anchor="start" x="177.5" y="-302" font-family="Helvetica,sans-Serif" font-size="10.00">appPowerSupply_Controller</text>
<text text-anchor="middle" x="237.5" y="-291" font-family="Helvetica,sans-Serif" font-size="10.00">Initialize</text>
</a>
</g>
</g>
<!-- Node1&#45;&gt;Node2 -->
<g id="edge1" class="edge">
<title>Node1&#45;&gt;Node2</title>
<path fill="none" stroke="midnightblue" d="M84.25,-218.63C111.45,-232.99 163.26,-260.34 198.82,-279.11"/>
<polygon fill="midnightblue" stroke="midnightblue" points="197.45,-282.35 207.93,-283.92 200.72,-276.16 197.45,-282.35"/>
</g>
<!-- Node7 -->
<g id="node7" class="node">
<title>Node7</title>
<g id="a_node7"><a xlink:href="a00505.html#gad0f6ff4894bf23722884c60bbcdcacd0" target="_top" xlink:title="This function initializes the buck converter device driver instance.">
<polygon fill="none" stroke="black" points="170,-219 170,-249 305,-249 305,-219 170,-219"/>
<text text-anchor="start" x="178" y="-237" font-family="Helvetica,sans-Serif" font-size="10.00">appPowerSupply_Converter</text>
<text text-anchor="middle" x="237.5" y="-226" font-family="Helvetica,sans-Serif" font-size="10.00">ObjectInitialize</text>
</a>
</g>
</g>
<!-- Node1&#45;&gt;Node7 -->
<g id="edge7" class="edge">
<title>Node1&#45;&gt;Node7</title>
<path fill="none" stroke="midnightblue" d="M130.46,-218.45C140.05,-219.86 150.01,-221.32 159.82,-222.76"/>
<polygon fill="midnightblue" stroke="midnightblue" points="159.56,-226.26 169.96,-224.24 160.58,-219.33 159.56,-226.26"/>
</g>
<!-- Node8 -->
<g id="node8" class="node">
<title>Node8</title>
<g id="a_node8"><a xlink:href="a00505.html#ga0b26acfec74d1804384b4ba1a3cffab4" target="_top" xlink:title="This function is used to load peripheral configuration templates from the power controller device dri...">
<polygon fill="none" stroke="black" points="166,-170 166,-200 309,-200 309,-170 166,-170"/>
<text text-anchor="start" x="174" y="-188" font-family="Helvetica,sans-Serif" font-size="10.00">appPowerSupply_Peripherals</text>
<text text-anchor="middle" x="237.5" y="-177" font-family="Helvetica,sans-Serif" font-size="10.00">Initialize</text>
</a>
</g>
</g>
<!-- Node1&#45;&gt;Node8 -->
<g id="edge8" class="edge">
<title>Node1&#45;&gt;Node8</title>
<path fill="none" stroke="midnightblue" d="M130.46,-199.93C138.8,-198.75 147.42,-197.54 155.97,-196.34"/>
<polygon fill="midnightblue" stroke="midnightblue" points="156.55,-199.79 165.96,-194.93 155.57,-192.86 156.55,-199.79"/>
</g>
<!-- Node28 -->
<g id="node28" class="node">
<title>Node28</title>
<g id="a_node28"><a xlink:href="a00509.html#ga86289c82938655142075e84ac90aa603" target="_top" xlink:title="This function starts the buck converter.">
<polygon fill="none" stroke="black" points="189,-107 189,-137 286,-137 286,-107 189,-107"/>
<text text-anchor="start" x="197" y="-125" font-family="Helvetica,sans-Serif" font-size="10.00">drv_BuckConverter</text>
<text text-anchor="middle" x="237.5" y="-114" font-family="Helvetica,sans-Serif" font-size="10.00">_Start</text>
</a>
</g>
</g>
<!-- Node1&#45;&gt;Node28 -->
<g id="edge30" class="edge">
<title>Node1&#45;&gt;Node28</title>
<path fill="none" stroke="midnightblue" d="M84.9,-199.36C112.04,-185.51 162.66,-159.68 197.91,-141.69"/>
<polygon fill="midnightblue" stroke="midnightblue" points="199.64,-144.74 206.96,-137.07 196.46,-138.5 199.64,-144.74"/>
</g>
<!-- Node3 -->
<g id="node3" class="node">
<title>Node3</title>
<g id="a_node3"><a xlink:href="a00544.html#ga62d45a18f3dd47fa691fbb463f90e051" target="_top" xlink:title="Initializes controller coefficient arrays and normalization factors.">
<polygon fill="none" stroke="black" points="351.5,-251.5 351.5,-270.5 435.5,-270.5 435.5,-251.5 351.5,-251.5"/>
<text text-anchor="middle" x="393.5" y="-258.5" font-family="Helvetica,sans-Serif" font-size="10.00">v_loop_Initialize</text>
</a>
</g>
</g>
<!-- Node2&#45;&gt;Node3 -->
<g id="edge2" class="edge">
<title>Node2&#45;&gt;Node3</title>
<path fill="none" stroke="midnightblue" d="M299.36,-283.98C314.11,-280.34 329.69,-276.5 343.79,-273.02"/>
<polygon fill="midnightblue" stroke="midnightblue" points="344.9,-276.35 353.77,-270.56 343.22,-269.55 344.9,-276.35"/>
</g>
<!-- Node4 -->
<g id="node4" class="node">
<title>Node4</title>
<g id="a_node4"><a xlink:href="a00544.html#gabb35e824b8586b680f54d59975ada3c7" target="_top" xlink:title="Prototype of the Assembly routine &#39;_v_loop_Reset&#39; clearing the NPNZ16b controller output and error hi...">
<polygon fill="none" stroke="black" points="510,-289.5 510,-308.5 584,-308.5 584,-289.5 510,-289.5"/>
<text text-anchor="middle" x="547" y="-296.5" font-family="Helvetica,sans-Serif" font-size="10.00">v_loop_Reset</text>
</a>
</g>
</g>
<!-- Node2&#45;&gt;Node4 -->
<g id="edge5" class="edge">
<title>Node2&#45;&gt;Node4</title>
<path fill="none" stroke="midnightblue" d="M305.6,-299C364.29,-299 447.99,-299 499.56,-299"/>
<polygon fill="midnightblue" stroke="midnightblue" points="499.75,-302.5 509.75,-299 499.75,-295.5 499.75,-302.5"/>
</g>
<!-- Node5 -->
<g id="node5" class="node">
<title>Node5</title>
<g id="a_node5"><a xlink:href="a00544.html#ga3cdf7d86ab440015768706f04bd588e9" target="_top" xlink:title="Prototype of the Assembly routine &#39;_v_loop_Precharge&#39; loading user&#45;defined values into the NPNZ16b co...">
<polygon fill="none" stroke="black" points="347,-365.5 347,-384.5 440,-384.5 440,-365.5 347,-365.5"/>
<text text-anchor="middle" x="393.5" y="-372.5" font-family="Helvetica,sans-Serif" font-size="10.00">v_loop_Precharge</text>
</a>
</g>
</g>
<!-- Node2&#45;&gt;Node5 -->
<g id="edge4" class="edge">
<title>Node2&#45;&gt;Node5</title>
<path fill="none" stroke="midnightblue" d="M264.78,-314.12C286.09,-326.12 317.06,-342.98 345,-356 349.1,-357.91 353.44,-359.81 357.77,-361.63"/>
<polygon fill="midnightblue" stroke="midnightblue" points="356.55,-364.91 367.13,-365.46 359.2,-358.43 356.55,-364.91"/>
</g>
<!-- Node6 -->
<g id="node6" class="node">
<title>Node6</title>
<g id="a_node6"><a xlink:href="a00544.html#gab8180f1cb973d694be5caffaec3ce940" target="_top" xlink:title="Prototype of the Assembly feedback control loop routine helping to call the v_loop controller from C&#45;...">
<polygon fill="none" stroke="black" points="353.5,-327.5 353.5,-346.5 433.5,-346.5 433.5,-327.5 353.5,-327.5"/>
<text text-anchor="middle" x="393.5" y="-334.5" font-family="Helvetica,sans-Serif" font-size="10.00">v_loop_Update</text>
</a>
</g>
</g>
<!-- Node2&#45;&gt;Node6 -->
<g id="edge6" class="edge">
<title>Node2&#45;&gt;Node6</title>
<path fill="none" stroke="midnightblue" d="M299.36,-314.02C314.11,-317.66 329.69,-321.5 343.79,-324.98"/>
<polygon fill="midnightblue" stroke="midnightblue" points="343.22,-328.45 353.77,-327.44 344.9,-321.65 343.22,-328.45"/>
</g>
<!-- Node3&#45;&gt;Node4 -->
<g id="edge3" class="edge">
<title>Node3&#45;&gt;Node4</title>
<path fill="none" stroke="midnightblue" d="M432.73,-270.59C453.16,-275.71 478.47,-282.06 499.97,-287.45"/>
<polygon fill="midnightblue" stroke="midnightblue" points="499.32,-290.9 509.87,-289.94 501.02,-284.11 499.32,-290.9"/>
</g>
<!-- Node9 -->
<g id="node9" class="node">
<title>Node9</title>
<g id="a_node9"><a xlink:href="a00509.html#gaf3c64772d6dfd473d6924fb8893bd180" target="_top" xlink:title="This function initializes all peripheral modules and their instances used by the power controller.">
<polygon fill="none" stroke="black" points="345,-170 345,-200 442,-200 442,-170 345,-170"/>
<text text-anchor="start" x="353" y="-188" font-family="Helvetica,sans-Serif" font-size="10.00">drv_BuckConverter</text>
<text text-anchor="middle" x="393.5" y="-177" font-family="Helvetica,sans-Serif" font-size="10.00">_Initialize</text>
</a>
</g>
</g>
<!-- Node8&#45;&gt;Node9 -->
<g id="edge9" class="edge">
<title>Node8&#45;&gt;Node9</title>
<path fill="none" stroke="midnightblue" d="M309.19,-185C317.64,-185 326.19,-185 334.44,-185"/>
<polygon fill="midnightblue" stroke="midnightblue" points="334.68,-188.5 344.68,-185 334.68,-181.5 334.68,-188.5"/>
</g>
<!-- Node10 -->
<g id="node10" class="node">
<title>Node10</title>
<g id="a_node10"><a xlink:href="a00532.html#gac2bfd6c3ccd9ec11b8e91322ea9354d2" target="_top" xlink:title="This function initializes the settings for the ADC channel.">
<polygon fill="none" stroke="black" points="480,-137.5 480,-156.5 614,-156.5 614,-137.5 480,-137.5"/>
<text text-anchor="middle" x="547" y="-144.5" font-family="Helvetica,sans-Serif" font-size="10.00">buckADC_ChannelInitialize</text>
</a>
</g>
</g>
<!-- Node9&#45;&gt;Node10 -->
<g id="edge10" class="edge">
<title>Node9&#45;&gt;Node10</title>
<path fill="none" stroke="midnightblue" d="M442.02,-173.08C459.72,-168.64 479.82,-163.6 497.6,-159.14"/>
<polygon fill="midnightblue" stroke="midnightblue" points="498.91,-162.42 507.76,-156.59 497.21,-155.63 498.91,-162.42"/>
</g>
<!-- Node11 -->
<g id="node11" class="node">
<title>Node11</title>
<g id="a_node11"><a xlink:href="a00532.html#ga44f537d9ad5dcb0e744480802cfbf170" target="_top" xlink:title="This fucntion initializes the buck by resetting all its registers to default.">
<polygon fill="none" stroke="black" points="482,-251.5 482,-270.5 612,-270.5 612,-251.5 482,-251.5"/>
<text text-anchor="middle" x="547" y="-258.5" font-family="Helvetica,sans-Serif" font-size="10.00">buckADC_ModuleInitialize</text>
</a>
</g>
</g>
<!-- Node9&#45;&gt;Node11 -->
<g id="edge11" class="edge">
<title>Node9&#45;&gt;Node11</title>
<path fill="none" stroke="midnightblue" d="M412.67,-200C428.91,-212.76 453.81,-230.74 478,-242 483,-244.33 488.34,-246.42 493.76,-248.3"/>
<polygon fill="midnightblue" stroke="midnightblue" points="492.92,-251.71 503.51,-251.44 495.06,-245.04 492.92,-251.71"/>
</g>
<!-- Node12 -->
<g id="node12" class="node">
<title>Node12</title>
<g id="a_node12"><a xlink:href="a00532.html#gac7e5924475733c189b2318844ae01844" target="_top" xlink:title="This function initializes the buck input pins.">
<polygon fill="none" stroke="black" points="496,-213.5 496,-232.5 598,-232.5 598,-213.5 496,-213.5"/>
<text text-anchor="middle" x="547" y="-220.5" font-family="Helvetica,sans-Serif" font-size="10.00">buckGPIO_Initialize</text>
</a>
</g>
</g>
<!-- Node9&#45;&gt;Node12 -->
<g id="edge12" class="edge">
<title>Node9&#45;&gt;Node12</title>
<path fill="none" stroke="midnightblue" d="M442.02,-196.92C459.72,-201.36 479.82,-206.4 497.6,-210.86"/>
<polygon fill="midnightblue" stroke="midnightblue" points="497.21,-214.37 507.76,-213.41 498.91,-207.58 497.21,-214.37"/>
</g>
<!-- Node16 -->
<g id="node16" class="node">
<title>Node16</title>
<g id="a_node16"><a xlink:href="a00532.html#ga45a54def97cc67eb8d36e22a3867d95f" target="_top" xlink:title="This function initializes the output pins for the PWM output and the default buck PWM settings.">
<polygon fill="none" stroke="black" points="478,-175.5 478,-194.5 616,-194.5 616,-175.5 478,-175.5"/>
<text text-anchor="middle" x="547" y="-182.5" font-family="Helvetica,sans-Serif" font-size="10.00">buckPWM_ChannelInitialize</text>
</a>
</g>
</g>
<!-- Node9&#45;&gt;Node16 -->
<g id="edge17" class="edge">
<title>Node9&#45;&gt;Node16</title>
<path fill="none" stroke="midnightblue" d="M442.02,-185C450.19,-185 458.87,-185 467.6,-185"/>
<polygon fill="midnightblue" stroke="midnightblue" points="467.84,-188.5 477.84,-185 467.84,-181.5 467.84,-188.5"/>
</g>
<!-- Node25 -->
<g id="node25" class="node">
<title>Node25</title>
<g id="a_node25"><a xlink:href="a00532.html#ga6d12fd9e2f1d4f01ec6db21454693863" target="_top" xlink:title="Initializes the buck PWM module by resetting its registers to default.">
<polygon fill="none" stroke="black" points="480,-38.5 480,-57.5 614,-57.5 614,-38.5 480,-38.5"/>
<text text-anchor="middle" x="547" y="-45.5" font-family="Helvetica,sans-Serif" font-size="10.00">buckPWM_ModuleInitialize</text>
</a>
</g>
</g>
<!-- Node9&#45;&gt;Node25 -->
<g id="edge27" class="edge">
<title>Node9&#45;&gt;Node25</title>
<path fill="none" stroke="midnightblue" d="M411.29,-169.82C440.02,-143.83 498.37,-91.07 527.94,-64.33"/>
<polygon fill="midnightblue" stroke="midnightblue" points="530.41,-66.82 535.47,-57.52 525.71,-61.63 530.41,-66.82"/>
</g>
<!-- Node13 -->
<g id="node13" class="node">
<title>Node13</title>
<g id="a_node13"><a xlink:href="a00532.html#ga7f1d554e08d756b8677b572216908a3a" target="_top" xlink:title="This function clears the selected general purpose input/output pin.">
<polygon fill="none" stroke="black" points="683.5,-289.5 683.5,-308.5 772.5,-308.5 772.5,-289.5 683.5,-289.5"/>
<text text-anchor="middle" x="728" y="-296.5" font-family="Helvetica,sans-Serif" font-size="10.00">buckGPIO_Clear</text>
</a>
</g>
</g>
<!-- Node12&#45;&gt;Node13 -->
<g id="edge13" class="edge">
<title>Node12&#45;&gt;Node13</title>
<path fill="none" stroke="midnightblue" d="M593.8,-232.6C601.46,-235.1 609.14,-238.19 616,-242 634.97,-252.54 633.23,-264.11 652,-275 659.65,-279.44 668.21,-283.16 676.75,-286.26"/>
<polygon fill="midnightblue" stroke="midnightblue" points="675.73,-289.61 686.33,-289.48 677.97,-282.97 675.73,-289.61"/>
</g>
<!-- Node15 -->
<g id="node15" class="node">
<title>Node15</title>
<g id="a_node15"><a xlink:href="a00532.html#ga3d3f91c0e40884874e7df3a67fff23f3" target="_top" xlink:title="This function sets the pin as input or output.">
<polygon fill="none" stroke="black" points="662.5,-327.5 662.5,-346.5 793.5,-346.5 793.5,-327.5 662.5,-327.5"/>
<text text-anchor="middle" x="728" y="-334.5" font-family="Helvetica,sans-Serif" font-size="10.00">buckGPIO_PrivateInitialize</text>
</a>
</g>
</g>
<!-- Node12&#45;&gt;Node15 -->
<g id="edge15" class="edge">
<title>Node12&#45;&gt;Node15</title>
<path fill="none" stroke="midnightblue" d="M598.05,-231.57C604.55,-234.18 610.75,-237.58 616,-242 644.58,-266.09 623.13,-294.26 652,-318 654.04,-319.68 656.21,-321.21 658.48,-322.61"/>
<polygon fill="midnightblue" stroke="midnightblue" points="657.16,-325.87 667.65,-327.38 660.39,-319.66 657.16,-325.87"/>
</g>
<!-- Node14 -->
<g id="node14" class="node">
<title>Node14</title>
<g id="a_node14"><a xlink:href="a00383.html#ga4d67af688d8f7f911d79107974e11e6b" target="_top" xlink:title="Gets pointer to GPIO Instance SFR set.">
<polygon fill="none" stroke="black" points="864,-296 864,-326 964,-326 964,-296 864,-296"/>
<text text-anchor="start" x="872" y="-314" font-family="Helvetica,sans-Serif" font-size="10.00">p33c_GpioInstance</text>
<text text-anchor="middle" x="914" y="-303" font-family="Helvetica,sans-Serif" font-size="10.00">_GetHandle</text>
</a>
</g>
</g>
<!-- Node13&#45;&gt;Node14 -->
<g id="edge14" class="edge">
<title>Node13&#45;&gt;Node14</title>
<path fill="none" stroke="midnightblue" d="M772.61,-301.84C796.81,-303.42 827.26,-305.41 853.62,-307.13"/>
<polygon fill="midnightblue" stroke="midnightblue" points="853.66,-310.64 863.87,-307.8 854.12,-303.65 853.66,-310.64"/>
</g>
<!-- Node15&#45;&gt;Node14 -->
<g id="edge16" class="edge">
<title>Node15&#45;&gt;Node14</title>
<path fill="none" stroke="midnightblue" d="M793.61,-327.87C813.19,-325.1 834.58,-322.08 853.78,-319.37"/>
<polygon fill="midnightblue" stroke="midnightblue" points="854.49,-322.8 863.9,-317.94 853.51,-315.87 854.49,-322.8"/>
</g>
<!-- Node16&#45;&gt;Node14 -->
<g id="edge24" class="edge">
<title>Node16&#45;&gt;Node14</title>
<path fill="none" stroke="midnightblue" d="M595.11,-194.56C602.38,-197.04 609.6,-200.14 616,-204 635.92,-216.01 631.91,-230.27 652,-242 712.13,-277.12 736.72,-262.03 804,-280 820.29,-284.35 837.89,-289.26 854.1,-293.88"/>
<polygon fill="midnightblue" stroke="midnightblue" points="853.41,-297.32 863.99,-296.7 855.33,-290.59 853.41,-297.32"/>
</g>
<!-- Node17 -->
<g id="node17" class="node">
<title>Node17</title>
<g id="a_node17"><a xlink:href="a00532.html#ga91be1e9c6cefeb362af454e71869d042" target="_top" xlink:title="This function initializes the Digital&#45;To&#45;Analog converter, slope compensation and analog comparator u...">
<polygon fill="none" stroke="black" points="661,-213.5 661,-232.5 795,-232.5 795,-213.5 661,-213.5"/>
<text text-anchor="middle" x="728" y="-220.5" font-family="Helvetica,sans-Serif" font-size="10.00">buckDAC_ChannelInitialize</text>
</a>
</g>
</g>
<!-- Node16&#45;&gt;Node17 -->
<g id="edge18" class="edge">
<title>Node16&#45;&gt;Node17</title>
<path fill="none" stroke="midnightblue" d="M593.17,-194.59C617.22,-199.69 646.97,-206.01 672.32,-211.39"/>
<polygon fill="midnightblue" stroke="midnightblue" points="671.65,-214.83 682.16,-213.48 673.1,-207.98 671.65,-214.83"/>
</g>
<!-- Node20 -->
<g id="node20" class="node">
<title>Node20</title>
<g id="a_node20"><a xlink:href="a00532.html#gaaabec2f1ada3085513665d34125a7291" target="_top" xlink:title="This function initializes the Digital&#45;To&#45;Analog converter peripheral module.">
<polygon fill="none" stroke="black" points="663,-175.5 663,-194.5 793,-194.5 793,-175.5 663,-175.5"/>
<text text-anchor="middle" x="728" y="-182.5" font-family="Helvetica,sans-Serif" font-size="10.00">buckDAC_ModuleInitialize</text>
</a>
</g>
</g>
<!-- Node16&#45;&gt;Node20 -->
<g id="edge21" class="edge">
<title>Node16&#45;&gt;Node20</title>
<path fill="none" stroke="midnightblue" d="M616.18,-185C628.15,-185 640.65,-185 652.77,-185"/>
<polygon fill="midnightblue" stroke="midnightblue" points="652.84,-188.5 662.84,-185 652.84,-181.5 652.84,-188.5"/>
</g>
<!-- Node23 -->
<g id="node23" class="node">
<title>Node23</title>
<g id="a_node23"><a xlink:href="a00387.html#gab66f225bac6b132d1418a4c808e3babb" target="_top" xlink:title="Disposes a given PWM generator by resetting all its registers to default.">
<polygon fill="none" stroke="black" points="674.5,-126 674.5,-156 781.5,-156 781.5,-126 674.5,-126"/>
<text text-anchor="start" x="682.5" y="-144" font-family="Helvetica,sans-Serif" font-size="10.00">p33c_PwmGenerator</text>
<text text-anchor="middle" x="728" y="-133" font-family="Helvetica,sans-Serif" font-size="10.00">_ConfigWrite</text>
</a>
</g>
</g>
<!-- Node16&#45;&gt;Node23 -->
<g id="edge25" class="edge">
<title>Node16&#45;&gt;Node23</title>
<path fill="none" stroke="midnightblue" d="M586.84,-175.45C609.54,-169.87 638.73,-162.7 664.59,-156.34"/>
<polygon fill="midnightblue" stroke="midnightblue" points="665.44,-159.74 674.31,-153.95 663.77,-152.94 665.44,-159.74"/>
</g>
<!-- Node24 -->
<g id="node24" class="node">
<title>Node24</title>
<g id="a_node24"><a xlink:href="a00387.html#ga55e525c7ac54a365ab6dad558ec17f0b" target="_top" xlink:title="Returns the PWM generator index.">
<polygon fill="none" stroke="black" points="674.5,-77 674.5,-107 781.5,-107 781.5,-77 674.5,-77"/>
<text text-anchor="start" x="682.5" y="-95" font-family="Helvetica,sans-Serif" font-size="10.00">p33c_PwmGenerator</text>
<text text-anchor="middle" x="728" y="-84" font-family="Helvetica,sans-Serif" font-size="10.00">_GetHandle</text>
</a>
</g>
</g>
<!-- Node16&#45;&gt;Node24 -->
<g id="edge26" class="edge">
<title>Node16&#45;&gt;Node24</title>
<path fill="none" stroke="midnightblue" d="M597.32,-175.48C603.92,-173.01 610.35,-169.9 616,-166 638.23,-150.63 630.16,-132.91 652,-117 655.95,-114.12 660.26,-111.56 664.74,-109.28"/>
<polygon fill="midnightblue" stroke="midnightblue" points="666.49,-112.33 674.13,-105 663.58,-105.96 666.49,-112.33"/>
</g>
<!-- Node18 -->
<g id="node18" class="node">
<title>Node18</title>
<g id="a_node18"><a xlink:href="a00381.html#gac471660aeec8e8329369435914c5befa" target="_top" xlink:title="Writes a user&#45;defined configuration to the DAC instance registers.">
<polygon fill="none" stroke="black" points="849.5,-208 849.5,-238 978.5,-238 978.5,-208 849.5,-208"/>
<text text-anchor="start" x="857.5" y="-226" font-family="Helvetica,sans-Serif" font-size="10.00">p33c_DacInstance_Config</text>
<text text-anchor="middle" x="914" y="-215" font-family="Helvetica,sans-Serif" font-size="10.00">Write</text>
</a>
</g>
</g>
<!-- Node17&#45;&gt;Node18 -->
<g id="edge19" class="edge">
<title>Node17&#45;&gt;Node18</title>
<path fill="none" stroke="midnightblue" d="M795.17,-223C809.35,-223 824.41,-223 838.87,-223"/>
<polygon fill="midnightblue" stroke="midnightblue" points="839.26,-226.5 849.26,-223 839.26,-219.5 839.26,-226.5"/>
</g>
<!-- Node19 -->
<g id="node19" class="node">
<title>Node19</title>
<g id="a_node19"><a xlink:href="a00381.html#gac98f16c744b3712654c1bbb58acb4e33" target="_top" xlink:title="Gets pointer to DAC Instance SFR set.">
<polygon fill="none" stroke="black" points="840,-257.5 840,-276.5 988,-276.5 988,-257.5 840,-257.5"/>
<text text-anchor="middle" x="914" y="-264.5" font-family="Helvetica,sans-Serif" font-size="10.00">p33c_DacInstance_GetHandle</text>
</a>
</g>
</g>
<!-- Node17&#45;&gt;Node19 -->
<g id="edge20" class="edge">
<title>Node17&#45;&gt;Node19</title>
<path fill="none" stroke="midnightblue" d="M768.93,-232.55C796.65,-239.18 833.79,-248.06 863.42,-255.14"/>
<polygon fill="midnightblue" stroke="midnightblue" points="862.61,-258.55 873.15,-257.47 864.24,-251.74 862.61,-258.55"/>
</g>
<!-- Node21 -->
<g id="node21" class="node">
<title>Node21</title>
<g id="a_node21"><a xlink:href="a00381.html#gaddf7b491a947c7f557b89235588c0219" target="_top" xlink:title="Writes a user&#45;defined configuration to the DAC module base registers.">
<polygon fill="none" stroke="black" points="840.5,-131.5 840.5,-150.5 987.5,-150.5 987.5,-131.5 840.5,-131.5"/>
<text text-anchor="middle" x="914" y="-138.5" font-family="Helvetica,sans-Serif" font-size="10.00">p33c_DacModule_ConfigWrite</text>
</a>
</g>
</g>
<!-- Node20&#45;&gt;Node21 -->
<g id="edge22" class="edge">
<title>Node20&#45;&gt;Node21</title>
<path fill="none" stroke="midnightblue" d="M768.93,-175.45C796.65,-168.82 833.79,-159.94 863.42,-152.86"/>
<polygon fill="midnightblue" stroke="midnightblue" points="864.24,-156.26 873.15,-150.53 862.61,-149.45 864.24,-156.26"/>
</g>
<!-- Node22 -->
<g id="node22" class="node">
<title>Node22</title>
<g id="a_node22"><a xlink:href="a00381.html#ga72e7cdf4177d0403e8ff925314ec1bc7" target="_top" xlink:title="Gets pointer to DAC Module SFR set.">
<polygon fill="none" stroke="black" points="842.5,-169.5 842.5,-188.5 985.5,-188.5 985.5,-169.5 842.5,-169.5"/>
<text text-anchor="middle" x="914" y="-176.5" font-family="Helvetica,sans-Serif" font-size="10.00">p33c_DacModule_GetHandle</text>
</a>
</g>
</g>
<!-- Node20&#45;&gt;Node22 -->
<g id="edge23" class="edge">
<title>Node20&#45;&gt;Node22</title>
<path fill="none" stroke="midnightblue" d="M793.1,-182.91C805.62,-182.5 818.9,-182.07 831.89,-181.64"/>
<polygon fill="midnightblue" stroke="midnightblue" points="832.34,-185.13 842.22,-181.31 832.11,-178.14 832.34,-185.13"/>
</g>
<!-- Node26 -->
<g id="node26" class="node">
<title>Node26</title>
<g id="a_node26"><a xlink:href="a00387.html#ga8075fd40f867be8f42bb806622bd91bd" target="_top" xlink:title="Writes a user&#45;defined configuration to the PWM base module registers.">
<polygon fill="none" stroke="black" points="652,-38.5 652,-57.5 804,-57.5 804,-38.5 652,-38.5"/>
<text text-anchor="middle" x="728" y="-45.5" font-family="Helvetica,sans-Serif" font-size="10.00">p33c_PwmModule_ConfigWrite</text>
</a>
</g>
</g>
<!-- Node25&#45;&gt;Node26 -->
<g id="edge28" class="edge">
<title>Node25&#45;&gt;Node26</title>
<path fill="none" stroke="midnightblue" d="M614.14,-48C623.14,-48 632.47,-48 641.75,-48"/>
<polygon fill="midnightblue" stroke="midnightblue" points="641.77,-51.5 651.77,-48 641.77,-44.5 641.77,-51.5"/>
</g>
<!-- Node27 -->
<g id="node27" class="node">
<title>Node27</title>
<g id="a_node27"><a xlink:href="a00387.html#ga3ed5f08051a70f5cb426b8254119845f" target="_top" xlink:title="Gets pointer to PWM module SFR set.">
<polygon fill="none" stroke="black" points="654.5,-0.5 654.5,-19.5 801.5,-19.5 801.5,-0.5 654.5,-0.5"/>
<text text-anchor="middle" x="728" y="-7.5" font-family="Helvetica,sans-Serif" font-size="10.00">p33c_PwmModule_GetHandle</text>
</a>
</g>
</g>
<!-- Node25&#45;&gt;Node27 -->
<g id="edge29" class="edge">
<title>Node25&#45;&gt;Node27</title>
<path fill="none" stroke="midnightblue" d="M593.17,-38.41C617.22,-33.31 646.97,-26.99 672.32,-21.61"/>
<polygon fill="midnightblue" stroke="midnightblue" points="673.1,-25.02 682.16,-19.52 671.65,-18.17 673.1,-25.02"/>
</g>
<!-- Node29 -->
<g id="node29" class="node">
<title>Node29</title>
<g id="a_node29"><a xlink:href="a00532.html#gab089e35bcd5d68072aa53298ee276959" target="_top" xlink:title="This function enables the ADC module and starts the ADC cores analog inputs for the required input si...">
<polygon fill="none" stroke="black" points="351.5,-74.5 351.5,-93.5 435.5,-93.5 435.5,-74.5 351.5,-74.5"/>
<text text-anchor="middle" x="393.5" y="-81.5" font-family="Helvetica,sans-Serif" font-size="10.00">buckADC_Start</text>
</a>
</g>
</g>
<!-- Node28&#45;&gt;Node29 -->
<g id="edge31" class="edge">
<title>Node28&#45;&gt;Node29</title>
<path fill="none" stroke="midnightblue" d="M286.38,-110.18C304.71,-105.66 325.62,-100.5 344,-95.97"/>
<polygon fill="midnightblue" stroke="midnightblue" points="345.05,-99.31 353.92,-93.52 343.37,-92.52 345.05,-99.31"/>
</g>
<!-- Node30 -->
<g id="node30" class="node">
<title>Node30</title>
<g id="a_node30"><a xlink:href="a00532.html#gac63073d04bc35c0cce5df47ea0d33165" target="_top" xlink:title="This function enables the buck PWM operation.">
<polygon fill="none" stroke="black" points="349,-112.5 349,-131.5 438,-131.5 438,-112.5 349,-112.5"/>
<text text-anchor="middle" x="393.5" y="-119.5" font-family="Helvetica,sans-Serif" font-size="10.00">buckPWM_Start</text>
</a>
</g>
</g>
<!-- Node28&#45;&gt;Node30 -->
<g id="edge32" class="edge">
<title>Node28&#45;&gt;Node30</title>
<path fill="none" stroke="midnightblue" d="M286.38,-122C302.91,-122 321.53,-122 338.51,-122"/>
<polygon fill="midnightblue" stroke="midnightblue" points="338.84,-125.5 348.84,-122 338.84,-118.5 338.84,-125.5"/>
</g>
<!-- Node30&#45;&gt;Node24 -->
<g id="edge33" class="edge">
<title>Node30&#45;&gt;Node24</title>
<path fill="none" stroke="midnightblue" d="M438.31,-118.05C496.06,-112.84 598.04,-103.64 664.04,-97.68"/>
<polygon fill="midnightblue" stroke="midnightblue" points="664.67,-101.14 674.31,-96.75 664.04,-94.17 664.67,-101.14"/>
</g>
</g>
</svg>
