<?xml version="1.0" encoding="UTF-8" standalone="no"?>
<!DOCTYPE svg PUBLIC "-//W3C//DTD SVG 1.1//EN"
 "http://www.w3.org/Graphics/SVG/1.1/DTD/svg11.dtd">
<!-- Generated by graphviz version 2.44.1 (20200629.0846)
 -->
<!-- Title: REGBLK_OSCCON_CONFIG_t Pages: 1 -->
<svg width="162pt" height="237pt"
 viewBox="0.00 0.00 162.00 237.00" xmlns="http://www.w3.org/2000/svg" xmlns:xlink="http://www.w3.org/1999/xlink">
<g id="graph0" class="graph" transform="scale(1 1) rotate(0) translate(4 233)">
<title>REGBLK_OSCCON_CONFIG_t</title>
<!-- Node1 -->
<g id="node1" class="node">
<title>Node1</title>
<g id="a_node1"><a xlink:title=" ">
<polygon fill="#bfbfbf" stroke="black" points="0,-0.5 0,-57.5 154,-57.5 154,-0.5 0,-0.5"/>
<text text-anchor="middle" x="77" y="-45.5" font-family="Helvetica,sans-Serif" font-size="10.00">REGBLK_OSCCON_CONFIG_t</text>
<polyline fill="none" stroke="black" points="0,-38.5 154,-38.5 "/>
<text text-anchor="start" x="8" y="-26.5" font-family="Helvetica,sans-Serif" font-size="10.00">+ value</text>
<polyline fill="none" stroke="black" points="0,-19.5 154,-19.5 "/>
<text text-anchor="middle" x="77" y="-7.5" font-family="Helvetica,sans-Serif" font-size="10.00"> </text>
</a>
</g>
</g>
<!-- Node2 -->
<g id="node2" class="node">
<title>Node2</title>
<g id="a_node2"><a xlink:href="a00784.html" target="_top" xlink:title=" ">
<polygon fill="none" stroke="black" points="41.5,-105.5 41.5,-228.5 112.5,-228.5 112.5,-105.5 41.5,-105.5"/>
<text text-anchor="middle" x="77" y="-216.5" font-family="Helvetica,sans-Serif" font-size="10.00">OSCCON_t</text>
<polyline fill="none" stroke="black" points="41.5,-209.5 112.5,-209.5 "/>
<text text-anchor="start" x="49.5" y="-197.5" font-family="Helvetica,sans-Serif" font-size="10.00">+ OSWEN</text>
<text text-anchor="start" x="49.5" y="-186.5" font-family="Helvetica,sans-Serif" font-size="10.00">+ unsigned</text>
<text text-anchor="start" x="49.5" y="-175.5" font-family="Helvetica,sans-Serif" font-size="10.00">+ CF</text>
<text text-anchor="start" x="49.5" y="-164.5" font-family="Helvetica,sans-Serif" font-size="10.00">+ LOCK</text>
<text text-anchor="start" x="49.5" y="-153.5" font-family="Helvetica,sans-Serif" font-size="10.00">+ CLKLOCK</text>
<text text-anchor="start" x="49.5" y="-142.5" font-family="Helvetica,sans-Serif" font-size="10.00">+ NOSC</text>
<text text-anchor="start" x="49.5" y="-131.5" font-family="Helvetica,sans-Serif" font-size="10.00">+ COSC</text>
<polyline fill="none" stroke="black" points="41.5,-124.5 112.5,-124.5 "/>
<text text-anchor="middle" x="77" y="-112.5" font-family="Helvetica,sans-Serif" font-size="10.00"> </text>
</a>
</g>
</g>
<!-- Node2&#45;&gt;Node1 -->
<g id="edge1" class="edge">
<title>Node2&#45;&gt;Node1</title>
<path fill="none" stroke="#404040" d="M77,-105.16C77,-93.27 77,-81.07 77,-70.07"/>
<polygon fill="none" stroke="#404040" points="77,-69.78 73,-63.78 77,-57.78 81,-63.78 77,-69.78"/>
<text text-anchor="middle" x="103" y="-79" font-family="Helvetica,sans-Serif" font-size="10.00"> +OSCCON</text>
</g>
</g>
</svg>
