<?xml version="1.0" encoding="UTF-8" standalone="no"?>
<!DOCTYPE svg PUBLIC "-//W3C//DTD SVG 1.1//EN"
 "http://www.w3.org/Graphics/SVG/1.1/DTD/svg11.dtd">
<!-- Generated by graphviz version 2.44.1 (20200629.0846)
 -->
<!-- Title: REGBLK_CLKDIV_CONFIG_t Pages: 1 -->
<svg width="154pt" height="226pt"
 viewBox="0.00 0.00 154.00 226.00" xmlns="http://www.w3.org/2000/svg" xmlns:xlink="http://www.w3.org/1999/xlink">
<g id="graph0" class="graph" transform="scale(1 1) rotate(0) translate(4 222)">
<title>REGBLK_CLKDIV_CONFIG_t</title>
<!-- Node1 -->
<g id="node1" class="node">
<title>Node1</title>
<g id="a_node1"><a xlink:title=" ">
<polygon fill="#bfbfbf" stroke="black" points="0,-0.5 0,-57.5 146,-57.5 146,-0.5 0,-0.5"/>
<text text-anchor="middle" x="73" y="-45.5" font-family="Helvetica,sans-Serif" font-size="10.00">REGBLK_CLKDIV_CONFIG_t</text>
<polyline fill="none" stroke="black" points="0,-38.5 146,-38.5 "/>
<text text-anchor="start" x="8" y="-26.5" font-family="Helvetica,sans-Serif" font-size="10.00">+ value</text>
<polyline fill="none" stroke="black" points="0,-19.5 146,-19.5 "/>
<text text-anchor="middle" x="73" y="-7.5" font-family="Helvetica,sans-Serif" font-size="10.00"> </text>
</a>
</g>
</g>
<!-- Node2 -->
<g id="node2" class="node">
<title>Node2</title>
<g id="a_node2"><a xlink:href="a00792.html" target="_top" xlink:title=" ">
<polygon fill="none" stroke="black" points="40.5,-105.5 40.5,-217.5 105.5,-217.5 105.5,-105.5 40.5,-105.5"/>
<text text-anchor="middle" x="73" y="-205.5" font-family="Helvetica,sans-Serif" font-size="10.00">CLKDIV_t</text>
<polyline fill="none" stroke="black" points="40.5,-198.5 105.5,-198.5 "/>
<text text-anchor="start" x="48.5" y="-186.5" font-family="Helvetica,sans-Serif" font-size="10.00">+ PLLPRE</text>
<text text-anchor="start" x="48.5" y="-175.5" font-family="Helvetica,sans-Serif" font-size="10.00">+ unsigned</text>
<text text-anchor="start" x="48.5" y="-164.5" font-family="Helvetica,sans-Serif" font-size="10.00">+ FRCDIV</text>
<text text-anchor="start" x="48.5" y="-153.5" font-family="Helvetica,sans-Serif" font-size="10.00">+ DOZEN</text>
<text text-anchor="start" x="48.5" y="-142.5" font-family="Helvetica,sans-Serif" font-size="10.00">+ DOZE</text>
<text text-anchor="start" x="48.5" y="-131.5" font-family="Helvetica,sans-Serif" font-size="10.00">+ ROI</text>
<polyline fill="none" stroke="black" points="40.5,-124.5 105.5,-124.5 "/>
<text text-anchor="middle" x="73" y="-112.5" font-family="Helvetica,sans-Serif" font-size="10.00"> </text>
</a>
</g>
</g>
<!-- Node2&#45;&gt;Node1 -->
<g id="edge1" class="edge">
<title>Node2&#45;&gt;Node1</title>
<path fill="none" stroke="#404040" d="M73,-105.16C73,-93.24 73,-80.88 73,-69.71"/>
<polygon fill="none" stroke="#404040" points="73,-69.68 69,-63.68 73,-57.68 77,-63.68 73,-69.68"/>
<text text-anchor="middle" x="95" y="-79" font-family="Helvetica,sans-Serif" font-size="10.00"> +CLKDIV</text>
</g>
</g>
</svg>
