<?xml version="1.0" encoding="UTF-8" standalone="no"?>
<!DOCTYPE svg PUBLIC "-//W3C//DTD SVG 1.1//EN"
 "http://www.w3.org/Graphics/SVG/1.1/DTD/svg11.dtd">
<!-- Generated by graphviz version 2.44.1 (20200629.0846)
 -->
<!-- Title: REGBLK_OSCTUN_CONFIG_t Pages: 1 -->
<svg width="160pt" height="182pt"
 viewBox="0.00 0.00 160.00 182.00" xmlns="http://www.w3.org/2000/svg" xmlns:xlink="http://www.w3.org/1999/xlink">
<g id="graph0" class="graph" transform="scale(1 1) rotate(0) translate(4 178)">
<title>REGBLK_OSCTUN_CONFIG_t</title>
<!-- Node1 -->
<g id="node1" class="node">
<title>Node1</title>
<g id="a_node1"><a xlink:title=" ">
<polygon fill="#bfbfbf" stroke="black" points="0,-0.5 0,-57.5 152,-57.5 152,-0.5 0,-0.5"/>
<text text-anchor="middle" x="76" y="-45.5" font-family="Helvetica,sans-Serif" font-size="10.00">REGBLK_OSCTUN_CONFIG_t</text>
<polyline fill="none" stroke="black" points="0,-38.5 152,-38.5 "/>
<text text-anchor="start" x="8" y="-26.5" font-family="Helvetica,sans-Serif" font-size="10.00">+ value</text>
<polyline fill="none" stroke="black" points="0,-19.5 152,-19.5 "/>
<text text-anchor="middle" x="76" y="-7.5" font-family="Helvetica,sans-Serif" font-size="10.00"> </text>
</a>
</g>
</g>
<!-- Node2 -->
<g id="node2" class="node">
<title>Node2</title>
<g id="a_node2"><a xlink:href="a00804.html" target="_top" xlink:title=" ">
<polygon fill="none" stroke="black" points="43.5,-105.5 43.5,-173.5 108.5,-173.5 108.5,-105.5 43.5,-105.5"/>
<text text-anchor="middle" x="76" y="-161.5" font-family="Helvetica,sans-Serif" font-size="10.00">OSCTUN_t</text>
<polyline fill="none" stroke="black" points="43.5,-154.5 108.5,-154.5 "/>
<text text-anchor="start" x="51.5" y="-142.5" font-family="Helvetica,sans-Serif" font-size="10.00">+ TUN</text>
<text text-anchor="start" x="51.5" y="-131.5" font-family="Helvetica,sans-Serif" font-size="10.00">+ unsigned</text>
<polyline fill="none" stroke="black" points="43.5,-124.5 108.5,-124.5 "/>
<text text-anchor="middle" x="76" y="-112.5" font-family="Helvetica,sans-Serif" font-size="10.00"> </text>
</a>
</g>
</g>
<!-- Node2&#45;&gt;Node1 -->
<g id="edge1" class="edge">
<title>Node2&#45;&gt;Node1</title>
<path fill="none" stroke="#404040" d="M76,-105.36C76,-94.19 76,-81.61 76,-69.97"/>
<polygon fill="none" stroke="#404040" points="76,-69.83 72,-63.83 76,-57.83 80,-63.83 76,-69.83"/>
<text text-anchor="middle" x="100.5" y="-79" font-family="Helvetica,sans-Serif" font-size="10.00"> +OSCTUN</text>
</g>
</g>
</svg>
