<?xml version="1.0" encoding="UTF-8" standalone="no"?>
<!DOCTYPE svg PUBLIC "-//W3C//DTD SVG 1.1//EN"
 "http://www.w3.org/Graphics/SVG/1.1/DTD/svg11.dtd">
<!-- Generated by graphviz version 2.44.1 (20200629.0846)
 -->
<!-- Title: FLT_OBJECT_STATUS_s Pages: 1 -->
<svg width="137pt" height="292pt"
 viewBox="0.00 0.00 137.00 292.00" xmlns="http://www.w3.org/2000/svg" xmlns:xlink="http://www.w3.org/1999/xlink">
<g id="graph0" class="graph" transform="scale(1 1) rotate(0) translate(4 288)">
<title>FLT_OBJECT_STATUS_s</title>
<!-- Node1 -->
<g id="node1" class="node">
<title>Node1</title>
<g id="a_node1"><a xlink:title="This data structure defines the fault object status.">
<polygon fill="#bfbfbf" stroke="black" points="0,-0.5 0,-134.5 129,-134.5 129,-0.5 0,-0.5"/>
<text text-anchor="middle" x="64.5" y="-122.5" font-family="Helvetica,sans-Serif" font-size="10.00">FLT_OBJECT_STATUS_s</text>
<polyline fill="none" stroke="black" points="0,-115.5 129,-115.5 "/>
<text text-anchor="start" x="8" y="-103.5" font-family="Helvetica,sans-Serif" font-size="10.00">+ FaultStatus</text>
<text text-anchor="start" x="8" y="-92.5" font-family="Helvetica,sans-Serif" font-size="10.00">+ FaultActive</text>
<text text-anchor="start" x="8" y="-81.5" font-family="Helvetica,sans-Serif" font-size="10.00">+ unsigned</text>
<text text-anchor="start" x="8" y="-70.5" font-family="Helvetica,sans-Serif" font-size="10.00">+ CompareType</text>
<text text-anchor="start" x="8" y="-59.5" font-family="Helvetica,sans-Serif" font-size="10.00">+ Enabled</text>
<text text-anchor="start" x="8" y="-48.5" font-family="Helvetica,sans-Serif" font-size="10.00">+ bits</text>
<text text-anchor="start" x="8" y="-37.5" font-family="Helvetica,sans-Serif" font-size="10.00">+ value</text>
<text text-anchor="start" x="8" y="-26.5" font-family="Helvetica,sans-Serif" font-size="10.00">+ @112</text>
<polyline fill="none" stroke="black" points="0,-19.5 129,-19.5 "/>
<text text-anchor="middle" x="64.5" y="-7.5" font-family="Helvetica,sans-Serif" font-size="10.00"> </text>
</a>
</g>
</g>
<!-- Node2 -->
<g id="node2" class="node">
<title>Node2</title>
<g id="a_node2"><a xlink:href="a01088.html" target="_top" xlink:title="This data structure is a collection of data structures for fault handling.">
<polygon fill="none" stroke="black" points="10,-171.5 10,-283.5 119,-283.5 119,-171.5 10,-171.5"/>
<text text-anchor="middle" x="64.5" y="-271.5" font-family="Helvetica,sans-Serif" font-size="10.00">FAULT_OBJECT_s</text>
<polyline fill="none" stroke="black" points="10,-264.5 119,-264.5 "/>
<text text-anchor="start" x="18" y="-252.5" font-family="Helvetica,sans-Serif" font-size="10.00">+ Status</text>
<text text-anchor="start" x="18" y="-241.5" font-family="Helvetica,sans-Serif" font-size="10.00">+ Counter</text>
<text text-anchor="start" x="18" y="-230.5" font-family="Helvetica,sans-Serif" font-size="10.00">+ SourceObject</text>
<text text-anchor="start" x="18" y="-219.5" font-family="Helvetica,sans-Serif" font-size="10.00">+ ReferenceObject</text>
<text text-anchor="start" x="18" y="-208.5" font-family="Helvetica,sans-Serif" font-size="10.00">+ TripResponse</text>
<text text-anchor="start" x="18" y="-197.5" font-family="Helvetica,sans-Serif" font-size="10.00">+ RecoveryResponse</text>
<polyline fill="none" stroke="black" points="10,-190.5 119,-190.5 "/>
<text text-anchor="middle" x="64.5" y="-178.5" font-family="Helvetica,sans-Serif" font-size="10.00"> </text>
</a>
</g>
</g>
<!-- Node2&#45;&gt;Node1 -->
<g id="edge1" class="edge">
<title>Node2&#45;&gt;Node1</title>
<path fill="none" stroke="midnightblue" d="M64.5,-161.09C64.5,-152.34 64.5,-143.35 64.5,-134.59"/>
<polygon fill="none" stroke="midnightblue" points="61,-161.24 64.5,-171.24 68,-161.24 61,-161.24"/>
</g>
</g>
</svg>
