<?xml version="1.0" encoding="UTF-8" standalone="no"?>
<!DOCTYPE svg PUBLIC "-//W3C//DTD SVG 1.1//EN"
 "http://www.w3.org/Graphics/SVG/1.1/DTD/svg11.dtd">
<!-- Generated by graphviz version 2.44.1 (20200629.0846)
 -->
<!-- Title: FLT_EVENT_RESPONSE_s Pages: 1 -->
<svg width="296pt" height="397pt"
 viewBox="0.00 0.00 296.00 397.00" xmlns="http://www.w3.org/2000/svg" xmlns:xlink="http://www.w3.org/1999/xlink">
<g id="graph0" class="graph" transform="scale(1 1) rotate(0) translate(4 393)">
<title>FLT_EVENT_RESPONSE_s</title>
<!-- Node1 -->
<g id="node1" class="node">
<title>Node1</title>
<g id="a_node1"><a xlink:title="This data structure defines the fault monitor event response object.">
<polygon fill="#bfbfbf" stroke="black" points="80,-309.5 80,-388.5 221,-388.5 221,-309.5 80,-309.5"/>
<text text-anchor="middle" x="150.5" y="-376.5" font-family="Helvetica,sans-Serif" font-size="10.00">FLT_EVENT_RESPONSE_s</text>
<polyline fill="none" stroke="black" points="80,-369.5 221,-369.5 "/>
<text text-anchor="start" x="88" y="-357.5" font-family="Helvetica,sans-Serif" font-size="10.00">+ compareThreshold</text>
<text text-anchor="start" x="88" y="-346.5" font-family="Helvetica,sans-Serif" font-size="10.00">+ eventThreshold</text>
<text text-anchor="start" x="88" y="-335.5" font-family="Helvetica,sans-Serif" font-size="10.00">+ ptrResponseFunction</text>
<polyline fill="none" stroke="black" points="80,-328.5 221,-328.5 "/>
<text text-anchor="middle" x="150.5" y="-316.5" font-family="Helvetica,sans-Serif" font-size="10.00"> </text>
</a>
</g>
</g>
<!-- Node2 -->
<g id="node2" class="node">
<title>Node2</title>
<g id="a_node2"><a xlink:href="a01088.html" target="_top" xlink:title="This data structure is a collection of data structures for fault handling.">
<polygon fill="none" stroke="black" points="100.5,-193.5 100.5,-250.5 200.5,-250.5 200.5,-193.5 100.5,-193.5"/>
<text text-anchor="middle" x="150.5" y="-238.5" font-family="Helvetica,sans-Serif" font-size="10.00">FAULT_OBJECT_s</text>
<polyline fill="none" stroke="black" points="100.5,-231.5 200.5,-231.5 "/>
<text text-anchor="start" x="108.5" y="-219.5" font-family="Helvetica,sans-Serif" font-size="10.00">+ Counter</text>
<polyline fill="none" stroke="black" points="100.5,-212.5 200.5,-212.5 "/>
<text text-anchor="middle" x="150.5" y="-200.5" font-family="Helvetica,sans-Serif" font-size="10.00"> </text>
</a>
</g>
</g>
<!-- Node1&#45;&gt;Node2 -->
<g id="edge4" class="edge">
<title>Node1&#45;&gt;Node2</title>
<path fill="none" stroke="#404040" d="M104.38,-309.23C99.98,-303.58 96.18,-297.46 93.5,-291 89.76,-281.97 89.28,-277.82 93.5,-269 95.02,-265.83 96.87,-262.8 98.97,-259.93"/>
<polygon fill="none" stroke="#404040" points="99.06,-259.83 99.98,-252.67 106.94,-250.77 106.02,-257.92 99.06,-259.83"/>
<text text-anchor="middle" x="140" y="-283" font-family="Helvetica,sans-Serif" font-size="10.00"> +RecoveryResponse</text>
<text text-anchor="middle" x="140" y="-272" font-family="Helvetica,sans-Serif" font-size="10.00">+TripResponse</text>
</g>
<!-- Node2&#45;&gt;Node1 -->
<g id="edge1" class="edge">
<title>Node2&#45;&gt;Node1</title>
<path fill="none" stroke="midnightblue" d="M185.55,-258.88C187.51,-262.14 189.2,-265.52 190.5,-269 193.92,-278.16 193.45,-281.68 190.5,-291 188.5,-297.34 185.51,-303.59 182.05,-309.49"/>
<polygon fill="none" stroke="midnightblue" points="188.4,-256.85 179.85,-250.59 182.63,-260.82 188.4,-256.85"/>
</g>
<!-- Node3 -->
<g id="node3" class="node">
<title>Node3</title>
<g id="a_node3"><a xlink:href="a01068.html" target="_top" xlink:title="This data structure defines the fault object status.">
<polygon fill="none" stroke="black" points="0,-0.5 0,-134.5 129,-134.5 129,-0.5 0,-0.5"/>
<text text-anchor="middle" x="64.5" y="-122.5" font-family="Helvetica,sans-Serif" font-size="10.00">FLT_OBJECT_STATUS_s</text>
<polyline fill="none" stroke="black" points="0,-115.5 129,-115.5 "/>
<text text-anchor="start" x="8" y="-103.5" font-family="Helvetica,sans-Serif" font-size="10.00">+ FaultStatus</text>
<text text-anchor="start" x="8" y="-92.5" font-family="Helvetica,sans-Serif" font-size="10.00">+ FaultActive</text>
<text text-anchor="start" x="8" y="-81.5" font-family="Helvetica,sans-Serif" font-size="10.00">+ unsigned</text>
<text text-anchor="start" x="8" y="-70.5" font-family="Helvetica,sans-Serif" font-size="10.00">+ CompareType</text>
<text text-anchor="start" x="8" y="-59.5" font-family="Helvetica,sans-Serif" font-size="10.00">+ Enabled</text>
<text text-anchor="start" x="8" y="-48.5" font-family="Helvetica,sans-Serif" font-size="10.00">+ bits</text>
<text text-anchor="start" x="8" y="-37.5" font-family="Helvetica,sans-Serif" font-size="10.00">+ value</text>
<text text-anchor="start" x="8" y="-26.5" font-family="Helvetica,sans-Serif" font-size="10.00">+ @112</text>
<polyline fill="none" stroke="black" points="0,-19.5 129,-19.5 "/>
<text text-anchor="middle" x="64.5" y="-7.5" font-family="Helvetica,sans-Serif" font-size="10.00"> </text>
</a>
</g>
</g>
<!-- Node2&#45;&gt;Node3 -->
<g id="edge3" class="edge">
<title>Node2&#45;&gt;Node3</title>
<path fill="none" stroke="midnightblue" d="M116.95,-185.58C114.28,-182.11 111.75,-178.56 109.5,-175 101.61,-162.53 94.55,-148.44 88.48,-134.69"/>
<polygon fill="none" stroke="midnightblue" points="114.33,-187.91 123.36,-193.46 119.76,-183.49 114.33,-187.91"/>
</g>
<!-- Node4 -->
<g id="node4" class="node">
<title>Node4</title>
<g id="a_node4"><a xlink:href="a01080.html" target="_top" xlink:title="This data structure defines the data object which will be monitored by the fault handler.">
<polygon fill="none" stroke="black" points="147,-33.5 147,-101.5 288,-101.5 288,-33.5 147,-33.5"/>
<text text-anchor="middle" x="217.5" y="-89.5" font-family="Helvetica,sans-Serif" font-size="10.00">FLT_COMPARE_OBJECT_s</text>
<polyline fill="none" stroke="black" points="147,-82.5 288,-82.5 "/>
<text text-anchor="start" x="155" y="-70.5" font-family="Helvetica,sans-Serif" font-size="10.00">+ ptrObject</text>
<text text-anchor="start" x="155" y="-59.5" font-family="Helvetica,sans-Serif" font-size="10.00">+ bitMask</text>
<polyline fill="none" stroke="black" points="147,-52.5 288,-52.5 "/>
<text text-anchor="middle" x="217.5" y="-40.5" font-family="Helvetica,sans-Serif" font-size="10.00"> </text>
</a>
</g>
</g>
<!-- Node2&#45;&gt;Node4 -->
<g id="edge6" class="edge">
<title>Node2&#45;&gt;Node4</title>
<path fill="none" stroke="midnightblue" d="M166.68,-184.18C177.71,-159.06 192.2,-126.08 202.89,-101.76"/>
<polygon fill="none" stroke="midnightblue" points="163.45,-182.82 162.63,-193.38 169.86,-185.64 163.45,-182.82"/>
</g>
<!-- Node3&#45;&gt;Node2 -->
<g id="edge2" class="edge">
<title>Node3&#45;&gt;Node2</title>
<path fill="none" stroke="#404040" d="M101.75,-134.56C111.04,-151.02 120.69,-168.14 128.93,-182.75"/>
<polygon fill="none" stroke="#404040" points="129.03,-182.93 135.46,-186.19 134.93,-193.38 128.49,-190.12 129.03,-182.93"/>
<text text-anchor="middle" x="142.5" y="-161.5" font-family="Helvetica,sans-Serif" font-size="10.00"> +Status</text>
</g>
<!-- Node4&#45;&gt;Node2 -->
<g id="edge5" class="edge">
<title>Node4&#45;&gt;Node2</title>
<path fill="none" stroke="#404040" d="M214.11,-101.7C210.85,-123.52 204.55,-152.15 192.5,-175 190.97,-177.9 189.21,-180.77 187.3,-183.56"/>
<polygon fill="none" stroke="#404040" points="187.15,-183.76 186.67,-190.95 179.85,-193.28 180.32,-186.09 187.15,-183.76"/>
<text text-anchor="middle" x="242.5" y="-167" font-family="Helvetica,sans-Serif" font-size="10.00"> +ReferenceObject</text>
<text text-anchor="middle" x="242.5" y="-156" font-family="Helvetica,sans-Serif" font-size="10.00">+SourceObject</text>
</g>
</g>
</svg>
