<?xml version="1.0" encoding="UTF-8" standalone="no"?>
<!DOCTYPE svg PUBLIC "-//W3C//DTD SVG 1.1//EN"
 "http://www.w3.org/Graphics/SVG/1.1/DTD/svg11.dtd">
<!-- Generated by graphviz version 2.44.1 (20200629.0846)
 -->
<!-- Title: FAULT_OBJECT_s Pages: 1 -->
<svg width="455pt" height="292pt"
 viewBox="0.00 0.00 455.00 292.00" xmlns="http://www.w3.org/2000/svg" xmlns:xlink="http://www.w3.org/1999/xlink">
<g id="graph0" class="graph" transform="scale(1 1) rotate(0) translate(4 288)">
<title>FAULT_OBJECT_s</title>
<!-- Node1 -->
<g id="node1" class="node">
<title>Node1</title>
<g id="a_node1"><a xlink:title="This data structure is a collection of data structures for fault handling.">
<polygon fill="#bfbfbf" stroke="black" points="175,-171.5 175,-283.5 284,-283.5 284,-171.5 175,-171.5"/>
<text text-anchor="middle" x="229.5" y="-271.5" font-family="Helvetica,sans-Serif" font-size="10.00">FAULT_OBJECT_s</text>
<polyline fill="none" stroke="black" points="175,-264.5 284,-264.5 "/>
<text text-anchor="start" x="183" y="-252.5" font-family="Helvetica,sans-Serif" font-size="10.00">+ Status</text>
<text text-anchor="start" x="183" y="-241.5" font-family="Helvetica,sans-Serif" font-size="10.00">+ Counter</text>
<text text-anchor="start" x="183" y="-230.5" font-family="Helvetica,sans-Serif" font-size="10.00">+ SourceObject</text>
<text text-anchor="start" x="183" y="-219.5" font-family="Helvetica,sans-Serif" font-size="10.00">+ ReferenceObject</text>
<text text-anchor="start" x="183" y="-208.5" font-family="Helvetica,sans-Serif" font-size="10.00">+ TripResponse</text>
<text text-anchor="start" x="183" y="-197.5" font-family="Helvetica,sans-Serif" font-size="10.00">+ RecoveryResponse</text>
<polyline fill="none" stroke="black" points="175,-190.5 284,-190.5 "/>
<text text-anchor="middle" x="229.5" y="-178.5" font-family="Helvetica,sans-Serif" font-size="10.00"> </text>
</a>
</g>
</g>
<!-- Node2 -->
<g id="node2" class="node">
<title>Node2</title>
<g id="a_node2"><a xlink:href="a01080.html" target="_top" xlink:title="This data structure defines the data object which will be monitored by the fault handler.">
<polygon fill="none" stroke="black" points="0,-33.5 0,-101.5 141,-101.5 141,-33.5 0,-33.5"/>
<text text-anchor="middle" x="70.5" y="-89.5" font-family="Helvetica,sans-Serif" font-size="10.00">FLT_COMPARE_OBJECT_s</text>
<polyline fill="none" stroke="black" points="0,-82.5 141,-82.5 "/>
<text text-anchor="start" x="8" y="-70.5" font-family="Helvetica,sans-Serif" font-size="10.00">+ ptrObject</text>
<text text-anchor="start" x="8" y="-59.5" font-family="Helvetica,sans-Serif" font-size="10.00">+ bitMask</text>
<polyline fill="none" stroke="black" points="0,-52.5 141,-52.5 "/>
<text text-anchor="middle" x="70.5" y="-40.5" font-family="Helvetica,sans-Serif" font-size="10.00"> </text>
</a>
</g>
</g>
<!-- Node1&#45;&gt;Node2 -->
<g id="edge1" class="edge">
<title>Node1&#45;&gt;Node2</title>
<path fill="none" stroke="midnightblue" d="M167.52,-164.91C145.88,-143.4 122.41,-120.08 103.97,-101.76"/>
<polygon fill="none" stroke="midnightblue" points="165.22,-167.56 174.78,-172.13 170.15,-162.59 165.22,-167.56"/>
</g>
<!-- Node3 -->
<g id="node3" class="node">
<title>Node3</title>
<g id="a_node3"><a xlink:href="a01084.html" target="_top" xlink:title="This data structure defines the fault monitor event response object.">
<polygon fill="none" stroke="black" points="159,-28 159,-107 300,-107 300,-28 159,-28"/>
<text text-anchor="middle" x="229.5" y="-95" font-family="Helvetica,sans-Serif" font-size="10.00">FLT_EVENT_RESPONSE_s</text>
<polyline fill="none" stroke="black" points="159,-88 300,-88 "/>
<text text-anchor="start" x="167" y="-76" font-family="Helvetica,sans-Serif" font-size="10.00">+ compareThreshold</text>
<text text-anchor="start" x="167" y="-65" font-family="Helvetica,sans-Serif" font-size="10.00">+ eventThreshold</text>
<text text-anchor="start" x="167" y="-54" font-family="Helvetica,sans-Serif" font-size="10.00">+ ptrResponseFunction</text>
<polyline fill="none" stroke="black" points="159,-47 300,-47 "/>
<text text-anchor="middle" x="229.5" y="-35" font-family="Helvetica,sans-Serif" font-size="10.00"> </text>
</a>
</g>
</g>
<!-- Node1&#45;&gt;Node3 -->
<g id="edge2" class="edge">
<title>Node1&#45;&gt;Node3</title>
<path fill="none" stroke="midnightblue" d="M229.5,-161.15C229.5,-142.76 229.5,-123.36 229.5,-107.08"/>
<polygon fill="none" stroke="midnightblue" points="226,-161.24 229.5,-171.24 233,-161.24 226,-161.24"/>
</g>
<!-- Node4 -->
<g id="node4" class="node">
<title>Node4</title>
<g id="a_node4"><a xlink:href="a01068.html" target="_top" xlink:title="This data structure defines the fault object status.">
<polygon fill="none" stroke="black" points="318,-0.5 318,-134.5 447,-134.5 447,-0.5 318,-0.5"/>
<text text-anchor="middle" x="382.5" y="-122.5" font-family="Helvetica,sans-Serif" font-size="10.00">FLT_OBJECT_STATUS_s</text>
<polyline fill="none" stroke="black" points="318,-115.5 447,-115.5 "/>
<text text-anchor="start" x="326" y="-103.5" font-family="Helvetica,sans-Serif" font-size="10.00">+ FaultStatus</text>
<text text-anchor="start" x="326" y="-92.5" font-family="Helvetica,sans-Serif" font-size="10.00">+ FaultActive</text>
<text text-anchor="start" x="326" y="-81.5" font-family="Helvetica,sans-Serif" font-size="10.00">+ unsigned</text>
<text text-anchor="start" x="326" y="-70.5" font-family="Helvetica,sans-Serif" font-size="10.00">+ CompareType</text>
<text text-anchor="start" x="326" y="-59.5" font-family="Helvetica,sans-Serif" font-size="10.00">+ Enabled</text>
<text text-anchor="start" x="326" y="-48.5" font-family="Helvetica,sans-Serif" font-size="10.00">+ bits</text>
<text text-anchor="start" x="326" y="-37.5" font-family="Helvetica,sans-Serif" font-size="10.00">+ value</text>
<text text-anchor="start" x="326" y="-26.5" font-family="Helvetica,sans-Serif" font-size="10.00">+ @112</text>
<polyline fill="none" stroke="black" points="318,-19.5 447,-19.5 "/>
<text text-anchor="middle" x="382.5" y="-7.5" font-family="Helvetica,sans-Serif" font-size="10.00"> </text>
</a>
</g>
</g>
<!-- Node1&#45;&gt;Node4 -->
<g id="edge3" class="edge">
<title>Node1&#45;&gt;Node4</title>
<path fill="none" stroke="midnightblue" d="M290.08,-163.94C299.42,-154.29 309.09,-144.31 318.5,-134.59"/>
<polygon fill="none" stroke="midnightblue" points="287.45,-161.62 283.01,-171.24 292.48,-166.49 287.45,-161.62"/>
</g>
</g>
</svg>
