<?xml version="1.0" encoding="UTF-8" standalone="no"?>
<!DOCTYPE svg PUBLIC "-//W3C//DTD SVG 1.1//EN"
 "http://www.w3.org/Graphics/SVG/1.1/DTD/svg11.dtd">
<!-- Generated by graphviz version 2.44.1 (20200629.0846)
 -->
<!-- Title: FAULT_OBJECT_s Pages: 1 -->
<svg width="455pt" height="259pt"
 viewBox="0.00 0.00 455.00 259.00" xmlns="http://www.w3.org/2000/svg" xmlns:xlink="http://www.w3.org/1999/xlink">
<g id="graph0" class="graph" transform="scale(1 1) rotate(0) translate(4 255)">
<title>FAULT_OBJECT_s</title>
<!-- Node1 -->
<g id="node1" class="node">
<title>Node1</title>
<g id="a_node1"><a xlink:title="This data structure is a collection of data structures for fault handling.">
<polygon fill="#bfbfbf" stroke="black" points="152.5,-193.5 152.5,-250.5 252.5,-250.5 252.5,-193.5 152.5,-193.5"/>
<text text-anchor="middle" x="202.5" y="-238.5" font-family="Helvetica,sans-Serif" font-size="10.00">FAULT_OBJECT_s</text>
<polyline fill="none" stroke="black" points="152.5,-231.5 252.5,-231.5 "/>
<text text-anchor="start" x="160.5" y="-219.5" font-family="Helvetica,sans-Serif" font-size="10.00">+ Counter</text>
<polyline fill="none" stroke="black" points="152.5,-212.5 252.5,-212.5 "/>
<text text-anchor="middle" x="202.5" y="-200.5" font-family="Helvetica,sans-Serif" font-size="10.00"> </text>
</a>
</g>
</g>
<!-- Node2 -->
<g id="node2" class="node">
<title>Node2</title>
<g id="a_node2"><a xlink:href="a01068.html" target="_top" xlink:title="This data structure defines the fault object status.">
<polygon fill="none" stroke="black" points="0,-0.5 0,-134.5 129,-134.5 129,-0.5 0,-0.5"/>
<text text-anchor="middle" x="64.5" y="-122.5" font-family="Helvetica,sans-Serif" font-size="10.00">FLT_OBJECT_STATUS_s</text>
<polyline fill="none" stroke="black" points="0,-115.5 129,-115.5 "/>
<text text-anchor="start" x="8" y="-103.5" font-family="Helvetica,sans-Serif" font-size="10.00">+ FaultStatus</text>
<text text-anchor="start" x="8" y="-92.5" font-family="Helvetica,sans-Serif" font-size="10.00">+ FaultActive</text>
<text text-anchor="start" x="8" y="-81.5" font-family="Helvetica,sans-Serif" font-size="10.00">+ unsigned</text>
<text text-anchor="start" x="8" y="-70.5" font-family="Helvetica,sans-Serif" font-size="10.00">+ CompareType</text>
<text text-anchor="start" x="8" y="-59.5" font-family="Helvetica,sans-Serif" font-size="10.00">+ Enabled</text>
<text text-anchor="start" x="8" y="-48.5" font-family="Helvetica,sans-Serif" font-size="10.00">+ bits</text>
<text text-anchor="start" x="8" y="-37.5" font-family="Helvetica,sans-Serif" font-size="10.00">+ value</text>
<text text-anchor="start" x="8" y="-26.5" font-family="Helvetica,sans-Serif" font-size="10.00">+ @112</text>
<polyline fill="none" stroke="black" points="0,-19.5 129,-19.5 "/>
<text text-anchor="middle" x="64.5" y="-7.5" font-family="Helvetica,sans-Serif" font-size="10.00"> </text>
</a>
</g>
</g>
<!-- Node1&#45;&gt;Node2 -->
<g id="edge2" class="edge">
<title>Node1&#45;&gt;Node2</title>
<path fill="none" stroke="midnightblue" d="M148.92,-187.05C144.18,-183.22 139.63,-179.18 135.5,-175 123.64,-162.98 112.56,-148.71 102.85,-134.58"/>
<polygon fill="none" stroke="midnightblue" points="146.96,-189.96 157.02,-193.29 151.23,-184.42 146.96,-189.96"/>
</g>
<!-- Node3 -->
<g id="node3" class="node">
<title>Node3</title>
<g id="a_node3"><a xlink:href="a01084.html" target="_top" xlink:title="This data structure defines the fault monitor event response object.">
<polygon fill="none" stroke="black" points="147,-28 147,-107 288,-107 288,-28 147,-28"/>
<text text-anchor="middle" x="217.5" y="-95" font-family="Helvetica,sans-Serif" font-size="10.00">FLT_EVENT_RESPONSE_s</text>
<polyline fill="none" stroke="black" points="147,-88 288,-88 "/>
<text text-anchor="start" x="155" y="-76" font-family="Helvetica,sans-Serif" font-size="10.00">+ compareThreshold</text>
<text text-anchor="start" x="155" y="-65" font-family="Helvetica,sans-Serif" font-size="10.00">+ eventThreshold</text>
<text text-anchor="start" x="155" y="-54" font-family="Helvetica,sans-Serif" font-size="10.00">+ ptrResponseFunction</text>
<polyline fill="none" stroke="black" points="147,-47 288,-47 "/>
<text text-anchor="middle" x="217.5" y="-35" font-family="Helvetica,sans-Serif" font-size="10.00"> </text>
</a>
</g>
</g>
<!-- Node1&#45;&gt;Node3 -->
<g id="edge4" class="edge">
<title>Node1&#45;&gt;Node3</title>
<path fill="none" stroke="midnightblue" d="M201.32,-183.49C201.33,-173.56 201.63,-162.86 202.5,-153 203.83,-137.86 206.49,-121.37 209.19,-107.01"/>
<polygon fill="none" stroke="midnightblue" points="197.82,-183.52 201.4,-193.49 204.82,-183.46 197.82,-183.52"/>
</g>
<!-- Node4 -->
<g id="node4" class="node">
<title>Node4</title>
<g id="a_node4"><a xlink:href="a01080.html" target="_top" xlink:title="This data structure defines the data object which will be monitored by the fault handler.">
<polygon fill="none" stroke="black" points="306,-33.5 306,-101.5 447,-101.5 447,-33.5 306,-33.5"/>
<text text-anchor="middle" x="376.5" y="-89.5" font-family="Helvetica,sans-Serif" font-size="10.00">FLT_COMPARE_OBJECT_s</text>
<polyline fill="none" stroke="black" points="306,-82.5 447,-82.5 "/>
<text text-anchor="start" x="314" y="-70.5" font-family="Helvetica,sans-Serif" font-size="10.00">+ ptrObject</text>
<text text-anchor="start" x="314" y="-59.5" font-family="Helvetica,sans-Serif" font-size="10.00">+ bitMask</text>
<polyline fill="none" stroke="black" points="306,-52.5 447,-52.5 "/>
<text text-anchor="middle" x="376.5" y="-40.5" font-family="Helvetica,sans-Serif" font-size="10.00"> </text>
</a>
</g>
</g>
<!-- Node1&#45;&gt;Node4 -->
<g id="edge6" class="edge">
<title>Node1&#45;&gt;Node4</title>
<path fill="none" stroke="midnightblue" d="M262.02,-201.2C277.2,-194.4 292.8,-185.73 305.5,-175 329.27,-154.92 348.27,-124.96 360.62,-101.92"/>
<polygon fill="none" stroke="midnightblue" points="260.47,-198.05 252.65,-205.19 263.22,-204.49 260.47,-198.05"/>
</g>
<!-- Node2&#45;&gt;Node1 -->
<g id="edge1" class="edge">
<title>Node2&#45;&gt;Node1</title>
<path fill="none" stroke="#404040" d="M122.26,-134.77C134.15,-148.17 146.65,-162.11 158.5,-175 161.35,-178.1 164.33,-181.31 167.34,-184.51"/>
<polygon fill="none" stroke="#404040" points="167.55,-184.72 174.57,-186.33 175.79,-193.44 168.76,-191.83 167.55,-184.72"/>
<text text-anchor="middle" x="177.5" y="-161.5" font-family="Helvetica,sans-Serif" font-size="10.00"> +Status</text>
</g>
<!-- Node3&#45;&gt;Node1 -->
<g id="edge3" class="edge">
<title>Node3&#45;&gt;Node1</title>
<path fill="none" stroke="#404040" d="M213.7,-107.1C211.47,-129.8 208.65,-158.45 206.4,-181.34"/>
<polygon fill="none" stroke="#404040" points="206.39,-181.44 209.78,-187.8 205.22,-193.38 201.82,-187.02 206.39,-181.44"/>
<text text-anchor="middle" x="255" y="-167" font-family="Helvetica,sans-Serif" font-size="10.00"> +RecoveryResponse</text>
<text text-anchor="middle" x="255" y="-156" font-family="Helvetica,sans-Serif" font-size="10.00">+TripResponse</text>
</g>
<!-- Node4&#45;&gt;Node1 -->
<g id="edge5" class="edge">
<title>Node4&#45;&gt;Node1</title>
<path fill="none" stroke="#404040" d="M374.81,-101.88C371.91,-125.2 364.43,-155.53 345.5,-175 324.26,-196.84 292.63,-208.33 264.52,-214.36"/>
<polygon fill="none" stroke="#404040" points="264.51,-214.36 259.37,-219.42 252.72,-216.63 257.86,-211.57 264.51,-214.36"/>
<text text-anchor="middle" x="401.5" y="-167" font-family="Helvetica,sans-Serif" font-size="10.00"> +ReferenceObject</text>
<text text-anchor="middle" x="401.5" y="-156" font-family="Helvetica,sans-Serif" font-size="10.00">+SourceObject</text>
</g>
</g>
</svg>
