<?xml version="1.0" encoding="UTF-8" standalone="no"?>
<!DOCTYPE svg PUBLIC "-//W3C//DTD SVG 1.1//EN"
 "http://www.w3.org/Graphics/SVG/1.1/DTD/svg11.dtd">
<!-- Generated by graphviz version 2.44.1 (20200629.0846)
 -->
<!-- Title: FLT_COMPARE_OBJECT_s Pages: 1 -->
<svg width="303pt" height="386pt"
 viewBox="0.00 0.00 302.50 386.00" xmlns="http://www.w3.org/2000/svg" xmlns:xlink="http://www.w3.org/1999/xlink">
<g id="graph0" class="graph" transform="scale(1 1) rotate(0) translate(4 382)">
<title>FLT_COMPARE_OBJECT_s</title>
<!-- Node1 -->
<g id="node1" class="node">
<title>Node1</title>
<g id="a_node1"><a xlink:title="This data structure defines the data object which will be monitored by the fault handler.">
<polygon fill="#bfbfbf" stroke="black" points="80,-309.5 80,-377.5 221,-377.5 221,-309.5 80,-309.5"/>
<text text-anchor="middle" x="150.5" y="-365.5" font-family="Helvetica,sans-Serif" font-size="10.00">FLT_COMPARE_OBJECT_s</text>
<polyline fill="none" stroke="black" points="80,-358.5 221,-358.5 "/>
<text text-anchor="start" x="88" y="-346.5" font-family="Helvetica,sans-Serif" font-size="10.00">+ ptrObject</text>
<text text-anchor="start" x="88" y="-335.5" font-family="Helvetica,sans-Serif" font-size="10.00">+ bitMask</text>
<polyline fill="none" stroke="black" points="80,-328.5 221,-328.5 "/>
<text text-anchor="middle" x="150.5" y="-316.5" font-family="Helvetica,sans-Serif" font-size="10.00"> </text>
</a>
</g>
</g>
<!-- Node2 -->
<g id="node2" class="node">
<title>Node2</title>
<g id="a_node2"><a xlink:href="a01088.html" target="_top" xlink:title="This data structure is a collection of data structures for fault handling.">
<polygon fill="none" stroke="black" points="100.5,-193.5 100.5,-250.5 200.5,-250.5 200.5,-193.5 100.5,-193.5"/>
<text text-anchor="middle" x="150.5" y="-238.5" font-family="Helvetica,sans-Serif" font-size="10.00">FAULT_OBJECT_s</text>
<polyline fill="none" stroke="black" points="100.5,-231.5 200.5,-231.5 "/>
<text text-anchor="start" x="108.5" y="-219.5" font-family="Helvetica,sans-Serif" font-size="10.00">+ Counter</text>
<polyline fill="none" stroke="black" points="100.5,-212.5 200.5,-212.5 "/>
<text text-anchor="middle" x="150.5" y="-200.5" font-family="Helvetica,sans-Serif" font-size="10.00"> </text>
</a>
</g>
</g>
<!-- Node1&#45;&gt;Node2 -->
<g id="edge6" class="edge">
<title>Node1&#45;&gt;Node2</title>
<path fill="none" stroke="#404040" d="M110.66,-309.25C106.13,-303.65 102.18,-297.52 99.5,-291 95.78,-281.96 95.53,-277.93 99.5,-269 100.86,-265.94 102.54,-263 104.44,-260.18"/>
<polygon fill="none" stroke="#404040" points="104.66,-259.91 105.32,-252.73 112.2,-250.58 111.54,-257.76 104.66,-259.91"/>
<text text-anchor="middle" x="140.5" y="-283" font-family="Helvetica,sans-Serif" font-size="10.00"> +ReferenceObject</text>
<text text-anchor="middle" x="140.5" y="-272" font-family="Helvetica,sans-Serif" font-size="10.00">+SourceObject</text>
</g>
<!-- Node2&#45;&gt;Node1 -->
<g id="edge1" class="edge">
<title>Node2&#45;&gt;Node1</title>
<path fill="none" stroke="midnightblue" d="M181.2,-259.2C182.9,-262.38 184.38,-265.67 185.5,-269 188.62,-278.27 188.38,-281.65 185.5,-291 183.56,-297.3 180.56,-303.53 177.11,-309.35"/>
<polygon fill="none" stroke="midnightblue" points="184.09,-257.22 175.88,-250.53 178.12,-260.88 184.09,-257.22"/>
</g>
<!-- Node3 -->
<g id="node3" class="node">
<title>Node3</title>
<g id="a_node3"><a xlink:href="a01068.html" target="_top" xlink:title="This data structure defines the fault object status.">
<polygon fill="none" stroke="black" points="0,-0.5 0,-134.5 129,-134.5 129,-0.5 0,-0.5"/>
<text text-anchor="middle" x="64.5" y="-122.5" font-family="Helvetica,sans-Serif" font-size="10.00">FLT_OBJECT_STATUS_s</text>
<polyline fill="none" stroke="black" points="0,-115.5 129,-115.5 "/>
<text text-anchor="start" x="8" y="-103.5" font-family="Helvetica,sans-Serif" font-size="10.00">+ FaultStatus</text>
<text text-anchor="start" x="8" y="-92.5" font-family="Helvetica,sans-Serif" font-size="10.00">+ FaultActive</text>
<text text-anchor="start" x="8" y="-81.5" font-family="Helvetica,sans-Serif" font-size="10.00">+ unsigned</text>
<text text-anchor="start" x="8" y="-70.5" font-family="Helvetica,sans-Serif" font-size="10.00">+ CompareType</text>
<text text-anchor="start" x="8" y="-59.5" font-family="Helvetica,sans-Serif" font-size="10.00">+ Enabled</text>
<text text-anchor="start" x="8" y="-48.5" font-family="Helvetica,sans-Serif" font-size="10.00">+ bits</text>
<text text-anchor="start" x="8" y="-37.5" font-family="Helvetica,sans-Serif" font-size="10.00">+ value</text>
<text text-anchor="start" x="8" y="-26.5" font-family="Helvetica,sans-Serif" font-size="10.00">+ @112</text>
<polyline fill="none" stroke="black" points="0,-19.5 129,-19.5 "/>
<text text-anchor="middle" x="64.5" y="-7.5" font-family="Helvetica,sans-Serif" font-size="10.00"> </text>
</a>
</g>
</g>
<!-- Node2&#45;&gt;Node3 -->
<g id="edge3" class="edge">
<title>Node2&#45;&gt;Node3</title>
<path fill="none" stroke="midnightblue" d="M116.95,-185.58C114.28,-182.11 111.75,-178.56 109.5,-175 101.61,-162.53 94.55,-148.44 88.48,-134.69"/>
<polygon fill="none" stroke="midnightblue" points="114.33,-187.91 123.36,-193.46 119.76,-183.49 114.33,-187.91"/>
</g>
<!-- Node4 -->
<g id="node4" class="node">
<title>Node4</title>
<g id="a_node4"><a xlink:href="a01084.html" target="_top" xlink:title="This data structure defines the fault monitor event response object.">
<polygon fill="none" stroke="black" points="147,-28 147,-107 288,-107 288,-28 147,-28"/>
<text text-anchor="middle" x="217.5" y="-95" font-family="Helvetica,sans-Serif" font-size="10.00">FLT_EVENT_RESPONSE_s</text>
<polyline fill="none" stroke="black" points="147,-88 288,-88 "/>
<text text-anchor="start" x="155" y="-76" font-family="Helvetica,sans-Serif" font-size="10.00">+ compareThreshold</text>
<text text-anchor="start" x="155" y="-65" font-family="Helvetica,sans-Serif" font-size="10.00">+ eventThreshold</text>
<text text-anchor="start" x="155" y="-54" font-family="Helvetica,sans-Serif" font-size="10.00">+ ptrResponseFunction</text>
<polyline fill="none" stroke="black" points="147,-47 288,-47 "/>
<text text-anchor="middle" x="217.5" y="-35" font-family="Helvetica,sans-Serif" font-size="10.00"> </text>
</a>
</g>
</g>
<!-- Node2&#45;&gt;Node4 -->
<g id="edge5" class="edge">
<title>Node2&#45;&gt;Node4</title>
<path fill="none" stroke="midnightblue" d="M166.68,-184.17C176.93,-160.85 190.15,-130.74 200.54,-107.1"/>
<polygon fill="none" stroke="midnightblue" points="163.45,-182.82 162.63,-193.38 169.86,-185.64 163.45,-182.82"/>
</g>
<!-- Node3&#45;&gt;Node2 -->
<g id="edge2" class="edge">
<title>Node3&#45;&gt;Node2</title>
<path fill="none" stroke="#404040" d="M101.75,-134.56C111.04,-151.02 120.69,-168.14 128.93,-182.75"/>
<polygon fill="none" stroke="#404040" points="129.03,-182.93 135.46,-186.19 134.93,-193.38 128.49,-190.12 129.03,-182.93"/>
<text text-anchor="middle" x="142.5" y="-161.5" font-family="Helvetica,sans-Serif" font-size="10.00"> +Status</text>
</g>
<!-- Node4&#45;&gt;Node2 -->
<g id="edge4" class="edge">
<title>Node4&#45;&gt;Node2</title>
<path fill="none" stroke="#404040" d="M213.26,-107.13C209.79,-128.12 203.57,-154 192.5,-175 190.97,-177.9 189.21,-180.77 187.3,-183.56"/>
<polygon fill="none" stroke="#404040" points="187.15,-183.76 186.67,-190.95 179.85,-193.28 180.32,-186.09 187.15,-183.76"/>
<text text-anchor="middle" x="248" y="-167" font-family="Helvetica,sans-Serif" font-size="10.00"> +RecoveryResponse</text>
<text text-anchor="middle" x="248" y="-156" font-family="Helvetica,sans-Serif" font-size="10.00">+TripResponse</text>
</g>
</g>
</svg>
