<?xml version="1.0" encoding="UTF-8" standalone="no"?>
<!DOCTYPE svg PUBLIC "-//W3C//DTD SVG 1.1//EN"
 "http://www.w3.org/Graphics/SVG/1.1/DTD/svg11.dtd">
<!-- Generated by graphviz version 2.44.1 (20200629.0846)
 -->
<!-- Title: TRAP_LOGGER_s Pages: 1 -->
<svg width="544pt" height="303pt"
 viewBox="0.00 0.00 544.00 303.00" xmlns="http://www.w3.org/2000/svg" xmlns:xlink="http://www.w3.org/1999/xlink">
<g id="graph0" class="graph" transform="scale(1 1) rotate(0) translate(4 299)">
<title>TRAP_LOGGER_s</title>
<!-- Node1 -->
<g id="node1" class="node">
<title>Node1</title>
<g id="a_node1"><a xlink:title="Global data structure for trap event capturing.">
<polygon fill="#bfbfbf" stroke="black" points="215.5,-215.5 215.5,-294.5 314.5,-294.5 314.5,-215.5 215.5,-215.5"/>
<text text-anchor="middle" x="265" y="-282.5" font-family="Helvetica,sans-Serif" font-size="10.00">TRAP_LOGGER_s</text>
<polyline fill="none" stroke="black" points="215.5,-275.5 314.5,-275.5 "/>
<text text-anchor="start" x="223.5" y="-263.5" font-family="Helvetica,sans-Serif" font-size="10.00">+ reset_count</text>
<text text-anchor="start" x="223.5" y="-252.5" font-family="Helvetica,sans-Serif" font-size="10.00">+ trap_id</text>
<text text-anchor="start" x="223.5" y="-241.5" font-family="Helvetica,sans-Serif" font-size="10.00">+ trap_count</text>
<polyline fill="none" stroke="black" points="215.5,-234.5 314.5,-234.5 "/>
<text text-anchor="middle" x="265" y="-222.5" font-family="Helvetica,sans-Serif" font-size="10.00"> </text>
</a>
</g>
</g>
<!-- Node2 -->
<g id="node2" class="node">
<title>Node2</title>
<g id="a_node2"><a xlink:href="a01140.html" target="_top" xlink:title="Provides information for executed task, fault event and operating mode ID of task manager.">
<polygon fill="none" stroke="black" points="0,-44.5 0,-123.5 80,-123.5 80,-44.5 0,-44.5"/>
<text text-anchor="middle" x="40" y="-111.5" font-family="Helvetica,sans-Serif" font-size="10.00">TASK_INFO_s</text>
<polyline fill="none" stroke="black" points="0,-104.5 80,-104.5 "/>
<text text-anchor="start" x="8" y="-92.5" font-family="Helvetica,sans-Serif" font-size="10.00">+ task_id</text>
<text text-anchor="start" x="8" y="-81.5" font-family="Helvetica,sans-Serif" font-size="10.00">+ fault_id</text>
<text text-anchor="start" x="8" y="-70.5" font-family="Helvetica,sans-Serif" font-size="10.00">+ op_mode</text>
<polyline fill="none" stroke="black" points="0,-63.5 80,-63.5 "/>
<text text-anchor="middle" x="40" y="-51.5" font-family="Helvetica,sans-Serif" font-size="10.00"> </text>
</a>
</g>
</g>
<!-- Node1&#45;&gt;Node2 -->
<g id="edge2" class="edge">
<title>Node1&#45;&gt;Node2</title>
<path fill="none" stroke="midnightblue" d="M205.4,-243.78C172.3,-235.64 132.08,-221.41 103,-197 80.02,-177.71 63.8,-147.77 53.57,-123.7"/>
<polygon fill="none" stroke="midnightblue" points="204.89,-247.25 215.42,-246.11 206.47,-240.43 204.89,-247.25"/>
</g>
<!-- Node3 -->
<g id="node3" class="node">
<title>Node3</title>
<g id="a_node3"><a xlink:href="a01092.html" target="_top" xlink:title="Defines the Trap Flag for primary and secondary vectors.">
<polygon fill="none" stroke="black" points="102,-0.5 102,-167.5 192,-167.5 192,-0.5 102,-0.5"/>
<text text-anchor="middle" x="147" y="-155.5" font-family="Helvetica,sans-Serif" font-size="10.00">TRAP_FLAGS_s</text>
<polyline fill="none" stroke="black" points="102,-148.5 192,-148.5 "/>
<text text-anchor="start" x="110" y="-136.5" font-family="Helvetica,sans-Serif" font-size="10.00">+ OVAERR</text>
<text text-anchor="start" x="110" y="-125.5" font-family="Helvetica,sans-Serif" font-size="10.00">+ OVBERR</text>
<text text-anchor="start" x="110" y="-114.5" font-family="Helvetica,sans-Serif" font-size="10.00">+ COVAERR</text>
<text text-anchor="start" x="110" y="-103.5" font-family="Helvetica,sans-Serif" font-size="10.00">+ COVBERR</text>
<text text-anchor="start" x="110" y="-92.5" font-family="Helvetica,sans-Serif" font-size="10.00">+ SFTACERR</text>
<text text-anchor="start" x="110" y="-81.5" font-family="Helvetica,sans-Serif" font-size="10.00">+ DIV0ERR</text>
<text text-anchor="start" x="110" y="-70.5" font-family="Helvetica,sans-Serif" font-size="10.00">+ MATHERR</text>
<text text-anchor="start" x="110" y="-59.5" font-family="Helvetica,sans-Serif" font-size="10.00">+ ADDRERR</text>
<text text-anchor="start" x="110" y="-48.5" font-family="Helvetica,sans-Serif" font-size="10.00">+ STKERR</text>
<text text-anchor="start" x="110" y="-37.5" font-family="Helvetica,sans-Serif" font-size="10.00">+ OSCFAIL</text>
<text text-anchor="start" x="110" y="-26.5" font-family="Helvetica,sans-Serif" font-size="10.00">and 13 more...</text>
<polyline fill="none" stroke="black" points="102,-19.5 192,-19.5 "/>
<text text-anchor="middle" x="147" y="-7.5" font-family="Helvetica,sans-Serif" font-size="10.00"> </text>
</a>
</g>
</g>
<!-- Node1&#45;&gt;Node3 -->
<g id="edge4" class="edge">
<title>Node1&#45;&gt;Node3</title>
<path fill="none" stroke="midnightblue" d="M207.89,-211.67C203.23,-207 198.84,-202.09 195,-197 188.25,-188.05 182.24,-178 176.94,-167.7"/>
<polygon fill="none" stroke="midnightblue" points="205.74,-214.45 215.41,-218.78 210.55,-209.36 205.74,-214.45"/>
</g>
<!-- Node4 -->
<g id="node4" class="node">
<title>Node4</title>
<g id="a_node4"><a xlink:href="a01116.html" target="_top" xlink:title="Data structure for RCON status capturing.">
<polygon fill="none" stroke="black" points="210,-0.5 210,-167.5 290,-167.5 290,-0.5 210,-0.5"/>
<text text-anchor="middle" x="250" y="-155.5" font-family="Helvetica,sans-Serif" font-size="10.00">CPU_RCON_s</text>
<polyline fill="none" stroke="black" points="210,-148.5 290,-148.5 "/>
<text text-anchor="start" x="218" y="-136.5" font-family="Helvetica,sans-Serif" font-size="10.00">+ por</text>
<text text-anchor="start" x="218" y="-125.5" font-family="Helvetica,sans-Serif" font-size="10.00">+ bor</text>
<text text-anchor="start" x="218" y="-114.5" font-family="Helvetica,sans-Serif" font-size="10.00">+ idle</text>
<text text-anchor="start" x="218" y="-103.5" font-family="Helvetica,sans-Serif" font-size="10.00">+ sleep</text>
<text text-anchor="start" x="218" y="-92.5" font-family="Helvetica,sans-Serif" font-size="10.00">+ wdto</text>
<text text-anchor="start" x="218" y="-81.5" font-family="Helvetica,sans-Serif" font-size="10.00">+ swdten</text>
<text text-anchor="start" x="218" y="-70.5" font-family="Helvetica,sans-Serif" font-size="10.00">+ swr</text>
<text text-anchor="start" x="218" y="-59.5" font-family="Helvetica,sans-Serif" font-size="10.00">+ extr</text>
<text text-anchor="start" x="218" y="-48.5" font-family="Helvetica,sans-Serif" font-size="10.00">+ vregs</text>
<text text-anchor="start" x="218" y="-37.5" font-family="Helvetica,sans-Serif" font-size="10.00">+ cm</text>
<text text-anchor="start" x="218" y="-26.5" font-family="Helvetica,sans-Serif" font-size="10.00">and 7 more...</text>
<polyline fill="none" stroke="black" points="210,-19.5 290,-19.5 "/>
<text text-anchor="middle" x="250" y="-7.5" font-family="Helvetica,sans-Serif" font-size="10.00"> </text>
</a>
</g>
</g>
<!-- Node1&#45;&gt;Node4 -->
<g id="edge6" class="edge">
<title>Node1&#45;&gt;Node4</title>
<path fill="none" stroke="midnightblue" d="M260.67,-205.21C259.62,-193.44 258.48,-180.53 257.34,-167.69"/>
<polygon fill="none" stroke="midnightblue" points="257.19,-205.58 261.56,-215.23 264.16,-204.96 257.19,-205.58"/>
</g>
<!-- Node5 -->
<g id="node5" class="node">
<title>Node5</title>
<g id="a_node5"><a xlink:href="a01104.html" target="_top" xlink:title="defining the CPU interrupt for primary and secondary vectors">
<polygon fill="none" stroke="black" points="308.5,-22.5 308.5,-145.5 401.5,-145.5 401.5,-22.5 308.5,-22.5"/>
<text text-anchor="middle" x="355" y="-133.5" font-family="Helvetica,sans-Serif" font-size="10.00">CPU_INTTREG_s</text>
<polyline fill="none" stroke="black" points="308.5,-126.5 401.5,-126.5 "/>
<text text-anchor="start" x="316.5" y="-114.5" font-family="Helvetica,sans-Serif" font-size="10.00">+ VECNUM</text>
<text text-anchor="start" x="316.5" y="-103.5" font-family="Helvetica,sans-Serif" font-size="10.00">+ ILR</text>
<text text-anchor="start" x="316.5" y="-92.5" font-family="Helvetica,sans-Serif" font-size="10.00">+ unsigned</text>
<text text-anchor="start" x="316.5" y="-81.5" font-family="Helvetica,sans-Serif" font-size="10.00">+ VHOLD</text>
<text text-anchor="start" x="316.5" y="-70.5" font-family="Helvetica,sans-Serif" font-size="10.00">+ bits</text>
<text text-anchor="start" x="316.5" y="-59.5" font-family="Helvetica,sans-Serif" font-size="10.00">+ value</text>
<text text-anchor="start" x="316.5" y="-48.5" font-family="Helvetica,sans-Serif" font-size="10.00">+ @118</text>
<polyline fill="none" stroke="black" points="308.5,-41.5 401.5,-41.5 "/>
<text text-anchor="middle" x="355" y="-29.5" font-family="Helvetica,sans-Serif" font-size="10.00"> </text>
</a>
</g>
</g>
<!-- Node1&#45;&gt;Node5 -->
<g id="edge8" class="edge">
<title>Node1&#45;&gt;Node5</title>
<path fill="none" stroke="midnightblue" d="M305.54,-207.14C307.84,-203.79 310.02,-200.39 312,-197 321.29,-181.08 329.29,-162.78 335.79,-145.65"/>
<polygon fill="none" stroke="midnightblue" points="302.63,-205.19 299.61,-215.35 308.3,-209.29 302.63,-205.19"/>
</g>
<!-- Node6 -->
<g id="node6" class="node">
<title>Node6</title>
<g id="a_node6"><a xlink:href="a01128.html" target="_top" xlink:title="Data structure for RCON status capturing.">
<polygon fill="none" stroke="black" points="420,-28 420,-140 536,-140 536,-28 420,-28"/>
<text text-anchor="middle" x="478" y="-128" font-family="Helvetica,sans-Serif" font-size="10.00">TRAPLOG_STATUS_s</text>
<polyline fill="none" stroke="black" points="420,-121 536,-121 "/>
<text text-anchor="start" x="428" y="-109" font-family="Helvetica,sans-Serif" font-size="10.00">+ cpu_reset_trigger</text>
<text text-anchor="start" x="428" y="-98" font-family="Helvetica,sans-Serif" font-size="10.00">+ unsigned</text>
<text text-anchor="start" x="428" y="-87" font-family="Helvetica,sans-Serif" font-size="10.00">+ sw_reset</text>
<text text-anchor="start" x="428" y="-76" font-family="Helvetica,sans-Serif" font-size="10.00">+ bits</text>
<text text-anchor="start" x="428" y="-65" font-family="Helvetica,sans-Serif" font-size="10.00">+ value</text>
<text text-anchor="start" x="428" y="-54" font-family="Helvetica,sans-Serif" font-size="10.00">+ @124</text>
<polyline fill="none" stroke="black" points="420,-47 536,-47 "/>
<text text-anchor="middle" x="478" y="-35" font-family="Helvetica,sans-Serif" font-size="10.00"> </text>
</a>
</g>
</g>
<!-- Node1&#45;&gt;Node6 -->
<g id="edge10" class="edge">
<title>Node1&#45;&gt;Node6</title>
<path fill="none" stroke="midnightblue" d="M324.15,-237.5C349.63,-228.4 378.63,-215.19 401,-197 420.04,-181.52 436.32,-160.13 448.94,-140.19"/>
<polygon fill="none" stroke="midnightblue" points="322.9,-234.23 314.58,-240.79 325.18,-240.85 322.9,-234.23"/>
</g>
<!-- Node2&#45;&gt;Node1 -->
<g id="edge1" class="edge">
<title>Node2&#45;&gt;Node1</title>
<path fill="none" stroke="#404040" d="M57.99,-123.51C71.3,-147.97 91.67,-178.42 118,-197 143.73,-215.16 176.03,-228.51 203.79,-237.71"/>
<polygon fill="none" stroke="#404040" points="203.94,-237.76 210.88,-235.76 215.38,-241.4 208.45,-243.39 203.94,-237.76"/>
<text text-anchor="middle" x="151" y="-189" font-family="Helvetica,sans-Serif" font-size="10.00"> +task_capture</text>
</g>
<!-- Node3&#45;&gt;Node1 -->
<g id="edge3" class="edge">
<title>Node3&#45;&gt;Node1</title>
<path fill="none" stroke="#404040" d="M184.91,-167.74C190.78,-177.93 197.18,-187.93 204,-197 206.35,-200.13 208.89,-203.23 211.54,-206.28"/>
<polygon fill="none" stroke="#404040" points="211.65,-206.4 218.66,-208.1 219.79,-215.22 212.78,-213.52 211.65,-206.4"/>
<text text-anchor="middle" x="230" y="-189" font-family="Helvetica,sans-Serif" font-size="10.00"> +trap_flags</text>
</g>
<!-- Node4&#45;&gt;Node1 -->
<g id="edge5" class="edge">
<title>Node4&#45;&gt;Node1</title>
<path fill="none" stroke="#404040" d="M258.36,-167.66C258.93,-173.87 259.49,-180.03 260,-186 260.47,-191.45 260.93,-197.16 261.38,-202.84"/>
<polygon fill="none" stroke="#404040" points="261.4,-203.18 265.85,-208.86 262.31,-215.15 257.87,-209.47 261.4,-203.18"/>
<text text-anchor="middle" x="284.5" y="-189" font-family="Helvetica,sans-Serif" font-size="10.00"> +rcon_reg</text>
</g>
<!-- Node5&#45;&gt;Node1 -->
<g id="edge7" class="edge">
<title>Node5&#45;&gt;Node1</title>
<path fill="none" stroke="#404040" d="M365.64,-145.58C365.97,-163.07 363.48,-181.58 355,-197 348.03,-209.66 336.94,-219.9 324.88,-228.02"/>
<polygon fill="none" stroke="#404040" points="324.82,-228.06 321.8,-234.61 314.6,-234.35 317.61,-227.8 324.82,-228.06"/>
<text text-anchor="middle" x="378.5" y="-189" font-family="Helvetica,sans-Serif" font-size="10.00"> +inttreg</text>
</g>
<!-- Node6&#45;&gt;Node1 -->
<g id="edge9" class="edge">
<title>Node6&#45;&gt;Node1</title>
<path fill="none" stroke="#404040" d="M475.32,-140.27C471.72,-160.34 464.41,-181.8 450,-197 418.26,-230.5 367.36,-244.46 326.97,-250.2"/>
<polygon fill="none" stroke="#404040" points="326.71,-250.24 321.26,-254.96 314.81,-251.74 320.26,-247.02 326.71,-250.24"/>
<text text-anchor="middle" x="475.5" y="-189" font-family="Helvetica,sans-Serif" font-size="10.00"> +status</text>
</g>
</g>
</svg>
