<?xml version="1.0" encoding="UTF-8" standalone="no"?>
<!DOCTYPE svg PUBLIC "-//W3C//DTD SVG 1.1//EN"
 "http://www.w3.org/Graphics/SVG/1.1/DTD/svg11.dtd">
<!-- Generated by graphviz version 2.44.1 (20200629.0846)
 -->
<!-- Title: TRAP_LOGGER_s Pages: 1 -->
<!--zoomable 347 -->
<svg id="main" version="1.1" xmlns="http://www.w3.org/2000/svg" xmlns:xlink="http://www.w3.org/1999/xlink" xml:space="preserve" onload="init(evt)">
<style type="text/css"><![CDATA[
.edge:hover path { stroke: red; }
.edge:hover polygon { stroke: red; fill: red; }
]]></style>
<script type="text/javascript"><![CDATA[
var edges = document.getElementsByTagName('g');
if (edges && edges.length) {
  for (var i=0;i<edges.length;i++) {
    if (edges[i].id.substr(0,4)=='edge') {
      edges[i].setAttribute('class','edge');
    }
  }
}
]]></script>
        <defs>
                <circle id="rim" cx="0" cy="0" r="7"/>
                <circle id="rim2" cx="0" cy="0" r="3.5"/>
                <g id="zoomPlus">
                        <use xlink:href="#rim" fill="#404040">
                                <set attributeName="fill" to="#808080" begin="zoomplus.mouseover" end="zoomplus.mouseout"/>
                        </use>
                        <path d="M-4,0h8M0,-4v8" fill="none" stroke="white" stroke-width="1.5" pointer-events="none"/>
                </g>
                <g id="zoomMin">
                        <use xlink:href="#rim" fill="#404040">
                                <set attributeName="fill" to="#808080" begin="zoomminus.mouseover" end="zoomminus.mouseout"/>
                        </use>
                        <path d="M-4,0h8" fill="none" stroke="white" stroke-width="1.5" pointer-events="none"/>
                </g>
                <g id="dirArrow">
                        <path fill="none" stroke="white" stroke-width="1.5" d="M0,-3.0v7 M-2.5,-0.5L0,-3.0L2.5,-0.5"/>
                </g>
               <g id="resetDef">
                       <use xlink:href="#rim2" fill="#404040">
                               <set attributeName="fill" to="#808080" begin="reset.mouseover" end="reset.mouseout"/>
                       </use>
               </g>
        </defs>

<script type="text/javascript">
var viewWidth = 540;
var viewHeight = 347;
var sectionId = 'dynsection-0';
</script>
<script xlink:href="svgpan.js"/>
<svg id="graph" class="graph">
<g id="viewport">
<title>TRAP_LOGGER_s</title>
<!-- Node1 -->
<g id="node1" class="node">
<title>Node1</title>
<g id="a_node1"><a xlink:title="Global data structure for trap event capturing.">
<polygon fill="#bfbfbf" stroke="black" points="200,-204.5 200,-338.5 299,-338.5 299,-204.5 200,-204.5"/>
<text text-anchor="middle" x="249.5" y="-326.5" font-family="Helvetica,sans-Serif" font-size="10.00">TRAP_LOGGER_s</text>
<polyline fill="none" stroke="black" points="200,-319.5 299,-319.5 "/>
<text text-anchor="start" x="208" y="-307.5" font-family="Helvetica,sans-Serif" font-size="10.00">+ status</text>
<text text-anchor="start" x="208" y="-296.5" font-family="Helvetica,sans-Serif" font-size="10.00">+ reset_count</text>
<text text-anchor="start" x="208" y="-285.5" font-family="Helvetica,sans-Serif" font-size="10.00">+ trap_id</text>
<text text-anchor="start" x="208" y="-274.5" font-family="Helvetica,sans-Serif" font-size="10.00">+ trap_count</text>
<text text-anchor="start" x="208" y="-263.5" font-family="Helvetica,sans-Serif" font-size="10.00">+ trap_flags</text>
<text text-anchor="start" x="208" y="-252.5" font-family="Helvetica,sans-Serif" font-size="10.00">+ rcon_reg</text>
<text text-anchor="start" x="208" y="-241.5" font-family="Helvetica,sans-Serif" font-size="10.00">+ inttreg</text>
<text text-anchor="start" x="208" y="-230.5" font-family="Helvetica,sans-Serif" font-size="10.00">+ task_capture</text>
<polyline fill="none" stroke="black" points="200,-223.5 299,-223.5 "/>
<text text-anchor="middle" x="249.5" y="-211.5" font-family="Helvetica,sans-Serif" font-size="10.00"> </text>
</a>
</g>
</g>
<!-- Node2 -->
<g id="node2" class="node">
<title>Node2</title>
<g id="a_node2"><a xlink:href="a01104.html" target="_top" xlink:title="defining the CPU interrupt for primary and secondary vectors">
<polygon fill="none" stroke="black" points="0,-22.5 0,-145.5 93,-145.5 93,-22.5 0,-22.5"/>
<text text-anchor="middle" x="46.5" y="-133.5" font-family="Helvetica,sans-Serif" font-size="10.00">CPU_INTTREG_s</text>
<polyline fill="none" stroke="black" points="0,-126.5 93,-126.5 "/>
<text text-anchor="start" x="8" y="-114.5" font-family="Helvetica,sans-Serif" font-size="10.00">+ VECNUM</text>
<text text-anchor="start" x="8" y="-103.5" font-family="Helvetica,sans-Serif" font-size="10.00">+ ILR</text>
<text text-anchor="start" x="8" y="-92.5" font-family="Helvetica,sans-Serif" font-size="10.00">+ unsigned</text>
<text text-anchor="start" x="8" y="-81.5" font-family="Helvetica,sans-Serif" font-size="10.00">+ VHOLD</text>
<text text-anchor="start" x="8" y="-70.5" font-family="Helvetica,sans-Serif" font-size="10.00">+ bits</text>
<text text-anchor="start" x="8" y="-59.5" font-family="Helvetica,sans-Serif" font-size="10.00">+ value</text>
<text text-anchor="start" x="8" y="-48.5" font-family="Helvetica,sans-Serif" font-size="10.00">+ @118</text>
<polyline fill="none" stroke="black" points="0,-41.5 93,-41.5 "/>
<text text-anchor="middle" x="46.5" y="-29.5" font-family="Helvetica,sans-Serif" font-size="10.00"> </text>
</a>
</g>
</g>
<!-- Node1&#45;&gt;Node2 -->
<g id="edge1" class="edge">
<title>Node1&#45;&gt;Node2</title>
<path fill="none" stroke="midnightblue" d="M191.03,-236.8C162.42,-218.64 128.61,-194.52 102.5,-168 95.79,-161.19 89.38,-153.47 83.45,-145.55"/>
<polygon fill="none" stroke="midnightblue" points="189.39,-239.91 199.73,-242.25 193.11,-233.98 189.39,-239.91"/>
</g>
<!-- Node3 -->
<g id="node3" class="node">
<title>Node3</title>
<g id="a_node3"><a xlink:href="a01116.html" target="_top" xlink:title="Data structure for RCON status capturing.">
<polygon fill="none" stroke="black" points="111.5,-0.5 111.5,-167.5 191.5,-167.5 191.5,-0.5 111.5,-0.5"/>
<text text-anchor="middle" x="151.5" y="-155.5" font-family="Helvetica,sans-Serif" font-size="10.00">CPU_RCON_s</text>
<polyline fill="none" stroke="black" points="111.5,-148.5 191.5,-148.5 "/>
<text text-anchor="start" x="119.5" y="-136.5" font-family="Helvetica,sans-Serif" font-size="10.00">+ por</text>
<text text-anchor="start" x="119.5" y="-125.5" font-family="Helvetica,sans-Serif" font-size="10.00">+ bor</text>
<text text-anchor="start" x="119.5" y="-114.5" font-family="Helvetica,sans-Serif" font-size="10.00">+ idle</text>
<text text-anchor="start" x="119.5" y="-103.5" font-family="Helvetica,sans-Serif" font-size="10.00">+ sleep</text>
<text text-anchor="start" x="119.5" y="-92.5" font-family="Helvetica,sans-Serif" font-size="10.00">+ wdto</text>
<text text-anchor="start" x="119.5" y="-81.5" font-family="Helvetica,sans-Serif" font-size="10.00">+ swdten</text>
<text text-anchor="start" x="119.5" y="-70.5" font-family="Helvetica,sans-Serif" font-size="10.00">+ swr</text>
<text text-anchor="start" x="119.5" y="-59.5" font-family="Helvetica,sans-Serif" font-size="10.00">+ extr</text>
<text text-anchor="start" x="119.5" y="-48.5" font-family="Helvetica,sans-Serif" font-size="10.00">+ vregs</text>
<text text-anchor="start" x="119.5" y="-37.5" font-family="Helvetica,sans-Serif" font-size="10.00">+ cm</text>
<text text-anchor="start" x="119.5" y="-26.5" font-family="Helvetica,sans-Serif" font-size="10.00">and 7 more...</text>
<polyline fill="none" stroke="black" points="111.5,-19.5 191.5,-19.5 "/>
<text text-anchor="middle" x="151.5" y="-7.5" font-family="Helvetica,sans-Serif" font-size="10.00"> </text>
</a>
</g>
</g>
<!-- Node1&#45;&gt;Node3 -->
<g id="edge2" class="edge">
<title>Node1&#45;&gt;Node3</title>
<path fill="none" stroke="midnightblue" d="M209.78,-195.32C203.8,-183.99 197.62,-172.3 191.63,-160.96"/>
<polygon fill="none" stroke="midnightblue" points="206.77,-197.11 214.53,-204.32 212.96,-193.84 206.77,-197.11"/>
</g>
<!-- Node4 -->
<g id="node4" class="node">
<title>Node4</title>
<g id="a_node4"><a xlink:href="a01140.html" target="_top" xlink:title="Provides information for executed task, fault event and operating mode ID of task manager.">
<polygon fill="none" stroke="black" points="209.5,-44.5 209.5,-123.5 289.5,-123.5 289.5,-44.5 209.5,-44.5"/>
<text text-anchor="middle" x="249.5" y="-111.5" font-family="Helvetica,sans-Serif" font-size="10.00">TASK_INFO_s</text>
<polyline fill="none" stroke="black" points="209.5,-104.5 289.5,-104.5 "/>
<text text-anchor="start" x="217.5" y="-92.5" font-family="Helvetica,sans-Serif" font-size="10.00">+ task_id</text>
<text text-anchor="start" x="217.5" y="-81.5" font-family="Helvetica,sans-Serif" font-size="10.00">+ fault_id</text>
<text text-anchor="start" x="217.5" y="-70.5" font-family="Helvetica,sans-Serif" font-size="10.00">+ op_mode</text>
<polyline fill="none" stroke="black" points="209.5,-63.5 289.5,-63.5 "/>
<text text-anchor="middle" x="249.5" y="-51.5" font-family="Helvetica,sans-Serif" font-size="10.00"> </text>
</a>
</g>
</g>
<!-- Node1&#45;&gt;Node4 -->
<g id="edge3" class="edge">
<title>Node1&#45;&gt;Node4</title>
<path fill="none" stroke="midnightblue" d="M249.5,-194.04C249.5,-169.79 249.5,-144 249.5,-123.6"/>
<polygon fill="none" stroke="midnightblue" points="246,-194.32 249.5,-204.32 253,-194.32 246,-194.32"/>
</g>
<!-- Node5 -->
<g id="node5" class="node">
<title>Node5</title>
<g id="a_node5"><a xlink:href="a01128.html" target="_top" xlink:title="Data structure for RCON status capturing.">
<polygon fill="none" stroke="black" points="307.5,-28 307.5,-140 423.5,-140 423.5,-28 307.5,-28"/>
<text text-anchor="middle" x="365.5" y="-128" font-family="Helvetica,sans-Serif" font-size="10.00">TRAPLOG_STATUS_s</text>
<polyline fill="none" stroke="black" points="307.5,-121 423.5,-121 "/>
<text text-anchor="start" x="315.5" y="-109" font-family="Helvetica,sans-Serif" font-size="10.00">+ cpu_reset_trigger</text>
<text text-anchor="start" x="315.5" y="-98" font-family="Helvetica,sans-Serif" font-size="10.00">+ unsigned</text>
<text text-anchor="start" x="315.5" y="-87" font-family="Helvetica,sans-Serif" font-size="10.00">+ sw_reset</text>
<text text-anchor="start" x="315.5" y="-76" font-family="Helvetica,sans-Serif" font-size="10.00">+ bits</text>
<text text-anchor="start" x="315.5" y="-65" font-family="Helvetica,sans-Serif" font-size="10.00">+ value</text>
<text text-anchor="start" x="315.5" y="-54" font-family="Helvetica,sans-Serif" font-size="10.00">+ @124</text>
<polyline fill="none" stroke="black" points="307.5,-47 423.5,-47 "/>
<text text-anchor="middle" x="365.5" y="-35" font-family="Helvetica,sans-Serif" font-size="10.00"> </text>
</a>
</g>
</g>
<!-- Node1&#45;&gt;Node5 -->
<g id="edge4" class="edge">
<title>Node1&#45;&gt;Node5</title>
<path fill="none" stroke="midnightblue" d="M296.34,-195.6C307.93,-177.06 320.14,-157.54 331.02,-140.14"/>
<polygon fill="none" stroke="midnightblue" points="293.22,-193.98 290.89,-204.32 299.16,-197.69 293.22,-193.98"/>
</g>
<!-- Node6 -->
<g id="node6" class="node">
<title>Node6</title>
<g id="a_node6"><a xlink:href="a01092.html" target="_top" xlink:title="Defines the Trap Flag for primary and secondary vectors.">
<polygon fill="none" stroke="black" points="441.5,-0.5 441.5,-167.5 531.5,-167.5 531.5,-0.5 441.5,-0.5"/>
<text text-anchor="middle" x="486.5" y="-155.5" font-family="Helvetica,sans-Serif" font-size="10.00">TRAP_FLAGS_s</text>
<polyline fill="none" stroke="black" points="441.5,-148.5 531.5,-148.5 "/>
<text text-anchor="start" x="449.5" y="-136.5" font-family="Helvetica,sans-Serif" font-size="10.00">+ OVAERR</text>
<text text-anchor="start" x="449.5" y="-125.5" font-family="Helvetica,sans-Serif" font-size="10.00">+ OVBERR</text>
<text text-anchor="start" x="449.5" y="-114.5" font-family="Helvetica,sans-Serif" font-size="10.00">+ COVAERR</text>
<text text-anchor="start" x="449.5" y="-103.5" font-family="Helvetica,sans-Serif" font-size="10.00">+ COVBERR</text>
<text text-anchor="start" x="449.5" y="-92.5" font-family="Helvetica,sans-Serif" font-size="10.00">+ SFTACERR</text>
<text text-anchor="start" x="449.5" y="-81.5" font-family="Helvetica,sans-Serif" font-size="10.00">+ DIV0ERR</text>
<text text-anchor="start" x="449.5" y="-70.5" font-family="Helvetica,sans-Serif" font-size="10.00">+ MATHERR</text>
<text text-anchor="start" x="449.5" y="-59.5" font-family="Helvetica,sans-Serif" font-size="10.00">+ ADDRERR</text>
<text text-anchor="start" x="449.5" y="-48.5" font-family="Helvetica,sans-Serif" font-size="10.00">+ STKERR</text>
<text text-anchor="start" x="449.5" y="-37.5" font-family="Helvetica,sans-Serif" font-size="10.00">+ OSCFAIL</text>
<text text-anchor="start" x="449.5" y="-26.5" font-family="Helvetica,sans-Serif" font-size="10.00">and 13 more...</text>
<polyline fill="none" stroke="black" points="441.5,-19.5 531.5,-19.5 "/>
<text text-anchor="middle" x="486.5" y="-7.5" font-family="Helvetica,sans-Serif" font-size="10.00"> </text>
</a>
</g>
</g>
<!-- Node1&#45;&gt;Node6 -->
<g id="edge5" class="edge">
<title>Node1&#45;&gt;Node6</title>
<path fill="none" stroke="midnightblue" d="M308.62,-246.35C346.97,-228.64 396.35,-201.83 432.5,-168 435.51,-165.18 438.43,-162.16 441.26,-159"/>
<polygon fill="none" stroke="midnightblue" points="306.78,-243.33 299.12,-250.65 309.67,-249.71 306.78,-243.33"/>
</g>
</g>
</svg>
        <g id="navigator" transform="translate(0 0)" fill="#404254">
                <rect fill="#f2f5e9" fill-opacity="0.5" stroke="#606060" stroke-width=".5" x="0" y="0" width="60" height="60"/>
                <use id="zoomplus" xlink:href="#zoomPlus" x="17" y="9" onmousedown="handleZoom(evt,'in')"/>
                <use id="zoomminus" xlink:href="#zoomMin" x="42" y="9" onmousedown="handleZoom(evt,'out')"/>
                <use id="reset" xlink:href="#resetDef" x="30" y="36" onmousedown="handleReset()"/>
                <g id="arrowUp" xlink:href="#dirArrow" transform="translate(30 24)" onmousedown="handlePan(0,-1)">
                  <use xlink:href="#rim" fill="#404040">
                        <set attributeName="fill" to="#808080" begin="arrowUp.mouseover" end="arrowUp.mouseout"/>
                  </use>
                  <path fill="none" stroke="white" stroke-width="1.5" d="M0,-3.0v7 M-2.5,-0.5L0,-3.0L2.5,-0.5"/>
                </g>
                <g id="arrowRight" xlink:href="#dirArrow" transform="rotate(90) translate(36 -43)" onmousedown="handlePan(1,0)">
                  <use xlink:href="#rim" fill="#404040">
                        <set attributeName="fill" to="#808080" begin="arrowRight.mouseover" end="arrowRight.mouseout"/>
                  </use>
                  <path fill="none" stroke="white" stroke-width="1.5" d="M0,-3.0v7 M-2.5,-0.5L0,-3.0L2.5,-0.5"/>
                </g>
                <g id="arrowDown" xlink:href="#dirArrow" transform="rotate(180) translate(-30 -48)" onmousedown="handlePan(0,1)">
                  <use xlink:href="#rim" fill="#404040">
                        <set attributeName="fill" to="#808080" begin="arrowDown.mouseover" end="arrowDown.mouseout"/>
                  </use>
                  <path fill="none" stroke="white" stroke-width="1.5" d="M0,-3.0v7 M-2.5,-0.5L0,-3.0L2.5,-0.5"/>
                </g>
                <g id="arrowLeft" xlink:href="#dirArrow" transform="rotate(270) translate(-36 17)" onmousedown="handlePan(-1,0)">
                  <use xlink:href="#rim" fill="#404040">
                        <set attributeName="fill" to="#808080" begin="arrowLeft.mouseover" end="arrowLeft.mouseout"/>
                  </use>
                  <path fill="none" stroke="white" stroke-width="1.5" d="M0,-3.0v7 M-2.5,-0.5L0,-3.0L2.5,-0.5"/>
                </g>
        </g>
        <svg viewBox="0 0 15 15" width="100%" height="30px" preserveAspectRatio="xMaxYMin meet">
         <g id="arrow_out" transform="scale(0.3 0.3)">
          <a xlink:href="a01143_org.svg" target="_base">
           <rect id="button" ry="5" rx="5" y="6" x="6" height="38" width="38"
                fill="#f2f5e9" fill-opacity="0.5" stroke="#606060" stroke-width="1.0"/>
           <path id="arrow"
             d="M 11.500037,31.436501 C 11.940474,20.09759 22.043105,11.32322 32.158766,21.979434 L 37.068811,17.246167 C 37.068811,17.246167 37.088388,32 37.088388,32 L 22.160133,31.978069 C 22.160133,31.978069 26.997745,27.140456 26.997745,27.140456 C 18.528582,18.264221 13.291696,25.230495 11.500037,31.436501 z"
             style="fill:#404040;"/>
          </a>
         </g>
        </svg>
</svg>
