<?xml version="1.0" encoding="UTF-8" standalone="no"?>
<!DOCTYPE svg PUBLIC "-//W3C//DTD SVG 1.1//EN"
 "http://www.w3.org/Graphics/SVG/1.1/DTD/svg11.dtd">
<!-- Generated by graphviz version 2.44.1 (20200629.0846)
 -->
<!-- Title: CPU_INTTREG_s Pages: 1 -->
<svg width="436pt" height="474pt"
 viewBox="0.00 0.00 436.00 474.00" xmlns="http://www.w3.org/2000/svg" xmlns:xlink="http://www.w3.org/1999/xlink">
<g id="graph0" class="graph" transform="scale(1 1) rotate(0) translate(4 470)">
<title>CPU_INTTREG_s</title>
<!-- Node1 -->
<g id="node1" class="node">
<title>Node1</title>
<g id="a_node1"><a xlink:title="defining the CPU interrupt for primary and secondary vectors">
<polygon fill="#bfbfbf" stroke="black" points="163.5,-342.5 163.5,-465.5 256.5,-465.5 256.5,-342.5 163.5,-342.5"/>
<text text-anchor="middle" x="210" y="-453.5" font-family="Helvetica,sans-Serif" font-size="10.00">CPU_INTTREG_s</text>
<polyline fill="none" stroke="black" points="163.5,-446.5 256.5,-446.5 "/>
<text text-anchor="start" x="171.5" y="-434.5" font-family="Helvetica,sans-Serif" font-size="10.00">+ VECNUM</text>
<text text-anchor="start" x="171.5" y="-423.5" font-family="Helvetica,sans-Serif" font-size="10.00">+ ILR</text>
<text text-anchor="start" x="171.5" y="-412.5" font-family="Helvetica,sans-Serif" font-size="10.00">+ unsigned</text>
<text text-anchor="start" x="171.5" y="-401.5" font-family="Helvetica,sans-Serif" font-size="10.00">+ VHOLD</text>
<text text-anchor="start" x="171.5" y="-390.5" font-family="Helvetica,sans-Serif" font-size="10.00">+ bits</text>
<text text-anchor="start" x="171.5" y="-379.5" font-family="Helvetica,sans-Serif" font-size="10.00">+ value</text>
<text text-anchor="start" x="171.5" y="-368.5" font-family="Helvetica,sans-Serif" font-size="10.00">+ @118</text>
<polyline fill="none" stroke="black" points="163.5,-361.5 256.5,-361.5 "/>
<text text-anchor="middle" x="210" y="-349.5" font-family="Helvetica,sans-Serif" font-size="10.00"> </text>
</a>
</g>
</g>
<!-- Node2 -->
<g id="node2" class="node">
<title>Node2</title>
<g id="a_node2"><a xlink:href="a01144.html" target="_top" xlink:title="Global data structure for trap event capturing.">
<polygon fill="none" stroke="black" points="160.5,-215.5 160.5,-294.5 259.5,-294.5 259.5,-215.5 160.5,-215.5"/>
<text text-anchor="middle" x="210" y="-282.5" font-family="Helvetica,sans-Serif" font-size="10.00">TRAP_LOGGER_s</text>
<polyline fill="none" stroke="black" points="160.5,-275.5 259.5,-275.5 "/>
<text text-anchor="start" x="168.5" y="-263.5" font-family="Helvetica,sans-Serif" font-size="10.00">+ reset_count</text>
<text text-anchor="start" x="168.5" y="-252.5" font-family="Helvetica,sans-Serif" font-size="10.00">+ trap_id</text>
<text text-anchor="start" x="168.5" y="-241.5" font-family="Helvetica,sans-Serif" font-size="10.00">+ trap_count</text>
<polyline fill="none" stroke="black" points="160.5,-234.5 259.5,-234.5 "/>
<text text-anchor="middle" x="210" y="-222.5" font-family="Helvetica,sans-Serif" font-size="10.00"> </text>
</a>
</g>
</g>
<!-- Node1&#45;&gt;Node2 -->
<g id="edge8" class="edge">
<title>Node1&#45;&gt;Node2</title>
<path fill="none" stroke="#404040" d="M180.99,-342.36C179.08,-332.61 178.7,-322.58 181,-313 181.55,-310.69 182.22,-308.37 182.97,-306.06"/>
<polygon fill="none" stroke="#404040" points="183.05,-305.83 181.47,-298.8 187.35,-294.62 188.94,-301.66 183.05,-305.83"/>
<text text-anchor="middle" x="199.5" y="-316" font-family="Helvetica,sans-Serif" font-size="10.00"> +inttreg</text>
</g>
<!-- Node2&#45;&gt;Node1 -->
<g id="edge1" class="edge">
<title>Node2&#45;&gt;Node1</title>
<path fill="none" stroke="midnightblue" d="M220.96,-304.79C221.37,-307.56 221.72,-310.31 222,-313 222.98,-322.41 222.84,-332.35 222.05,-342.06"/>
<polygon fill="none" stroke="midnightblue" points="224.39,-304.06 219.28,-294.77 217.48,-305.21 224.39,-304.06"/>
</g>
<!-- Node3 -->
<g id="node3" class="node">
<title>Node3</title>
<g id="a_node3"><a xlink:href="a01140.html" target="_top" xlink:title="Provides information for executed task, fault event and operating mode ID of task manager.">
<polygon fill="none" stroke="black" points="0,-44.5 0,-123.5 80,-123.5 80,-44.5 0,-44.5"/>
<text text-anchor="middle" x="40" y="-111.5" font-family="Helvetica,sans-Serif" font-size="10.00">TASK_INFO_s</text>
<polyline fill="none" stroke="black" points="0,-104.5 80,-104.5 "/>
<text text-anchor="start" x="8" y="-92.5" font-family="Helvetica,sans-Serif" font-size="10.00">+ task_id</text>
<text text-anchor="start" x="8" y="-81.5" font-family="Helvetica,sans-Serif" font-size="10.00">+ fault_id</text>
<text text-anchor="start" x="8" y="-70.5" font-family="Helvetica,sans-Serif" font-size="10.00">+ op_mode</text>
<polyline fill="none" stroke="black" points="0,-63.5 80,-63.5 "/>
<text text-anchor="middle" x="40" y="-51.5" font-family="Helvetica,sans-Serif" font-size="10.00"> </text>
</a>
</g>
</g>
<!-- Node2&#45;&gt;Node3 -->
<g id="edge3" class="edge">
<title>Node2&#45;&gt;Node3</title>
<path fill="none" stroke="midnightblue" d="M150.69,-238.61C126.7,-229.82 100.39,-216.54 82,-197 63,-176.82 52.39,-147.22 46.59,-123.53"/>
<polygon fill="none" stroke="midnightblue" points="149.85,-242.02 160.44,-241.99 152.14,-235.41 149.85,-242.02"/>
</g>
<!-- Node4 -->
<g id="node4" class="node">
<title>Node4</title>
<g id="a_node4"><a xlink:href="a01092.html" target="_top" xlink:title="Defines the Trap Flag for primary and secondary vectors.">
<polygon fill="none" stroke="black" points="103,-0.5 103,-167.5 193,-167.5 193,-0.5 103,-0.5"/>
<text text-anchor="middle" x="148" y="-155.5" font-family="Helvetica,sans-Serif" font-size="10.00">TRAP_FLAGS_s</text>
<polyline fill="none" stroke="black" points="103,-148.5 193,-148.5 "/>
<text text-anchor="start" x="111" y="-136.5" font-family="Helvetica,sans-Serif" font-size="10.00">+ OVAERR</text>
<text text-anchor="start" x="111" y="-125.5" font-family="Helvetica,sans-Serif" font-size="10.00">+ OVBERR</text>
<text text-anchor="start" x="111" y="-114.5" font-family="Helvetica,sans-Serif" font-size="10.00">+ COVAERR</text>
<text text-anchor="start" x="111" y="-103.5" font-family="Helvetica,sans-Serif" font-size="10.00">+ COVBERR</text>
<text text-anchor="start" x="111" y="-92.5" font-family="Helvetica,sans-Serif" font-size="10.00">+ SFTACERR</text>
<text text-anchor="start" x="111" y="-81.5" font-family="Helvetica,sans-Serif" font-size="10.00">+ DIV0ERR</text>
<text text-anchor="start" x="111" y="-70.5" font-family="Helvetica,sans-Serif" font-size="10.00">+ MATHERR</text>
<text text-anchor="start" x="111" y="-59.5" font-family="Helvetica,sans-Serif" font-size="10.00">+ ADDRERR</text>
<text text-anchor="start" x="111" y="-48.5" font-family="Helvetica,sans-Serif" font-size="10.00">+ STKERR</text>
<text text-anchor="start" x="111" y="-37.5" font-family="Helvetica,sans-Serif" font-size="10.00">+ OSCFAIL</text>
<text text-anchor="start" x="111" y="-26.5" font-family="Helvetica,sans-Serif" font-size="10.00">and 13 more...</text>
<polyline fill="none" stroke="black" points="103,-19.5 193,-19.5 "/>
<text text-anchor="middle" x="148" y="-7.5" font-family="Helvetica,sans-Serif" font-size="10.00"> </text>
</a>
</g>
</g>
<!-- Node2&#45;&gt;Node4 -->
<g id="edge5" class="edge">
<title>Node2&#45;&gt;Node4</title>
<path fill="none" stroke="midnightblue" d="M171.77,-206.6C170,-203.44 168.39,-200.23 167,-197 163.02,-187.76 159.87,-177.76 157.38,-167.67"/>
<polygon fill="none" stroke="midnightblue" points="168.9,-208.62 177.09,-215.34 174.88,-204.98 168.9,-208.62"/>
</g>
<!-- Node5 -->
<g id="node5" class="node">
<title>Node5</title>
<g id="a_node5"><a xlink:href="a01116.html" target="_top" xlink:title="Data structure for RCON status capturing.">
<polygon fill="none" stroke="black" points="213,-0.5 213,-167.5 293,-167.5 293,-0.5 213,-0.5"/>
<text text-anchor="middle" x="253" y="-155.5" font-family="Helvetica,sans-Serif" font-size="10.00">CPU_RCON_s</text>
<polyline fill="none" stroke="black" points="213,-148.5 293,-148.5 "/>
<text text-anchor="start" x="221" y="-136.5" font-family="Helvetica,sans-Serif" font-size="10.00">+ por</text>
<text text-anchor="start" x="221" y="-125.5" font-family="Helvetica,sans-Serif" font-size="10.00">+ bor</text>
<text text-anchor="start" x="221" y="-114.5" font-family="Helvetica,sans-Serif" font-size="10.00">+ idle</text>
<text text-anchor="start" x="221" y="-103.5" font-family="Helvetica,sans-Serif" font-size="10.00">+ sleep</text>
<text text-anchor="start" x="221" y="-92.5" font-family="Helvetica,sans-Serif" font-size="10.00">+ wdto</text>
<text text-anchor="start" x="221" y="-81.5" font-family="Helvetica,sans-Serif" font-size="10.00">+ swdten</text>
<text text-anchor="start" x="221" y="-70.5" font-family="Helvetica,sans-Serif" font-size="10.00">+ swr</text>
<text text-anchor="start" x="221" y="-59.5" font-family="Helvetica,sans-Serif" font-size="10.00">+ extr</text>
<text text-anchor="start" x="221" y="-48.5" font-family="Helvetica,sans-Serif" font-size="10.00">+ vregs</text>
<text text-anchor="start" x="221" y="-37.5" font-family="Helvetica,sans-Serif" font-size="10.00">+ cm</text>
<text text-anchor="start" x="221" y="-26.5" font-family="Helvetica,sans-Serif" font-size="10.00">and 7 more...</text>
<polyline fill="none" stroke="black" points="213,-19.5 293,-19.5 "/>
<text text-anchor="middle" x="253" y="-7.5" font-family="Helvetica,sans-Serif" font-size="10.00"> </text>
</a>
</g>
</g>
<!-- Node2&#45;&gt;Node5 -->
<g id="edge7" class="edge">
<title>Node2&#45;&gt;Node5</title>
<path fill="none" stroke="midnightblue" d="M227.5,-205.52C228.39,-202.65 229.23,-199.8 230,-197 232.62,-187.53 235.09,-177.53 237.36,-167.57"/>
<polygon fill="none" stroke="midnightblue" points="224.1,-204.69 224.37,-215.28 230.76,-206.83 224.1,-204.69"/>
</g>
<!-- Node6 -->
<g id="node6" class="node">
<title>Node6</title>
<g id="a_node6"><a xlink:href="a01128.html" target="_top" xlink:title="Data structure for RCON status capturing.">
<polygon fill="none" stroke="black" points="312,-28 312,-140 428,-140 428,-28 312,-28"/>
<text text-anchor="middle" x="370" y="-128" font-family="Helvetica,sans-Serif" font-size="10.00">TRAPLOG_STATUS_s</text>
<polyline fill="none" stroke="black" points="312,-121 428,-121 "/>
<text text-anchor="start" x="320" y="-109" font-family="Helvetica,sans-Serif" font-size="10.00">+ cpu_reset_trigger</text>
<text text-anchor="start" x="320" y="-98" font-family="Helvetica,sans-Serif" font-size="10.00">+ unsigned</text>
<text text-anchor="start" x="320" y="-87" font-family="Helvetica,sans-Serif" font-size="10.00">+ sw_reset</text>
<text text-anchor="start" x="320" y="-76" font-family="Helvetica,sans-Serif" font-size="10.00">+ bits</text>
<text text-anchor="start" x="320" y="-65" font-family="Helvetica,sans-Serif" font-size="10.00">+ value</text>
<text text-anchor="start" x="320" y="-54" font-family="Helvetica,sans-Serif" font-size="10.00">+ @124</text>
<polyline fill="none" stroke="black" points="312,-47 428,-47 "/>
<text text-anchor="middle" x="370" y="-35" font-family="Helvetica,sans-Serif" font-size="10.00"> </text>
</a>
</g>
</g>
<!-- Node2&#45;&gt;Node6 -->
<g id="edge10" class="edge">
<title>Node2&#45;&gt;Node6</title>
<path fill="none" stroke="midnightblue" d="M268.82,-226.67C282.73,-218.43 296.76,-208.48 308,-197 323.86,-180.8 336.92,-159.73 346.9,-140.24"/>
<polygon fill="none" stroke="midnightblue" points="266.7,-223.85 259.73,-231.83 270.16,-229.93 266.7,-223.85"/>
</g>
<!-- Node3&#45;&gt;Node2 -->
<g id="edge2" class="edge">
<title>Node3&#45;&gt;Node2</title>
<path fill="none" stroke="#404040" d="M51.41,-123.61C59.99,-147.19 73.77,-176.62 94,-197 109.33,-212.44 129.69,-224.37 149.07,-233.22"/>
<polygon fill="none" stroke="#404040" points="149.3,-233.32 156.4,-232.03 160.32,-238.08 153.23,-239.37 149.3,-233.32"/>
<text text-anchor="middle" x="127" y="-189" font-family="Helvetica,sans-Serif" font-size="10.00"> +task_capture</text>
</g>
<!-- Node4&#45;&gt;Node2 -->
<g id="edge4" class="edge">
<title>Node4&#45;&gt;Node2</title>
<path fill="none" stroke="#404040" d="M163.85,-167.66C166.75,-177.71 170.11,-187.7 174,-197 175.04,-199.5 176.19,-202.02 177.42,-204.52"/>
<polygon fill="none" stroke="#404040" points="177.57,-204.79 183.92,-208.2 183.22,-215.38 176.87,-211.97 177.57,-204.79"/>
<text text-anchor="middle" x="200" y="-189" font-family="Helvetica,sans-Serif" font-size="10.00"> +trap_flags</text>
</g>
<!-- Node5&#45;&gt;Node2 -->
<g id="edge6" class="edge">
<title>Node5&#45;&gt;Node2</title>
<path fill="none" stroke="#404040" d="M261.02,-167.71C260.09,-177.75 258.22,-187.72 255,-197 254.11,-199.56 253.05,-202.1 251.86,-204.6"/>
<polygon fill="none" stroke="#404040" points="251.76,-204.77 252.31,-211.96 245.88,-215.23 245.33,-208.04 251.76,-204.77"/>
<text text-anchor="middle" x="280.5" y="-189" font-family="Helvetica,sans-Serif" font-size="10.00"> +rcon_reg</text>
</g>
<!-- Node6&#45;&gt;Node2 -->
<g id="edge9" class="edge">
<title>Node6&#45;&gt;Node2</title>
<path fill="none" stroke="#404040" d="M370.82,-140.25C368.54,-159.97 362.8,-181.19 350,-197 330.57,-221.01 299.42,-234.99 271.43,-243.09"/>
<polygon fill="none" stroke="#404040" points="271.26,-243.13 266.49,-248.54 259.67,-246.21 264.44,-240.8 271.26,-243.13"/>
<text text-anchor="middle" x="374.5" y="-189" font-family="Helvetica,sans-Serif" font-size="10.00"> +status</text>
</g>
</g>
</svg>
