<?xml version="1.0" encoding="UTF-8" standalone="no"?>
<!DOCTYPE svg PUBLIC "-//W3C//DTD SVG 1.1//EN"
 "http://www.w3.org/Graphics/SVG/1.1/DTD/svg11.dtd">
<!-- Generated by graphviz version 2.44.1 (20200629.0846)
 -->
<!-- Title: TASK_INFO_s Pages: 1 -->
<svg width="442pt" height="430pt"
 viewBox="0.00 0.00 442.00 430.00" xmlns="http://www.w3.org/2000/svg" xmlns:xlink="http://www.w3.org/1999/xlink">
<g id="graph0" class="graph" transform="scale(1 1) rotate(0) translate(4 426)">
<title>TASK_INFO_s</title>
<!-- Node1 -->
<g id="node1" class="node">
<title>Node1</title>
<g id="a_node1"><a xlink:title="Provides information for executed task, fault event and operating mode ID of task manager.">
<polygon fill="#bfbfbf" stroke="black" points="171,-342.5 171,-421.5 251,-421.5 251,-342.5 171,-342.5"/>
<text text-anchor="middle" x="211" y="-409.5" font-family="Helvetica,sans-Serif" font-size="10.00">TASK_INFO_s</text>
<polyline fill="none" stroke="black" points="171,-402.5 251,-402.5 "/>
<text text-anchor="start" x="179" y="-390.5" font-family="Helvetica,sans-Serif" font-size="10.00">+ task_id</text>
<text text-anchor="start" x="179" y="-379.5" font-family="Helvetica,sans-Serif" font-size="10.00">+ fault_id</text>
<text text-anchor="start" x="179" y="-368.5" font-family="Helvetica,sans-Serif" font-size="10.00">+ op_mode</text>
<polyline fill="none" stroke="black" points="171,-361.5 251,-361.5 "/>
<text text-anchor="middle" x="211" y="-349.5" font-family="Helvetica,sans-Serif" font-size="10.00"> </text>
</a>
</g>
</g>
<!-- Node2 -->
<g id="node2" class="node">
<title>Node2</title>
<g id="a_node2"><a xlink:href="a01144.html" target="_top" xlink:title="Global data structure for trap event capturing.">
<polygon fill="none" stroke="black" points="161.5,-215.5 161.5,-294.5 260.5,-294.5 260.5,-215.5 161.5,-215.5"/>
<text text-anchor="middle" x="211" y="-282.5" font-family="Helvetica,sans-Serif" font-size="10.00">TRAP_LOGGER_s</text>
<polyline fill="none" stroke="black" points="161.5,-275.5 260.5,-275.5 "/>
<text text-anchor="start" x="169.5" y="-263.5" font-family="Helvetica,sans-Serif" font-size="10.00">+ reset_count</text>
<text text-anchor="start" x="169.5" y="-252.5" font-family="Helvetica,sans-Serif" font-size="10.00">+ trap_id</text>
<text text-anchor="start" x="169.5" y="-241.5" font-family="Helvetica,sans-Serif" font-size="10.00">+ trap_count</text>
<polyline fill="none" stroke="black" points="161.5,-234.5 260.5,-234.5 "/>
<text text-anchor="middle" x="211" y="-222.5" font-family="Helvetica,sans-Serif" font-size="10.00"> </text>
</a>
</g>
</g>
<!-- Node1&#45;&gt;Node2 -->
<g id="edge2" class="edge">
<title>Node1&#45;&gt;Node2</title>
<path fill="none" stroke="#404040" d="M172.12,-342.35C167.05,-333.15 164.63,-323.07 168,-313 168.86,-310.42 169.89,-307.87 171.06,-305.35"/>
<polygon fill="none" stroke="#404040" points="171.17,-305.15 170.52,-297.96 176.9,-294.61 177.55,-301.79 171.17,-305.15"/>
<text text-anchor="middle" x="201" y="-316" font-family="Helvetica,sans-Serif" font-size="10.00"> +task_capture</text>
</g>
<!-- Node2&#45;&gt;Node1 -->
<g id="edge1" class="edge">
<title>Node2&#45;&gt;Node1</title>
<path fill="none" stroke="midnightblue" d="M237.88,-304.5C239.2,-310.96 239.44,-317.58 238,-324 236.63,-330.09 234.53,-336.29 232.1,-342.26"/>
<polygon fill="none" stroke="midnightblue" points="241.14,-303.18 235.03,-294.53 234.41,-305.11 241.14,-303.18"/>
</g>
<!-- Node3 -->
<g id="node3" class="node">
<title>Node3</title>
<g id="a_node3"><a xlink:href="a01092.html" target="_top" xlink:title="Defines the Trap Flag for primary and secondary vectors.">
<polygon fill="none" stroke="black" points="0,-0.5 0,-167.5 90,-167.5 90,-0.5 0,-0.5"/>
<text text-anchor="middle" x="45" y="-155.5" font-family="Helvetica,sans-Serif" font-size="10.00">TRAP_FLAGS_s</text>
<polyline fill="none" stroke="black" points="0,-148.5 90,-148.5 "/>
<text text-anchor="start" x="8" y="-136.5" font-family="Helvetica,sans-Serif" font-size="10.00">+ OVAERR</text>
<text text-anchor="start" x="8" y="-125.5" font-family="Helvetica,sans-Serif" font-size="10.00">+ OVBERR</text>
<text text-anchor="start" x="8" y="-114.5" font-family="Helvetica,sans-Serif" font-size="10.00">+ COVAERR</text>
<text text-anchor="start" x="8" y="-103.5" font-family="Helvetica,sans-Serif" font-size="10.00">+ COVBERR</text>
<text text-anchor="start" x="8" y="-92.5" font-family="Helvetica,sans-Serif" font-size="10.00">+ SFTACERR</text>
<text text-anchor="start" x="8" y="-81.5" font-family="Helvetica,sans-Serif" font-size="10.00">+ DIV0ERR</text>
<text text-anchor="start" x="8" y="-70.5" font-family="Helvetica,sans-Serif" font-size="10.00">+ MATHERR</text>
<text text-anchor="start" x="8" y="-59.5" font-family="Helvetica,sans-Serif" font-size="10.00">+ ADDRERR</text>
<text text-anchor="start" x="8" y="-48.5" font-family="Helvetica,sans-Serif" font-size="10.00">+ STKERR</text>
<text text-anchor="start" x="8" y="-37.5" font-family="Helvetica,sans-Serif" font-size="10.00">+ OSCFAIL</text>
<text text-anchor="start" x="8" y="-26.5" font-family="Helvetica,sans-Serif" font-size="10.00">and 13 more...</text>
<polyline fill="none" stroke="black" points="0,-19.5 90,-19.5 "/>
<text text-anchor="middle" x="45" y="-7.5" font-family="Helvetica,sans-Serif" font-size="10.00"> </text>
</a>
</g>
</g>
<!-- Node2&#45;&gt;Node3 -->
<g id="edge4" class="edge">
<title>Node2&#45;&gt;Node3</title>
<path fill="none" stroke="midnightblue" d="M152.16,-233.27C133.1,-224.38 113.03,-212.41 98,-197 89.66,-188.45 82.45,-178.35 76.27,-167.76"/>
<polygon fill="none" stroke="midnightblue" points="150.85,-236.52 161.41,-237.4 153.7,-230.13 150.85,-236.52"/>
</g>
<!-- Node4 -->
<g id="node4" class="node">
<title>Node4</title>
<g id="a_node4"><a xlink:href="a01116.html" target="_top" xlink:title="Data structure for RCON status capturing.">
<polygon fill="none" stroke="black" points="108,-0.5 108,-167.5 188,-167.5 188,-0.5 108,-0.5"/>
<text text-anchor="middle" x="148" y="-155.5" font-family="Helvetica,sans-Serif" font-size="10.00">CPU_RCON_s</text>
<polyline fill="none" stroke="black" points="108,-148.5 188,-148.5 "/>
<text text-anchor="start" x="116" y="-136.5" font-family="Helvetica,sans-Serif" font-size="10.00">+ por</text>
<text text-anchor="start" x="116" y="-125.5" font-family="Helvetica,sans-Serif" font-size="10.00">+ bor</text>
<text text-anchor="start" x="116" y="-114.5" font-family="Helvetica,sans-Serif" font-size="10.00">+ idle</text>
<text text-anchor="start" x="116" y="-103.5" font-family="Helvetica,sans-Serif" font-size="10.00">+ sleep</text>
<text text-anchor="start" x="116" y="-92.5" font-family="Helvetica,sans-Serif" font-size="10.00">+ wdto</text>
<text text-anchor="start" x="116" y="-81.5" font-family="Helvetica,sans-Serif" font-size="10.00">+ swdten</text>
<text text-anchor="start" x="116" y="-70.5" font-family="Helvetica,sans-Serif" font-size="10.00">+ swr</text>
<text text-anchor="start" x="116" y="-59.5" font-family="Helvetica,sans-Serif" font-size="10.00">+ extr</text>
<text text-anchor="start" x="116" y="-48.5" font-family="Helvetica,sans-Serif" font-size="10.00">+ vregs</text>
<text text-anchor="start" x="116" y="-37.5" font-family="Helvetica,sans-Serif" font-size="10.00">+ cm</text>
<text text-anchor="start" x="116" y="-26.5" font-family="Helvetica,sans-Serif" font-size="10.00">and 7 more...</text>
<polyline fill="none" stroke="black" points="108,-19.5 188,-19.5 "/>
<text text-anchor="middle" x="148" y="-7.5" font-family="Helvetica,sans-Serif" font-size="10.00"> </text>
</a>
</g>
</g>
<!-- Node2&#45;&gt;Node4 -->
<g id="edge6" class="edge">
<title>Node2&#45;&gt;Node4</title>
<path fill="none" stroke="midnightblue" d="M174.75,-206.64C173,-203.46 171.4,-200.23 170,-197 165.98,-187.73 162.69,-177.7 160,-167.6"/>
<polygon fill="none" stroke="midnightblue" points="171.88,-208.65 180,-215.46 177.89,-205.07 171.88,-208.65"/>
</g>
<!-- Node5 -->
<g id="node5" class="node">
<title>Node5</title>
<g id="a_node5"><a xlink:href="a01104.html" target="_top" xlink:title="defining the CPU interrupt for primary and secondary vectors">
<polygon fill="none" stroke="black" points="206.5,-22.5 206.5,-145.5 299.5,-145.5 299.5,-22.5 206.5,-22.5"/>
<text text-anchor="middle" x="253" y="-133.5" font-family="Helvetica,sans-Serif" font-size="10.00">CPU_INTTREG_s</text>
<polyline fill="none" stroke="black" points="206.5,-126.5 299.5,-126.5 "/>
<text text-anchor="start" x="214.5" y="-114.5" font-family="Helvetica,sans-Serif" font-size="10.00">+ VECNUM</text>
<text text-anchor="start" x="214.5" y="-103.5" font-family="Helvetica,sans-Serif" font-size="10.00">+ ILR</text>
<text text-anchor="start" x="214.5" y="-92.5" font-family="Helvetica,sans-Serif" font-size="10.00">+ unsigned</text>
<text text-anchor="start" x="214.5" y="-81.5" font-family="Helvetica,sans-Serif" font-size="10.00">+ VHOLD</text>
<text text-anchor="start" x="214.5" y="-70.5" font-family="Helvetica,sans-Serif" font-size="10.00">+ bits</text>
<text text-anchor="start" x="214.5" y="-59.5" font-family="Helvetica,sans-Serif" font-size="10.00">+ value</text>
<text text-anchor="start" x="214.5" y="-48.5" font-family="Helvetica,sans-Serif" font-size="10.00">+ @118</text>
<polyline fill="none" stroke="black" points="206.5,-41.5 299.5,-41.5 "/>
<text text-anchor="middle" x="253" y="-29.5" font-family="Helvetica,sans-Serif" font-size="10.00"> </text>
</a>
</g>
</g>
<!-- Node2&#45;&gt;Node5 -->
<g id="edge8" class="edge">
<title>Node2&#45;&gt;Node5</title>
<path fill="none" stroke="midnightblue" d="M225.69,-205.59C226.49,-202.69 227.27,-199.81 228,-197 232.32,-180.42 236.56,-162.34 240.28,-145.64"/>
<polygon fill="none" stroke="midnightblue" points="222.25,-204.89 222.89,-215.47 228.99,-206.8 222.25,-204.89"/>
</g>
<!-- Node6 -->
<g id="node6" class="node">
<title>Node6</title>
<g id="a_node6"><a xlink:href="a01128.html" target="_top" xlink:title="Data structure for RCON status capturing.">
<polygon fill="none" stroke="black" points="318,-28 318,-140 434,-140 434,-28 318,-28"/>
<text text-anchor="middle" x="376" y="-128" font-family="Helvetica,sans-Serif" font-size="10.00">TRAPLOG_STATUS_s</text>
<polyline fill="none" stroke="black" points="318,-121 434,-121 "/>
<text text-anchor="start" x="326" y="-109" font-family="Helvetica,sans-Serif" font-size="10.00">+ cpu_reset_trigger</text>
<text text-anchor="start" x="326" y="-98" font-family="Helvetica,sans-Serif" font-size="10.00">+ unsigned</text>
<text text-anchor="start" x="326" y="-87" font-family="Helvetica,sans-Serif" font-size="10.00">+ sw_reset</text>
<text text-anchor="start" x="326" y="-76" font-family="Helvetica,sans-Serif" font-size="10.00">+ bits</text>
<text text-anchor="start" x="326" y="-65" font-family="Helvetica,sans-Serif" font-size="10.00">+ value</text>
<text text-anchor="start" x="326" y="-54" font-family="Helvetica,sans-Serif" font-size="10.00">+ @124</text>
<polyline fill="none" stroke="black" points="318,-47 434,-47 "/>
<text text-anchor="middle" x="376" y="-35" font-family="Helvetica,sans-Serif" font-size="10.00"> </text>
</a>
</g>
</g>
<!-- Node2&#45;&gt;Node6 -->
<g id="edge10" class="edge">
<title>Node2&#45;&gt;Node6</title>
<path fill="none" stroke="midnightblue" d="M268.95,-219.91C278.81,-212.93 288.57,-205.19 297,-197 314.24,-180.25 330.17,-159.29 343.15,-140.04"/>
<polygon fill="none" stroke="midnightblue" points="266.95,-217.04 260.68,-225.58 270.91,-222.81 266.95,-217.04"/>
</g>
<!-- Node3&#45;&gt;Node2 -->
<g id="edge3" class="edge">
<title>Node3&#45;&gt;Node2</title>
<path fill="none" stroke="#404040" d="M86.82,-167.6C94.07,-178.15 102.16,-188.29 111,-197 122.51,-208.35 136.73,-218.21 150.8,-226.4"/>
<polygon fill="none" stroke="#404040" points="150.99,-226.51 158.18,-225.92 161.48,-232.33 154.29,-232.92 150.99,-226.51"/>
<text text-anchor="middle" x="137" y="-189" font-family="Helvetica,sans-Serif" font-size="10.00"> +trap_flags</text>
</g>
<!-- Node4&#45;&gt;Node2 -->
<g id="edge5" class="edge">
<title>Node4&#45;&gt;Node2</title>
<path fill="none" stroke="#404040" d="M166.5,-167.55C169.6,-177.61 173.09,-187.64 177,-197 178.03,-199.46 179.15,-201.95 180.34,-204.43"/>
<polygon fill="none" stroke="#404040" points="180.4,-204.54 186.7,-208.04 185.89,-215.21 179.59,-211.71 180.4,-204.54"/>
<text text-anchor="middle" x="200.5" y="-189" font-family="Helvetica,sans-Serif" font-size="10.00"> +rcon_reg</text>
</g>
<!-- Node5&#45;&gt;Node2 -->
<g id="edge7" class="edge">
<title>Node5&#45;&gt;Node2</title>
<path fill="none" stroke="#404040" d="M259.9,-145.68C259.99,-162.64 258.31,-180.84 253,-197 252.16,-199.56 251.15,-202.1 250.02,-204.61"/>
<polygon fill="none" stroke="#404040" points="249.95,-204.73 250.66,-211.9 244.31,-215.32 243.6,-208.14 249.95,-204.73"/>
<text text-anchor="middle" x="274.5" y="-189" font-family="Helvetica,sans-Serif" font-size="10.00"> +inttreg</text>
</g>
<!-- Node6&#45;&gt;Node2 -->
<g id="edge9" class="edge">
<title>Node6&#45;&gt;Node2</title>
<path fill="none" stroke="#404040" d="M373,-140.14C369.45,-159.95 362.46,-181.27 349,-197 329.55,-219.73 299.58,-233.55 272.54,-241.88"/>
<polygon fill="none" stroke="#404040" points="272.31,-241.94 267.64,-247.43 260.77,-245.22 265.45,-239.73 272.31,-241.94"/>
<text text-anchor="middle" x="375.5" y="-189" font-family="Helvetica,sans-Serif" font-size="10.00"> +status</text>
</g>
</g>
</svg>
