<?xml version="1.0" encoding="UTF-8" standalone="no"?>
<!DOCTYPE svg PUBLIC "-//W3C//DTD SVG 1.1//EN"
 "http://www.w3.org/Graphics/SVG/1.1/DTD/svg11.dtd">
<!-- Generated by graphviz version 2.44.1 (20200629.0846)
 -->
<!-- Title: NPNZ_FILTER_PARAMS_s Pages: 1 -->
<svg width="1221pt" height="766pt"
 viewBox="0.00 0.00 1221.00 766.00" xmlns="http://www.w3.org/2000/svg" xmlns:xlink="http://www.w3.org/1999/xlink">
<g id="graph0" class="graph" transform="scale(1 1) rotate(0) translate(4 762)">
<title>NPNZ_FILTER_PARAMS_s</title>
<!-- Node1 -->
<g id="node1" class="node">
<title>Node1</title>
<g id="a_node1"><a xlink:title="Data structure for filter parameters such as pointer to history and coefficient arrays and number sca...">
<polygon fill="#bfbfbf" stroke="black" points="495,-557.5 495,-757.5 632,-757.5 632,-557.5 495,-557.5"/>
<text text-anchor="middle" x="563.5" y="-745.5" font-family="Helvetica,sans-Serif" font-size="10.00">NPNZ_FILTER_PARAMS_s</text>
<polyline fill="none" stroke="black" points="495,-738.5 632,-738.5 "/>
<text text-anchor="start" x="503" y="-726.5" font-family="Helvetica,sans-Serif" font-size="10.00">+ ptrACoefficients</text>
<text text-anchor="start" x="503" y="-715.5" font-family="Helvetica,sans-Serif" font-size="10.00">+ ptrBCoefficients</text>
<text text-anchor="start" x="503" y="-704.5" font-family="Helvetica,sans-Serif" font-size="10.00">+ ptrControlHistory</text>
<text text-anchor="start" x="503" y="-693.5" font-family="Helvetica,sans-Serif" font-size="10.00">+ ptrErrorHistory</text>
<text text-anchor="start" x="503" y="-682.5" font-family="Helvetica,sans-Serif" font-size="10.00">+ ACoefficientsArraySize</text>
<text text-anchor="start" x="503" y="-671.5" font-family="Helvetica,sans-Serif" font-size="10.00">+ BCoefficientsArraySize</text>
<text text-anchor="start" x="503" y="-660.5" font-family="Helvetica,sans-Serif" font-size="10.00">+ ControlHistoryArraySize</text>
<text text-anchor="start" x="503" y="-649.5" font-family="Helvetica,sans-Serif" font-size="10.00">+ ErrorHistoryArraySize</text>
<text text-anchor="start" x="503" y="-638.5" font-family="Helvetica,sans-Serif" font-size="10.00">+ normPreShift</text>
<text text-anchor="start" x="503" y="-627.5" font-family="Helvetica,sans-Serif" font-size="10.00">+ normPostShiftA</text>
<text text-anchor="start" x="503" y="-616.5" font-family="Helvetica,sans-Serif" font-size="10.00">+ normPostShiftB</text>
<text text-anchor="start" x="503" y="-605.5" font-family="Helvetica,sans-Serif" font-size="10.00">+ normPostScaler</text>
<text text-anchor="start" x="503" y="-594.5" font-family="Helvetica,sans-Serif" font-size="10.00">+ PTermScaler</text>
<text text-anchor="start" x="503" y="-583.5" font-family="Helvetica,sans-Serif" font-size="10.00">+ PTermFactor</text>
<polyline fill="none" stroke="black" points="495,-576.5 632,-576.5 "/>
<text text-anchor="middle" x="563.5" y="-564.5" font-family="Helvetica,sans-Serif" font-size="10.00"> </text>
</a>
</g>
</g>
<!-- Node2 -->
<g id="node2" class="node">
<title>Node2</title>
<g id="a_node2"><a xlink:href="a01292.html" target="_top" xlink:title="Generic NPNZ16b Controller Object. This data structure is the main API data object providing single&#45;p...">
<polygon fill="none" stroke="black" points="529.5,-452.5 529.5,-509.5 597.5,-509.5 597.5,-452.5 529.5,-452.5"/>
<text text-anchor="middle" x="563.5" y="-497.5" font-family="Helvetica,sans-Serif" font-size="10.00">NPNZ16b_s</text>
<polyline fill="none" stroke="black" points="529.5,-490.5 597.5,-490.5 "/>
<text text-anchor="middle" x="563.5" y="-478.5" font-family="Helvetica,sans-Serif" font-size="10.00"> </text>
<polyline fill="none" stroke="black" points="529.5,-471.5 597.5,-471.5 "/>
<text text-anchor="middle" x="563.5" y="-459.5" font-family="Helvetica,sans-Serif" font-size="10.00"> </text>
</a>
</g>
</g>
<!-- Node1&#45;&gt;Node2 -->
<g id="edge14" class="edge">
<title>Node1&#45;&gt;Node2</title>
<path fill="none" stroke="#404040" d="M534.28,-557.32C534.09,-547.38 535.01,-537.47 537.5,-528 538.14,-525.57 538.94,-523.14 539.85,-520.73"/>
<polygon fill="none" stroke="#404040" points="539.89,-520.65 538.73,-513.53 544.86,-509.73 546.01,-516.85 539.89,-520.65"/>
<text text-anchor="middle" x="553" y="-531" font-family="Helvetica,sans-Serif" font-size="10.00"> +Filter</text>
</g>
<!-- Node2&#45;&gt;Node1 -->
<g id="edge1" class="edge">
<title>Node2&#45;&gt;Node1</title>
<path fill="none" stroke="midnightblue" d="M571.48,-519.69C571.89,-522.49 572.24,-525.28 572.5,-528 573.42,-537.46 573.78,-547.32 573.75,-557.19"/>
<polygon fill="none" stroke="midnightblue" points="574.9,-518.89 569.8,-509.6 567.99,-520.04 574.9,-518.89"/>
</g>
<!-- Node3 -->
<g id="node3" class="node">
<title>Node3</title>
<g id="a_node3"><a xlink:href="a01272.html" target="_top" xlink:title="Automatic ADC trigger placement parameters for primary ADC trigger A and secondary trigger B.">
<polygon fill="none" stroke="black" points="0,-243 0,-333 129,-333 129,-243 0,-243"/>
<text text-anchor="middle" x="64.5" y="-321" font-family="Helvetica,sans-Serif" font-size="10.00">NPNZ_ADC_TRGCTRL_s</text>
<polyline fill="none" stroke="black" points="0,-314 129,-314 "/>
<text text-anchor="start" x="8" y="-302" font-family="Helvetica,sans-Serif" font-size="10.00">+ ptrADCTriggerARegister</text>
<text text-anchor="start" x="8" y="-291" font-family="Helvetica,sans-Serif" font-size="10.00">+ ADCTriggerAOffset</text>
<text text-anchor="start" x="8" y="-280" font-family="Helvetica,sans-Serif" font-size="10.00">+ ptrADCTriggerBRegister</text>
<text text-anchor="start" x="8" y="-269" font-family="Helvetica,sans-Serif" font-size="10.00">+ ADCTriggerBOffset</text>
<polyline fill="none" stroke="black" points="0,-262 129,-262 "/>
<text text-anchor="middle" x="64.5" y="-250" font-family="Helvetica,sans-Serif" font-size="10.00"> </text>
</a>
</g>
</g>
<!-- Node2&#45;&gt;Node3 -->
<g id="edge3" class="edge">
<title>Node2&#45;&gt;Node3</title>
<path fill="none" stroke="midnightblue" d="M519.24,-478.02C430.45,-473.53 233.88,-460.8 172.5,-434 129.35,-415.16 99.69,-368.62 82.52,-333.3"/>
<polygon fill="none" stroke="midnightblue" points="519.1,-481.52 529.26,-478.52 519.44,-474.53 519.1,-481.52"/>
</g>
<!-- Node4 -->
<g id="node4" class="node">
<title>Node4</title>
<g id="a_node4"><a xlink:href="a01284.html" target="_top" xlink:title="Data structure holding parameters required for adaptive or manual loop gain manipulation during runti...">
<polygon fill="none" stroke="black" points="147.5,-243 147.5,-333 279.5,-333 279.5,-243 147.5,-243"/>
<text text-anchor="middle" x="213.5" y="-321" font-family="Helvetica,sans-Serif" font-size="10.00">NPNZ_GAIN_CONTROL_s</text>
<polyline fill="none" stroke="black" points="147.5,-314 279.5,-314 "/>
<text text-anchor="start" x="155.5" y="-302" font-family="Helvetica,sans-Serif" font-size="10.00">+ AgcScaler</text>
<text text-anchor="start" x="155.5" y="-291" font-family="Helvetica,sans-Serif" font-size="10.00">+ AgcFactor</text>
<text text-anchor="start" x="155.5" y="-280" font-family="Helvetica,sans-Serif" font-size="10.00">+ AgcMedian</text>
<text text-anchor="start" x="155.5" y="-269" font-family="Helvetica,sans-Serif" font-size="10.00">+ ptrAgcObserverFunction</text>
<polyline fill="none" stroke="black" points="147.5,-262 279.5,-262 "/>
<text text-anchor="middle" x="213.5" y="-250" font-family="Helvetica,sans-Serif" font-size="10.00"> </text>
</a>
</g>
</g>
<!-- Node2&#45;&gt;Node4 -->
<g id="edge5" class="edge">
<title>Node2&#45;&gt;Node4</title>
<path fill="none" stroke="midnightblue" d="M518.9,-476.09C455.34,-469.84 342.61,-456 308.5,-434 271.57,-410.19 245.87,-366.37 230.59,-333.12"/>
<polygon fill="none" stroke="midnightblue" points="518.75,-479.59 529.03,-477.07 519.42,-472.63 518.75,-479.59"/>
</g>
<!-- Node5 -->
<g id="node5" class="node">
<title>Node5</title>
<g id="a_node5"><a xlink:href="a01268.html" target="_top" xlink:title="Data strucure holding control output clamping threshold values.">
<polygon fill="none" stroke="black" points="297.5,-243 297.5,-333 385.5,-333 385.5,-243 297.5,-243"/>
<text text-anchor="middle" x="341.5" y="-321" font-family="Helvetica,sans-Serif" font-size="10.00">NPNZ_LIMITS_s</text>
<polyline fill="none" stroke="black" points="297.5,-314 385.5,-314 "/>
<text text-anchor="start" x="305.5" y="-302" font-family="Helvetica,sans-Serif" font-size="10.00">+ MinOutput</text>
<text text-anchor="start" x="305.5" y="-291" font-family="Helvetica,sans-Serif" font-size="10.00">+ MaxOutput</text>
<text text-anchor="start" x="305.5" y="-280" font-family="Helvetica,sans-Serif" font-size="10.00">+ AltMinOutput</text>
<text text-anchor="start" x="305.5" y="-269" font-family="Helvetica,sans-Serif" font-size="10.00">+ AltMaxOutput</text>
<polyline fill="none" stroke="black" points="297.5,-262 385.5,-262 "/>
<text text-anchor="middle" x="341.5" y="-250" font-family="Helvetica,sans-Serif" font-size="10.00"> </text>
</a>
</g>
</g>
<!-- Node2&#45;&gt;Node5 -->
<g id="edge7" class="edge">
<title>Node2&#45;&gt;Node5</title>
<path fill="none" stroke="midnightblue" d="M519.39,-474.25C487.75,-468.36 445.42,-456.7 414.5,-434 381.44,-409.73 362.38,-366.21 352.08,-333.16"/>
<polygon fill="none" stroke="midnightblue" points="518.81,-477.7 529.26,-475.97 520.01,-470.81 518.81,-477.7"/>
</g>
<!-- Node6 -->
<g id="node6" class="node">
<title>Node6</title>
<g id="a_node6"><a xlink:href="a01288.html" target="_top" xlink:title="Generic data buffer for undetermined use. These data buffers may be used by advanced control algorith...">
<polygon fill="none" stroke="black" points="403.5,-221 403.5,-355 563.5,-355 563.5,-221 403.5,-221"/>
<text text-anchor="middle" x="483.5" y="-343" font-family="Helvetica,sans-Serif" font-size="10.00">NPNZ_USER_DATA_BUFFER_s</text>
<polyline fill="none" stroke="black" points="403.5,-336 563.5,-336 "/>
<text text-anchor="start" x="411.5" y="-324" font-family="Helvetica,sans-Serif" font-size="10.00">+ usrParam0</text>
<text text-anchor="start" x="411.5" y="-313" font-family="Helvetica,sans-Serif" font-size="10.00">+ usrParam1</text>
<text text-anchor="start" x="411.5" y="-302" font-family="Helvetica,sans-Serif" font-size="10.00">+ usrParam2</text>
<text text-anchor="start" x="411.5" y="-291" font-family="Helvetica,sans-Serif" font-size="10.00">+ usrParam3</text>
<text text-anchor="start" x="411.5" y="-280" font-family="Helvetica,sans-Serif" font-size="10.00">+ usrParam4</text>
<text text-anchor="start" x="411.5" y="-269" font-family="Helvetica,sans-Serif" font-size="10.00">+ usrParam5</text>
<text text-anchor="start" x="411.5" y="-258" font-family="Helvetica,sans-Serif" font-size="10.00">+ usrParam6</text>
<text text-anchor="start" x="411.5" y="-247" font-family="Helvetica,sans-Serif" font-size="10.00">+ usrParam7</text>
<polyline fill="none" stroke="black" points="403.5,-240 563.5,-240 "/>
<text text-anchor="middle" x="483.5" y="-228" font-family="Helvetica,sans-Serif" font-size="10.00"> </text>
</a>
</g>
</g>
<!-- Node2&#45;&gt;Node6 -->
<g id="edge9" class="edge">
<title>Node2&#45;&gt;Node6</title>
<path fill="none" stroke="midnightblue" d="M527.13,-444.3C524.68,-440.96 522.42,-437.51 520.5,-434 507.28,-409.84 498.66,-380.83 493.1,-355.13"/>
<polygon fill="none" stroke="midnightblue" points="524.56,-446.69 533.54,-452.31 530.02,-442.32 524.56,-446.69"/>
</g>
<!-- Node7 -->
<g id="node7" class="node">
<title>Node7</title>
<g id="a_node7"><a xlink:href="a01260.html" target="_top" xlink:title="Data structure merging all defined controller input and output ports.">
<polygon fill="none" stroke="black" points="582,-259.5 582,-316.5 693,-316.5 693,-259.5 582,-259.5"/>
<text text-anchor="middle" x="637.5" y="-304.5" font-family="Helvetica,sans-Serif" font-size="10.00">NPNZ_PORTS_s</text>
<polyline fill="none" stroke="black" points="582,-297.5 693,-297.5 "/>
<text text-anchor="start" x="590" y="-285.5" font-family="Helvetica,sans-Serif" font-size="10.00">+ ptrControlReference</text>
<polyline fill="none" stroke="black" points="582,-278.5 693,-278.5 "/>
<text text-anchor="middle" x="637.5" y="-266.5" font-family="Helvetica,sans-Serif" font-size="10.00"> </text>
</a>
</g>
</g>
<!-- Node2&#45;&gt;Node7 -->
<g id="edge11" class="edge">
<title>Node2&#45;&gt;Node7</title>
<path fill="none" stroke="midnightblue" d="M579.72,-443.17C581.02,-440.07 582.29,-436.99 583.5,-434 599.83,-393.52 617.18,-346 627.68,-316.7"/>
<polygon fill="none" stroke="midnightblue" points="576.5,-441.8 575.8,-452.37 582.94,-444.54 576.5,-441.8"/>
</g>
<!-- Node9 -->
<g id="node9" class="node">
<title>Node9</title>
<g id="a_node9"><a xlink:href="a01276.html" target="_top" xlink:title="Automated data provider pointers used to push most recent data points to user&#45;defined variables.">
<polygon fill="none" stroke="black" points="711.5,-243 711.5,-333 885.5,-333 885.5,-243 711.5,-243"/>
<text text-anchor="middle" x="798.5" y="-321" font-family="Helvetica,sans-Serif" font-size="10.00">NPNZ_DATA_PROVIDERS_s</text>
<polyline fill="none" stroke="black" points="711.5,-314 885.5,-314 "/>
<text text-anchor="start" x="719.5" y="-302" font-family="Helvetica,sans-Serif" font-size="10.00">+ ptrDProvControlInput</text>
<text text-anchor="start" x="719.5" y="-291" font-family="Helvetica,sans-Serif" font-size="10.00">+ ptrDProvControlInputCompensated</text>
<text text-anchor="start" x="719.5" y="-280" font-family="Helvetica,sans-Serif" font-size="10.00">+ ptrDProvControlError</text>
<text text-anchor="start" x="719.5" y="-269" font-family="Helvetica,sans-Serif" font-size="10.00">+ ptrDProvControlOutput</text>
<polyline fill="none" stroke="black" points="711.5,-262 885.5,-262 "/>
<text text-anchor="middle" x="798.5" y="-250" font-family="Helvetica,sans-Serif" font-size="10.00"> </text>
</a>
</g>
</g>
<!-- Node2&#45;&gt;Node9 -->
<g id="edge16" class="edge">
<title>Node2&#45;&gt;Node9</title>
<path fill="none" stroke="midnightblue" d="M606.63,-459.92C622.51,-452.2 640.52,-443.06 656.5,-434 677.2,-422.26 683.67,-420.75 701.5,-405 725.7,-383.63 749.04,-356.01 766.76,-333.09"/>
<polygon fill="none" stroke="midnightblue" points="605.05,-456.8 597.55,-464.29 608.08,-463.11 605.05,-456.8"/>
</g>
<!-- Node10 -->
<g id="node10" class="node">
<title>Node10</title>
<g id="a_node10"><a xlink:href="a01280.html" target="_top" xlink:title="Set of function pointers and parameters used to tie in user&#45;defined, external extension functions at ...">
<polygon fill="none" stroke="black" points="903.5,-171.5 903.5,-404.5 1069.5,-404.5 1069.5,-171.5 903.5,-171.5"/>
<text text-anchor="middle" x="986.5" y="-392.5" font-family="Helvetica,sans-Serif" font-size="10.00">NPNZ_EXTENSION_HOOKS_s</text>
<polyline fill="none" stroke="black" points="903.5,-385.5 1069.5,-385.5 "/>
<text text-anchor="start" x="911.5" y="-373.5" font-family="Helvetica,sans-Serif" font-size="10.00">+ ptrExtHookStartFunction</text>
<text text-anchor="start" x="911.5" y="-362.5" font-family="Helvetica,sans-Serif" font-size="10.00">+ ExtHookStartFunctionParam</text>
<text text-anchor="start" x="911.5" y="-351.5" font-family="Helvetica,sans-Serif" font-size="10.00">+ ptrExtHookSourceFunction</text>
<text text-anchor="start" x="911.5" y="-340.5" font-family="Helvetica,sans-Serif" font-size="10.00">+ ExtHookSourceFunctionParam</text>
<text text-anchor="start" x="911.5" y="-329.5" font-family="Helvetica,sans-Serif" font-size="10.00">+ ptrExtHookPreAntiWindup</text>
<text text-anchor="start" x="911.5" y="-318.5" font-family="Helvetica,sans-Serif" font-size="10.00">Function</text>
<text text-anchor="start" x="911.5" y="-307.5" font-family="Helvetica,sans-Serif" font-size="10.00">+ ExtHookPreAntiWindupFunction</text>
<text text-anchor="start" x="911.5" y="-296.5" font-family="Helvetica,sans-Serif" font-size="10.00">Param</text>
<text text-anchor="start" x="911.5" y="-285.5" font-family="Helvetica,sans-Serif" font-size="10.00">+ ptrExtHookPreTargetWrite</text>
<text text-anchor="start" x="911.5" y="-274.5" font-family="Helvetica,sans-Serif" font-size="10.00">Function</text>
<text text-anchor="start" x="911.5" y="-263.5" font-family="Helvetica,sans-Serif" font-size="10.00">+ ExtHookPreTargetWriteFunction</text>
<text text-anchor="start" x="911.5" y="-252.5" font-family="Helvetica,sans-Serif" font-size="10.00">Param</text>
<text text-anchor="start" x="911.5" y="-241.5" font-family="Helvetica,sans-Serif" font-size="10.00">+ ptrExtHookEndOfLoopFunction</text>
<text text-anchor="start" x="911.5" y="-230.5" font-family="Helvetica,sans-Serif" font-size="10.00">+ ExtHookEndOfLoopFunction</text>
<text text-anchor="start" x="911.5" y="-219.5" font-family="Helvetica,sans-Serif" font-size="10.00">Param</text>
<text text-anchor="start" x="911.5" y="-208.5" font-family="Helvetica,sans-Serif" font-size="10.00">+ ptrExtHookExitFunction</text>
<text text-anchor="start" x="911.5" y="-197.5" font-family="Helvetica,sans-Serif" font-size="10.00">+ ExtHookExitFunctionParam</text>
<polyline fill="none" stroke="black" points="903.5,-190.5 1069.5,-190.5 "/>
<text text-anchor="middle" x="986.5" y="-178.5" font-family="Helvetica,sans-Serif" font-size="10.00"> </text>
</a>
</g>
</g>
<!-- Node2&#45;&gt;Node10 -->
<g id="edge18" class="edge">
<title>Node2&#45;&gt;Node10</title>
<path fill="none" stroke="midnightblue" d="M608.09,-480.87C676.4,-479.98 808.09,-469.23 894.5,-405 897.49,-402.78 900.44,-400.43 903.34,-397.99"/>
<polygon fill="none" stroke="midnightblue" points="607.67,-477.37 597.69,-480.94 607.71,-484.37 607.67,-477.37"/>
</g>
<!-- Node11 -->
<g id="node11" class="node">
<title>Node11</title>
<g id="a_node11"><a xlink:href="a01244.html" target="_top" xlink:title="Controller status word data structure allowing bit&#45;wise access to status and control bits.">
<polygon fill="none" stroke="black" points="1088,-204.5 1088,-371.5 1213,-371.5 1213,-204.5 1088,-204.5"/>
<text text-anchor="middle" x="1150.5" y="-359.5" font-family="Helvetica,sans-Serif" font-size="10.00">NPNZ_STATUS_s</text>
<polyline fill="none" stroke="black" points="1088,-352.5 1213,-352.5 "/>
<text text-anchor="start" x="1096" y="-340.5" font-family="Helvetica,sans-Serif" font-size="10.00">+ lower_saturation_event</text>
<text text-anchor="start" x="1096" y="-329.5" font-family="Helvetica,sans-Serif" font-size="10.00">+ upper_saturation_event</text>
<text text-anchor="start" x="1096" y="-318.5" font-family="Helvetica,sans-Serif" font-size="10.00">+ unsigned</text>
<text text-anchor="start" x="1096" y="-307.5" font-family="Helvetica,sans-Serif" font-size="10.00">+ agc_enabled</text>
<text text-anchor="start" x="1096" y="-296.5" font-family="Helvetica,sans-Serif" font-size="10.00">+ swap_target</text>
<text text-anchor="start" x="1096" y="-285.5" font-family="Helvetica,sans-Serif" font-size="10.00">+ swap_source</text>
<text text-anchor="start" x="1096" y="-274.5" font-family="Helvetica,sans-Serif" font-size="10.00">+ invert_input</text>
<text text-anchor="start" x="1096" y="-263.5" font-family="Helvetica,sans-Serif" font-size="10.00">+ enabled</text>
<text text-anchor="start" x="1096" y="-252.5" font-family="Helvetica,sans-Serif" font-size="10.00">+ bits</text>
<text text-anchor="start" x="1096" y="-241.5" font-family="Helvetica,sans-Serif" font-size="10.00">+ value</text>
<text text-anchor="start" x="1096" y="-230.5" font-family="Helvetica,sans-Serif" font-size="10.00">+ @133</text>
<polyline fill="none" stroke="black" points="1088,-223.5 1213,-223.5 "/>
<text text-anchor="middle" x="1150.5" y="-211.5" font-family="Helvetica,sans-Serif" font-size="10.00"> </text>
</a>
</g>
</g>
<!-- Node2&#45;&gt;Node11 -->
<g id="edge20" class="edge">
<title>Node2&#45;&gt;Node11</title>
<path fill="none" stroke="midnightblue" d="M607.79,-480.48C690.08,-480.3 871.49,-474.78 1017.5,-434 1046.41,-425.92 1056.12,-425.01 1078.5,-405 1089.28,-395.36 1099.01,-383.73 1107.58,-371.61"/>
<polygon fill="none" stroke="midnightblue" points="607.55,-476.98 597.55,-480.48 607.55,-483.98 607.55,-476.98"/>
</g>
<!-- Node3&#45;&gt;Node2 -->
<g id="edge2" class="edge">
<title>Node3&#45;&gt;Node2</title>
<path fill="none" stroke="#404040" d="M84.73,-333.16C97.42,-356.94 115.7,-385.35 138.5,-405 194.78,-453.5 418.89,-471.86 517.05,-477.68"/>
<polygon fill="none" stroke="#404040" points="517.23,-477.69 523.44,-474.04 529.21,-478.37 522.99,-482.02 517.23,-477.69"/>
<text text-anchor="middle" x="237.5" y="-426" font-family="Helvetica,sans-Serif" font-size="10.00"> +ADCTriggerControl</text>
</g>
<!-- Node4&#45;&gt;Node2 -->
<g id="edge4" class="edge">
<title>Node4&#45;&gt;Node2</title>
<path fill="none" stroke="#404040" d="M235.36,-333.15C248.46,-356.5 266.8,-384.5 288.5,-405 351.47,-464.49 456.9,-477.69 517.29,-480.09"/>
<polygon fill="none" stroke="#404040" points="517.46,-480.09 523.58,-476.27 529.46,-480.45 523.34,-484.27 517.46,-480.09"/>
<text text-anchor="middle" x="356" y="-426" font-family="Helvetica,sans-Serif" font-size="10.00"> +GainControl</text>
</g>
<!-- Node5&#45;&gt;Node2 -->
<g id="edge6" class="edge">
<title>Node5&#45;&gt;Node2</title>
<path fill="none" stroke="#404040" d="M353.28,-333.18C361.52,-356.97 374.67,-385.38 394.5,-405 428.43,-438.57 479.96,-458.44 517.2,-469.21"/>
<polygon fill="none" stroke="#404040" points="517.66,-469.33 524.51,-467.07 529.23,-472.51 522.39,-474.78 517.66,-469.33"/>
<text text-anchor="middle" x="448.5" y="-426" font-family="Helvetica,sans-Serif" font-size="10.00"> +Limits</text>
</g>
<!-- Node6&#45;&gt;Node2 -->
<g id="edge8" class="edge">
<title>Node6&#45;&gt;Node2</title>
<path fill="none" stroke="#404040" d="M498.07,-355.25C505.07,-380.69 514.76,-409.49 527.5,-434 528.98,-436.85 530.65,-439.71 532.44,-442.52"/>
<polygon fill="none" stroke="#404040" points="532.46,-442.55 539.16,-445.2 539.29,-452.41 532.58,-449.76 532.46,-442.55"/>
<text text-anchor="middle" x="553.5" y="-426" font-family="Helvetica,sans-Serif" font-size="10.00"> +Advanced</text>
</g>
<!-- Node7&#45;&gt;Node2 -->
<g id="edge10" class="edge">
<title>Node7&#45;&gt;Node2</title>
<path fill="none" stroke="#404040" d="M638.15,-316.62C637.73,-347.13 633.58,-396.85 613.5,-434 611.35,-437.97 608.73,-441.78 605.83,-445.39"/>
<polygon fill="none" stroke="#404040" points="605.67,-445.56 604.6,-452.7 597.6,-454.45 598.67,-447.32 605.67,-445.56"/>
<text text-anchor="middle" x="636" y="-426" font-family="Helvetica,sans-Serif" font-size="10.00"> +Ports</text>
</g>
<!-- Node8 -->
<g id="node8" class="node">
<title>Node8</title>
<g id="a_node8"><a xlink:href="a01256.html" target="_top" xlink:title="Data structure defining parameters of a controller input or output port.">
<polygon fill="none" stroke="black" points="594.5,-0.5 594.5,-90.5 678.5,-90.5 678.5,-0.5 594.5,-0.5"/>
<text text-anchor="middle" x="636.5" y="-78.5" font-family="Helvetica,sans-Serif" font-size="10.00">NPNZ_PORT_s</text>
<polyline fill="none" stroke="black" points="594.5,-71.5 678.5,-71.5 "/>
<text text-anchor="start" x="602.5" y="-59.5" font-family="Helvetica,sans-Serif" font-size="10.00">+ ptrAddress</text>
<text text-anchor="start" x="602.5" y="-48.5" font-family="Helvetica,sans-Serif" font-size="10.00">+ NormScaler</text>
<text text-anchor="start" x="602.5" y="-37.5" font-family="Helvetica,sans-Serif" font-size="10.00">+ NormFactor</text>
<text text-anchor="start" x="602.5" y="-26.5" font-family="Helvetica,sans-Serif" font-size="10.00">+ Offset</text>
<polyline fill="none" stroke="black" points="594.5,-19.5 678.5,-19.5 "/>
<text text-anchor="middle" x="636.5" y="-7.5" font-family="Helvetica,sans-Serif" font-size="10.00"> </text>
</a>
</g>
</g>
<!-- Node7&#45;&gt;Node8 -->
<g id="edge13" class="edge">
<title>Node7&#45;&gt;Node8</title>
<path fill="none" stroke="midnightblue" d="M636.14,-249.18C635.02,-213.15 633.73,-157.38 634.5,-109 634.6,-103.03 634.74,-96.74 634.91,-90.54"/>
<polygon fill="none" stroke="midnightblue" points="632.65,-249.37 636.47,-259.25 639.64,-249.14 632.65,-249.37"/>
</g>
<!-- Node8&#45;&gt;Node7 -->
<g id="edge12" class="edge">
<title>Node8&#45;&gt;Node7</title>
<path fill="none" stroke="#404040" d="M636.68,-90.87C636.87,-135.63 637.16,-204.12 637.33,-247.18"/>
<polygon fill="none" stroke="#404040" points="637.34,-247.41 641.36,-253.39 637.39,-259.41 633.36,-253.43 637.34,-247.41"/>
<text text-anchor="middle" x="663.5" y="-145" font-family="Helvetica,sans-Serif" font-size="10.00"> +AltSource</text>
<text text-anchor="middle" x="663.5" y="-134" font-family="Helvetica,sans-Serif" font-size="10.00">+AltTarget</text>
<text text-anchor="middle" x="663.5" y="-123" font-family="Helvetica,sans-Serif" font-size="10.00">+Source</text>
<text text-anchor="middle" x="663.5" y="-112" font-family="Helvetica,sans-Serif" font-size="10.00">+Target</text>
</g>
<!-- Node9&#45;&gt;Node2 -->
<g id="edge15" class="edge">
<title>Node9&#45;&gt;Node2</title>
<path fill="none" stroke="#404040" d="M791.07,-333.16C783.34,-365.54 768.05,-408.2 738.5,-434 702.81,-465.16 648.44,-475.57 609.78,-478.87"/>
<polygon fill="none" stroke="#404040" points="609.54,-478.88 603.84,-483.29 597.57,-479.72 603.28,-475.31 609.54,-478.88"/>
<text text-anchor="middle" x="782.5" y="-426" font-family="Helvetica,sans-Serif" font-size="10.00"> +DataProviders</text>
</g>
<!-- Node10&#45;&gt;Node2 -->
<g id="edge17" class="edge">
<title>Node10&#45;&gt;Node2</title>
<path fill="none" stroke="#404040" d="M949.6,-404.62C942.13,-415.85 933.19,-426.02 922.5,-434 874.02,-470.19 695.33,-477.96 609.77,-479.59"/>
<polygon fill="none" stroke="#404040" points="609.6,-479.6 603.66,-483.7 597.6,-479.8 603.53,-475.7 609.6,-479.6"/>
<text text-anchor="middle" x="973" y="-426" font-family="Helvetica,sans-Serif" font-size="10.00"> +ExtensionHooks</text>
</g>
<!-- Node11&#45;&gt;Node2 -->
<g id="edge19" class="edge">
<title>Node11&#45;&gt;Node2</title>
<path fill="none" stroke="#404040" d="M1141.15,-371.5C1134.37,-395.12 1122.88,-418.61 1103.5,-434 1065.25,-464.38 733.76,-475.74 609.92,-478.95"/>
<polygon fill="none" stroke="#404040" points="609.57,-478.96 603.67,-483.11 597.57,-479.26 603.47,-475.11 609.57,-478.96"/>
<text text-anchor="middle" x="1131" y="-426" font-family="Helvetica,sans-Serif" font-size="10.00"> +status</text>
</g>
</g>
</svg>
