<?xml version="1.0" encoding="UTF-8" standalone="no"?>
<!DOCTYPE svg PUBLIC "-//W3C//DTD SVG 1.1//EN"
 "http://www.w3.org/Graphics/SVG/1.1/DTD/svg11.dtd">
<!-- Generated by graphviz version 2.44.1 (20200629.0846)
 -->
<!-- Title: NPNZ_USER_DATA_BUFFER_s Pages: 1 -->
<svg width="1198pt" height="700pt"
 viewBox="0.00 0.00 1198.00 700.00" xmlns="http://www.w3.org/2000/svg" xmlns:xlink="http://www.w3.org/1999/xlink">
<g id="graph0" class="graph" transform="scale(1 1) rotate(0) translate(4 696)">
<title>NPNZ_USER_DATA_BUFFER_s</title>
<!-- Node1 -->
<g id="node1" class="node">
<title>Node1</title>
<g id="a_node1"><a xlink:title="Generic data buffer for undetermined use. These data buffers may be used by advanced control algorith...">
<polygon fill="#bfbfbf" stroke="black" points="455.5,-557.5 455.5,-691.5 615.5,-691.5 615.5,-557.5 455.5,-557.5"/>
<text text-anchor="middle" x="535.5" y="-679.5" font-family="Helvetica,sans-Serif" font-size="10.00">NPNZ_USER_DATA_BUFFER_s</text>
<polyline fill="none" stroke="black" points="455.5,-672.5 615.5,-672.5 "/>
<text text-anchor="start" x="463.5" y="-660.5" font-family="Helvetica,sans-Serif" font-size="10.00">+ usrParam0</text>
<text text-anchor="start" x="463.5" y="-649.5" font-family="Helvetica,sans-Serif" font-size="10.00">+ usrParam1</text>
<text text-anchor="start" x="463.5" y="-638.5" font-family="Helvetica,sans-Serif" font-size="10.00">+ usrParam2</text>
<text text-anchor="start" x="463.5" y="-627.5" font-family="Helvetica,sans-Serif" font-size="10.00">+ usrParam3</text>
<text text-anchor="start" x="463.5" y="-616.5" font-family="Helvetica,sans-Serif" font-size="10.00">+ usrParam4</text>
<text text-anchor="start" x="463.5" y="-605.5" font-family="Helvetica,sans-Serif" font-size="10.00">+ usrParam5</text>
<text text-anchor="start" x="463.5" y="-594.5" font-family="Helvetica,sans-Serif" font-size="10.00">+ usrParam6</text>
<text text-anchor="start" x="463.5" y="-583.5" font-family="Helvetica,sans-Serif" font-size="10.00">+ usrParam7</text>
<polyline fill="none" stroke="black" points="455.5,-576.5 615.5,-576.5 "/>
<text text-anchor="middle" x="535.5" y="-564.5" font-family="Helvetica,sans-Serif" font-size="10.00"> </text>
</a>
</g>
</g>
<!-- Node2 -->
<g id="node2" class="node">
<title>Node2</title>
<g id="a_node2"><a xlink:href="a01292.html" target="_top" xlink:title="Generic NPNZ16b Controller Object. This data structure is the main API data object providing single&#45;p...">
<polygon fill="none" stroke="black" points="501.5,-452.5 501.5,-509.5 569.5,-509.5 569.5,-452.5 501.5,-452.5"/>
<text text-anchor="middle" x="535.5" y="-497.5" font-family="Helvetica,sans-Serif" font-size="10.00">NPNZ16b_s</text>
<polyline fill="none" stroke="black" points="501.5,-490.5 569.5,-490.5 "/>
<text text-anchor="middle" x="535.5" y="-478.5" font-family="Helvetica,sans-Serif" font-size="10.00"> </text>
<polyline fill="none" stroke="black" points="501.5,-471.5 569.5,-471.5 "/>
<text text-anchor="middle" x="535.5" y="-459.5" font-family="Helvetica,sans-Serif" font-size="10.00"> </text>
</a>
</g>
</g>
<!-- Node1&#45;&gt;Node2 -->
<g id="edge8" class="edge">
<title>Node1&#45;&gt;Node2</title>
<path fill="none" stroke="#404040" d="M498.09,-557.4C496.17,-547.58 496.21,-537.55 499.5,-528 500.43,-525.29 501.6,-522.62 502.94,-520.01"/>
<polygon fill="none" stroke="#404040" points="502.98,-519.94 502.69,-512.73 509.23,-509.69 509.52,-516.9 502.98,-519.94"/>
<text text-anchor="middle" x="525.5" y="-531" font-family="Helvetica,sans-Serif" font-size="10.00"> +Advanced</text>
</g>
<!-- Node2&#45;&gt;Node1 -->
<g id="edge1" class="edge">
<title>Node2&#45;&gt;Node1</title>
<path fill="none" stroke="midnightblue" d="M553.1,-519.02C554.06,-522.01 554.88,-525.03 555.5,-528 557.48,-537.54 557.57,-547.61 556.5,-557.49"/>
<polygon fill="none" stroke="midnightblue" points="556.39,-517.81 549.67,-509.62 549.81,-520.21 556.39,-517.81"/>
</g>
<!-- Node3 -->
<g id="node3" class="node">
<title>Node3</title>
<g id="a_node3"><a xlink:href="a01272.html" target="_top" xlink:title="Automatic ADC trigger placement parameters for primary ADC trigger A and secondary trigger B.">
<polygon fill="none" stroke="black" points="0,-243 0,-333 129,-333 129,-243 0,-243"/>
<text text-anchor="middle" x="64.5" y="-321" font-family="Helvetica,sans-Serif" font-size="10.00">NPNZ_ADC_TRGCTRL_s</text>
<polyline fill="none" stroke="black" points="0,-314 129,-314 "/>
<text text-anchor="start" x="8" y="-302" font-family="Helvetica,sans-Serif" font-size="10.00">+ ptrADCTriggerARegister</text>
<text text-anchor="start" x="8" y="-291" font-family="Helvetica,sans-Serif" font-size="10.00">+ ADCTriggerAOffset</text>
<text text-anchor="start" x="8" y="-280" font-family="Helvetica,sans-Serif" font-size="10.00">+ ptrADCTriggerBRegister</text>
<text text-anchor="start" x="8" y="-269" font-family="Helvetica,sans-Serif" font-size="10.00">+ ADCTriggerBOffset</text>
<polyline fill="none" stroke="black" points="0,-262 129,-262 "/>
<text text-anchor="middle" x="64.5" y="-250" font-family="Helvetica,sans-Serif" font-size="10.00"> </text>
</a>
</g>
</g>
<!-- Node2&#45;&gt;Node3 -->
<g id="edge3" class="edge">
<title>Node2&#45;&gt;Node3</title>
<path fill="none" stroke="midnightblue" d="M491.28,-477.85C406.76,-473.18 225.72,-460.37 169.5,-434 127.43,-414.27 98.69,-368.13 82.05,-333.16"/>
<polygon fill="none" stroke="midnightblue" points="491.16,-481.35 501.33,-478.39 491.53,-474.36 491.16,-481.35"/>
</g>
<!-- Node4 -->
<g id="node4" class="node">
<title>Node4</title>
<g id="a_node4"><a xlink:href="a01284.html" target="_top" xlink:title="Data structure holding parameters required for adaptive or manual loop gain manipulation during runti...">
<polygon fill="none" stroke="black" points="147.5,-243 147.5,-333 279.5,-333 279.5,-243 147.5,-243"/>
<text text-anchor="middle" x="213.5" y="-321" font-family="Helvetica,sans-Serif" font-size="10.00">NPNZ_GAIN_CONTROL_s</text>
<polyline fill="none" stroke="black" points="147.5,-314 279.5,-314 "/>
<text text-anchor="start" x="155.5" y="-302" font-family="Helvetica,sans-Serif" font-size="10.00">+ AgcScaler</text>
<text text-anchor="start" x="155.5" y="-291" font-family="Helvetica,sans-Serif" font-size="10.00">+ AgcFactor</text>
<text text-anchor="start" x="155.5" y="-280" font-family="Helvetica,sans-Serif" font-size="10.00">+ AgcMedian</text>
<text text-anchor="start" x="155.5" y="-269" font-family="Helvetica,sans-Serif" font-size="10.00">+ ptrAgcObserverFunction</text>
<polyline fill="none" stroke="black" points="147.5,-262 279.5,-262 "/>
<text text-anchor="middle" x="213.5" y="-250" font-family="Helvetica,sans-Serif" font-size="10.00"> </text>
</a>
</g>
</g>
<!-- Node2&#45;&gt;Node4 -->
<g id="edge5" class="edge">
<title>Node2&#45;&gt;Node4</title>
<path fill="none" stroke="midnightblue" d="M491,-479.38C443.6,-476.85 367.93,-467.34 312.5,-434 274.23,-410.99 247.34,-366.83 231.34,-333.26"/>
<polygon fill="none" stroke="midnightblue" points="491.1,-482.88 501.25,-479.84 491.41,-475.89 491.1,-482.88"/>
</g>
<!-- Node5 -->
<g id="node5" class="node">
<title>Node5</title>
<g id="a_node5"><a xlink:href="a01268.html" target="_top" xlink:title="Data strucure holding control output clamping threshold values.">
<polygon fill="none" stroke="black" points="297.5,-243 297.5,-333 385.5,-333 385.5,-243 297.5,-243"/>
<text text-anchor="middle" x="341.5" y="-321" font-family="Helvetica,sans-Serif" font-size="10.00">NPNZ_LIMITS_s</text>
<polyline fill="none" stroke="black" points="297.5,-314 385.5,-314 "/>
<text text-anchor="start" x="305.5" y="-302" font-family="Helvetica,sans-Serif" font-size="10.00">+ MinOutput</text>
<text text-anchor="start" x="305.5" y="-291" font-family="Helvetica,sans-Serif" font-size="10.00">+ MaxOutput</text>
<text text-anchor="start" x="305.5" y="-280" font-family="Helvetica,sans-Serif" font-size="10.00">+ AltMinOutput</text>
<text text-anchor="start" x="305.5" y="-269" font-family="Helvetica,sans-Serif" font-size="10.00">+ AltMaxOutput</text>
<polyline fill="none" stroke="black" points="297.5,-262 385.5,-262 "/>
<text text-anchor="middle" x="341.5" y="-250" font-family="Helvetica,sans-Serif" font-size="10.00"> </text>
</a>
</g>
</g>
<!-- Node2&#45;&gt;Node5 -->
<g id="edge7" class="edge">
<title>Node2&#45;&gt;Node5</title>
<path fill="none" stroke="midnightblue" d="M491.39,-470.57C466.55,-463.6 436.09,-452.1 413.5,-434 381.81,-408.6 362.96,-365.68 352.54,-333.1"/>
<polygon fill="none" stroke="midnightblue" points="490.73,-474.02 501.3,-473.2 492.53,-467.25 490.73,-474.02"/>
</g>
<!-- Node6 -->
<g id="node6" class="node">
<title>Node6</title>
<g id="a_node6"><a xlink:href="a01260.html" target="_top" xlink:title="Data structure merging all defined controller input and output ports.">
<polygon fill="none" stroke="black" points="404,-259.5 404,-316.5 515,-316.5 515,-259.5 404,-259.5"/>
<text text-anchor="middle" x="459.5" y="-304.5" font-family="Helvetica,sans-Serif" font-size="10.00">NPNZ_PORTS_s</text>
<polyline fill="none" stroke="black" points="404,-297.5 515,-297.5 "/>
<text text-anchor="start" x="412" y="-285.5" font-family="Helvetica,sans-Serif" font-size="10.00">+ ptrControlReference</text>
<polyline fill="none" stroke="black" points="404,-278.5 515,-278.5 "/>
<text text-anchor="middle" x="459.5" y="-266.5" font-family="Helvetica,sans-Serif" font-size="10.00"> </text>
</a>
</g>
</g>
<!-- Node2&#45;&gt;Node6 -->
<g id="edge10" class="edge">
<title>Node2&#45;&gt;Node6</title>
<path fill="none" stroke="midnightblue" d="M512.29,-443.53C510.58,-440.35 508.96,-437.15 507.5,-434 489.3,-394.65 474.77,-346.42 466.64,-316.7"/>
<polygon fill="none" stroke="midnightblue" points="509.31,-445.36 517.28,-452.34 515.4,-441.91 509.31,-445.36"/>
</g>
<!-- Node8 -->
<g id="node8" class="node">
<title>Node8</title>
<g id="a_node8"><a xlink:href="a01264.html" target="_top" xlink:title="Data structure for filter parameters such as pointer to history and coefficient arrays and number sca...">
<polygon fill="none" stroke="black" points="533,-188 533,-388 670,-388 670,-188 533,-188"/>
<text text-anchor="middle" x="601.5" y="-376" font-family="Helvetica,sans-Serif" font-size="10.00">NPNZ_FILTER_PARAMS_s</text>
<polyline fill="none" stroke="black" points="533,-369 670,-369 "/>
<text text-anchor="start" x="541" y="-357" font-family="Helvetica,sans-Serif" font-size="10.00">+ ptrACoefficients</text>
<text text-anchor="start" x="541" y="-346" font-family="Helvetica,sans-Serif" font-size="10.00">+ ptrBCoefficients</text>
<text text-anchor="start" x="541" y="-335" font-family="Helvetica,sans-Serif" font-size="10.00">+ ptrControlHistory</text>
<text text-anchor="start" x="541" y="-324" font-family="Helvetica,sans-Serif" font-size="10.00">+ ptrErrorHistory</text>
<text text-anchor="start" x="541" y="-313" font-family="Helvetica,sans-Serif" font-size="10.00">+ ACoefficientsArraySize</text>
<text text-anchor="start" x="541" y="-302" font-family="Helvetica,sans-Serif" font-size="10.00">+ BCoefficientsArraySize</text>
<text text-anchor="start" x="541" y="-291" font-family="Helvetica,sans-Serif" font-size="10.00">+ ControlHistoryArraySize</text>
<text text-anchor="start" x="541" y="-280" font-family="Helvetica,sans-Serif" font-size="10.00">+ ErrorHistoryArraySize</text>
<text text-anchor="start" x="541" y="-269" font-family="Helvetica,sans-Serif" font-size="10.00">+ normPreShift</text>
<text text-anchor="start" x="541" y="-258" font-family="Helvetica,sans-Serif" font-size="10.00">+ normPostShiftA</text>
<text text-anchor="start" x="541" y="-247" font-family="Helvetica,sans-Serif" font-size="10.00">+ normPostShiftB</text>
<text text-anchor="start" x="541" y="-236" font-family="Helvetica,sans-Serif" font-size="10.00">+ normPostScaler</text>
<text text-anchor="start" x="541" y="-225" font-family="Helvetica,sans-Serif" font-size="10.00">+ PTermScaler</text>
<text text-anchor="start" x="541" y="-214" font-family="Helvetica,sans-Serif" font-size="10.00">+ PTermFactor</text>
<polyline fill="none" stroke="black" points="533,-207 670,-207 "/>
<text text-anchor="middle" x="601.5" y="-195" font-family="Helvetica,sans-Serif" font-size="10.00"> </text>
</a>
</g>
</g>
<!-- Node2&#45;&gt;Node8 -->
<g id="edge14" class="edge">
<title>Node2&#45;&gt;Node8</title>
<path fill="none" stroke="midnightblue" d="M548.49,-442.42C553.92,-426.71 560.51,-407.63 567.17,-388.35"/>
<polygon fill="none" stroke="midnightblue" points="545.05,-441.63 545.1,-452.23 551.67,-443.92 545.05,-441.63"/>
</g>
<!-- Node9 -->
<g id="node9" class="node">
<title>Node9</title>
<g id="a_node9"><a xlink:href="a01276.html" target="_top" xlink:title="Automated data provider pointers used to push most recent data points to user&#45;defined variables.">
<polygon fill="none" stroke="black" points="688.5,-243 688.5,-333 862.5,-333 862.5,-243 688.5,-243"/>
<text text-anchor="middle" x="775.5" y="-321" font-family="Helvetica,sans-Serif" font-size="10.00">NPNZ_DATA_PROVIDERS_s</text>
<polyline fill="none" stroke="black" points="688.5,-314 862.5,-314 "/>
<text text-anchor="start" x="696.5" y="-302" font-family="Helvetica,sans-Serif" font-size="10.00">+ ptrDProvControlInput</text>
<text text-anchor="start" x="696.5" y="-291" font-family="Helvetica,sans-Serif" font-size="10.00">+ ptrDProvControlInputCompensated</text>
<text text-anchor="start" x="696.5" y="-280" font-family="Helvetica,sans-Serif" font-size="10.00">+ ptrDProvControlError</text>
<text text-anchor="start" x="696.5" y="-269" font-family="Helvetica,sans-Serif" font-size="10.00">+ ptrDProvControlOutput</text>
<polyline fill="none" stroke="black" points="688.5,-262 862.5,-262 "/>
<text text-anchor="middle" x="775.5" y="-250" font-family="Helvetica,sans-Serif" font-size="10.00"> </text>
</a>
</g>
</g>
<!-- Node2&#45;&gt;Node9 -->
<g id="edge16" class="edge">
<title>Node2&#45;&gt;Node9</title>
<path fill="none" stroke="midnightblue" d="M578.82,-462.64C608.64,-449.46 648.18,-429.46 678.5,-405 703.94,-384.48 727.58,-356.48 745.15,-333.14"/>
<polygon fill="none" stroke="midnightblue" points="577.29,-459.49 569.51,-466.68 580.08,-465.91 577.29,-459.49"/>
</g>
<!-- Node10 -->
<g id="node10" class="node">
<title>Node10</title>
<g id="a_node10"><a xlink:href="a01280.html" target="_top" xlink:title="Set of function pointers and parameters used to tie in user&#45;defined, external extension functions at ...">
<polygon fill="none" stroke="black" points="880.5,-171.5 880.5,-404.5 1046.5,-404.5 1046.5,-171.5 880.5,-171.5"/>
<text text-anchor="middle" x="963.5" y="-392.5" font-family="Helvetica,sans-Serif" font-size="10.00">NPNZ_EXTENSION_HOOKS_s</text>
<polyline fill="none" stroke="black" points="880.5,-385.5 1046.5,-385.5 "/>
<text text-anchor="start" x="888.5" y="-373.5" font-family="Helvetica,sans-Serif" font-size="10.00">+ ptrExtHookStartFunction</text>
<text text-anchor="start" x="888.5" y="-362.5" font-family="Helvetica,sans-Serif" font-size="10.00">+ ExtHookStartFunctionParam</text>
<text text-anchor="start" x="888.5" y="-351.5" font-family="Helvetica,sans-Serif" font-size="10.00">+ ptrExtHookSourceFunction</text>
<text text-anchor="start" x="888.5" y="-340.5" font-family="Helvetica,sans-Serif" font-size="10.00">+ ExtHookSourceFunctionParam</text>
<text text-anchor="start" x="888.5" y="-329.5" font-family="Helvetica,sans-Serif" font-size="10.00">+ ptrExtHookPreAntiWindup</text>
<text text-anchor="start" x="888.5" y="-318.5" font-family="Helvetica,sans-Serif" font-size="10.00">Function</text>
<text text-anchor="start" x="888.5" y="-307.5" font-family="Helvetica,sans-Serif" font-size="10.00">+ ExtHookPreAntiWindupFunction</text>
<text text-anchor="start" x="888.5" y="-296.5" font-family="Helvetica,sans-Serif" font-size="10.00">Param</text>
<text text-anchor="start" x="888.5" y="-285.5" font-family="Helvetica,sans-Serif" font-size="10.00">+ ptrExtHookPreTargetWrite</text>
<text text-anchor="start" x="888.5" y="-274.5" font-family="Helvetica,sans-Serif" font-size="10.00">Function</text>
<text text-anchor="start" x="888.5" y="-263.5" font-family="Helvetica,sans-Serif" font-size="10.00">+ ExtHookPreTargetWriteFunction</text>
<text text-anchor="start" x="888.5" y="-252.5" font-family="Helvetica,sans-Serif" font-size="10.00">Param</text>
<text text-anchor="start" x="888.5" y="-241.5" font-family="Helvetica,sans-Serif" font-size="10.00">+ ptrExtHookEndOfLoopFunction</text>
<text text-anchor="start" x="888.5" y="-230.5" font-family="Helvetica,sans-Serif" font-size="10.00">+ ExtHookEndOfLoopFunction</text>
<text text-anchor="start" x="888.5" y="-219.5" font-family="Helvetica,sans-Serif" font-size="10.00">Param</text>
<text text-anchor="start" x="888.5" y="-208.5" font-family="Helvetica,sans-Serif" font-size="10.00">+ ptrExtHookExitFunction</text>
<text text-anchor="start" x="888.5" y="-197.5" font-family="Helvetica,sans-Serif" font-size="10.00">+ ExtHookExitFunctionParam</text>
<polyline fill="none" stroke="black" points="880.5,-190.5 1046.5,-190.5 "/>
<text text-anchor="middle" x="963.5" y="-178.5" font-family="Helvetica,sans-Serif" font-size="10.00"> </text>
</a>
</g>
</g>
<!-- Node2&#45;&gt;Node10 -->
<g id="edge18" class="edge">
<title>Node2&#45;&gt;Node10</title>
<path fill="none" stroke="midnightblue" d="M579.61,-480.83C648.41,-479.94 782.59,-469.29 871.5,-405 874.52,-402.82 877.49,-400.51 880.42,-398.1"/>
<polygon fill="none" stroke="midnightblue" points="579.52,-477.33 569.55,-480.89 579.57,-484.33 579.52,-477.33"/>
</g>
<!-- Node11 -->
<g id="node11" class="node">
<title>Node11</title>
<g id="a_node11"><a xlink:href="a01244.html" target="_top" xlink:title="Controller status word data structure allowing bit&#45;wise access to status and control bits.">
<polygon fill="none" stroke="black" points="1065,-204.5 1065,-371.5 1190,-371.5 1190,-204.5 1065,-204.5"/>
<text text-anchor="middle" x="1127.5" y="-359.5" font-family="Helvetica,sans-Serif" font-size="10.00">NPNZ_STATUS_s</text>
<polyline fill="none" stroke="black" points="1065,-352.5 1190,-352.5 "/>
<text text-anchor="start" x="1073" y="-340.5" font-family="Helvetica,sans-Serif" font-size="10.00">+ lower_saturation_event</text>
<text text-anchor="start" x="1073" y="-329.5" font-family="Helvetica,sans-Serif" font-size="10.00">+ upper_saturation_event</text>
<text text-anchor="start" x="1073" y="-318.5" font-family="Helvetica,sans-Serif" font-size="10.00">+ unsigned</text>
<text text-anchor="start" x="1073" y="-307.5" font-family="Helvetica,sans-Serif" font-size="10.00">+ agc_enabled</text>
<text text-anchor="start" x="1073" y="-296.5" font-family="Helvetica,sans-Serif" font-size="10.00">+ swap_target</text>
<text text-anchor="start" x="1073" y="-285.5" font-family="Helvetica,sans-Serif" font-size="10.00">+ swap_source</text>
<text text-anchor="start" x="1073" y="-274.5" font-family="Helvetica,sans-Serif" font-size="10.00">+ invert_input</text>
<text text-anchor="start" x="1073" y="-263.5" font-family="Helvetica,sans-Serif" font-size="10.00">+ enabled</text>
<text text-anchor="start" x="1073" y="-252.5" font-family="Helvetica,sans-Serif" font-size="10.00">+ bits</text>
<text text-anchor="start" x="1073" y="-241.5" font-family="Helvetica,sans-Serif" font-size="10.00">+ value</text>
<text text-anchor="start" x="1073" y="-230.5" font-family="Helvetica,sans-Serif" font-size="10.00">+ @133</text>
<polyline fill="none" stroke="black" points="1065,-223.5 1190,-223.5 "/>
<text text-anchor="middle" x="1127.5" y="-211.5" font-family="Helvetica,sans-Serif" font-size="10.00"> </text>
</a>
</g>
</g>
<!-- Node2&#45;&gt;Node11 -->
<g id="edge20" class="edge">
<title>Node2&#45;&gt;Node11</title>
<path fill="none" stroke="midnightblue" d="M579.59,-480.45C662.3,-480.24 845.73,-474.71 993.5,-434 1022.83,-425.92 1032.76,-425.21 1055.5,-405 1066.31,-395.4 1076.05,-383.78 1084.63,-371.66"/>
<polygon fill="none" stroke="midnightblue" points="579.54,-476.95 569.54,-480.45 579.54,-483.95 579.54,-476.95"/>
</g>
<!-- Node3&#45;&gt;Node2 -->
<g id="edge2" class="edge">
<title>Node3&#45;&gt;Node2</title>
<path fill="none" stroke="#404040" d="M84.73,-333.16C97.42,-356.94 115.7,-385.35 138.5,-405 190.63,-449.93 396.1,-470.05 489.21,-476.99"/>
<polygon fill="none" stroke="#404040" points="489.34,-477 495.61,-473.44 501.31,-477.87 495.04,-481.42 489.34,-477"/>
<text text-anchor="middle" x="242.5" y="-426" font-family="Helvetica,sans-Serif" font-size="10.00"> +ADCTriggerControl</text>
</g>
<!-- Node4&#45;&gt;Node2 -->
<g id="edge4" class="edge">
<title>Node4&#45;&gt;Node2</title>
<path fill="none" stroke="#404040" d="M235.36,-333.15C248.46,-356.5 266.8,-384.5 288.5,-405 343.81,-457.25 434.39,-473.18 489.14,-477.99"/>
<polygon fill="none" stroke="#404040" points="489.28,-478 495.57,-474.47 501.24,-478.92 494.95,-482.45 489.28,-478"/>
<text text-anchor="middle" x="359" y="-426" font-family="Helvetica,sans-Serif" font-size="10.00"> +GainControl</text>
</g>
<!-- Node5&#45;&gt;Node2 -->
<g id="edge6" class="edge">
<title>Node5&#45;&gt;Node2</title>
<path fill="none" stroke="#404040" d="M354.03,-333.21C362.45,-356.72 375.53,-384.85 394.5,-405 420.67,-432.8 459.49,-452.4 489.78,-464.57"/>
<polygon fill="none" stroke="#404040" points="490.14,-464.71 497.18,-463.13 501.34,-469.02 494.3,-470.6 490.14,-464.71"/>
<text text-anchor="middle" x="446.5" y="-426" font-family="Helvetica,sans-Serif" font-size="10.00"> +Limits</text>
</g>
<!-- Node6&#45;&gt;Node2 -->
<g id="edge9" class="edge">
<title>Node6&#45;&gt;Node2</title>
<path fill="none" stroke="#404040" d="M469.41,-316.74C480.03,-346.08 497.65,-393.62 514.5,-434 515.48,-436.34 516.5,-438.74 517.55,-441.16"/>
<polygon fill="none" stroke="#404040" points="517.67,-441.43 523.76,-445.29 522.54,-452.4 516.45,-448.54 517.67,-441.43"/>
<text text-anchor="middle" x="531" y="-426" font-family="Helvetica,sans-Serif" font-size="10.00"> +Ports</text>
</g>
<!-- Node7 -->
<g id="node7" class="node">
<title>Node7</title>
<g id="a_node7"><a xlink:href="a01256.html" target="_top" xlink:title="Data structure defining parameters of a controller input or output port.">
<polygon fill="none" stroke="black" points="416.5,-0.5 416.5,-90.5 500.5,-90.5 500.5,-0.5 416.5,-0.5"/>
<text text-anchor="middle" x="458.5" y="-78.5" font-family="Helvetica,sans-Serif" font-size="10.00">NPNZ_PORT_s</text>
<polyline fill="none" stroke="black" points="416.5,-71.5 500.5,-71.5 "/>
<text text-anchor="start" x="424.5" y="-59.5" font-family="Helvetica,sans-Serif" font-size="10.00">+ ptrAddress</text>
<text text-anchor="start" x="424.5" y="-48.5" font-family="Helvetica,sans-Serif" font-size="10.00">+ NormScaler</text>
<text text-anchor="start" x="424.5" y="-37.5" font-family="Helvetica,sans-Serif" font-size="10.00">+ NormFactor</text>
<text text-anchor="start" x="424.5" y="-26.5" font-family="Helvetica,sans-Serif" font-size="10.00">+ Offset</text>
<polyline fill="none" stroke="black" points="416.5,-19.5 500.5,-19.5 "/>
<text text-anchor="middle" x="458.5" y="-7.5" font-family="Helvetica,sans-Serif" font-size="10.00"> </text>
</a>
</g>
</g>
<!-- Node6&#45;&gt;Node7 -->
<g id="edge12" class="edge">
<title>Node6&#45;&gt;Node7</title>
<path fill="none" stroke="midnightblue" d="M458.14,-249.18C457.02,-213.15 455.73,-157.38 456.5,-109 456.6,-103.03 456.74,-96.74 456.91,-90.54"/>
<polygon fill="none" stroke="midnightblue" points="454.65,-249.37 458.47,-259.25 461.64,-249.14 454.65,-249.37"/>
</g>
<!-- Node7&#45;&gt;Node6 -->
<g id="edge11" class="edge">
<title>Node7&#45;&gt;Node6</title>
<path fill="none" stroke="#404040" d="M458.68,-90.87C458.87,-135.63 459.16,-204.12 459.33,-247.18"/>
<polygon fill="none" stroke="#404040" points="459.34,-247.41 463.36,-253.39 459.39,-259.41 455.36,-253.43 459.34,-247.41"/>
<text text-anchor="middle" x="485.5" y="-145" font-family="Helvetica,sans-Serif" font-size="10.00"> +AltSource</text>
<text text-anchor="middle" x="485.5" y="-134" font-family="Helvetica,sans-Serif" font-size="10.00">+AltTarget</text>
<text text-anchor="middle" x="485.5" y="-123" font-family="Helvetica,sans-Serif" font-size="10.00">+Source</text>
<text text-anchor="middle" x="485.5" y="-112" font-family="Helvetica,sans-Serif" font-size="10.00">+Target</text>
</g>
<!-- Node8&#45;&gt;Node2 -->
<g id="edge13" class="edge">
<title>Node8&#45;&gt;Node2</title>
<path fill="none" stroke="#404040" d="M592.95,-388.09C589.38,-403.93 584.41,-419.77 577.5,-434 576.07,-436.95 574.38,-439.85 572.53,-442.67"/>
<polygon fill="none" stroke="#404040" points="572.39,-442.85 572,-450.05 565.2,-452.46 565.59,-445.26 572.39,-442.85"/>
<text text-anchor="middle" x="598" y="-426" font-family="Helvetica,sans-Serif" font-size="10.00"> +Filter</text>
</g>
<!-- Node9&#45;&gt;Node2 -->
<g id="edge15" class="edge">
<title>Node9&#45;&gt;Node2</title>
<path fill="none" stroke="#404040" d="M765.8,-333.22C756.45,-365.64 739.07,-408.31 708.5,-434 672.91,-463.91 619.84,-474.57 581.88,-478.27"/>
<polygon fill="none" stroke="#404040" points="581.59,-478.29 575.93,-482.77 569.63,-479.27 575.28,-474.79 581.59,-478.29"/>
<text text-anchor="middle" x="753.5" y="-426" font-family="Helvetica,sans-Serif" font-size="10.00"> +DataProviders</text>
</g>
<!-- Node10&#45;&gt;Node2 -->
<g id="edge17" class="edge">
<title>Node10&#45;&gt;Node2</title>
<path fill="none" stroke="#404040" d="M925.8,-404.66C918.26,-415.88 909.25,-426.03 898.5,-434 849.24,-470.5 667.92,-478.11 581.67,-479.64"/>
<polygon fill="none" stroke="#404040" points="581.66,-479.64 575.73,-483.74 569.66,-479.83 575.6,-475.74 581.66,-479.64"/>
<text text-anchor="middle" x="949" y="-426" font-family="Helvetica,sans-Serif" font-size="10.00"> +ExtensionHooks</text>
</g>
<!-- Node11&#45;&gt;Node2 -->
<g id="edge19" class="edge">
<title>Node11&#45;&gt;Node2</title>
<path fill="none" stroke="#404040" d="M1118.16,-371.51C1111.38,-395.13 1099.88,-418.62 1080.5,-434 1041.85,-464.67 706.66,-475.86 581.97,-478.99"/>
<polygon fill="none" stroke="#404040" points="581.88,-478.99 575.98,-483.13 569.88,-479.28 575.78,-475.13 581.88,-478.99"/>
<text text-anchor="middle" x="1108" y="-426" font-family="Helvetica,sans-Serif" font-size="10.00"> +status</text>
</g>
</g>
</svg>
