<?xml version="1.0" encoding="UTF-8" standalone="no"?>
<!DOCTYPE svg PUBLIC "-//W3C//DTD SVG 1.1//EN"
 "http://www.w3.org/Graphics/SVG/1.1/DTD/svg11.dtd">
<!-- Generated by graphviz version 2.44.1 (20200629.0846)
 -->
<!-- Title: NPNZ16b_s Pages: 1 -->
<svg width="1377pt" height="551pt"
 viewBox="0.00 0.00 1376.50 551.00" xmlns="http://www.w3.org/2000/svg" xmlns:xlink="http://www.w3.org/1999/xlink">
<g id="graph0" class="graph" transform="scale(1 1) rotate(0) translate(4 547)">
<title>NPNZ16b_s</title>
<!-- Node1 -->
<g id="node1" class="node">
<title>Node1</title>
<g id="a_node1"><a xlink:title="Generic NPNZ16b Controller Object. This data structure is the main API data object providing single&#45;p...">
<polygon fill="#bfbfbf" stroke="black" points="692.5,-397.5 692.5,-542.5 798.5,-542.5 798.5,-397.5 692.5,-397.5"/>
<text text-anchor="middle" x="745.5" y="-530.5" font-family="Helvetica,sans-Serif" font-size="10.00">NPNZ16b_s</text>
<polyline fill="none" stroke="black" points="692.5,-523.5 798.5,-523.5 "/>
<text text-anchor="start" x="700.5" y="-511.5" font-family="Helvetica,sans-Serif" font-size="10.00">+ status</text>
<text text-anchor="start" x="700.5" y="-500.5" font-family="Helvetica,sans-Serif" font-size="10.00">+ Ports</text>
<text text-anchor="start" x="700.5" y="-489.5" font-family="Helvetica,sans-Serif" font-size="10.00">+ Filter</text>
<text text-anchor="start" x="700.5" y="-478.5" font-family="Helvetica,sans-Serif" font-size="10.00">+ GainControl</text>
<text text-anchor="start" x="700.5" y="-467.5" font-family="Helvetica,sans-Serif" font-size="10.00">+ Limits</text>
<text text-anchor="start" x="700.5" y="-456.5" font-family="Helvetica,sans-Serif" font-size="10.00">+ ADCTriggerControl</text>
<text text-anchor="start" x="700.5" y="-445.5" font-family="Helvetica,sans-Serif" font-size="10.00">+ DataProviders</text>
<text text-anchor="start" x="700.5" y="-434.5" font-family="Helvetica,sans-Serif" font-size="10.00">+ ExtensionHooks</text>
<text text-anchor="start" x="700.5" y="-423.5" font-family="Helvetica,sans-Serif" font-size="10.00">+ Advanced</text>
<polyline fill="none" stroke="black" points="692.5,-416.5 798.5,-416.5 "/>
<text text-anchor="middle" x="745.5" y="-404.5" font-family="Helvetica,sans-Serif" font-size="10.00"> </text>
</a>
</g>
</g>
<!-- Node2 -->
<g id="node2" class="node">
<title>Node2</title>
<g id="a_node2"><a xlink:href="a01272.html" target="_top" xlink:title="Automatic ADC trigger placement parameters for primary ADC trigger A and secondary trigger B.">
<polygon fill="none" stroke="black" points="0,-199 0,-289 129,-289 129,-199 0,-199"/>
<text text-anchor="middle" x="64.5" y="-277" font-family="Helvetica,sans-Serif" font-size="10.00">NPNZ_ADC_TRGCTRL_s</text>
<polyline fill="none" stroke="black" points="0,-270 129,-270 "/>
<text text-anchor="start" x="8" y="-258" font-family="Helvetica,sans-Serif" font-size="10.00">+ ptrADCTriggerARegister</text>
<text text-anchor="start" x="8" y="-247" font-family="Helvetica,sans-Serif" font-size="10.00">+ ADCTriggerAOffset</text>
<text text-anchor="start" x="8" y="-236" font-family="Helvetica,sans-Serif" font-size="10.00">+ ptrADCTriggerBRegister</text>
<text text-anchor="start" x="8" y="-225" font-family="Helvetica,sans-Serif" font-size="10.00">+ ADCTriggerBOffset</text>
<polyline fill="none" stroke="black" points="0,-218 129,-218 "/>
<text text-anchor="middle" x="64.5" y="-206" font-family="Helvetica,sans-Serif" font-size="10.00"> </text>
</a>
</g>
</g>
<!-- Node1&#45;&gt;Node2 -->
<g id="edge1" class="edge">
<title>Node1&#45;&gt;Node2</title>
<path fill="none" stroke="midnightblue" d="M681.92,-464.14C544.91,-452.65 227.05,-420.23 138.5,-361 112.69,-343.74 94.01,-314.09 81.87,-289.09"/>
<polygon fill="none" stroke="midnightblue" points="682,-467.66 692.25,-464.99 682.58,-460.68 682,-467.66"/>
</g>
<!-- Node3 -->
<g id="node3" class="node">
<title>Node3</title>
<g id="a_node3"><a xlink:href="a01276.html" target="_top" xlink:title="Automated data provider pointers used to push most recent data points to user&#45;defined variables.">
<polygon fill="none" stroke="black" points="147.5,-199 147.5,-289 321.5,-289 321.5,-199 147.5,-199"/>
<text text-anchor="middle" x="234.5" y="-277" font-family="Helvetica,sans-Serif" font-size="10.00">NPNZ_DATA_PROVIDERS_s</text>
<polyline fill="none" stroke="black" points="147.5,-270 321.5,-270 "/>
<text text-anchor="start" x="155.5" y="-258" font-family="Helvetica,sans-Serif" font-size="10.00">+ ptrDProvControlInput</text>
<text text-anchor="start" x="155.5" y="-247" font-family="Helvetica,sans-Serif" font-size="10.00">+ ptrDProvControlInputCompensated</text>
<text text-anchor="start" x="155.5" y="-236" font-family="Helvetica,sans-Serif" font-size="10.00">+ ptrDProvControlError</text>
<text text-anchor="start" x="155.5" y="-225" font-family="Helvetica,sans-Serif" font-size="10.00">+ ptrDProvControlOutput</text>
<polyline fill="none" stroke="black" points="147.5,-218 321.5,-218 "/>
<text text-anchor="middle" x="234.5" y="-206" font-family="Helvetica,sans-Serif" font-size="10.00"> </text>
</a>
</g>
</g>
<!-- Node1&#45;&gt;Node3 -->
<g id="edge2" class="edge">
<title>Node1&#45;&gt;Node3</title>
<path fill="none" stroke="midnightblue" d="M682.11,-464.62C596.31,-456.13 441.23,-431.51 330.5,-361 302.17,-342.96 278.09,-313.8 261.13,-289.23"/>
<polygon fill="none" stroke="midnightblue" points="681.94,-468.12 692.23,-465.58 682.6,-461.15 681.94,-468.12"/>
</g>
<!-- Node4 -->
<g id="node4" class="node">
<title>Node4</title>
<g id="a_node4"><a xlink:href="a01280.html" target="_top" xlink:title="Set of function pointers and parameters used to tie in user&#45;defined, external extension functions at ...">
<polygon fill="none" stroke="black" points="339.5,-127.5 339.5,-360.5 505.5,-360.5 505.5,-127.5 339.5,-127.5"/>
<text text-anchor="middle" x="422.5" y="-348.5" font-family="Helvetica,sans-Serif" font-size="10.00">NPNZ_EXTENSION_HOOKS_s</text>
<polyline fill="none" stroke="black" points="339.5,-341.5 505.5,-341.5 "/>
<text text-anchor="start" x="347.5" y="-329.5" font-family="Helvetica,sans-Serif" font-size="10.00">+ ptrExtHookStartFunction</text>
<text text-anchor="start" x="347.5" y="-318.5" font-family="Helvetica,sans-Serif" font-size="10.00">+ ExtHookStartFunctionParam</text>
<text text-anchor="start" x="347.5" y="-307.5" font-family="Helvetica,sans-Serif" font-size="10.00">+ ptrExtHookSourceFunction</text>
<text text-anchor="start" x="347.5" y="-296.5" font-family="Helvetica,sans-Serif" font-size="10.00">+ ExtHookSourceFunctionParam</text>
<text text-anchor="start" x="347.5" y="-285.5" font-family="Helvetica,sans-Serif" font-size="10.00">+ ptrExtHookPreAntiWindup</text>
<text text-anchor="start" x="347.5" y="-274.5" font-family="Helvetica,sans-Serif" font-size="10.00">Function</text>
<text text-anchor="start" x="347.5" y="-263.5" font-family="Helvetica,sans-Serif" font-size="10.00">+ ExtHookPreAntiWindupFunction</text>
<text text-anchor="start" x="347.5" y="-252.5" font-family="Helvetica,sans-Serif" font-size="10.00">Param</text>
<text text-anchor="start" x="347.5" y="-241.5" font-family="Helvetica,sans-Serif" font-size="10.00">+ ptrExtHookPreTargetWrite</text>
<text text-anchor="start" x="347.5" y="-230.5" font-family="Helvetica,sans-Serif" font-size="10.00">Function</text>
<text text-anchor="start" x="347.5" y="-219.5" font-family="Helvetica,sans-Serif" font-size="10.00">+ ExtHookPreTargetWriteFunction</text>
<text text-anchor="start" x="347.5" y="-208.5" font-family="Helvetica,sans-Serif" font-size="10.00">Param</text>
<text text-anchor="start" x="347.5" y="-197.5" font-family="Helvetica,sans-Serif" font-size="10.00">+ ptrExtHookEndOfLoopFunction</text>
<text text-anchor="start" x="347.5" y="-186.5" font-family="Helvetica,sans-Serif" font-size="10.00">+ ExtHookEndOfLoopFunction</text>
<text text-anchor="start" x="347.5" y="-175.5" font-family="Helvetica,sans-Serif" font-size="10.00">Param</text>
<text text-anchor="start" x="347.5" y="-164.5" font-family="Helvetica,sans-Serif" font-size="10.00">+ ptrExtHookExitFunction</text>
<text text-anchor="start" x="347.5" y="-153.5" font-family="Helvetica,sans-Serif" font-size="10.00">+ ExtHookExitFunctionParam</text>
<polyline fill="none" stroke="black" points="339.5,-146.5 505.5,-146.5 "/>
<text text-anchor="middle" x="422.5" y="-134.5" font-family="Helvetica,sans-Serif" font-size="10.00"> </text>
</a>
</g>
</g>
<!-- Node1&#45;&gt;Node4 -->
<g id="edge3" class="edge">
<title>Node1&#45;&gt;Node4</title>
<path fill="none" stroke="midnightblue" d="M682.88,-448.48C634.03,-430.47 566.19,-400.91 515.5,-361 512.15,-358.37 508.85,-355.59 505.6,-352.7"/>
<polygon fill="none" stroke="midnightblue" points="681.79,-451.81 692.38,-451.92 684.18,-445.22 681.79,-451.81"/>
</g>
<!-- Node5 -->
<g id="node5" class="node">
<title>Node5</title>
<g id="a_node5"><a xlink:href="a01264.html" target="_top" xlink:title="Data structure for filter parameters such as pointer to history and coefficient arrays and number sca...">
<polygon fill="none" stroke="black" points="524,-144 524,-344 661,-344 661,-144 524,-144"/>
<text text-anchor="middle" x="592.5" y="-332" font-family="Helvetica,sans-Serif" font-size="10.00">NPNZ_FILTER_PARAMS_s</text>
<polyline fill="none" stroke="black" points="524,-325 661,-325 "/>
<text text-anchor="start" x="532" y="-313" font-family="Helvetica,sans-Serif" font-size="10.00">+ ptrACoefficients</text>
<text text-anchor="start" x="532" y="-302" font-family="Helvetica,sans-Serif" font-size="10.00">+ ptrBCoefficients</text>
<text text-anchor="start" x="532" y="-291" font-family="Helvetica,sans-Serif" font-size="10.00">+ ptrControlHistory</text>
<text text-anchor="start" x="532" y="-280" font-family="Helvetica,sans-Serif" font-size="10.00">+ ptrErrorHistory</text>
<text text-anchor="start" x="532" y="-269" font-family="Helvetica,sans-Serif" font-size="10.00">+ ACoefficientsArraySize</text>
<text text-anchor="start" x="532" y="-258" font-family="Helvetica,sans-Serif" font-size="10.00">+ BCoefficientsArraySize</text>
<text text-anchor="start" x="532" y="-247" font-family="Helvetica,sans-Serif" font-size="10.00">+ ControlHistoryArraySize</text>
<text text-anchor="start" x="532" y="-236" font-family="Helvetica,sans-Serif" font-size="10.00">+ ErrorHistoryArraySize</text>
<text text-anchor="start" x="532" y="-225" font-family="Helvetica,sans-Serif" font-size="10.00">+ normPreShift</text>
<text text-anchor="start" x="532" y="-214" font-family="Helvetica,sans-Serif" font-size="10.00">+ normPostShiftA</text>
<text text-anchor="start" x="532" y="-203" font-family="Helvetica,sans-Serif" font-size="10.00">+ normPostShiftB</text>
<text text-anchor="start" x="532" y="-192" font-family="Helvetica,sans-Serif" font-size="10.00">+ normPostScaler</text>
<text text-anchor="start" x="532" y="-181" font-family="Helvetica,sans-Serif" font-size="10.00">+ PTermScaler</text>
<text text-anchor="start" x="532" y="-170" font-family="Helvetica,sans-Serif" font-size="10.00">+ PTermFactor</text>
<polyline fill="none" stroke="black" points="524,-163 661,-163 "/>
<text text-anchor="middle" x="592.5" y="-151" font-family="Helvetica,sans-Serif" font-size="10.00"> </text>
</a>
</g>
</g>
<!-- Node1&#45;&gt;Node5 -->
<g id="edge4" class="edge">
<title>Node1&#45;&gt;Node5</title>
<path fill="none" stroke="midnightblue" d="M689.8,-389.08C683.27,-379.63 676.73,-370.11 670.5,-361 666.73,-355.49 662.88,-349.83 658.99,-344.1"/>
<polygon fill="none" stroke="midnightblue" points="686.96,-391.12 695.53,-397.36 692.72,-387.14 686.96,-391.12"/>
</g>
<!-- Node6 -->
<g id="node6" class="node">
<title>Node6</title>
<g id="a_node6"><a xlink:href="a01284.html" target="_top" xlink:title="Data structure holding parameters required for adaptive or manual loop gain manipulation during runti...">
<polygon fill="none" stroke="black" points="679.5,-199 679.5,-289 811.5,-289 811.5,-199 679.5,-199"/>
<text text-anchor="middle" x="745.5" y="-277" font-family="Helvetica,sans-Serif" font-size="10.00">NPNZ_GAIN_CONTROL_s</text>
<polyline fill="none" stroke="black" points="679.5,-270 811.5,-270 "/>
<text text-anchor="start" x="687.5" y="-258" font-family="Helvetica,sans-Serif" font-size="10.00">+ AgcScaler</text>
<text text-anchor="start" x="687.5" y="-247" font-family="Helvetica,sans-Serif" font-size="10.00">+ AgcFactor</text>
<text text-anchor="start" x="687.5" y="-236" font-family="Helvetica,sans-Serif" font-size="10.00">+ AgcMedian</text>
<text text-anchor="start" x="687.5" y="-225" font-family="Helvetica,sans-Serif" font-size="10.00">+ ptrAgcObserverFunction</text>
<polyline fill="none" stroke="black" points="679.5,-218 811.5,-218 "/>
<text text-anchor="middle" x="745.5" y="-206" font-family="Helvetica,sans-Serif" font-size="10.00"> </text>
</a>
</g>
</g>
<!-- Node1&#45;&gt;Node6 -->
<g id="edge5" class="edge">
<title>Node1&#45;&gt;Node6</title>
<path fill="none" stroke="midnightblue" d="M745.5,-387.05C745.5,-353.88 745.5,-316.93 745.5,-289.02"/>
<polygon fill="none" stroke="midnightblue" points="742,-387.2 745.5,-397.2 749,-387.2 742,-387.2"/>
</g>
<!-- Node7 -->
<g id="node7" class="node">
<title>Node7</title>
<g id="a_node7"><a xlink:href="a01268.html" target="_top" xlink:title="Data strucure holding control output clamping threshold values.">
<polygon fill="none" stroke="black" points="829.5,-199 829.5,-289 917.5,-289 917.5,-199 829.5,-199"/>
<text text-anchor="middle" x="873.5" y="-277" font-family="Helvetica,sans-Serif" font-size="10.00">NPNZ_LIMITS_s</text>
<polyline fill="none" stroke="black" points="829.5,-270 917.5,-270 "/>
<text text-anchor="start" x="837.5" y="-258" font-family="Helvetica,sans-Serif" font-size="10.00">+ MinOutput</text>
<text text-anchor="start" x="837.5" y="-247" font-family="Helvetica,sans-Serif" font-size="10.00">+ MaxOutput</text>
<text text-anchor="start" x="837.5" y="-236" font-family="Helvetica,sans-Serif" font-size="10.00">+ AltMinOutput</text>
<text text-anchor="start" x="837.5" y="-225" font-family="Helvetica,sans-Serif" font-size="10.00">+ AltMaxOutput</text>
<polyline fill="none" stroke="black" points="829.5,-218 917.5,-218 "/>
<text text-anchor="middle" x="873.5" y="-206" font-family="Helvetica,sans-Serif" font-size="10.00"> </text>
</a>
</g>
</g>
<!-- Node1&#45;&gt;Node7 -->
<g id="edge6" class="edge">
<title>Node1&#45;&gt;Node7</title>
<path fill="none" stroke="midnightblue" d="M803.49,-388.82C809.47,-379.59 815.27,-370.19 820.5,-361 833.6,-338.01 846.01,-311.21 855.53,-289.16"/>
<polygon fill="none" stroke="midnightblue" points="800.52,-386.96 797.95,-397.24 806.37,-390.81 800.52,-386.96"/>
</g>
<!-- Node8 -->
<g id="node8" class="node">
<title>Node8</title>
<g id="a_node8"><a xlink:href="a01260.html" target="_top" xlink:title="Data structure merging all defined controller input and output ports.">
<polygon fill="none" stroke="black" points="936,-193.5 936,-294.5 1047,-294.5 1047,-193.5 936,-193.5"/>
<text text-anchor="middle" x="991.5" y="-282.5" font-family="Helvetica,sans-Serif" font-size="10.00">NPNZ_PORTS_s</text>
<polyline fill="none" stroke="black" points="936,-275.5 1047,-275.5 "/>
<text text-anchor="start" x="944" y="-263.5" font-family="Helvetica,sans-Serif" font-size="10.00">+ Source</text>
<text text-anchor="start" x="944" y="-252.5" font-family="Helvetica,sans-Serif" font-size="10.00">+ AltSource</text>
<text text-anchor="start" x="944" y="-241.5" font-family="Helvetica,sans-Serif" font-size="10.00">+ Target</text>
<text text-anchor="start" x="944" y="-230.5" font-family="Helvetica,sans-Serif" font-size="10.00">+ AltTarget</text>
<text text-anchor="start" x="944" y="-219.5" font-family="Helvetica,sans-Serif" font-size="10.00">+ ptrControlReference</text>
<polyline fill="none" stroke="black" points="936,-212.5 1047,-212.5 "/>
<text text-anchor="middle" x="991.5" y="-200.5" font-family="Helvetica,sans-Serif" font-size="10.00"> </text>
</a>
</g>
</g>
<!-- Node1&#45;&gt;Node8 -->
<g id="edge7" class="edge">
<title>Node1&#45;&gt;Node8</title>
<path fill="none" stroke="midnightblue" d="M808.2,-441.82C845.87,-423.18 892.86,-395.57 926.5,-361 944.93,-342.06 959.88,-316.85 970.77,-294.78"/>
<polygon fill="none" stroke="midnightblue" points="806.3,-438.85 798.83,-446.37 809.36,-445.15 806.3,-438.85"/>
</g>
<!-- Node10 -->
<g id="node10" class="node">
<title>Node10</title>
<g id="a_node10"><a xlink:href="a01244.html" target="_top" xlink:title="Controller status word data structure allowing bit&#45;wise access to status and control bits.">
<polygon fill="none" stroke="black" points="1065,-160.5 1065,-327.5 1190,-327.5 1190,-160.5 1065,-160.5"/>
<text text-anchor="middle" x="1127.5" y="-315.5" font-family="Helvetica,sans-Serif" font-size="10.00">NPNZ_STATUS_s</text>
<polyline fill="none" stroke="black" points="1065,-308.5 1190,-308.5 "/>
<text text-anchor="start" x="1073" y="-296.5" font-family="Helvetica,sans-Serif" font-size="10.00">+ lower_saturation_event</text>
<text text-anchor="start" x="1073" y="-285.5" font-family="Helvetica,sans-Serif" font-size="10.00">+ upper_saturation_event</text>
<text text-anchor="start" x="1073" y="-274.5" font-family="Helvetica,sans-Serif" font-size="10.00">+ unsigned</text>
<text text-anchor="start" x="1073" y="-263.5" font-family="Helvetica,sans-Serif" font-size="10.00">+ agc_enabled</text>
<text text-anchor="start" x="1073" y="-252.5" font-family="Helvetica,sans-Serif" font-size="10.00">+ swap_target</text>
<text text-anchor="start" x="1073" y="-241.5" font-family="Helvetica,sans-Serif" font-size="10.00">+ swap_source</text>
<text text-anchor="start" x="1073" y="-230.5" font-family="Helvetica,sans-Serif" font-size="10.00">+ invert_input</text>
<text text-anchor="start" x="1073" y="-219.5" font-family="Helvetica,sans-Serif" font-size="10.00">+ enabled</text>
<text text-anchor="start" x="1073" y="-208.5" font-family="Helvetica,sans-Serif" font-size="10.00">+ bits</text>
<text text-anchor="start" x="1073" y="-197.5" font-family="Helvetica,sans-Serif" font-size="10.00">+ value</text>
<text text-anchor="start" x="1073" y="-186.5" font-family="Helvetica,sans-Serif" font-size="10.00">+ @133</text>
<polyline fill="none" stroke="black" points="1065,-179.5 1190,-179.5 "/>
<text text-anchor="middle" x="1127.5" y="-167.5" font-family="Helvetica,sans-Serif" font-size="10.00"> </text>
</a>
</g>
</g>
<!-- Node1&#45;&gt;Node10 -->
<g id="edge9" class="edge">
<title>Node1&#45;&gt;Node10</title>
<path fill="none" stroke="midnightblue" d="M808.74,-459.98C876.29,-447.6 983.46,-419.81 1056.5,-361 1067.99,-351.74 1078.11,-340.09 1086.83,-327.77"/>
<polygon fill="none" stroke="midnightblue" points="807.9,-456.57 798.67,-461.76 809.12,-463.46 807.9,-456.57"/>
</g>
<!-- Node11 -->
<g id="node11" class="node">
<title>Node11</title>
<g id="a_node11"><a xlink:href="a01288.html" target="_top" xlink:title="Generic data buffer for undetermined use. These data buffers may be used by advanced control algorith...">
<polygon fill="none" stroke="black" points="1208.5,-177 1208.5,-311 1368.5,-311 1368.5,-177 1208.5,-177"/>
<text text-anchor="middle" x="1288.5" y="-299" font-family="Helvetica,sans-Serif" font-size="10.00">NPNZ_USER_DATA_BUFFER_s</text>
<polyline fill="none" stroke="black" points="1208.5,-292 1368.5,-292 "/>
<text text-anchor="start" x="1216.5" y="-280" font-family="Helvetica,sans-Serif" font-size="10.00">+ usrParam0</text>
<text text-anchor="start" x="1216.5" y="-269" font-family="Helvetica,sans-Serif" font-size="10.00">+ usrParam1</text>
<text text-anchor="start" x="1216.5" y="-258" font-family="Helvetica,sans-Serif" font-size="10.00">+ usrParam2</text>
<text text-anchor="start" x="1216.5" y="-247" font-family="Helvetica,sans-Serif" font-size="10.00">+ usrParam3</text>
<text text-anchor="start" x="1216.5" y="-236" font-family="Helvetica,sans-Serif" font-size="10.00">+ usrParam4</text>
<text text-anchor="start" x="1216.5" y="-225" font-family="Helvetica,sans-Serif" font-size="10.00">+ usrParam5</text>
<text text-anchor="start" x="1216.5" y="-214" font-family="Helvetica,sans-Serif" font-size="10.00">+ usrParam6</text>
<text text-anchor="start" x="1216.5" y="-203" font-family="Helvetica,sans-Serif" font-size="10.00">+ usrParam7</text>
<polyline fill="none" stroke="black" points="1208.5,-196 1368.5,-196 "/>
<text text-anchor="middle" x="1288.5" y="-184" font-family="Helvetica,sans-Serif" font-size="10.00"> </text>
</a>
</g>
</g>
<!-- Node1&#45;&gt;Node11 -->
<g id="edge10" class="edge">
<title>Node1&#45;&gt;Node11</title>
<path fill="none" stroke="midnightblue" d="M808.67,-467.11C901.44,-461.59 1076.78,-440.52 1199.5,-361 1219.1,-348.3 1236.1,-329.75 1249.85,-311.19"/>
<polygon fill="none" stroke="midnightblue" points="808.39,-463.62 798.6,-467.67 808.77,-470.61 808.39,-463.62"/>
</g>
<!-- Node9 -->
<g id="node9" class="node">
<title>Node9</title>
<g id="a_node9"><a xlink:href="a01256.html" target="_top" xlink:title="Data structure defining parameters of a controller input or output port.">
<polygon fill="none" stroke="black" points="949.5,-0.5 949.5,-90.5 1033.5,-90.5 1033.5,-0.5 949.5,-0.5"/>
<text text-anchor="middle" x="991.5" y="-78.5" font-family="Helvetica,sans-Serif" font-size="10.00">NPNZ_PORT_s</text>
<polyline fill="none" stroke="black" points="949.5,-71.5 1033.5,-71.5 "/>
<text text-anchor="start" x="957.5" y="-59.5" font-family="Helvetica,sans-Serif" font-size="10.00">+ ptrAddress</text>
<text text-anchor="start" x="957.5" y="-48.5" font-family="Helvetica,sans-Serif" font-size="10.00">+ NormScaler</text>
<text text-anchor="start" x="957.5" y="-37.5" font-family="Helvetica,sans-Serif" font-size="10.00">+ NormFactor</text>
<text text-anchor="start" x="957.5" y="-26.5" font-family="Helvetica,sans-Serif" font-size="10.00">+ Offset</text>
<polyline fill="none" stroke="black" points="949.5,-19.5 1033.5,-19.5 "/>
<text text-anchor="middle" x="991.5" y="-7.5" font-family="Helvetica,sans-Serif" font-size="10.00"> </text>
</a>
</g>
</g>
<!-- Node8&#45;&gt;Node9 -->
<g id="edge8" class="edge">
<title>Node8&#45;&gt;Node9</title>
<path fill="none" stroke="midnightblue" d="M991.5,-183.14C991.5,-153.36 991.5,-117.99 991.5,-90.71"/>
<polygon fill="none" stroke="midnightblue" points="988,-183.41 991.5,-193.41 995,-183.41 988,-183.41"/>
</g>
</g>
</svg>
