<?xml version="1.0" encoding="UTF-8" standalone="no"?>
<!DOCTYPE svg PUBLIC "-//W3C//DTD SVG 1.1//EN"
 "http://www.w3.org/Graphics/SVG/1.1/DTD/svg11.dtd">
<!-- Generated by graphviz version 2.44.1 (20200629.0846)
 -->
<!-- Title: NPNZ_PORTS_s Pages: 1 -->
<svg width="1247pt" height="518pt"
 viewBox="0.00 0.00 1247.00 518.00" xmlns="http://www.w3.org/2000/svg" xmlns:xlink="http://www.w3.org/1999/xlink">
<g id="graph0" class="graph" transform="scale(1 1) rotate(0) translate(4 514)">
<title>NPNZ_PORTS_s</title>
<!-- Node1 -->
<g id="node1" class="node">
<title>Node1</title>
<g id="a_node1"><a xlink:title="Data structure merging all defined controller input and output ports.">
<polygon fill="#bfbfbf" stroke="black" points="571,-452.5 571,-509.5 682,-509.5 682,-452.5 571,-452.5"/>
<text text-anchor="middle" x="626.5" y="-497.5" font-family="Helvetica,sans-Serif" font-size="10.00">NPNZ_PORTS_s</text>
<polyline fill="none" stroke="black" points="571,-490.5 682,-490.5 "/>
<text text-anchor="start" x="579" y="-478.5" font-family="Helvetica,sans-Serif" font-size="10.00">+ ptrControlReference</text>
<polyline fill="none" stroke="black" points="571,-471.5 682,-471.5 "/>
<text text-anchor="middle" x="626.5" y="-459.5" font-family="Helvetica,sans-Serif" font-size="10.00"> </text>
</a>
</g>
</g>
<!-- Node2 -->
<g id="node2" class="node">
<title>Node2</title>
<g id="a_node2"><a xlink:href="a01292.html" target="_top" xlink:title="Generic NPNZ16b Controller Object. This data structure is the main API data object providing single&#45;p...">
<polygon fill="none" stroke="black" points="538.5,-298 538.5,-355 606.5,-355 606.5,-298 538.5,-298"/>
<text text-anchor="middle" x="572.5" y="-343" font-family="Helvetica,sans-Serif" font-size="10.00">NPNZ16b_s</text>
<polyline fill="none" stroke="black" points="538.5,-336 606.5,-336 "/>
<text text-anchor="middle" x="572.5" y="-324" font-family="Helvetica,sans-Serif" font-size="10.00"> </text>
<polyline fill="none" stroke="black" points="538.5,-317 606.5,-317 "/>
<text text-anchor="middle" x="572.5" y="-305" font-family="Helvetica,sans-Serif" font-size="10.00"> </text>
</a>
</g>
</g>
<!-- Node1&#45;&gt;Node2 -->
<g id="edge10" class="edge">
<title>Node1&#45;&gt;Node2</title>
<path fill="none" stroke="#404040" d="M577.82,-452.3C572.06,-446.98 567,-440.88 563.5,-434 553.1,-413.53 554.86,-387.97 559.45,-367.03"/>
<polygon fill="none" stroke="#404040" points="559.47,-366.93 557.06,-360.14 562.4,-355.3 564.82,-362.09 559.47,-366.93"/>
<text text-anchor="middle" x="580" y="-409.5" font-family="Helvetica,sans-Serif" font-size="10.00"> +Ports</text>
</g>
<!-- Node11 -->
<g id="node11" class="node">
<title>Node11</title>
<g id="a_node11"><a xlink:href="a01256.html" target="_top" xlink:title="Data structure defining parameters of a controller input or output port.">
<polygon fill="none" stroke="black" points="627.5,-281.5 627.5,-371.5 711.5,-371.5 711.5,-281.5 627.5,-281.5"/>
<text text-anchor="middle" x="669.5" y="-359.5" font-family="Helvetica,sans-Serif" font-size="10.00">NPNZ_PORT_s</text>
<polyline fill="none" stroke="black" points="627.5,-352.5 711.5,-352.5 "/>
<text text-anchor="start" x="635.5" y="-340.5" font-family="Helvetica,sans-Serif" font-size="10.00">+ ptrAddress</text>
<text text-anchor="start" x="635.5" y="-329.5" font-family="Helvetica,sans-Serif" font-size="10.00">+ NormScaler</text>
<text text-anchor="start" x="635.5" y="-318.5" font-family="Helvetica,sans-Serif" font-size="10.00">+ NormFactor</text>
<text text-anchor="start" x="635.5" y="-307.5" font-family="Helvetica,sans-Serif" font-size="10.00">+ Offset</text>
<polyline fill="none" stroke="black" points="627.5,-300.5 711.5,-300.5 "/>
<text text-anchor="middle" x="669.5" y="-288.5" font-family="Helvetica,sans-Serif" font-size="10.00"> </text>
</a>
</g>
</g>
<!-- Node1&#45;&gt;Node11 -->
<g id="edge20" class="edge">
<title>Node1&#45;&gt;Node11</title>
<path fill="none" stroke="midnightblue" d="M637.03,-442.66C643.08,-421.21 650.7,-394.16 657.05,-371.66"/>
<polygon fill="none" stroke="midnightblue" points="633.63,-441.81 634.29,-452.38 640.37,-443.71 633.63,-441.81"/>
</g>
<!-- Node2&#45;&gt;Node1 -->
<g id="edge1" class="edge">
<title>Node2&#45;&gt;Node1</title>
<path fill="none" stroke="midnightblue" d="M590.02,-364.31C593.7,-372.66 597.41,-381.56 600.5,-390 608,-410.46 614.77,-434.16 619.52,-452.1"/>
<polygon fill="none" stroke="midnightblue" points="593.19,-362.84 585.89,-355.16 586.81,-365.71 593.19,-362.84"/>
</g>
<!-- Node3 -->
<g id="node3" class="node">
<title>Node3</title>
<g id="a_node3"><a xlink:href="a01272.html" target="_top" xlink:title="Automatic ADC trigger placement parameters for primary ADC trigger A and secondary trigger B.">
<polygon fill="none" stroke="black" points="0,-72 0,-162 129,-162 129,-72 0,-72"/>
<text text-anchor="middle" x="64.5" y="-150" font-family="Helvetica,sans-Serif" font-size="10.00">NPNZ_ADC_TRGCTRL_s</text>
<polyline fill="none" stroke="black" points="0,-143 129,-143 "/>
<text text-anchor="start" x="8" y="-131" font-family="Helvetica,sans-Serif" font-size="10.00">+ ptrADCTriggerARegister</text>
<text text-anchor="start" x="8" y="-120" font-family="Helvetica,sans-Serif" font-size="10.00">+ ADCTriggerAOffset</text>
<text text-anchor="start" x="8" y="-109" font-family="Helvetica,sans-Serif" font-size="10.00">+ ptrADCTriggerBRegister</text>
<text text-anchor="start" x="8" y="-98" font-family="Helvetica,sans-Serif" font-size="10.00">+ ADCTriggerBOffset</text>
<polyline fill="none" stroke="black" points="0,-91 129,-91 "/>
<text text-anchor="middle" x="64.5" y="-79" font-family="Helvetica,sans-Serif" font-size="10.00"> </text>
</a>
</g>
</g>
<!-- Node2&#45;&gt;Node3 -->
<g id="edge3" class="edge">
<title>Node2&#45;&gt;Node3</title>
<path fill="none" stroke="midnightblue" d="M528.08,-322.36C436.03,-315.27 227.86,-296 165.5,-263 125.37,-241.76 97.88,-196.62 81.83,-162.31"/>
<polygon fill="none" stroke="midnightblue" points="527.95,-325.86 538.19,-323.13 528.48,-318.88 527.95,-325.86"/>
</g>
<!-- Node4 -->
<g id="node4" class="node">
<title>Node4</title>
<g id="a_node4"><a xlink:href="a01284.html" target="_top" xlink:title="Data structure holding parameters required for adaptive or manual loop gain manipulation during runti...">
<polygon fill="none" stroke="black" points="147.5,-72 147.5,-162 279.5,-162 279.5,-72 147.5,-72"/>
<text text-anchor="middle" x="213.5" y="-150" font-family="Helvetica,sans-Serif" font-size="10.00">NPNZ_GAIN_CONTROL_s</text>
<polyline fill="none" stroke="black" points="147.5,-143 279.5,-143 "/>
<text text-anchor="start" x="155.5" y="-131" font-family="Helvetica,sans-Serif" font-size="10.00">+ AgcScaler</text>
<text text-anchor="start" x="155.5" y="-120" font-family="Helvetica,sans-Serif" font-size="10.00">+ AgcFactor</text>
<text text-anchor="start" x="155.5" y="-109" font-family="Helvetica,sans-Serif" font-size="10.00">+ AgcMedian</text>
<text text-anchor="start" x="155.5" y="-98" font-family="Helvetica,sans-Serif" font-size="10.00">+ ptrAgcObserverFunction</text>
<polyline fill="none" stroke="black" points="147.5,-91 279.5,-91 "/>
<text text-anchor="middle" x="213.5" y="-79" font-family="Helvetica,sans-Serif" font-size="10.00"> </text>
</a>
</g>
</g>
<!-- Node2&#45;&gt;Node4 -->
<g id="edge5" class="edge">
<title>Node2&#45;&gt;Node4</title>
<path fill="none" stroke="midnightblue" d="M528.2,-324.23C472.71,-320.69 376.79,-307.92 309.5,-263 272.97,-238.61 246.95,-195.1 231.3,-162.09"/>
<polygon fill="none" stroke="midnightblue" points="528.22,-327.74 538.4,-324.81 528.61,-320.75 528.22,-327.74"/>
</g>
<!-- Node5 -->
<g id="node5" class="node">
<title>Node5</title>
<g id="a_node5"><a xlink:href="a01268.html" target="_top" xlink:title="Data strucure holding control output clamping threshold values.">
<polygon fill="none" stroke="black" points="297.5,-72 297.5,-162 385.5,-162 385.5,-72 297.5,-72"/>
<text text-anchor="middle" x="341.5" y="-150" font-family="Helvetica,sans-Serif" font-size="10.00">NPNZ_LIMITS_s</text>
<polyline fill="none" stroke="black" points="297.5,-143 385.5,-143 "/>
<text text-anchor="start" x="305.5" y="-131" font-family="Helvetica,sans-Serif" font-size="10.00">+ MinOutput</text>
<text text-anchor="start" x="305.5" y="-120" font-family="Helvetica,sans-Serif" font-size="10.00">+ MaxOutput</text>
<text text-anchor="start" x="305.5" y="-109" font-family="Helvetica,sans-Serif" font-size="10.00">+ AltMinOutput</text>
<text text-anchor="start" x="305.5" y="-98" font-family="Helvetica,sans-Serif" font-size="10.00">+ AltMaxOutput</text>
<polyline fill="none" stroke="black" points="297.5,-91 385.5,-91 "/>
<text text-anchor="middle" x="341.5" y="-79" font-family="Helvetica,sans-Serif" font-size="10.00"> </text>
</a>
</g>
</g>
<!-- Node2&#45;&gt;Node5 -->
<g id="edge7" class="edge">
<title>Node2&#45;&gt;Node5</title>
<path fill="none" stroke="midnightblue" d="M528.21,-317.16C492.94,-308.62 444.1,-292.31 410.5,-263 380.36,-236.7 362.33,-194.32 352.3,-162.16"/>
<polygon fill="none" stroke="midnightblue" points="527.7,-320.63 538.23,-319.47 529.27,-313.81 527.7,-320.63"/>
</g>
<!-- Node6 -->
<g id="node6" class="node">
<title>Node6</title>
<g id="a_node6"><a xlink:href="a01288.html" target="_top" xlink:title="Generic data buffer for undetermined use. These data buffers may be used by advanced control algorith...">
<polygon fill="none" stroke="black" points="403.5,-50 403.5,-184 563.5,-184 563.5,-50 403.5,-50"/>
<text text-anchor="middle" x="483.5" y="-172" font-family="Helvetica,sans-Serif" font-size="10.00">NPNZ_USER_DATA_BUFFER_s</text>
<polyline fill="none" stroke="black" points="403.5,-165 563.5,-165 "/>
<text text-anchor="start" x="411.5" y="-153" font-family="Helvetica,sans-Serif" font-size="10.00">+ usrParam0</text>
<text text-anchor="start" x="411.5" y="-142" font-family="Helvetica,sans-Serif" font-size="10.00">+ usrParam1</text>
<text text-anchor="start" x="411.5" y="-131" font-family="Helvetica,sans-Serif" font-size="10.00">+ usrParam2</text>
<text text-anchor="start" x="411.5" y="-120" font-family="Helvetica,sans-Serif" font-size="10.00">+ usrParam3</text>
<text text-anchor="start" x="411.5" y="-109" font-family="Helvetica,sans-Serif" font-size="10.00">+ usrParam4</text>
<text text-anchor="start" x="411.5" y="-98" font-family="Helvetica,sans-Serif" font-size="10.00">+ usrParam5</text>
<text text-anchor="start" x="411.5" y="-87" font-family="Helvetica,sans-Serif" font-size="10.00">+ usrParam6</text>
<text text-anchor="start" x="411.5" y="-76" font-family="Helvetica,sans-Serif" font-size="10.00">+ usrParam7</text>
<polyline fill="none" stroke="black" points="403.5,-69 563.5,-69 "/>
<text text-anchor="middle" x="483.5" y="-57" font-family="Helvetica,sans-Serif" font-size="10.00"> </text>
</a>
</g>
</g>
<!-- Node2&#45;&gt;Node6 -->
<g id="edge9" class="edge">
<title>Node2&#45;&gt;Node6</title>
<path fill="none" stroke="midnightblue" d="M549.32,-289C544.45,-280.62 539.56,-271.63 535.5,-263 523.67,-237.83 512.87,-209.18 504.21,-184.03"/>
<polygon fill="none" stroke="midnightblue" points="546.45,-291.01 554.57,-297.81 552.46,-287.42 546.45,-291.01"/>
</g>
<!-- Node7 -->
<g id="node7" class="node">
<title>Node7</title>
<g id="a_node7"><a xlink:href="a01264.html" target="_top" xlink:title="Data structure for filter parameters such as pointer to history and coefficient arrays and number sca...">
<polygon fill="none" stroke="black" points="582,-17 582,-217 719,-217 719,-17 582,-17"/>
<text text-anchor="middle" x="650.5" y="-205" font-family="Helvetica,sans-Serif" font-size="10.00">NPNZ_FILTER_PARAMS_s</text>
<polyline fill="none" stroke="black" points="582,-198 719,-198 "/>
<text text-anchor="start" x="590" y="-186" font-family="Helvetica,sans-Serif" font-size="10.00">+ ptrACoefficients</text>
<text text-anchor="start" x="590" y="-175" font-family="Helvetica,sans-Serif" font-size="10.00">+ ptrBCoefficients</text>
<text text-anchor="start" x="590" y="-164" font-family="Helvetica,sans-Serif" font-size="10.00">+ ptrControlHistory</text>
<text text-anchor="start" x="590" y="-153" font-family="Helvetica,sans-Serif" font-size="10.00">+ ptrErrorHistory</text>
<text text-anchor="start" x="590" y="-142" font-family="Helvetica,sans-Serif" font-size="10.00">+ ACoefficientsArraySize</text>
<text text-anchor="start" x="590" y="-131" font-family="Helvetica,sans-Serif" font-size="10.00">+ BCoefficientsArraySize</text>
<text text-anchor="start" x="590" y="-120" font-family="Helvetica,sans-Serif" font-size="10.00">+ ControlHistoryArraySize</text>
<text text-anchor="start" x="590" y="-109" font-family="Helvetica,sans-Serif" font-size="10.00">+ ErrorHistoryArraySize</text>
<text text-anchor="start" x="590" y="-98" font-family="Helvetica,sans-Serif" font-size="10.00">+ normPreShift</text>
<text text-anchor="start" x="590" y="-87" font-family="Helvetica,sans-Serif" font-size="10.00">+ normPostShiftA</text>
<text text-anchor="start" x="590" y="-76" font-family="Helvetica,sans-Serif" font-size="10.00">+ normPostShiftB</text>
<text text-anchor="start" x="590" y="-65" font-family="Helvetica,sans-Serif" font-size="10.00">+ normPostScaler</text>
<text text-anchor="start" x="590" y="-54" font-family="Helvetica,sans-Serif" font-size="10.00">+ PTermScaler</text>
<text text-anchor="start" x="590" y="-43" font-family="Helvetica,sans-Serif" font-size="10.00">+ PTermFactor</text>
<polyline fill="none" stroke="black" points="582,-36 719,-36 "/>
<text text-anchor="middle" x="650.5" y="-24" font-family="Helvetica,sans-Serif" font-size="10.00"> </text>
</a>
</g>
</g>
<!-- Node2&#45;&gt;Node7 -->
<g id="edge12" class="edge">
<title>Node2&#45;&gt;Node7</title>
<path fill="none" stroke="midnightblue" d="M586.48,-288.31C594.01,-268.29 603.69,-242.53 613.23,-217.14"/>
<polygon fill="none" stroke="midnightblue" points="583.1,-287.35 582.86,-297.95 589.65,-289.82 583.1,-287.35"/>
</g>
<!-- Node8 -->
<g id="node8" class="node">
<title>Node8</title>
<g id="a_node8"><a xlink:href="a01276.html" target="_top" xlink:title="Automated data provider pointers used to push most recent data points to user&#45;defined variables.">
<polygon fill="none" stroke="black" points="737.5,-72 737.5,-162 911.5,-162 911.5,-72 737.5,-72"/>
<text text-anchor="middle" x="824.5" y="-150" font-family="Helvetica,sans-Serif" font-size="10.00">NPNZ_DATA_PROVIDERS_s</text>
<polyline fill="none" stroke="black" points="737.5,-143 911.5,-143 "/>
<text text-anchor="start" x="745.5" y="-131" font-family="Helvetica,sans-Serif" font-size="10.00">+ ptrDProvControlInput</text>
<text text-anchor="start" x="745.5" y="-120" font-family="Helvetica,sans-Serif" font-size="10.00">+ ptrDProvControlInputCompensated</text>
<text text-anchor="start" x="745.5" y="-109" font-family="Helvetica,sans-Serif" font-size="10.00">+ ptrDProvControlError</text>
<text text-anchor="start" x="745.5" y="-98" font-family="Helvetica,sans-Serif" font-size="10.00">+ ptrDProvControlOutput</text>
<polyline fill="none" stroke="black" points="737.5,-91 911.5,-91 "/>
<text text-anchor="middle" x="824.5" y="-79" font-family="Helvetica,sans-Serif" font-size="10.00"> </text>
</a>
</g>
</g>
<!-- Node2&#45;&gt;Node8 -->
<g id="edge14" class="edge">
<title>Node2&#45;&gt;Node8</title>
<path fill="none" stroke="midnightblue" d="M605.17,-290.98C609.45,-287.35 613.94,-283.93 618.5,-281 636.97,-269.14 644.27,-271.53 664.5,-263 693.27,-250.86 703.69,-252.96 728.5,-234 754.57,-214.08 778.15,-185.81 795.42,-162.17"/>
<polygon fill="none" stroke="midnightblue" points="602.82,-288.39 597.71,-297.67 607.5,-293.6 602.82,-288.39"/>
</g>
<!-- Node9 -->
<g id="node9" class="node">
<title>Node9</title>
<g id="a_node9"><a xlink:href="a01280.html" target="_top" xlink:title="Set of function pointers and parameters used to tie in user&#45;defined, external extension functions at ...">
<polygon fill="none" stroke="black" points="929.5,-0.5 929.5,-233.5 1095.5,-233.5 1095.5,-0.5 929.5,-0.5"/>
<text text-anchor="middle" x="1012.5" y="-221.5" font-family="Helvetica,sans-Serif" font-size="10.00">NPNZ_EXTENSION_HOOKS_s</text>
<polyline fill="none" stroke="black" points="929.5,-214.5 1095.5,-214.5 "/>
<text text-anchor="start" x="937.5" y="-202.5" font-family="Helvetica,sans-Serif" font-size="10.00">+ ptrExtHookStartFunction</text>
<text text-anchor="start" x="937.5" y="-191.5" font-family="Helvetica,sans-Serif" font-size="10.00">+ ExtHookStartFunctionParam</text>
<text text-anchor="start" x="937.5" y="-180.5" font-family="Helvetica,sans-Serif" font-size="10.00">+ ptrExtHookSourceFunction</text>
<text text-anchor="start" x="937.5" y="-169.5" font-family="Helvetica,sans-Serif" font-size="10.00">+ ExtHookSourceFunctionParam</text>
<text text-anchor="start" x="937.5" y="-158.5" font-family="Helvetica,sans-Serif" font-size="10.00">+ ptrExtHookPreAntiWindup</text>
<text text-anchor="start" x="937.5" y="-147.5" font-family="Helvetica,sans-Serif" font-size="10.00">Function</text>
<text text-anchor="start" x="937.5" y="-136.5" font-family="Helvetica,sans-Serif" font-size="10.00">+ ExtHookPreAntiWindupFunction</text>
<text text-anchor="start" x="937.5" y="-125.5" font-family="Helvetica,sans-Serif" font-size="10.00">Param</text>
<text text-anchor="start" x="937.5" y="-114.5" font-family="Helvetica,sans-Serif" font-size="10.00">+ ptrExtHookPreTargetWrite</text>
<text text-anchor="start" x="937.5" y="-103.5" font-family="Helvetica,sans-Serif" font-size="10.00">Function</text>
<text text-anchor="start" x="937.5" y="-92.5" font-family="Helvetica,sans-Serif" font-size="10.00">+ ExtHookPreTargetWriteFunction</text>
<text text-anchor="start" x="937.5" y="-81.5" font-family="Helvetica,sans-Serif" font-size="10.00">Param</text>
<text text-anchor="start" x="937.5" y="-70.5" font-family="Helvetica,sans-Serif" font-size="10.00">+ ptrExtHookEndOfLoopFunction</text>
<text text-anchor="start" x="937.5" y="-59.5" font-family="Helvetica,sans-Serif" font-size="10.00">+ ExtHookEndOfLoopFunction</text>
<text text-anchor="start" x="937.5" y="-48.5" font-family="Helvetica,sans-Serif" font-size="10.00">Param</text>
<text text-anchor="start" x="937.5" y="-37.5" font-family="Helvetica,sans-Serif" font-size="10.00">+ ptrExtHookExitFunction</text>
<text text-anchor="start" x="937.5" y="-26.5" font-family="Helvetica,sans-Serif" font-size="10.00">+ ExtHookExitFunctionParam</text>
<polyline fill="none" stroke="black" points="929.5,-19.5 1095.5,-19.5 "/>
<text text-anchor="middle" x="1012.5" y="-7.5" font-family="Helvetica,sans-Serif" font-size="10.00"> </text>
</a>
</g>
</g>
<!-- Node2&#45;&gt;Node9 -->
<g id="edge16" class="edge">
<title>Node2&#45;&gt;Node9</title>
<path fill="none" stroke="midnightblue" d="M602.36,-291.25C607.36,-287.19 612.79,-283.58 618.5,-281 663.59,-260.6 792.14,-273.53 840.5,-263 877.45,-254.96 889.81,-256.1 920.5,-234 923.52,-231.82 926.5,-229.52 929.43,-227.11"/>
<polygon fill="none" stroke="midnightblue" points="600.03,-288.64 594.9,-297.9 604.69,-293.86 600.03,-288.64"/>
</g>
<!-- Node10 -->
<g id="node10" class="node">
<title>Node10</title>
<g id="a_node10"><a xlink:href="a01244.html" target="_top" xlink:title="Controller status word data structure allowing bit&#45;wise access to status and control bits.">
<polygon fill="none" stroke="black" points="1114,-33.5 1114,-200.5 1239,-200.5 1239,-33.5 1114,-33.5"/>
<text text-anchor="middle" x="1176.5" y="-188.5" font-family="Helvetica,sans-Serif" font-size="10.00">NPNZ_STATUS_s</text>
<polyline fill="none" stroke="black" points="1114,-181.5 1239,-181.5 "/>
<text text-anchor="start" x="1122" y="-169.5" font-family="Helvetica,sans-Serif" font-size="10.00">+ lower_saturation_event</text>
<text text-anchor="start" x="1122" y="-158.5" font-family="Helvetica,sans-Serif" font-size="10.00">+ upper_saturation_event</text>
<text text-anchor="start" x="1122" y="-147.5" font-family="Helvetica,sans-Serif" font-size="10.00">+ unsigned</text>
<text text-anchor="start" x="1122" y="-136.5" font-family="Helvetica,sans-Serif" font-size="10.00">+ agc_enabled</text>
<text text-anchor="start" x="1122" y="-125.5" font-family="Helvetica,sans-Serif" font-size="10.00">+ swap_target</text>
<text text-anchor="start" x="1122" y="-114.5" font-family="Helvetica,sans-Serif" font-size="10.00">+ swap_source</text>
<text text-anchor="start" x="1122" y="-103.5" font-family="Helvetica,sans-Serif" font-size="10.00">+ invert_input</text>
<text text-anchor="start" x="1122" y="-92.5" font-family="Helvetica,sans-Serif" font-size="10.00">+ enabled</text>
<text text-anchor="start" x="1122" y="-81.5" font-family="Helvetica,sans-Serif" font-size="10.00">+ bits</text>
<text text-anchor="start" x="1122" y="-70.5" font-family="Helvetica,sans-Serif" font-size="10.00">+ value</text>
<text text-anchor="start" x="1122" y="-59.5" font-family="Helvetica,sans-Serif" font-size="10.00">+ @133</text>
<polyline fill="none" stroke="black" points="1114,-52.5 1239,-52.5 "/>
<text text-anchor="middle" x="1176.5" y="-40.5" font-family="Helvetica,sans-Serif" font-size="10.00"> </text>
</a>
</g>
</g>
<!-- Node2&#45;&gt;Node10 -->
<g id="edge18" class="edge">
<title>Node2&#45;&gt;Node10</title>
<path fill="none" stroke="midnightblue" d="M602.63,-290.76C607.54,-286.85 612.87,-283.41 618.5,-281 705.77,-243.54 953.47,-286.45 1045.5,-263 1073.81,-255.79 1082.85,-253.62 1104.5,-234 1115.13,-224.37 1124.75,-212.82 1133.26,-200.78"/>
<polygon fill="none" stroke="midnightblue" points="599.97,-288.43 594.8,-297.68 604.61,-293.68 599.97,-288.43"/>
</g>
<!-- Node3&#45;&gt;Node2 -->
<g id="edge2" class="edge">
<title>Node3&#45;&gt;Node2</title>
<path fill="none" stroke="#404040" d="M84.69,-162.21C97.36,-186.01 115.64,-214.42 138.5,-234 196.68,-283.85 426.63,-311.49 526.17,-321.32"/>
<polygon fill="none" stroke="#404040" points="526.26,-321.33 532.62,-317.93 538.2,-322.49 531.85,-325.89 526.26,-321.33"/>
<text text-anchor="middle" x="239.5" y="-255" font-family="Helvetica,sans-Serif" font-size="10.00"> +ADCTriggerControl</text>
</g>
<!-- Node4&#45;&gt;Node2 -->
<g id="edge4" class="edge">
<title>Node4&#45;&gt;Node2</title>
<path fill="none" stroke="#404040" d="M235.73,-162.2C248.89,-185.43 267.15,-213.3 288.5,-234 354.07,-297.6 464.07,-317 526.17,-322.91"/>
<polygon fill="none" stroke="#404040" points="526.34,-322.92 532.66,-319.45 538.3,-323.95 531.98,-327.42 526.34,-322.92"/>
<text text-anchor="middle" x="351" y="-255" font-family="Helvetica,sans-Serif" font-size="10.00"> +GainControl</text>
</g>
<!-- Node5&#45;&gt;Node2 -->
<g id="edge6" class="edge">
<title>Node5&#45;&gt;Node2</title>
<path fill="none" stroke="#404040" d="M353.82,-162.03C362.2,-185.63 375.31,-213.9 394.5,-234 431.11,-272.34 487.31,-297.48 526.74,-311.54"/>
<polygon fill="none" stroke="#404040" points="526.8,-311.56 533.78,-309.73 538.15,-315.46 531.18,-317.29 526.8,-311.56"/>
<text text-anchor="middle" x="446.5" y="-255" font-family="Helvetica,sans-Serif" font-size="10.00"> +Limits</text>
</g>
<!-- Node6&#45;&gt;Node2 -->
<g id="edge8" class="edge">
<title>Node6&#45;&gt;Node2</title>
<path fill="none" stroke="#404040" d="M509.38,-184.04C519.4,-208.93 531.16,-237.41 542.5,-263 545.98,-270.85 549.85,-279.19 553.62,-287.12"/>
<polygon fill="none" stroke="#404040" points="553.64,-287.16 559.85,-290.84 558.84,-297.98 552.64,-294.3 553.64,-287.16"/>
<text text-anchor="middle" x="568.5" y="-255" font-family="Helvetica,sans-Serif" font-size="10.00"> +Advanced</text>
</g>
<!-- Node7&#45;&gt;Node2 -->
<g id="edge11" class="edge">
<title>Node7&#45;&gt;Node2</title>
<path fill="none" stroke="#404040" d="M639.78,-217.22C636.09,-232.96 631.14,-248.74 624.5,-263 620.35,-271.92 614.61,-280.61 608.45,-288.54"/>
<polygon fill="none" stroke="#404040" points="608.44,-288.54 607.71,-295.72 600.8,-297.8 601.54,-290.62 608.44,-288.54"/>
<text text-anchor="middle" x="645" y="-255" font-family="Helvetica,sans-Serif" font-size="10.00"> +Filter</text>
</g>
<!-- Node8&#45;&gt;Node2 -->
<g id="edge13" class="edge">
<title>Node8&#45;&gt;Node2</title>
<path fill="none" stroke="#404040" d="M816.1,-162.03C807.34,-195.24 790.13,-239.04 757.5,-263 707.29,-299.87 674.62,-253.97 618.5,-281 613.64,-283.34 608.97,-286.4 604.59,-289.81"/>
<polygon fill="none" stroke="#404040" points="604.56,-289.83 602.66,-296.79 595.5,-297.71 597.4,-290.76 604.56,-289.83"/>
<text text-anchor="middle" x="801.5" y="-255" font-family="Helvetica,sans-Serif" font-size="10.00"> +DataProviders</text>
</g>
<!-- Node9&#45;&gt;Node2 -->
<g id="edge15" class="edge">
<title>Node9&#45;&gt;Node2</title>
<path fill="none" stroke="#404040" d="M975.82,-233.74C968.09,-245.1 958.75,-255.27 947.5,-263 887.15,-304.47 685.6,-251.7 618.5,-281 613.44,-283.21 608.61,-286.24 604.11,-289.69"/>
<polygon fill="none" stroke="#404040" points="603.89,-289.88 601.98,-296.84 594.83,-297.75 596.73,-290.8 603.89,-289.88"/>
<text text-anchor="middle" x="1001" y="-255" font-family="Helvetica,sans-Serif" font-size="10.00"> +ExtensionHooks</text>
</g>
<!-- Node10&#45;&gt;Node2 -->
<g id="edge17" class="edge">
<title>Node10&#45;&gt;Node2</title>
<path fill="none" stroke="#404040" d="M1167.71,-200.71C1160.97,-224.49 1149.36,-248.02 1129.5,-263 1084.14,-297.21 670.78,-258.77 618.5,-281 613.42,-283.16 608.57,-286.16 604.07,-289.59"/>
<polygon fill="none" stroke="#404040" points="603.85,-289.78 601.93,-296.73 594.78,-297.64 596.7,-290.69 603.85,-289.78"/>
<text text-anchor="middle" x="1159" y="-255" font-family="Helvetica,sans-Serif" font-size="10.00"> +status</text>
</g>
<!-- Node11&#45;&gt;Node1 -->
<g id="edge19" class="edge">
<title>Node11&#45;&gt;Node1</title>
<path fill="none" stroke="#404040" d="M664.71,-371.52C661.82,-391.01 657.32,-414 650.5,-434 649.68,-436.4 648.75,-438.82 647.75,-441.24"/>
<polygon fill="none" stroke="#404040" points="647.64,-441.48 648.77,-448.6 642.63,-452.38 641.5,-445.26 647.64,-441.48"/>
<text text-anchor="middle" x="686.5" y="-426" font-family="Helvetica,sans-Serif" font-size="10.00"> +AltSource</text>
<text text-anchor="middle" x="686.5" y="-415" font-family="Helvetica,sans-Serif" font-size="10.00">+AltTarget</text>
<text text-anchor="middle" x="686.5" y="-404" font-family="Helvetica,sans-Serif" font-size="10.00">+Source</text>
<text text-anchor="middle" x="686.5" y="-393" font-family="Helvetica,sans-Serif" font-size="10.00">+Target</text>
</g>
</g>
</svg>
