<?xml version="1.0" encoding="UTF-8" standalone="no"?>
<!DOCTYPE svg PUBLIC "-//W3C//DTD SVG 1.1//EN"
 "http://www.w3.org/Graphics/SVG/1.1/DTD/svg11.dtd">
<!-- Generated by graphviz version 2.44.1 (20200629.0846)
 -->
<!-- Title: BUCK_CONVERTER_s Pages: 1 -->
<svg width="1731pt" height="700pt"
 viewBox="0.00 0.00 1731.00 700.00" xmlns="http://www.w3.org/2000/svg" xmlns:xlink="http://www.w3.org/1999/xlink">
<g id="graph0" class="graph" transform="scale(1 1) rotate(0) translate(4 696)">
<title>BUCK_CONVERTER_s</title>
<!-- Node1 -->
<g id="node1" class="node">
<title>Node1</title>
<g id="a_node1"><a xlink:title="BUCK control &amp; monitoring data structure.">
<polygon fill="#bfbfbf" stroke="black" points="833.5,-535.5 833.5,-691.5 952.5,-691.5 952.5,-535.5 833.5,-535.5"/>
<text text-anchor="middle" x="893" y="-679.5" font-family="Helvetica,sans-Serif" font-size="10.00">BUCK_CONVERTER_s</text>
<polyline fill="none" stroke="black" points="833.5,-672.5 952.5,-672.5 "/>
<text text-anchor="start" x="841.5" y="-660.5" font-family="Helvetica,sans-Serif" font-size="10.00">+ status</text>
<text text-anchor="start" x="841.5" y="-649.5" font-family="Helvetica,sans-Serif" font-size="10.00">+ state_id</text>
<text text-anchor="start" x="841.5" y="-638.5" font-family="Helvetica,sans-Serif" font-size="10.00">+ startup</text>
<text text-anchor="start" x="841.5" y="-627.5" font-family="Helvetica,sans-Serif" font-size="10.00">+ set_values</text>
<text text-anchor="start" x="841.5" y="-616.5" font-family="Helvetica,sans-Serif" font-size="10.00">+ data</text>
<text text-anchor="start" x="841.5" y="-605.5" font-family="Helvetica,sans-Serif" font-size="10.00">+ feedback</text>
<text text-anchor="start" x="841.5" y="-594.5" font-family="Helvetica,sans-Serif" font-size="10.00">+ sw_node</text>
<text text-anchor="start" x="841.5" y="-583.5" font-family="Helvetica,sans-Serif" font-size="10.00">+ gpio</text>
<text text-anchor="start" x="841.5" y="-572.5" font-family="Helvetica,sans-Serif" font-size="10.00">+ v_loop</text>
<text text-anchor="start" x="841.5" y="-561.5" font-family="Helvetica,sans-Serif" font-size="10.00">+ i_loop</text>
<polyline fill="none" stroke="black" points="833.5,-554.5 952.5,-554.5 "/>
<text text-anchor="middle" x="893" y="-542.5" font-family="Helvetica,sans-Serif" font-size="10.00"> </text>
</a>
</g>
</g>
<!-- Node2 -->
<g id="node2" class="node">
<title>Node2</title>
<g id="a_node2"><a xlink:href="a01196.html" target="_top" xlink:title="Publicly accessible data buffer of most recent runtime data values.">
<polygon fill="none" stroke="black" points="0,-348 0,-482 150,-482 150,-348 0,-348"/>
<text text-anchor="middle" x="75" y="-470" font-family="Helvetica,sans-Serif" font-size="10.00">BUCK_CONVERTER_DATA_s</text>
<polyline fill="none" stroke="black" points="0,-463 150,-463 "/>
<text text-anchor="start" x="8" y="-451" font-family="Helvetica,sans-Serif" font-size="10.00">+ i_sns</text>
<text text-anchor="start" x="8" y="-440" font-family="Helvetica,sans-Serif" font-size="10.00">+ i_out</text>
<text text-anchor="start" x="8" y="-429" font-family="Helvetica,sans-Serif" font-size="10.00">+ v_in</text>
<text text-anchor="start" x="8" y="-418" font-family="Helvetica,sans-Serif" font-size="10.00">+ v_out</text>
<text text-anchor="start" x="8" y="-407" font-family="Helvetica,sans-Serif" font-size="10.00">+ temp</text>
<text text-anchor="start" x="8" y="-396" font-family="Helvetica,sans-Serif" font-size="10.00">+ control_input</text>
<text text-anchor="start" x="8" y="-385" font-family="Helvetica,sans-Serif" font-size="10.00">+ control_error</text>
<text text-anchor="start" x="8" y="-374" font-family="Helvetica,sans-Serif" font-size="10.00">+ control_output</text>
<polyline fill="none" stroke="black" points="0,-367 150,-367 "/>
<text text-anchor="middle" x="75" y="-355" font-family="Helvetica,sans-Serif" font-size="10.00"> </text>
</a>
</g>
</g>
<!-- Node1&#45;&gt;Node2 -->
<g id="edge1" class="edge">
<title>Node1&#45;&gt;Node2</title>
<path fill="none" stroke="midnightblue" d="M823.03,-607.19C662.96,-594.17 275.01,-557.41 159,-499 150.03,-494.48 141.41,-488.65 133.35,-482.18"/>
<polygon fill="none" stroke="midnightblue" points="822.99,-610.7 833.24,-608.01 823.55,-603.72 822.99,-610.7"/>
</g>
<!-- Node3 -->
<g id="node3" class="node">
<title>Node3</title>
<g id="a_node3"><a xlink:href="a01200.html" target="_top" xlink:title="Generic power controller control settings.">
<polygon fill="none" stroke="black" points="168,-370 168,-460 340,-460 340,-370 168,-370"/>
<text text-anchor="middle" x="254" y="-448" font-family="Helvetica,sans-Serif" font-size="10.00">BUCK_CONVERTER_SETTINGS_s</text>
<polyline fill="none" stroke="black" points="168,-441 340,-441 "/>
<text text-anchor="start" x="176" y="-429" font-family="Helvetica,sans-Serif" font-size="10.00">+ control_mode</text>
<text text-anchor="start" x="176" y="-418" font-family="Helvetica,sans-Serif" font-size="10.00">+ no_of_phases</text>
<text text-anchor="start" x="176" y="-407" font-family="Helvetica,sans-Serif" font-size="10.00">+ v_ref</text>
<text text-anchor="start" x="176" y="-396" font-family="Helvetica,sans-Serif" font-size="10.00">+ i_ref</text>
<polyline fill="none" stroke="black" points="168,-389 340,-389 "/>
<text text-anchor="middle" x="254" y="-377" font-family="Helvetica,sans-Serif" font-size="10.00"> </text>
</a>
</g>
</g>
<!-- Node1&#45;&gt;Node3 -->
<g id="edge2" class="edge">
<title>Node1&#45;&gt;Node3</title>
<path fill="none" stroke="midnightblue" d="M823.39,-609.22C716.23,-601.77 506.72,-577.51 349,-499 329.39,-489.24 310.61,-474.44 295,-460.03"/>
<polygon fill="none" stroke="midnightblue" points="823.23,-612.72 833.44,-609.89 823.69,-605.73 823.23,-612.72"/>
</g>
<!-- Node4 -->
<g id="node4" class="node">
<title>Node4</title>
<g id="a_node4"><a xlink:href="a01192.html" target="_top" xlink:title="Power Converter Startup Timing Settings.">
<polygon fill="none" stroke="black" points="358.5,-370 358.5,-460 527.5,-460 527.5,-370 358.5,-370"/>
<text text-anchor="middle" x="443" y="-448" font-family="Helvetica,sans-Serif" font-size="10.00">BUCK_CONVERTER_STARTUP_s</text>
<polyline fill="none" stroke="black" points="358.5,-441 527.5,-441 "/>
<text text-anchor="start" x="366.5" y="-429" font-family="Helvetica,sans-Serif" font-size="10.00">+ power_on_delay</text>
<text text-anchor="start" x="366.5" y="-418" font-family="Helvetica,sans-Serif" font-size="10.00">+ power_good_delay</text>
<text text-anchor="start" x="366.5" y="-407" font-family="Helvetica,sans-Serif" font-size="10.00">+ i_ramp</text>
<text text-anchor="start" x="366.5" y="-396" font-family="Helvetica,sans-Serif" font-size="10.00">+ v_ramp</text>
<polyline fill="none" stroke="black" points="358.5,-389 527.5,-389 "/>
<text text-anchor="middle" x="443" y="-377" font-family="Helvetica,sans-Serif" font-size="10.00"> </text>
</a>
</g>
</g>
<!-- Node1&#45;&gt;Node4 -->
<g id="edge3" class="edge">
<title>Node1&#45;&gt;Node4</title>
<path fill="none" stroke="midnightblue" d="M823.04,-599.2C748.62,-583.04 629.15,-551.27 537,-499 518.63,-488.58 500.69,-474.14 485.48,-460.22"/>
<polygon fill="none" stroke="midnightblue" points="822.72,-602.71 833.23,-601.37 824.18,-595.86 822.72,-602.71"/>
</g>
<!-- Node6 -->
<g id="node6" class="node">
<title>Node6</title>
<g id="a_node6"><a xlink:href="a01164.html" target="_top" xlink:title="Generic power controller status word.">
<polygon fill="none" stroke="black" points="546,-331.5 546,-498.5 708,-498.5 708,-331.5 546,-331.5"/>
<text text-anchor="middle" x="627" y="-486.5" font-family="Helvetica,sans-Serif" font-size="10.00">BUCK_CONVERTER_STATUS_s</text>
<polyline fill="none" stroke="black" points="546,-479.5 708,-479.5 "/>
<text text-anchor="start" x="554" y="-467.5" font-family="Helvetica,sans-Serif" font-size="10.00">+ ready</text>
<text text-anchor="start" x="554" y="-456.5" font-family="Helvetica,sans-Serif" font-size="10.00">+ adc_active</text>
<text text-anchor="start" x="554" y="-445.5" font-family="Helvetica,sans-Serif" font-size="10.00">+ pwm_active</text>
<text text-anchor="start" x="554" y="-434.5" font-family="Helvetica,sans-Serif" font-size="10.00">+ fault_active</text>
<text text-anchor="start" x="554" y="-423.5" font-family="Helvetica,sans-Serif" font-size="10.00">+ fault_latch</text>
<text text-anchor="start" x="554" y="-412.5" font-family="Helvetica,sans-Serif" font-size="10.00">+ cs_calib_complete</text>
<text text-anchor="start" x="554" y="-401.5" font-family="Helvetica,sans-Serif" font-size="10.00">+ suspend</text>
<text text-anchor="start" x="554" y="-390.5" font-family="Helvetica,sans-Serif" font-size="10.00">+ busy</text>
<text text-anchor="start" x="554" y="-379.5" font-family="Helvetica,sans-Serif" font-size="10.00">+ cs_calib_enable</text>
<text text-anchor="start" x="554" y="-368.5" font-family="Helvetica,sans-Serif" font-size="10.00">+ async_mode</text>
<text text-anchor="start" x="554" y="-357.5" font-family="Helvetica,sans-Serif" font-size="10.00">and 7 more...</text>
<polyline fill="none" stroke="black" points="546,-350.5 708,-350.5 "/>
<text text-anchor="middle" x="627" y="-338.5" font-family="Helvetica,sans-Serif" font-size="10.00"> </text>
</a>
</g>
</g>
<!-- Node1&#45;&gt;Node6 -->
<g id="edge5" class="edge">
<title>Node1&#45;&gt;Node6</title>
<path fill="none" stroke="midnightblue" d="M824.63,-572.23C791.25,-551.62 751.04,-525.36 717,-499 714.06,-496.72 711.1,-494.37 708.14,-491.96"/>
<polygon fill="none" stroke="midnightblue" points="823.06,-575.37 833.41,-577.62 826.72,-569.4 823.06,-575.37"/>
</g>
<!-- Node7 -->
<g id="node7" class="node">
<title>Node7</title>
<g id="a_node7"><a xlink:href="a01224.html" target="_top" xlink:title="Buck converter feedback declarations.">
<polygon fill="none" stroke="black" points="726.5,-370 726.5,-460 891.5,-460 891.5,-370 726.5,-370"/>
<text text-anchor="middle" x="809" y="-448" font-family="Helvetica,sans-Serif" font-size="10.00">BUCK_FEEDBACK_SETTINGS_s</text>
<polyline fill="none" stroke="black" points="726.5,-441 891.5,-441 "/>
<text text-anchor="start" x="734.5" y="-429" font-family="Helvetica,sans-Serif" font-size="10.00">+ ad_vin</text>
<text text-anchor="start" x="734.5" y="-418" font-family="Helvetica,sans-Serif" font-size="10.00">+ ad_vout</text>
<text text-anchor="start" x="734.5" y="-407" font-family="Helvetica,sans-Serif" font-size="10.00">+ ad_isns</text>
<text text-anchor="start" x="734.5" y="-396" font-family="Helvetica,sans-Serif" font-size="10.00">+ ad_temp</text>
<polyline fill="none" stroke="black" points="726.5,-389 891.5,-389 "/>
<text text-anchor="middle" x="809" y="-377" font-family="Helvetica,sans-Serif" font-size="10.00"> </text>
</a>
</g>
</g>
<!-- Node1&#45;&gt;Node7 -->
<g id="edge6" class="edge">
<title>Node1&#45;&gt;Node7</title>
<path fill="none" stroke="midnightblue" d="M856.04,-526.03C846.28,-503.21 836.15,-479.52 827.81,-460"/>
<polygon fill="none" stroke="midnightblue" points="852.89,-527.58 860.04,-535.4 859.33,-524.83 852.89,-527.58"/>
</g>
<!-- Node10 -->
<g id="node10" class="node">
<title>Node10</title>
<g id="a_node10"><a xlink:href="a01232.html" target="_top" xlink:title="GPIO instance of the converter control GPIO.">
<polygon fill="none" stroke="black" points="910,-381 910,-449 1046,-449 1046,-381 910,-381"/>
<text text-anchor="middle" x="978" y="-437" font-family="Helvetica,sans-Serif" font-size="10.00">BUCK_GPIO_SETTINGS_s</text>
<polyline fill="none" stroke="black" points="910,-430 1046,-430 "/>
<text text-anchor="start" x="918" y="-418" font-family="Helvetica,sans-Serif" font-size="10.00">+ EnableInput</text>
<text text-anchor="start" x="918" y="-407" font-family="Helvetica,sans-Serif" font-size="10.00">+ PowerGood</text>
<polyline fill="none" stroke="black" points="910,-400 1046,-400 "/>
<text text-anchor="middle" x="978" y="-388" font-family="Helvetica,sans-Serif" font-size="10.00"> </text>
</a>
</g>
</g>
<!-- Node1&#45;&gt;Node10 -->
<g id="edge9" class="edge">
<title>Node1&#45;&gt;Node10</title>
<path fill="none" stroke="midnightblue" d="M930.34,-526.19C942.16,-498.84 954.53,-470.25 963.71,-449.04"/>
<polygon fill="none" stroke="midnightblue" points="927.11,-524.83 926.35,-535.4 933.53,-527.61 927.11,-524.83"/>
</g>
<!-- Node12 -->
<g id="node12" class="node">
<title>Node12</title>
<g id="a_node12"><a xlink:href="a01204.html" target="_top" xlink:title="User defined settings for control loops;.">
<polygon fill="none" stroke="black" points="1064.5,-337 1064.5,-493 1203.5,-493 1203.5,-337 1064.5,-337"/>
<text text-anchor="middle" x="1134" y="-481" font-family="Helvetica,sans-Serif" font-size="10.00">BUCK_LOOP_SETTINGS_s</text>
<polyline fill="none" stroke="black" points="1064.5,-474 1203.5,-474 "/>
<text text-anchor="start" x="1072.5" y="-462" font-family="Helvetica,sans-Serif" font-size="10.00">+ reference</text>
<text text-anchor="start" x="1072.5" y="-451" font-family="Helvetica,sans-Serif" font-size="10.00">+ feedback_offset</text>
<text text-anchor="start" x="1072.5" y="-440" font-family="Helvetica,sans-Serif" font-size="10.00">+ trigger_offset</text>
<text text-anchor="start" x="1072.5" y="-429" font-family="Helvetica,sans-Serif" font-size="10.00">+ minimum</text>
<text text-anchor="start" x="1072.5" y="-418" font-family="Helvetica,sans-Serif" font-size="10.00">+ maximum</text>
<text text-anchor="start" x="1072.5" y="-407" font-family="Helvetica,sans-Serif" font-size="10.00">+ controller</text>
<text text-anchor="start" x="1072.5" y="-396" font-family="Helvetica,sans-Serif" font-size="10.00">+ ctrl_Initialize</text>
<text text-anchor="start" x="1072.5" y="-385" font-family="Helvetica,sans-Serif" font-size="10.00">+ ctrl_Reset</text>
<text text-anchor="start" x="1072.5" y="-374" font-family="Helvetica,sans-Serif" font-size="10.00">+ ctrl_Update</text>
<text text-anchor="start" x="1072.5" y="-363" font-family="Helvetica,sans-Serif" font-size="10.00">+ ctrl_Precharge</text>
<polyline fill="none" stroke="black" points="1064.5,-356 1203.5,-356 "/>
<text text-anchor="middle" x="1134" y="-344" font-family="Helvetica,sans-Serif" font-size="10.00"> </text>
</a>
</g>
</g>
<!-- Node1&#45;&gt;Node12 -->
<g id="edge11" class="edge">
<title>Node1&#45;&gt;Node12</title>
<path fill="none" stroke="midnightblue" d="M961.48,-568.95C991.23,-548.93 1025.86,-524.08 1055,-499 1058.02,-496.4 1061.04,-493.71 1064.06,-490.94"/>
<polygon fill="none" stroke="midnightblue" points="959.19,-566.27 952.82,-574.74 963.08,-572.09 959.19,-566.27"/>
</g>
<!-- Node13 -->
<g id="node13" class="node">
<title>Node13</title>
<g id="a_node13"><a xlink:href="a01208.html" target="_top" xlink:title="Peak Current Mode Control Slope Compensation Settings.">
<polygon fill="none" stroke="black" points="1221.5,-337 1221.5,-493 1400.5,-493 1400.5,-337 1221.5,-337"/>
<text text-anchor="middle" x="1311" y="-481" font-family="Helvetica,sans-Serif" font-size="10.00">BUCK_SLOPE_COMP_SETTINGS_s</text>
<polyline fill="none" stroke="black" points="1221.5,-474 1400.5,-474 "/>
<text text-anchor="start" x="1229.5" y="-462" font-family="Helvetica,sans-Serif" font-size="10.00">+ dac_instance</text>
<text text-anchor="start" x="1229.5" y="-451" font-family="Helvetica,sans-Serif" font-size="10.00">+ cmp_instance</text>
<text text-anchor="start" x="1229.5" y="-440" font-family="Helvetica,sans-Serif" font-size="10.00">+ cmp_input</text>
<text text-anchor="start" x="1229.5" y="-429" font-family="Helvetica,sans-Serif" font-size="10.00">+ pwm_trigger_input</text>
<text text-anchor="start" x="1229.5" y="-418" font-family="Helvetica,sans-Serif" font-size="10.00">+ slew_rate</text>
<text text-anchor="start" x="1229.5" y="-407" font-family="Helvetica,sans-Serif" font-size="10.00">+ slope_start_trigger</text>
<text text-anchor="start" x="1229.5" y="-396" font-family="Helvetica,sans-Serif" font-size="10.00">+ slope_stop_trigger</text>
<text text-anchor="start" x="1229.5" y="-385" font-family="Helvetica,sans-Serif" font-size="10.00">+ initial_dac_value</text>
<text text-anchor="start" x="1229.5" y="-374" font-family="Helvetica,sans-Serif" font-size="10.00">+ ptr_duty_cycle</text>
<text text-anchor="start" x="1229.5" y="-363" font-family="Helvetica,sans-Serif" font-size="10.00">+ duty_cycle_limit</text>
<polyline fill="none" stroke="black" points="1221.5,-356 1400.5,-356 "/>
<text text-anchor="middle" x="1311" y="-344" font-family="Helvetica,sans-Serif" font-size="10.00"> </text>
</a>
</g>
</g>
<!-- Node1&#45;&gt;Node13 -->
<g id="edge12" class="edge">
<title>Node1&#45;&gt;Node13</title>
<path fill="none" stroke="midnightblue" d="M962.72,-595.63C1029.73,-577.63 1132.43,-545.32 1213,-499 1216.29,-497.11 1219.57,-495.11 1222.83,-493.01"/>
<polygon fill="none" stroke="midnightblue" points="961.46,-592.34 952.69,-598.28 963.25,-599.11 961.46,-592.34"/>
</g>
<!-- Node14 -->
<g id="node14" class="node">
<title>Node14</title>
<g id="a_node14"><a xlink:href="a01176.html" target="_top" xlink:title="data structure for the buck statement ID for sub&#45;operating and operating states">
<polygon fill="none" stroke="black" points="1419,-364.5 1419,-465.5 1523,-465.5 1523,-364.5 1419,-364.5"/>
<text text-anchor="middle" x="1471" y="-453.5" font-family="Helvetica,sans-Serif" font-size="10.00">BUCK_STATE_ID_s</text>
<polyline fill="none" stroke="black" points="1419,-446.5 1523,-446.5 "/>
<text text-anchor="start" x="1427" y="-434.5" font-family="Helvetica,sans-Serif" font-size="10.00">+ opstate_id</text>
<text text-anchor="start" x="1427" y="-423.5" font-family="Helvetica,sans-Serif" font-size="10.00">+ substate_id</text>
<text text-anchor="start" x="1427" y="-412.5" font-family="Helvetica,sans-Serif" font-size="10.00">+ bits</text>
<text text-anchor="start" x="1427" y="-401.5" font-family="Helvetica,sans-Serif" font-size="10.00">+ value</text>
<text text-anchor="start" x="1427" y="-390.5" font-family="Helvetica,sans-Serif" font-size="10.00">+ @130</text>
<polyline fill="none" stroke="black" points="1419,-383.5 1523,-383.5 "/>
<text text-anchor="middle" x="1471" y="-371.5" font-family="Helvetica,sans-Serif" font-size="10.00"> </text>
</a>
</g>
</g>
<!-- Node1&#45;&gt;Node14 -->
<g id="edge13" class="edge">
<title>Node1&#45;&gt;Node14</title>
<path fill="none" stroke="midnightblue" d="M963,-612.37C1068.3,-609.01 1270.02,-590.02 1410,-499 1423.04,-490.52 1434.27,-478.22 1443.4,-465.67"/>
<polygon fill="none" stroke="midnightblue" points="962.7,-608.88 952.8,-612.65 962.9,-615.87 962.7,-608.88"/>
</g>
<!-- Node15 -->
<g id="node15" class="node">
<title>Node15</title>
<g id="a_node15"><a xlink:href="a01212.html" target="_top" xlink:title="Switching signal timing settings.">
<polygon fill="none" stroke="black" points="1541,-331.5 1541,-498.5 1723,-498.5 1723,-331.5 1541,-331.5"/>
<text text-anchor="middle" x="1632" y="-486.5" font-family="Helvetica,sans-Serif" font-size="10.00">BUCK_SWITCH_NODE_SETTINGS_s</text>
<polyline fill="none" stroke="black" points="1541,-479.5 1723,-479.5 "/>
<text text-anchor="start" x="1549" y="-467.5" font-family="Helvetica,sans-Serif" font-size="10.00">+ pwm_instance</text>
<text text-anchor="start" x="1549" y="-456.5" font-family="Helvetica,sans-Serif" font-size="10.00">+ gpio_instance</text>
<text text-anchor="start" x="1549" y="-445.5" font-family="Helvetica,sans-Serif" font-size="10.00">+ gpio_high</text>
<text text-anchor="start" x="1549" y="-434.5" font-family="Helvetica,sans-Serif" font-size="10.00">+ gpio_low</text>
<text text-anchor="start" x="1549" y="-423.5" font-family="Helvetica,sans-Serif" font-size="10.00">+ swap_outputs</text>
<text text-anchor="start" x="1549" y="-412.5" font-family="Helvetica,sans-Serif" font-size="10.00">+ master_period_enable</text>
<text text-anchor="start" x="1549" y="-401.5" font-family="Helvetica,sans-Serif" font-size="10.00">+ high_resolution_enable</text>
<text text-anchor="start" x="1549" y="-390.5" font-family="Helvetica,sans-Serif" font-size="10.00">+ sync_drive</text>
<text text-anchor="start" x="1549" y="-379.5" font-family="Helvetica,sans-Serif" font-size="10.00">+ period</text>
<text text-anchor="start" x="1549" y="-368.5" font-family="Helvetica,sans-Serif" font-size="10.00">+ phase</text>
<text text-anchor="start" x="1549" y="-357.5" font-family="Helvetica,sans-Serif" font-size="10.00">and 9 more...</text>
<polyline fill="none" stroke="black" points="1541,-350.5 1723,-350.5 "/>
<text text-anchor="middle" x="1632" y="-338.5" font-family="Helvetica,sans-Serif" font-size="10.00"> </text>
</a>
</g>
</g>
<!-- Node1&#45;&gt;Node15 -->
<g id="edge14" class="edge">
<title>Node1&#45;&gt;Node15</title>
<path fill="none" stroke="midnightblue" d="M963.12,-611.61C1084.58,-607.61 1339.57,-588.25 1532,-499 1534.97,-497.62 1537.92,-496.14 1540.85,-494.56"/>
<polygon fill="none" stroke="midnightblue" points="962.73,-608.12 952.84,-611.92 962.95,-615.12 962.73,-608.12"/>
</g>
<!-- Node5 -->
<g id="node5" class="node">
<title>Node5</title>
<g id="a_node5"><a xlink:href="a01188.html" target="_top" xlink:title="Generic power controller startup period settings.">
<polygon fill="none" stroke="black" points="375.5,-155 375.5,-256 510.5,-256 510.5,-155 375.5,-155"/>
<text text-anchor="start" x="383.5" y="-244" font-family="Helvetica,sans-Serif" font-size="10.00">BUCK_STARTUP_PERIOD</text>
<text text-anchor="middle" x="443" y="-233" font-family="Helvetica,sans-Serif" font-size="10.00">_HANDLER_s</text>
<polyline fill="none" stroke="black" points="375.5,-226 510.5,-226 "/>
<text text-anchor="start" x="383.5" y="-214" font-family="Helvetica,sans-Serif" font-size="10.00">+ counter</text>
<text text-anchor="start" x="383.5" y="-203" font-family="Helvetica,sans-Serif" font-size="10.00">+ period</text>
<text text-anchor="start" x="383.5" y="-192" font-family="Helvetica,sans-Serif" font-size="10.00">+ reference</text>
<text text-anchor="start" x="383.5" y="-181" font-family="Helvetica,sans-Serif" font-size="10.00">+ ref_inc_step</text>
<polyline fill="none" stroke="black" points="375.5,-174 510.5,-174 "/>
<text text-anchor="middle" x="443" y="-162" font-family="Helvetica,sans-Serif" font-size="10.00"> </text>
</a>
</g>
</g>
<!-- Node4&#45;&gt;Node5 -->
<g id="edge4" class="edge">
<title>Node4&#45;&gt;Node5</title>
<path fill="none" stroke="midnightblue" d="M443,-359.9C443,-327.85 443,-287.53 443,-256.27"/>
<polygon fill="none" stroke="midnightblue" points="439.5,-359.99 443,-369.99 446.5,-359.99 439.5,-359.99"/>
</g>
<!-- Node8 -->
<g id="node8" class="node">
<title>Node8</title>
<g id="a_node8"><a xlink:href="a01220.html" target="_top" xlink:title="ADC input channel configuration.">
<polygon fill="none" stroke="black" points="726.5,-116.5 726.5,-294.5 891.5,-294.5 891.5,-116.5 726.5,-116.5"/>
<text text-anchor="middle" x="809" y="-282.5" font-family="Helvetica,sans-Serif" font-size="10.00">BUCK_ADC_INPUT_SETTINGS_s</text>
<polyline fill="none" stroke="black" points="726.5,-275.5 891.5,-275.5 "/>
<text text-anchor="start" x="734.5" y="-263.5" font-family="Helvetica,sans-Serif" font-size="10.00">+ enabled</text>
<text text-anchor="start" x="734.5" y="-252.5" font-family="Helvetica,sans-Serif" font-size="10.00">+ adc_buffer</text>
<text text-anchor="start" x="734.5" y="-241.5" font-family="Helvetica,sans-Serif" font-size="10.00">+ gpio_instance</text>
<text text-anchor="start" x="734.5" y="-230.5" font-family="Helvetica,sans-Serif" font-size="10.00">+ adc_input</text>
<text text-anchor="start" x="734.5" y="-219.5" font-family="Helvetica,sans-Serif" font-size="10.00">+ adc_core</text>
<text text-anchor="start" x="734.5" y="-208.5" font-family="Helvetica,sans-Serif" font-size="10.00">+ trigger_source</text>
<text text-anchor="start" x="734.5" y="-197.5" font-family="Helvetica,sans-Serif" font-size="10.00">+ interrupt_enable</text>
<text text-anchor="start" x="734.5" y="-186.5" font-family="Helvetica,sans-Serif" font-size="10.00">+ early_interrupt_enable</text>
<text text-anchor="start" x="734.5" y="-175.5" font-family="Helvetica,sans-Serif" font-size="10.00">+ differential_input</text>
<text text-anchor="start" x="734.5" y="-164.5" font-family="Helvetica,sans-Serif" font-size="10.00">+ signed_result</text>
<text text-anchor="start" x="734.5" y="-153.5" font-family="Helvetica,sans-Serif" font-size="10.00">+ level_trigger</text>
<text text-anchor="start" x="734.5" y="-142.5" font-family="Helvetica,sans-Serif" font-size="10.00">+ scaling</text>
<polyline fill="none" stroke="black" points="726.5,-135.5 891.5,-135.5 "/>
<text text-anchor="middle" x="809" y="-123.5" font-family="Helvetica,sans-Serif" font-size="10.00"> </text>
</a>
</g>
</g>
<!-- Node7&#45;&gt;Node8 -->
<g id="edge7" class="edge">
<title>Node7&#45;&gt;Node8</title>
<path fill="none" stroke="midnightblue" d="M809,-359.91C809,-340.04 809,-316.98 809,-294.87"/>
<polygon fill="none" stroke="midnightblue" points="805.5,-359.99 809,-369.99 812.5,-359.99 805.5,-359.99"/>
</g>
<!-- Node9 -->
<g id="node9" class="node">
<title>Node9</title>
<g id="a_node9"><a xlink:href="a01216.html" target="_top" xlink:title="ADC input signal scaling = (ADCBUF &#45; &lt;offset&gt;) * &lt;factor&gt; &gt;&gt; 2^&lt;scaler&gt;">
<polygon fill="none" stroke="black" points="729,-0.5 729,-79.5 889,-79.5 889,-0.5 729,-0.5"/>
<text text-anchor="middle" x="809" y="-67.5" font-family="Helvetica,sans-Serif" font-size="10.00">BUCK_ADC_INPUT_SCALING_s</text>
<polyline fill="none" stroke="black" points="729,-60.5 889,-60.5 "/>
<text text-anchor="start" x="737" y="-48.5" font-family="Helvetica,sans-Serif" font-size="10.00">+ factor</text>
<text text-anchor="start" x="737" y="-37.5" font-family="Helvetica,sans-Serif" font-size="10.00">+ scaler</text>
<text text-anchor="start" x="737" y="-26.5" font-family="Helvetica,sans-Serif" font-size="10.00">+ offset</text>
<polyline fill="none" stroke="black" points="729,-19.5 889,-19.5 "/>
<text text-anchor="middle" x="809" y="-7.5" font-family="Helvetica,sans-Serif" font-size="10.00"> </text>
</a>
</g>
</g>
<!-- Node8&#45;&gt;Node9 -->
<g id="edge8" class="edge">
<title>Node8&#45;&gt;Node9</title>
<path fill="none" stroke="midnightblue" d="M809,-105.93C809,-96.69 809,-87.74 809,-79.6"/>
<polygon fill="none" stroke="midnightblue" points="805.5,-106.05 809,-116.05 812.5,-106.05 805.5,-106.05"/>
</g>
<!-- Node11 -->
<g id="node11" class="node">
<title>Node11</title>
<g id="a_node11"><a xlink:href="a01228.html" target="_top" xlink:title="GPIO instance of the converter control GPIO.">
<polygon fill="none" stroke="black" points="909.5,-155 909.5,-256 1046.5,-256 1046.5,-155 909.5,-155"/>
<text text-anchor="middle" x="978" y="-244" font-family="Helvetica,sans-Serif" font-size="10.00">BUCK_GPIO_INSTANCE_s</text>
<polyline fill="none" stroke="black" points="909.5,-237 1046.5,-237 "/>
<text text-anchor="start" x="917.5" y="-225" font-family="Helvetica,sans-Serif" font-size="10.00">+ enabled</text>
<text text-anchor="start" x="917.5" y="-214" font-family="Helvetica,sans-Serif" font-size="10.00">+ port</text>
<text text-anchor="start" x="917.5" y="-203" font-family="Helvetica,sans-Serif" font-size="10.00">+ pin</text>
<text text-anchor="start" x="917.5" y="-192" font-family="Helvetica,sans-Serif" font-size="10.00">+ polarity</text>
<text text-anchor="start" x="917.5" y="-181" font-family="Helvetica,sans-Serif" font-size="10.00">+ io_type</text>
<polyline fill="none" stroke="black" points="909.5,-174 1046.5,-174 "/>
<text text-anchor="middle" x="978" y="-162" font-family="Helvetica,sans-Serif" font-size="10.00"> </text>
</a>
</g>
</g>
<!-- Node10&#45;&gt;Node11 -->
<g id="edge10" class="edge">
<title>Node10&#45;&gt;Node11</title>
<path fill="none" stroke="midnightblue" d="M978,-370.29C978,-336.87 978,-290.79 978,-256.02"/>
<polygon fill="none" stroke="midnightblue" points="974.5,-370.66 978,-380.66 981.5,-370.66 974.5,-370.66"/>
</g>
</g>
</svg>
