<?xml version="1.0" encoding="UTF-8" standalone="no"?>
<!DOCTYPE svg PUBLIC "-//W3C//DTD SVG 1.1//EN"
 "http://www.w3.org/Graphics/SVG/1.1/DTD/svg11.dtd">
<!-- Generated by graphviz version 2.44.1 (20200629.0846)
 -->
<!-- Title: NPNZ16b_s Pages: 1 -->
<svg width="1376pt" height="518pt"
 viewBox="0.00 0.00 1376.00 518.00" xmlns="http://www.w3.org/2000/svg" xmlns:xlink="http://www.w3.org/1999/xlink">
<g id="graph0" class="graph" transform="scale(1 1) rotate(0) translate(4 514)">
<title>NPNZ16b_s</title>
<!-- Node1 -->
<g id="node1" class="node">
<title>Node1</title>
<g id="a_node1"><a xlink:title="Generic NPNZ16b Controller Object. This data structure is the main API data object providing single&#45;p...">
<polygon fill="#bfbfbf" stroke="black" points="593.5,-452.5 593.5,-509.5 661.5,-509.5 661.5,-452.5 593.5,-452.5"/>
<text text-anchor="middle" x="627.5" y="-497.5" font-family="Helvetica,sans-Serif" font-size="10.00">NPNZ16b_s</text>
<polyline fill="none" stroke="black" points="593.5,-490.5 661.5,-490.5 "/>
<text text-anchor="middle" x="627.5" y="-478.5" font-family="Helvetica,sans-Serif" font-size="10.00"> </text>
<polyline fill="none" stroke="black" points="593.5,-471.5 661.5,-471.5 "/>
<text text-anchor="middle" x="627.5" y="-459.5" font-family="Helvetica,sans-Serif" font-size="10.00"> </text>
</a>
</g>
</g>
<!-- Node2 -->
<g id="node2" class="node">
<title>Node2</title>
<g id="a_node2"><a xlink:href="a01272.html" target="_top" xlink:title="Automatic ADC trigger placement parameters for primary ADC trigger A and secondary trigger B.">
<polygon fill="none" stroke="black" points="0,-243 0,-333 129,-333 129,-243 0,-243"/>
<text text-anchor="middle" x="64.5" y="-321" font-family="Helvetica,sans-Serif" font-size="10.00">NPNZ_ADC_TRGCTRL_s</text>
<polyline fill="none" stroke="black" points="0,-314 129,-314 "/>
<text text-anchor="start" x="8" y="-302" font-family="Helvetica,sans-Serif" font-size="10.00">+ ptrADCTriggerARegister</text>
<text text-anchor="start" x="8" y="-291" font-family="Helvetica,sans-Serif" font-size="10.00">+ ADCTriggerAOffset</text>
<text text-anchor="start" x="8" y="-280" font-family="Helvetica,sans-Serif" font-size="10.00">+ ptrADCTriggerBRegister</text>
<text text-anchor="start" x="8" y="-269" font-family="Helvetica,sans-Serif" font-size="10.00">+ ADCTriggerBOffset</text>
<polyline fill="none" stroke="black" points="0,-262 129,-262 "/>
<text text-anchor="middle" x="64.5" y="-250" font-family="Helvetica,sans-Serif" font-size="10.00"> </text>
</a>
</g>
</g>
<!-- Node1&#45;&gt;Node2 -->
<g id="edge2" class="edge">
<title>Node1&#45;&gt;Node2</title>
<path fill="none" stroke="midnightblue" d="M583.08,-479.97C481.1,-479.2 233.45,-473.24 161.5,-434 122.15,-412.54 95.88,-367.43 80.71,-333.19"/>
<polygon fill="none" stroke="midnightblue" points="583.33,-483.47 593.35,-480.03 583.37,-476.47 583.33,-483.47"/>
</g>
<!-- Node3 -->
<g id="node3" class="node">
<title>Node3</title>
<g id="a_node3"><a xlink:href="a01284.html" target="_top" xlink:title="Data structure holding parameters required for adaptive or manual loop gain manipulation during runti...">
<polygon fill="none" stroke="black" points="147.5,-243 147.5,-333 279.5,-333 279.5,-243 147.5,-243"/>
<text text-anchor="middle" x="213.5" y="-321" font-family="Helvetica,sans-Serif" font-size="10.00">NPNZ_GAIN_CONTROL_s</text>
<polyline fill="none" stroke="black" points="147.5,-314 279.5,-314 "/>
<text text-anchor="start" x="155.5" y="-302" font-family="Helvetica,sans-Serif" font-size="10.00">+ AgcScaler</text>
<text text-anchor="start" x="155.5" y="-291" font-family="Helvetica,sans-Serif" font-size="10.00">+ AgcFactor</text>
<text text-anchor="start" x="155.5" y="-280" font-family="Helvetica,sans-Serif" font-size="10.00">+ AgcMedian</text>
<text text-anchor="start" x="155.5" y="-269" font-family="Helvetica,sans-Serif" font-size="10.00">+ ptrAgcObserverFunction</text>
<polyline fill="none" stroke="black" points="147.5,-262 279.5,-262 "/>
<text text-anchor="middle" x="213.5" y="-250" font-family="Helvetica,sans-Serif" font-size="10.00"> </text>
</a>
</g>
</g>
<!-- Node1&#45;&gt;Node3 -->
<g id="edge4" class="edge">
<title>Node1&#45;&gt;Node3</title>
<path fill="none" stroke="midnightblue" d="M583.24,-477.83C506.99,-473.39 354.69,-461.33 309.5,-434 271.65,-411.11 245.68,-366.94 230.39,-333.33"/>
<polygon fill="none" stroke="midnightblue" points="583.3,-481.33 593.48,-478.4 583.69,-474.35 583.3,-481.33"/>
</g>
<!-- Node4 -->
<g id="node4" class="node">
<title>Node4</title>
<g id="a_node4"><a xlink:href="a01268.html" target="_top" xlink:title="Data strucure holding control output clamping threshold values.">
<polygon fill="none" stroke="black" points="297.5,-243 297.5,-333 385.5,-333 385.5,-243 297.5,-243"/>
<text text-anchor="middle" x="341.5" y="-321" font-family="Helvetica,sans-Serif" font-size="10.00">NPNZ_LIMITS_s</text>
<polyline fill="none" stroke="black" points="297.5,-314 385.5,-314 "/>
<text text-anchor="start" x="305.5" y="-302" font-family="Helvetica,sans-Serif" font-size="10.00">+ MinOutput</text>
<text text-anchor="start" x="305.5" y="-291" font-family="Helvetica,sans-Serif" font-size="10.00">+ MaxOutput</text>
<text text-anchor="start" x="305.5" y="-280" font-family="Helvetica,sans-Serif" font-size="10.00">+ AltMinOutput</text>
<text text-anchor="start" x="305.5" y="-269" font-family="Helvetica,sans-Serif" font-size="10.00">+ AltMaxOutput</text>
<polyline fill="none" stroke="black" points="297.5,-262 385.5,-262 "/>
<text text-anchor="middle" x="341.5" y="-250" font-family="Helvetica,sans-Serif" font-size="10.00"> </text>
</a>
</g>
</g>
<!-- Node1&#45;&gt;Node4 -->
<g id="edge6" class="edge">
<title>Node1&#45;&gt;Node4</title>
<path fill="none" stroke="midnightblue" d="M583.23,-478.84C538.36,-475.8 468.46,-465.81 417.5,-434 381.94,-411.8 362.12,-367.05 351.72,-333.1"/>
<polygon fill="none" stroke="midnightblue" points="583.06,-482.33 593.24,-479.43 583.47,-475.35 583.06,-482.33"/>
</g>
<!-- Node5 -->
<g id="node5" class="node">
<title>Node5</title>
<g id="a_node5"><a xlink:href="a01288.html" target="_top" xlink:title="Generic data buffer for undetermined use. These data buffers may be used by advanced control algorith...">
<polygon fill="none" stroke="black" points="403.5,-221 403.5,-355 563.5,-355 563.5,-221 403.5,-221"/>
<text text-anchor="middle" x="483.5" y="-343" font-family="Helvetica,sans-Serif" font-size="10.00">NPNZ_USER_DATA_BUFFER_s</text>
<polyline fill="none" stroke="black" points="403.5,-336 563.5,-336 "/>
<text text-anchor="start" x="411.5" y="-324" font-family="Helvetica,sans-Serif" font-size="10.00">+ usrParam0</text>
<text text-anchor="start" x="411.5" y="-313" font-family="Helvetica,sans-Serif" font-size="10.00">+ usrParam1</text>
<text text-anchor="start" x="411.5" y="-302" font-family="Helvetica,sans-Serif" font-size="10.00">+ usrParam2</text>
<text text-anchor="start" x="411.5" y="-291" font-family="Helvetica,sans-Serif" font-size="10.00">+ usrParam3</text>
<text text-anchor="start" x="411.5" y="-280" font-family="Helvetica,sans-Serif" font-size="10.00">+ usrParam4</text>
<text text-anchor="start" x="411.5" y="-269" font-family="Helvetica,sans-Serif" font-size="10.00">+ usrParam5</text>
<text text-anchor="start" x="411.5" y="-258" font-family="Helvetica,sans-Serif" font-size="10.00">+ usrParam6</text>
<text text-anchor="start" x="411.5" y="-247" font-family="Helvetica,sans-Serif" font-size="10.00">+ usrParam7</text>
<polyline fill="none" stroke="black" points="403.5,-240 563.5,-240 "/>
<text text-anchor="middle" x="483.5" y="-228" font-family="Helvetica,sans-Serif" font-size="10.00"> </text>
</a>
</g>
</g>
<!-- Node1&#45;&gt;Node5 -->
<g id="edge8" class="edge">
<title>Node1&#45;&gt;Node5</title>
<path fill="none" stroke="midnightblue" d="M584.71,-456.37C575.34,-449.92 566,-442.38 558.5,-434 537.99,-411.09 521.4,-381.55 509.08,-355.12"/>
<polygon fill="none" stroke="midnightblue" points="582.98,-459.42 593.27,-461.97 586.81,-453.56 582.98,-459.42"/>
</g>
<!-- Node6 -->
<g id="node6" class="node">
<title>Node6</title>
<g id="a_node6"><a xlink:href="a01260.html" target="_top" xlink:title="Data structure merging all defined controller input and output ports.">
<polygon fill="none" stroke="black" points="582,-259.5 582,-316.5 693,-316.5 693,-259.5 582,-259.5"/>
<text text-anchor="middle" x="637.5" y="-304.5" font-family="Helvetica,sans-Serif" font-size="10.00">NPNZ_PORTS_s</text>
<polyline fill="none" stroke="black" points="582,-297.5 693,-297.5 "/>
<text text-anchor="start" x="590" y="-285.5" font-family="Helvetica,sans-Serif" font-size="10.00">+ ptrControlReference</text>
<polyline fill="none" stroke="black" points="582,-278.5 693,-278.5 "/>
<text text-anchor="middle" x="637.5" y="-266.5" font-family="Helvetica,sans-Serif" font-size="10.00"> </text>
</a>
</g>
</g>
<!-- Node1&#45;&gt;Node6 -->
<g id="edge10" class="edge">
<title>Node1&#45;&gt;Node6</title>
<path fill="none" stroke="midnightblue" d="M626.61,-442.23C626.57,-439.44 626.53,-436.68 626.5,-434 626.06,-393.1 630.58,-345.9 633.96,-316.75"/>
<polygon fill="none" stroke="midnightblue" points="623.11,-442.34 626.8,-452.27 630.11,-442.21 623.11,-442.34"/>
</g>
<!-- Node8 -->
<g id="node8" class="node">
<title>Node8</title>
<g id="a_node8"><a xlink:href="a01264.html" target="_top" xlink:title="Data structure for filter parameters such as pointer to history and coefficient arrays and number sca...">
<polygon fill="none" stroke="black" points="711,-188 711,-388 848,-388 848,-188 711,-188"/>
<text text-anchor="middle" x="779.5" y="-376" font-family="Helvetica,sans-Serif" font-size="10.00">NPNZ_FILTER_PARAMS_s</text>
<polyline fill="none" stroke="black" points="711,-369 848,-369 "/>
<text text-anchor="start" x="719" y="-357" font-family="Helvetica,sans-Serif" font-size="10.00">+ ptrACoefficients</text>
<text text-anchor="start" x="719" y="-346" font-family="Helvetica,sans-Serif" font-size="10.00">+ ptrBCoefficients</text>
<text text-anchor="start" x="719" y="-335" font-family="Helvetica,sans-Serif" font-size="10.00">+ ptrControlHistory</text>
<text text-anchor="start" x="719" y="-324" font-family="Helvetica,sans-Serif" font-size="10.00">+ ptrErrorHistory</text>
<text text-anchor="start" x="719" y="-313" font-family="Helvetica,sans-Serif" font-size="10.00">+ ACoefficientsArraySize</text>
<text text-anchor="start" x="719" y="-302" font-family="Helvetica,sans-Serif" font-size="10.00">+ BCoefficientsArraySize</text>
<text text-anchor="start" x="719" y="-291" font-family="Helvetica,sans-Serif" font-size="10.00">+ ControlHistoryArraySize</text>
<text text-anchor="start" x="719" y="-280" font-family="Helvetica,sans-Serif" font-size="10.00">+ ErrorHistoryArraySize</text>
<text text-anchor="start" x="719" y="-269" font-family="Helvetica,sans-Serif" font-size="10.00">+ normPreShift</text>
<text text-anchor="start" x="719" y="-258" font-family="Helvetica,sans-Serif" font-size="10.00">+ normPostShiftA</text>
<text text-anchor="start" x="719" y="-247" font-family="Helvetica,sans-Serif" font-size="10.00">+ normPostShiftB</text>
<text text-anchor="start" x="719" y="-236" font-family="Helvetica,sans-Serif" font-size="10.00">+ normPostScaler</text>
<text text-anchor="start" x="719" y="-225" font-family="Helvetica,sans-Serif" font-size="10.00">+ PTermScaler</text>
<text text-anchor="start" x="719" y="-214" font-family="Helvetica,sans-Serif" font-size="10.00">+ PTermFactor</text>
<polyline fill="none" stroke="black" points="711,-207 848,-207 "/>
<text text-anchor="middle" x="779.5" y="-195" font-family="Helvetica,sans-Serif" font-size="10.00"> </text>
</a>
</g>
</g>
<!-- Node1&#45;&gt;Node8 -->
<g id="edge14" class="edge">
<title>Node1&#45;&gt;Node8</title>
<path fill="none" stroke="midnightblue" d="M664.72,-445C676.96,-432.8 690.28,-418.72 701.5,-405 705.95,-399.55 710.4,-393.85 714.78,-388.02"/>
<polygon fill="none" stroke="midnightblue" points="661.95,-442.82 657.28,-452.33 666.86,-447.81 661.95,-442.82"/>
</g>
<!-- Node9 -->
<g id="node9" class="node">
<title>Node9</title>
<g id="a_node9"><a xlink:href="a01276.html" target="_top" xlink:title="Automated data provider pointers used to push most recent data points to user&#45;defined variables.">
<polygon fill="none" stroke="black" points="866.5,-243 866.5,-333 1040.5,-333 1040.5,-243 866.5,-243"/>
<text text-anchor="middle" x="953.5" y="-321" font-family="Helvetica,sans-Serif" font-size="10.00">NPNZ_DATA_PROVIDERS_s</text>
<polyline fill="none" stroke="black" points="866.5,-314 1040.5,-314 "/>
<text text-anchor="start" x="874.5" y="-302" font-family="Helvetica,sans-Serif" font-size="10.00">+ ptrDProvControlInput</text>
<text text-anchor="start" x="874.5" y="-291" font-family="Helvetica,sans-Serif" font-size="10.00">+ ptrDProvControlInputCompensated</text>
<text text-anchor="start" x="874.5" y="-280" font-family="Helvetica,sans-Serif" font-size="10.00">+ ptrDProvControlError</text>
<text text-anchor="start" x="874.5" y="-269" font-family="Helvetica,sans-Serif" font-size="10.00">+ ptrDProvControlOutput</text>
<polyline fill="none" stroke="black" points="866.5,-262 1040.5,-262 "/>
<text text-anchor="middle" x="953.5" y="-250" font-family="Helvetica,sans-Serif" font-size="10.00"> </text>
</a>
</g>
</g>
<!-- Node1&#45;&gt;Node9 -->
<g id="edge16" class="edge">
<title>Node1&#45;&gt;Node9</title>
<path fill="none" stroke="midnightblue" d="M671.77,-473.57C720.67,-464.73 799.97,-445.13 856.5,-405 883.58,-385.78 907.58,-357.23 924.94,-333.26"/>
<polygon fill="none" stroke="midnightblue" points="671.07,-470.14 661.81,-475.29 672.26,-477.03 671.07,-470.14"/>
</g>
<!-- Node10 -->
<g id="node10" class="node">
<title>Node10</title>
<g id="a_node10"><a xlink:href="a01280.html" target="_top" xlink:title="Set of function pointers and parameters used to tie in user&#45;defined, external extension functions at ...">
<polygon fill="none" stroke="black" points="1058.5,-171.5 1058.5,-404.5 1224.5,-404.5 1224.5,-171.5 1058.5,-171.5"/>
<text text-anchor="middle" x="1141.5" y="-392.5" font-family="Helvetica,sans-Serif" font-size="10.00">NPNZ_EXTENSION_HOOKS_s</text>
<polyline fill="none" stroke="black" points="1058.5,-385.5 1224.5,-385.5 "/>
<text text-anchor="start" x="1066.5" y="-373.5" font-family="Helvetica,sans-Serif" font-size="10.00">+ ptrExtHookStartFunction</text>
<text text-anchor="start" x="1066.5" y="-362.5" font-family="Helvetica,sans-Serif" font-size="10.00">+ ExtHookStartFunctionParam</text>
<text text-anchor="start" x="1066.5" y="-351.5" font-family="Helvetica,sans-Serif" font-size="10.00">+ ptrExtHookSourceFunction</text>
<text text-anchor="start" x="1066.5" y="-340.5" font-family="Helvetica,sans-Serif" font-size="10.00">+ ExtHookSourceFunctionParam</text>
<text text-anchor="start" x="1066.5" y="-329.5" font-family="Helvetica,sans-Serif" font-size="10.00">+ ptrExtHookPreAntiWindup</text>
<text text-anchor="start" x="1066.5" y="-318.5" font-family="Helvetica,sans-Serif" font-size="10.00">Function</text>
<text text-anchor="start" x="1066.5" y="-307.5" font-family="Helvetica,sans-Serif" font-size="10.00">+ ExtHookPreAntiWindupFunction</text>
<text text-anchor="start" x="1066.5" y="-296.5" font-family="Helvetica,sans-Serif" font-size="10.00">Param</text>
<text text-anchor="start" x="1066.5" y="-285.5" font-family="Helvetica,sans-Serif" font-size="10.00">+ ptrExtHookPreTargetWrite</text>
<text text-anchor="start" x="1066.5" y="-274.5" font-family="Helvetica,sans-Serif" font-size="10.00">Function</text>
<text text-anchor="start" x="1066.5" y="-263.5" font-family="Helvetica,sans-Serif" font-size="10.00">+ ExtHookPreTargetWriteFunction</text>
<text text-anchor="start" x="1066.5" y="-252.5" font-family="Helvetica,sans-Serif" font-size="10.00">Param</text>
<text text-anchor="start" x="1066.5" y="-241.5" font-family="Helvetica,sans-Serif" font-size="10.00">+ ptrExtHookEndOfLoopFunction</text>
<text text-anchor="start" x="1066.5" y="-230.5" font-family="Helvetica,sans-Serif" font-size="10.00">+ ExtHookEndOfLoopFunction</text>
<text text-anchor="start" x="1066.5" y="-219.5" font-family="Helvetica,sans-Serif" font-size="10.00">Param</text>
<text text-anchor="start" x="1066.5" y="-208.5" font-family="Helvetica,sans-Serif" font-size="10.00">+ ptrExtHookExitFunction</text>
<text text-anchor="start" x="1066.5" y="-197.5" font-family="Helvetica,sans-Serif" font-size="10.00">+ ExtHookExitFunctionParam</text>
<polyline fill="none" stroke="black" points="1058.5,-190.5 1224.5,-190.5 "/>
<text text-anchor="middle" x="1141.5" y="-178.5" font-family="Helvetica,sans-Serif" font-size="10.00"> </text>
</a>
</g>
</g>
<!-- Node1&#45;&gt;Node10 -->
<g id="edge18" class="edge">
<title>Node1&#45;&gt;Node10</title>
<path fill="none" stroke="midnightblue" d="M671.95,-476.94C767.66,-469.59 989.4,-448.27 1049.5,-405 1052.52,-402.82 1055.5,-400.52 1058.43,-398.11"/>
<polygon fill="none" stroke="midnightblue" points="671.45,-473.47 661.74,-477.71 671.97,-480.45 671.45,-473.47"/>
</g>
<!-- Node11 -->
<g id="node11" class="node">
<title>Node11</title>
<g id="a_node11"><a xlink:href="a01244.html" target="_top" xlink:title="Controller status word data structure allowing bit&#45;wise access to status and control bits.">
<polygon fill="none" stroke="black" points="1243,-204.5 1243,-371.5 1368,-371.5 1368,-204.5 1243,-204.5"/>
<text text-anchor="middle" x="1305.5" y="-359.5" font-family="Helvetica,sans-Serif" font-size="10.00">NPNZ_STATUS_s</text>
<polyline fill="none" stroke="black" points="1243,-352.5 1368,-352.5 "/>
<text text-anchor="start" x="1251" y="-340.5" font-family="Helvetica,sans-Serif" font-size="10.00">+ lower_saturation_event</text>
<text text-anchor="start" x="1251" y="-329.5" font-family="Helvetica,sans-Serif" font-size="10.00">+ upper_saturation_event</text>
<text text-anchor="start" x="1251" y="-318.5" font-family="Helvetica,sans-Serif" font-size="10.00">+ unsigned</text>
<text text-anchor="start" x="1251" y="-307.5" font-family="Helvetica,sans-Serif" font-size="10.00">+ agc_enabled</text>
<text text-anchor="start" x="1251" y="-296.5" font-family="Helvetica,sans-Serif" font-size="10.00">+ swap_target</text>
<text text-anchor="start" x="1251" y="-285.5" font-family="Helvetica,sans-Serif" font-size="10.00">+ swap_source</text>
<text text-anchor="start" x="1251" y="-274.5" font-family="Helvetica,sans-Serif" font-size="10.00">+ invert_input</text>
<text text-anchor="start" x="1251" y="-263.5" font-family="Helvetica,sans-Serif" font-size="10.00">+ enabled</text>
<text text-anchor="start" x="1251" y="-252.5" font-family="Helvetica,sans-Serif" font-size="10.00">+ bits</text>
<text text-anchor="start" x="1251" y="-241.5" font-family="Helvetica,sans-Serif" font-size="10.00">+ value</text>
<text text-anchor="start" x="1251" y="-230.5" font-family="Helvetica,sans-Serif" font-size="10.00">+ @133</text>
<polyline fill="none" stroke="black" points="1243,-223.5 1368,-223.5 "/>
<text text-anchor="middle" x="1305.5" y="-211.5" font-family="Helvetica,sans-Serif" font-size="10.00"> </text>
</a>
</g>
</g>
<!-- Node1&#45;&gt;Node11 -->
<g id="edge20" class="edge">
<title>Node1&#45;&gt;Node11</title>
<path fill="none" stroke="midnightblue" d="M671.9,-478.44C784.88,-474.11 1081.01,-460.53 1175.5,-434 1203.25,-426.21 1212.21,-424.42 1233.5,-405 1244.09,-395.34 1253.7,-383.76 1262.2,-371.72"/>
<polygon fill="none" stroke="midnightblue" points="671.73,-474.94 661.87,-478.81 671.99,-481.94 671.73,-474.94"/>
</g>
<!-- Node2&#45;&gt;Node1 -->
<g id="edge1" class="edge">
<title>Node2&#45;&gt;Node1</title>
<path fill="none" stroke="#404040" d="M84.86,-333C97.6,-356.74 115.88,-385.15 138.5,-405 161.37,-425.06 171.2,-425.82 200.5,-434 335.02,-471.58 501.3,-478.79 580.84,-479.96"/>
<polygon fill="none" stroke="#404040" points="581.3,-479.96 587.34,-476.03 593.29,-480.1 587.25,-484.03 581.3,-479.96"/>
<text text-anchor="middle" x="245.5" y="-426" font-family="Helvetica,sans-Serif" font-size="10.00"> +ADCTriggerControl</text>
</g>
<!-- Node3&#45;&gt;Node1 -->
<g id="edge3" class="edge">
<title>Node3&#45;&gt;Node1</title>
<path fill="none" stroke="#404040" d="M235.36,-333.15C248.46,-356.5 266.8,-384.5 288.5,-405 307.45,-422.91 314.9,-425.36 339.5,-434 421.62,-462.84 523.3,-473.69 581.25,-477.7"/>
<polygon fill="none" stroke="#404040" points="581.3,-477.71 587.55,-474.1 593.28,-478.48 587.03,-482.09 581.3,-477.71"/>
<text text-anchor="middle" x="370" y="-426" font-family="Helvetica,sans-Serif" font-size="10.00"> +GainControl</text>
</g>
<!-- Node4&#45;&gt;Node1 -->
<g id="edge5" class="edge">
<title>Node4&#45;&gt;Node1</title>
<path fill="none" stroke="#404040" d="M352.21,-333.16C360.17,-357.39 373.4,-386.24 394.5,-405 447.31,-451.96 529.82,-469.56 581.17,-476.12"/>
<polygon fill="none" stroke="#404040" points="581.28,-476.14 587.71,-472.86 593.2,-477.53 586.78,-480.81 581.28,-476.14"/>
<text text-anchor="middle" x="450.5" y="-426" font-family="Helvetica,sans-Serif" font-size="10.00"> +Limits</text>
</g>
<!-- Node5&#45;&gt;Node1 -->
<g id="edge7" class="edge">
<title>Node5&#45;&gt;Node1</title>
<path fill="none" stroke="#404040" d="M516.65,-355.1C531.3,-381.08 549.88,-410.3 570.5,-434 574.62,-438.73 579.27,-443.35 584.09,-447.73"/>
<polygon fill="none" stroke="#404040" points="584.38,-447.98 591.54,-448.85 593.49,-455.79 586.33,-454.92 584.38,-447.98"/>
<text text-anchor="middle" x="596.5" y="-426" font-family="Helvetica,sans-Serif" font-size="10.00"> +Advanced</text>
</g>
<!-- Node6&#45;&gt;Node1 -->
<g id="edge9" class="edge">
<title>Node6&#45;&gt;Node1</title>
<path fill="none" stroke="#404040" d="M636.04,-316.81C634.35,-349.21 631.53,-403.03 629.6,-439.94"/>
<polygon fill="none" stroke="#404040" points="629.58,-440.24 633.26,-446.44 628.95,-452.23 625.27,-446.03 629.58,-440.24"/>
<text text-anchor="middle" x="647" y="-426" font-family="Helvetica,sans-Serif" font-size="10.00"> +Ports</text>
</g>
<!-- Node7 -->
<g id="node7" class="node">
<title>Node7</title>
<g id="a_node7"><a xlink:href="a01256.html" target="_top" xlink:title="Data structure defining parameters of a controller input or output port.">
<polygon fill="none" stroke="black" points="594.5,-0.5 594.5,-90.5 678.5,-90.5 678.5,-0.5 594.5,-0.5"/>
<text text-anchor="middle" x="636.5" y="-78.5" font-family="Helvetica,sans-Serif" font-size="10.00">NPNZ_PORT_s</text>
<polyline fill="none" stroke="black" points="594.5,-71.5 678.5,-71.5 "/>
<text text-anchor="start" x="602.5" y="-59.5" font-family="Helvetica,sans-Serif" font-size="10.00">+ ptrAddress</text>
<text text-anchor="start" x="602.5" y="-48.5" font-family="Helvetica,sans-Serif" font-size="10.00">+ NormScaler</text>
<text text-anchor="start" x="602.5" y="-37.5" font-family="Helvetica,sans-Serif" font-size="10.00">+ NormFactor</text>
<text text-anchor="start" x="602.5" y="-26.5" font-family="Helvetica,sans-Serif" font-size="10.00">+ Offset</text>
<polyline fill="none" stroke="black" points="594.5,-19.5 678.5,-19.5 "/>
<text text-anchor="middle" x="636.5" y="-7.5" font-family="Helvetica,sans-Serif" font-size="10.00"> </text>
</a>
</g>
</g>
<!-- Node6&#45;&gt;Node7 -->
<g id="edge12" class="edge">
<title>Node6&#45;&gt;Node7</title>
<path fill="none" stroke="midnightblue" d="M636.14,-249.18C635.02,-213.15 633.73,-157.38 634.5,-109 634.6,-103.03 634.74,-96.74 634.91,-90.54"/>
<polygon fill="none" stroke="midnightblue" points="632.65,-249.37 636.47,-259.25 639.64,-249.14 632.65,-249.37"/>
</g>
<!-- Node7&#45;&gt;Node6 -->
<g id="edge11" class="edge">
<title>Node7&#45;&gt;Node6</title>
<path fill="none" stroke="#404040" d="M636.68,-90.87C636.87,-135.63 637.16,-204.12 637.33,-247.18"/>
<polygon fill="none" stroke="#404040" points="637.34,-247.41 641.36,-253.39 637.39,-259.41 633.36,-253.43 637.34,-247.41"/>
<text text-anchor="middle" x="663.5" y="-145" font-family="Helvetica,sans-Serif" font-size="10.00"> +AltSource</text>
<text text-anchor="middle" x="663.5" y="-134" font-family="Helvetica,sans-Serif" font-size="10.00">+AltTarget</text>
<text text-anchor="middle" x="663.5" y="-123" font-family="Helvetica,sans-Serif" font-size="10.00">+Source</text>
<text text-anchor="middle" x="663.5" y="-112" font-family="Helvetica,sans-Serif" font-size="10.00">+Target</text>
</g>
<!-- Node8&#45;&gt;Node1 -->
<g id="edge13" class="edge">
<title>Node8&#45;&gt;Node1</title>
<path fill="none" stroke="#404040" d="M762.84,-388.34C756.64,-404.95 748.14,-420.99 736.5,-434 720.09,-452.34 695.17,-463.59 673.29,-470.37"/>
<polygon fill="none" stroke="#404040" points="673.07,-470.43 668.39,-475.91 661.52,-473.69 666.21,-468.21 673.07,-470.43"/>
<text text-anchor="middle" x="760" y="-426" font-family="Helvetica,sans-Serif" font-size="10.00"> +Filter</text>
</g>
<!-- Node9&#45;&gt;Node1 -->
<g id="edge15" class="edge">
<title>Node9&#45;&gt;Node1</title>
<path fill="none" stroke="#404040" d="M944.28,-333.3C935.06,-366.2 917.49,-409.46 885.5,-434 853.09,-458.86 739.25,-471.47 674.13,-476.79"/>
<polygon fill="none" stroke="#404040" points="673.76,-476.82 668.09,-481.28 661.8,-477.76 667.47,-473.3 673.76,-476.82"/>
<text text-anchor="middle" x="930.5" y="-426" font-family="Helvetica,sans-Serif" font-size="10.00"> +DataProviders</text>
</g>
<!-- Node10&#45;&gt;Node1 -->
<g id="edge17" class="edge">
<title>Node10&#45;&gt;Node1</title>
<path fill="none" stroke="#404040" d="M1107.23,-404.83C1099.95,-416.03 1091.15,-426.12 1080.5,-434 1048.29,-457.83 783.02,-472.76 674.01,-477.95"/>
<polygon fill="none" stroke="#404040" points="673.8,-477.96 668,-482.23 661.82,-478.52 667.62,-474.24 673.8,-477.96"/>
<text text-anchor="middle" x="1131" y="-426" font-family="Helvetica,sans-Serif" font-size="10.00"> +ExtensionHooks</text>
</g>
<!-- Node11&#45;&gt;Node1 -->
<g id="edge19" class="edge">
<title>Node11&#45;&gt;Node1</title>
<path fill="none" stroke="#404040" d="M1299.14,-371.84C1293.17,-395.33 1282.44,-418.66 1263.5,-434 1217.97,-470.86 813.03,-478.21 674.07,-479.65"/>
<polygon fill="none" stroke="#404040" points="673.85,-479.66 667.89,-483.72 661.85,-479.77 667.81,-475.72 673.85,-479.66"/>
<text text-anchor="middle" x="1290" y="-426" font-family="Helvetica,sans-Serif" font-size="10.00"> +status</text>
</g>
</g>
</svg>
