<?xml version="1.0" encoding="UTF-8" standalone="no"?>
<!DOCTYPE svg PUBLIC "-//W3C//DTD SVG 1.1//EN"
 "http://www.w3.org/Graphics/SVG/1.1/DTD/svg11.dtd">
<!-- Generated by graphviz version 2.44.1 (20200629.0846)
 -->
<!-- Title: NPNZ_GAIN_CONTROL_s Pages: 1 -->
<!--zoomable 656 -->
<svg id="main" version="1.1" xmlns="http://www.w3.org/2000/svg" xmlns:xlink="http://www.w3.org/1999/xlink" xml:space="preserve" onload="init(evt)">
<style type="text/css"><![CDATA[
.edge:hover path { stroke: red; }
.edge:hover polygon { stroke: red; fill: red; }
]]></style>
<script type="text/javascript"><![CDATA[
var edges = document.getElementsByTagName('g');
if (edges && edges.length) {
  for (var i=0;i<edges.length;i++) {
    if (edges[i].id.substr(0,4)=='edge') {
      edges[i].setAttribute('class','edge');
    }
  }
}
]]></script>
        <defs>
                <circle id="rim" cx="0" cy="0" r="7"/>
                <circle id="rim2" cx="0" cy="0" r="3.5"/>
                <g id="zoomPlus">
                        <use xlink:href="#rim" fill="#404040">
                                <set attributeName="fill" to="#808080" begin="zoomplus.mouseover" end="zoomplus.mouseout"/>
                        </use>
                        <path d="M-4,0h8M0,-4v8" fill="none" stroke="white" stroke-width="1.5" pointer-events="none"/>
                </g>
                <g id="zoomMin">
                        <use xlink:href="#rim" fill="#404040">
                                <set attributeName="fill" to="#808080" begin="zoomminus.mouseover" end="zoomminus.mouseout"/>
                        </use>
                        <path d="M-4,0h8" fill="none" stroke="white" stroke-width="1.5" pointer-events="none"/>
                </g>
                <g id="dirArrow">
                        <path fill="none" stroke="white" stroke-width="1.5" d="M0,-3.0v7 M-2.5,-0.5L0,-3.0L2.5,-0.5"/>
                </g>
               <g id="resetDef">
                       <use xlink:href="#rim2" fill="#404040">
                               <set attributeName="fill" to="#808080" begin="reset.mouseover" end="reset.mouseout"/>
                       </use>
               </g>
        </defs>

<script type="text/javascript">
var viewWidth = 1226;
var viewHeight = 656;
var sectionId = 'dynsection-1';
</script>
<script xlink:href="svgpan.js"/>
<svg id="graph" class="graph">
<g id="viewport">
<title>NPNZ_GAIN_CONTROL_s</title>
<!-- Node1 -->
<g id="node1" class="node">
<title>Node1</title>
<g id="a_node1"><a xlink:title="Data structure holding parameters required for adaptive or manual loop gain manipulation during runti...">
<polygon fill="#bfbfbf" stroke="black" points="497.5,-557.5 497.5,-647.5 629.5,-647.5 629.5,-557.5 497.5,-557.5"/>
<text text-anchor="middle" x="563.5" y="-635.5" font-family="Helvetica,sans-Serif" font-size="10.00">NPNZ_GAIN_CONTROL_s</text>
<polyline fill="none" stroke="black" points="497.5,-628.5 629.5,-628.5 "/>
<text text-anchor="start" x="505.5" y="-616.5" font-family="Helvetica,sans-Serif" font-size="10.00">+ AgcScaler</text>
<text text-anchor="start" x="505.5" y="-605.5" font-family="Helvetica,sans-Serif" font-size="10.00">+ AgcFactor</text>
<text text-anchor="start" x="505.5" y="-594.5" font-family="Helvetica,sans-Serif" font-size="10.00">+ AgcMedian</text>
<text text-anchor="start" x="505.5" y="-583.5" font-family="Helvetica,sans-Serif" font-size="10.00">+ ptrAgcObserverFunction</text>
<polyline fill="none" stroke="black" points="497.5,-576.5 629.5,-576.5 "/>
<text text-anchor="middle" x="563.5" y="-564.5" font-family="Helvetica,sans-Serif" font-size="10.00"> </text>
</a>
</g>
</g>
<!-- Node2 -->
<g id="node2" class="node">
<title>Node2</title>
<g id="a_node2"><a xlink:href="a01292.html" target="_top" xlink:title="Generic NPNZ16b Controller Object. This data structure is the main API data object providing single&#45;p...">
<polygon fill="none" stroke="black" points="529.5,-452.5 529.5,-509.5 597.5,-509.5 597.5,-452.5 529.5,-452.5"/>
<text text-anchor="middle" x="563.5" y="-497.5" font-family="Helvetica,sans-Serif" font-size="10.00">NPNZ16b_s</text>
<polyline fill="none" stroke="black" points="529.5,-490.5 597.5,-490.5 "/>
<text text-anchor="middle" x="563.5" y="-478.5" font-family="Helvetica,sans-Serif" font-size="10.00"> </text>
<polyline fill="none" stroke="black" points="529.5,-471.5 597.5,-471.5 "/>
<text text-anchor="middle" x="563.5" y="-459.5" font-family="Helvetica,sans-Serif" font-size="10.00"> </text>
</a>
</g>
</g>
<!-- Node1&#45;&gt;Node2 -->
<g id="edge4" class="edge">
<title>Node1&#45;&gt;Node2</title>
<path fill="none" stroke="#404040" d="M530.19,-557.3C527.05,-551.39 524.36,-545.22 522.5,-539 520.54,-532.43 521.42,-526 523.98,-519.95"/>
<polygon fill="none" stroke="#404040" points="524.04,-519.87 523.67,-512.67 530.18,-509.56 530.54,-516.76 524.04,-519.87"/>
<text text-anchor="middle" x="553" y="-531" font-family="Helvetica,sans-Serif" font-size="10.00"> +GainControl</text>
</g>
<!-- Node2&#45;&gt;Node1 -->
<g id="edge1" class="edge">
<title>Node2&#45;&gt;Node1</title>
<path fill="none" stroke="midnightblue" d="M584.71,-519.1C585.82,-522.05 586.77,-525.03 587.5,-528 589.83,-537.52 588.88,-547.58 586.34,-557.11"/>
<polygon fill="none" stroke="midnightblue" points="587.9,-517.66 580.72,-509.86 581.47,-520.43 587.9,-517.66"/>
</g>
<!-- Node3 -->
<g id="node3" class="node">
<title>Node3</title>
<g id="a_node3"><a xlink:href="a01272.html" target="_top" xlink:title="Automatic ADC trigger placement parameters for primary ADC trigger A and secondary trigger B.">
<polygon fill="none" stroke="black" points="0,-243 0,-333 129,-333 129,-243 0,-243"/>
<text text-anchor="middle" x="64.5" y="-321" font-family="Helvetica,sans-Serif" font-size="10.00">NPNZ_ADC_TRGCTRL_s</text>
<polyline fill="none" stroke="black" points="0,-314 129,-314 "/>
<text text-anchor="start" x="8" y="-302" font-family="Helvetica,sans-Serif" font-size="10.00">+ ptrADCTriggerARegister</text>
<text text-anchor="start" x="8" y="-291" font-family="Helvetica,sans-Serif" font-size="10.00">+ ADCTriggerAOffset</text>
<text text-anchor="start" x="8" y="-280" font-family="Helvetica,sans-Serif" font-size="10.00">+ ptrADCTriggerBRegister</text>
<text text-anchor="start" x="8" y="-269" font-family="Helvetica,sans-Serif" font-size="10.00">+ ADCTriggerBOffset</text>
<polyline fill="none" stroke="black" points="0,-262 129,-262 "/>
<text text-anchor="middle" x="64.5" y="-250" font-family="Helvetica,sans-Serif" font-size="10.00"> </text>
</a>
</g>
</g>
<!-- Node2&#45;&gt;Node3 -->
<g id="edge3" class="edge">
<title>Node2&#45;&gt;Node3</title>
<path fill="none" stroke="midnightblue" d="M519.4,-480.11C424.98,-479.55 206.94,-473.86 146.5,-434 111.13,-410.68 89.39,-366.56 77.26,-333.09"/>
<polygon fill="none" stroke="midnightblue" points="519.46,-483.61 529.48,-480.15 519.49,-476.61 519.46,-483.61"/>
</g>
<!-- Node4 -->
<g id="node4" class="node">
<title>Node4</title>
<g id="a_node4"><a xlink:href="a01268.html" target="_top" xlink:title="Data strucure holding control output clamping threshold values.">
<polygon fill="none" stroke="black" points="147.5,-243 147.5,-333 235.5,-333 235.5,-243 147.5,-243"/>
<text text-anchor="middle" x="191.5" y="-321" font-family="Helvetica,sans-Serif" font-size="10.00">NPNZ_LIMITS_s</text>
<polyline fill="none" stroke="black" points="147.5,-314 235.5,-314 "/>
<text text-anchor="start" x="155.5" y="-302" font-family="Helvetica,sans-Serif" font-size="10.00">+ MinOutput</text>
<text text-anchor="start" x="155.5" y="-291" font-family="Helvetica,sans-Serif" font-size="10.00">+ MaxOutput</text>
<text text-anchor="start" x="155.5" y="-280" font-family="Helvetica,sans-Serif" font-size="10.00">+ AltMinOutput</text>
<text text-anchor="start" x="155.5" y="-269" font-family="Helvetica,sans-Serif" font-size="10.00">+ AltMaxOutput</text>
<polyline fill="none" stroke="black" points="147.5,-262 235.5,-262 "/>
<text text-anchor="middle" x="191.5" y="-250" font-family="Helvetica,sans-Serif" font-size="10.00"> </text>
</a>
</g>
</g>
<!-- Node2&#45;&gt;Node4 -->
<g id="edge6" class="edge">
<title>Node2&#45;&gt;Node4</title>
<path fill="none" stroke="midnightblue" d="M519.14,-480.8C460.44,-480.15 355.08,-472.96 275.5,-434 236.31,-414.81 214.2,-368.33 202.62,-333.12"/>
<polygon fill="none" stroke="midnightblue" points="519.18,-484.3 529.2,-480.85 519.22,-477.3 519.18,-484.3"/>
</g>
<!-- Node5 -->
<g id="node5" class="node">
<title>Node5</title>
<g id="a_node5"><a xlink:href="a01288.html" target="_top" xlink:title="Generic data buffer for undetermined use. These data buffers may be used by advanced control algorith...">
<polygon fill="none" stroke="black" points="253.5,-221 253.5,-355 413.5,-355 413.5,-221 253.5,-221"/>
<text text-anchor="middle" x="333.5" y="-343" font-family="Helvetica,sans-Serif" font-size="10.00">NPNZ_USER_DATA_BUFFER_s</text>
<polyline fill="none" stroke="black" points="253.5,-336 413.5,-336 "/>
<text text-anchor="start" x="261.5" y="-324" font-family="Helvetica,sans-Serif" font-size="10.00">+ usrParam0</text>
<text text-anchor="start" x="261.5" y="-313" font-family="Helvetica,sans-Serif" font-size="10.00">+ usrParam1</text>
<text text-anchor="start" x="261.5" y="-302" font-family="Helvetica,sans-Serif" font-size="10.00">+ usrParam2</text>
<text text-anchor="start" x="261.5" y="-291" font-family="Helvetica,sans-Serif" font-size="10.00">+ usrParam3</text>
<text text-anchor="start" x="261.5" y="-280" font-family="Helvetica,sans-Serif" font-size="10.00">+ usrParam4</text>
<text text-anchor="start" x="261.5" y="-269" font-family="Helvetica,sans-Serif" font-size="10.00">+ usrParam5</text>
<text text-anchor="start" x="261.5" y="-258" font-family="Helvetica,sans-Serif" font-size="10.00">+ usrParam6</text>
<text text-anchor="start" x="261.5" y="-247" font-family="Helvetica,sans-Serif" font-size="10.00">+ usrParam7</text>
<polyline fill="none" stroke="black" points="253.5,-240 413.5,-240 "/>
<text text-anchor="middle" x="333.5" y="-228" font-family="Helvetica,sans-Serif" font-size="10.00"> </text>
</a>
</g>
</g>
<!-- Node2&#45;&gt;Node5 -->
<g id="edge8" class="edge">
<title>Node2&#45;&gt;Node5</title>
<path fill="none" stroke="midnightblue" d="M519.81,-469.61C495.67,-462.39 466.08,-450.95 443.5,-434 415.32,-412.85 390.82,-382.62 372.14,-355.22"/>
<polygon fill="none" stroke="midnightblue" points="518.87,-472.99 529.45,-472.37 520.79,-466.25 518.87,-472.99"/>
</g>
<!-- Node6 -->
<g id="node6" class="node">
<title>Node6</title>
<g id="a_node6"><a xlink:href="a01260.html" target="_top" xlink:title="Data structure merging all defined controller input and output ports.">
<polygon fill="none" stroke="black" points="432,-259.5 432,-316.5 543,-316.5 543,-259.5 432,-259.5"/>
<text text-anchor="middle" x="487.5" y="-304.5" font-family="Helvetica,sans-Serif" font-size="10.00">NPNZ_PORTS_s</text>
<polyline fill="none" stroke="black" points="432,-297.5 543,-297.5 "/>
<text text-anchor="start" x="440" y="-285.5" font-family="Helvetica,sans-Serif" font-size="10.00">+ ptrControlReference</text>
<polyline fill="none" stroke="black" points="432,-278.5 543,-278.5 "/>
<text text-anchor="middle" x="487.5" y="-266.5" font-family="Helvetica,sans-Serif" font-size="10.00"> </text>
</a>
</g>
</g>
<!-- Node2&#45;&gt;Node6 -->
<g id="edge10" class="edge">
<title>Node2&#45;&gt;Node6</title>
<path fill="none" stroke="midnightblue" d="M540.29,-443.53C538.58,-440.35 536.96,-437.15 535.5,-434 517.3,-394.65 502.77,-346.42 494.64,-316.7"/>
<polygon fill="none" stroke="midnightblue" points="537.31,-445.36 545.28,-452.34 543.4,-441.91 537.31,-445.36"/>
</g>
<!-- Node8 -->
<g id="node8" class="node">
<title>Node8</title>
<g id="a_node8"><a xlink:href="a01264.html" target="_top" xlink:title="Data structure for filter parameters such as pointer to history and coefficient arrays and number sca...">
<polygon fill="none" stroke="black" points="561,-188 561,-388 698,-388 698,-188 561,-188"/>
<text text-anchor="middle" x="629.5" y="-376" font-family="Helvetica,sans-Serif" font-size="10.00">NPNZ_FILTER_PARAMS_s</text>
<polyline fill="none" stroke="black" points="561,-369 698,-369 "/>
<text text-anchor="start" x="569" y="-357" font-family="Helvetica,sans-Serif" font-size="10.00">+ ptrACoefficients</text>
<text text-anchor="start" x="569" y="-346" font-family="Helvetica,sans-Serif" font-size="10.00">+ ptrBCoefficients</text>
<text text-anchor="start" x="569" y="-335" font-family="Helvetica,sans-Serif" font-size="10.00">+ ptrControlHistory</text>
<text text-anchor="start" x="569" y="-324" font-family="Helvetica,sans-Serif" font-size="10.00">+ ptrErrorHistory</text>
<text text-anchor="start" x="569" y="-313" font-family="Helvetica,sans-Serif" font-size="10.00">+ ACoefficientsArraySize</text>
<text text-anchor="start" x="569" y="-302" font-family="Helvetica,sans-Serif" font-size="10.00">+ BCoefficientsArraySize</text>
<text text-anchor="start" x="569" y="-291" font-family="Helvetica,sans-Serif" font-size="10.00">+ ControlHistoryArraySize</text>
<text text-anchor="start" x="569" y="-280" font-family="Helvetica,sans-Serif" font-size="10.00">+ ErrorHistoryArraySize</text>
<text text-anchor="start" x="569" y="-269" font-family="Helvetica,sans-Serif" font-size="10.00">+ normPreShift</text>
<text text-anchor="start" x="569" y="-258" font-family="Helvetica,sans-Serif" font-size="10.00">+ normPostShiftA</text>
<text text-anchor="start" x="569" y="-247" font-family="Helvetica,sans-Serif" font-size="10.00">+ normPostShiftB</text>
<text text-anchor="start" x="569" y="-236" font-family="Helvetica,sans-Serif" font-size="10.00">+ normPostScaler</text>
<text text-anchor="start" x="569" y="-225" font-family="Helvetica,sans-Serif" font-size="10.00">+ PTermScaler</text>
<text text-anchor="start" x="569" y="-214" font-family="Helvetica,sans-Serif" font-size="10.00">+ PTermFactor</text>
<polyline fill="none" stroke="black" points="561,-207 698,-207 "/>
<text text-anchor="middle" x="629.5" y="-195" font-family="Helvetica,sans-Serif" font-size="10.00"> </text>
</a>
</g>
</g>
<!-- Node2&#45;&gt;Node8 -->
<g id="edge14" class="edge">
<title>Node2&#45;&gt;Node8</title>
<path fill="none" stroke="midnightblue" d="M576.49,-442.42C581.92,-426.71 588.51,-407.63 595.17,-388.35"/>
<polygon fill="none" stroke="midnightblue" points="573.05,-441.63 573.1,-452.23 579.67,-443.92 573.05,-441.63"/>
</g>
<!-- Node9 -->
<g id="node9" class="node">
<title>Node9</title>
<g id="a_node9"><a xlink:href="a01276.html" target="_top" xlink:title="Automated data provider pointers used to push most recent data points to user&#45;defined variables.">
<polygon fill="none" stroke="black" points="716.5,-243 716.5,-333 890.5,-333 890.5,-243 716.5,-243"/>
<text text-anchor="middle" x="803.5" y="-321" font-family="Helvetica,sans-Serif" font-size="10.00">NPNZ_DATA_PROVIDERS_s</text>
<polyline fill="none" stroke="black" points="716.5,-314 890.5,-314 "/>
<text text-anchor="start" x="724.5" y="-302" font-family="Helvetica,sans-Serif" font-size="10.00">+ ptrDProvControlInput</text>
<text text-anchor="start" x="724.5" y="-291" font-family="Helvetica,sans-Serif" font-size="10.00">+ ptrDProvControlInputCompensated</text>
<text text-anchor="start" x="724.5" y="-280" font-family="Helvetica,sans-Serif" font-size="10.00">+ ptrDProvControlError</text>
<text text-anchor="start" x="724.5" y="-269" font-family="Helvetica,sans-Serif" font-size="10.00">+ ptrDProvControlOutput</text>
<polyline fill="none" stroke="black" points="716.5,-262 890.5,-262 "/>
<text text-anchor="middle" x="803.5" y="-250" font-family="Helvetica,sans-Serif" font-size="10.00"> </text>
</a>
</g>
</g>
<!-- Node2&#45;&gt;Node9 -->
<g id="edge16" class="edge">
<title>Node2&#45;&gt;Node9</title>
<path fill="none" stroke="midnightblue" d="M606.82,-462.64C636.64,-449.46 676.18,-429.46 706.5,-405 731.94,-384.48 755.58,-356.48 773.15,-333.14"/>
<polygon fill="none" stroke="midnightblue" points="605.29,-459.49 597.51,-466.68 608.08,-465.91 605.29,-459.49"/>
</g>
<!-- Node10 -->
<g id="node10" class="node">
<title>Node10</title>
<g id="a_node10"><a xlink:href="a01280.html" target="_top" xlink:title="Set of function pointers and parameters used to tie in user&#45;defined, external extension functions at ...">
<polygon fill="none" stroke="black" points="908.5,-171.5 908.5,-404.5 1074.5,-404.5 1074.5,-171.5 908.5,-171.5"/>
<text text-anchor="middle" x="991.5" y="-392.5" font-family="Helvetica,sans-Serif" font-size="10.00">NPNZ_EXTENSION_HOOKS_s</text>
<polyline fill="none" stroke="black" points="908.5,-385.5 1074.5,-385.5 "/>
<text text-anchor="start" x="916.5" y="-373.5" font-family="Helvetica,sans-Serif" font-size="10.00">+ ptrExtHookStartFunction</text>
<text text-anchor="start" x="916.5" y="-362.5" font-family="Helvetica,sans-Serif" font-size="10.00">+ ExtHookStartFunctionParam</text>
<text text-anchor="start" x="916.5" y="-351.5" font-family="Helvetica,sans-Serif" font-size="10.00">+ ptrExtHookSourceFunction</text>
<text text-anchor="start" x="916.5" y="-340.5" font-family="Helvetica,sans-Serif" font-size="10.00">+ ExtHookSourceFunctionParam</text>
<text text-anchor="start" x="916.5" y="-329.5" font-family="Helvetica,sans-Serif" font-size="10.00">+ ptrExtHookPreAntiWindup</text>
<text text-anchor="start" x="916.5" y="-318.5" font-family="Helvetica,sans-Serif" font-size="10.00">Function</text>
<text text-anchor="start" x="916.5" y="-307.5" font-family="Helvetica,sans-Serif" font-size="10.00">+ ExtHookPreAntiWindupFunction</text>
<text text-anchor="start" x="916.5" y="-296.5" font-family="Helvetica,sans-Serif" font-size="10.00">Param</text>
<text text-anchor="start" x="916.5" y="-285.5" font-family="Helvetica,sans-Serif" font-size="10.00">+ ptrExtHookPreTargetWrite</text>
<text text-anchor="start" x="916.5" y="-274.5" font-family="Helvetica,sans-Serif" font-size="10.00">Function</text>
<text text-anchor="start" x="916.5" y="-263.5" font-family="Helvetica,sans-Serif" font-size="10.00">+ ExtHookPreTargetWriteFunction</text>
<text text-anchor="start" x="916.5" y="-252.5" font-family="Helvetica,sans-Serif" font-size="10.00">Param</text>
<text text-anchor="start" x="916.5" y="-241.5" font-family="Helvetica,sans-Serif" font-size="10.00">+ ptrExtHookEndOfLoopFunction</text>
<text text-anchor="start" x="916.5" y="-230.5" font-family="Helvetica,sans-Serif" font-size="10.00">+ ExtHookEndOfLoopFunction</text>
<text text-anchor="start" x="916.5" y="-219.5" font-family="Helvetica,sans-Serif" font-size="10.00">Param</text>
<text text-anchor="start" x="916.5" y="-208.5" font-family="Helvetica,sans-Serif" font-size="10.00">+ ptrExtHookExitFunction</text>
<text text-anchor="start" x="916.5" y="-197.5" font-family="Helvetica,sans-Serif" font-size="10.00">+ ExtHookExitFunctionParam</text>
<polyline fill="none" stroke="black" points="908.5,-190.5 1074.5,-190.5 "/>
<text text-anchor="middle" x="991.5" y="-178.5" font-family="Helvetica,sans-Serif" font-size="10.00"> </text>
</a>
</g>
</g>
<!-- Node2&#45;&gt;Node10 -->
<g id="edge18" class="edge">
<title>Node2&#45;&gt;Node10</title>
<path fill="none" stroke="midnightblue" d="M607.61,-480.83C676.41,-479.94 810.59,-469.29 899.5,-405 902.52,-402.82 905.49,-400.51 908.42,-398.1"/>
<polygon fill="none" stroke="midnightblue" points="607.52,-477.33 597.55,-480.89 607.57,-484.33 607.52,-477.33"/>
</g>
<!-- Node11 -->
<g id="node11" class="node">
<title>Node11</title>
<g id="a_node11"><a xlink:href="a01244.html" target="_top" xlink:title="Controller status word data structure allowing bit&#45;wise access to status and control bits.">
<polygon fill="none" stroke="black" points="1093,-204.5 1093,-371.5 1218,-371.5 1218,-204.5 1093,-204.5"/>
<text text-anchor="middle" x="1155.5" y="-359.5" font-family="Helvetica,sans-Serif" font-size="10.00">NPNZ_STATUS_s</text>
<polyline fill="none" stroke="black" points="1093,-352.5 1218,-352.5 "/>
<text text-anchor="start" x="1101" y="-340.5" font-family="Helvetica,sans-Serif" font-size="10.00">+ lower_saturation_event</text>
<text text-anchor="start" x="1101" y="-329.5" font-family="Helvetica,sans-Serif" font-size="10.00">+ upper_saturation_event</text>
<text text-anchor="start" x="1101" y="-318.5" font-family="Helvetica,sans-Serif" font-size="10.00">+ unsigned</text>
<text text-anchor="start" x="1101" y="-307.5" font-family="Helvetica,sans-Serif" font-size="10.00">+ agc_enabled</text>
<text text-anchor="start" x="1101" y="-296.5" font-family="Helvetica,sans-Serif" font-size="10.00">+ swap_target</text>
<text text-anchor="start" x="1101" y="-285.5" font-family="Helvetica,sans-Serif" font-size="10.00">+ swap_source</text>
<text text-anchor="start" x="1101" y="-274.5" font-family="Helvetica,sans-Serif" font-size="10.00">+ invert_input</text>
<text text-anchor="start" x="1101" y="-263.5" font-family="Helvetica,sans-Serif" font-size="10.00">+ enabled</text>
<text text-anchor="start" x="1101" y="-252.5" font-family="Helvetica,sans-Serif" font-size="10.00">+ bits</text>
<text text-anchor="start" x="1101" y="-241.5" font-family="Helvetica,sans-Serif" font-size="10.00">+ value</text>
<text text-anchor="start" x="1101" y="-230.5" font-family="Helvetica,sans-Serif" font-size="10.00">+ @133</text>
<polyline fill="none" stroke="black" points="1093,-223.5 1218,-223.5 "/>
<text text-anchor="middle" x="1155.5" y="-211.5" font-family="Helvetica,sans-Serif" font-size="10.00"> </text>
</a>
</g>
</g>
<!-- Node2&#45;&gt;Node11 -->
<g id="edge20" class="edge">
<title>Node2&#45;&gt;Node11</title>
<path fill="none" stroke="midnightblue" d="M607.59,-480.45C690.3,-480.24 873.73,-474.71 1021.5,-434 1050.83,-425.92 1060.76,-425.21 1083.5,-405 1094.31,-395.4 1104.05,-383.78 1112.63,-371.66"/>
<polygon fill="none" stroke="midnightblue" points="607.54,-476.95 597.54,-480.45 607.54,-483.95 607.54,-476.95"/>
</g>
<!-- Node3&#45;&gt;Node2 -->
<g id="edge2" class="edge">
<title>Node3&#45;&gt;Node2</title>
<path fill="none" stroke="#404040" d="M81.52,-333.17C97.58,-367.89 125.39,-413.68 166.5,-434 227.24,-464.03 426.38,-475.01 517.39,-478.53"/>
<polygon fill="none" stroke="#404040" points="517.49,-478.54 523.64,-474.76 529.49,-478.98 523.34,-482.76 517.49,-478.54"/>
<text text-anchor="middle" x="211.5" y="-426" font-family="Helvetica,sans-Serif" font-size="10.00"> +ADCTriggerControl</text>
</g>
<!-- Node4&#45;&gt;Node2 -->
<g id="edge5" class="edge">
<title>Node4&#45;&gt;Node2</title>
<path fill="none" stroke="#404040" d="M201.47,-333.24C209.23,-357.81 222.49,-386.96 244.5,-405 285.92,-438.95 438.95,-463.53 517.02,-474.16"/>
<polygon fill="none" stroke="#404040" points="517.44,-474.21 523.92,-471.04 529.33,-475.8 522.86,-478.97 517.44,-474.21"/>
<text text-anchor="middle" x="325.5" y="-426" font-family="Helvetica,sans-Serif" font-size="10.00"> +Limits</text>
</g>
<!-- Node5&#45;&gt;Node2 -->
<g id="edge7" class="edge">
<title>Node5&#45;&gt;Node2</title>
<path fill="none" stroke="#404040" d="M376.65,-355.21C390.01,-372.72 405.68,-390.7 422.5,-405 451.13,-429.34 488.95,-448.92 518.22,-461.97"/>
<polygon fill="none" stroke="#404040" points="518.38,-462.04 525.47,-460.76 529.38,-466.82 522.29,-468.1 518.38,-462.04"/>
<text text-anchor="middle" x="488.5" y="-426" font-family="Helvetica,sans-Serif" font-size="10.00"> +Advanced</text>
</g>
<!-- Node6&#45;&gt;Node2 -->
<g id="edge9" class="edge">
<title>Node6&#45;&gt;Node2</title>
<path fill="none" stroke="#404040" d="M497.41,-316.74C508.03,-346.08 525.65,-393.62 542.5,-434 543.48,-436.34 544.5,-438.74 545.55,-441.16"/>
<polygon fill="none" stroke="#404040" points="545.67,-441.43 551.76,-445.29 550.54,-452.4 544.45,-448.54 545.67,-441.43"/>
<text text-anchor="middle" x="559" y="-426" font-family="Helvetica,sans-Serif" font-size="10.00"> +Ports</text>
</g>
<!-- Node7 -->
<g id="node7" class="node">
<title>Node7</title>
<g id="a_node7"><a xlink:href="a01256.html" target="_top" xlink:title="Data structure defining parameters of a controller input or output port.">
<polygon fill="none" stroke="black" points="444.5,-0.5 444.5,-90.5 528.5,-90.5 528.5,-0.5 444.5,-0.5"/>
<text text-anchor="middle" x="486.5" y="-78.5" font-family="Helvetica,sans-Serif" font-size="10.00">NPNZ_PORT_s</text>
<polyline fill="none" stroke="black" points="444.5,-71.5 528.5,-71.5 "/>
<text text-anchor="start" x="452.5" y="-59.5" font-family="Helvetica,sans-Serif" font-size="10.00">+ ptrAddress</text>
<text text-anchor="start" x="452.5" y="-48.5" font-family="Helvetica,sans-Serif" font-size="10.00">+ NormScaler</text>
<text text-anchor="start" x="452.5" y="-37.5" font-family="Helvetica,sans-Serif" font-size="10.00">+ NormFactor</text>
<text text-anchor="start" x="452.5" y="-26.5" font-family="Helvetica,sans-Serif" font-size="10.00">+ Offset</text>
<polyline fill="none" stroke="black" points="444.5,-19.5 528.5,-19.5 "/>
<text text-anchor="middle" x="486.5" y="-7.5" font-family="Helvetica,sans-Serif" font-size="10.00"> </text>
</a>
</g>
</g>
<!-- Node6&#45;&gt;Node7 -->
<g id="edge12" class="edge">
<title>Node6&#45;&gt;Node7</title>
<path fill="none" stroke="midnightblue" d="M486.14,-249.18C485.02,-213.15 483.73,-157.38 484.5,-109 484.6,-103.03 484.74,-96.74 484.91,-90.54"/>
<polygon fill="none" stroke="midnightblue" points="482.65,-249.37 486.47,-259.25 489.64,-249.14 482.65,-249.37"/>
</g>
<!-- Node7&#45;&gt;Node6 -->
<g id="edge11" class="edge">
<title>Node7&#45;&gt;Node6</title>
<path fill="none" stroke="#404040" d="M486.68,-90.87C486.87,-135.63 487.16,-204.12 487.33,-247.18"/>
<polygon fill="none" stroke="#404040" points="487.34,-247.41 491.36,-253.39 487.39,-259.41 483.36,-253.43 487.34,-247.41"/>
<text text-anchor="middle" x="513.5" y="-145" font-family="Helvetica,sans-Serif" font-size="10.00"> +AltSource</text>
<text text-anchor="middle" x="513.5" y="-134" font-family="Helvetica,sans-Serif" font-size="10.00">+AltTarget</text>
<text text-anchor="middle" x="513.5" y="-123" font-family="Helvetica,sans-Serif" font-size="10.00">+Source</text>
<text text-anchor="middle" x="513.5" y="-112" font-family="Helvetica,sans-Serif" font-size="10.00">+Target</text>
</g>
<!-- Node8&#45;&gt;Node2 -->
<g id="edge13" class="edge">
<title>Node8&#45;&gt;Node2</title>
<path fill="none" stroke="#404040" d="M620.95,-388.09C617.38,-403.93 612.41,-419.77 605.5,-434 604.07,-436.95 602.38,-439.85 600.53,-442.67"/>
<polygon fill="none" stroke="#404040" points="600.39,-442.85 600,-450.05 593.2,-452.46 593.59,-445.26 600.39,-442.85"/>
<text text-anchor="middle" x="626" y="-426" font-family="Helvetica,sans-Serif" font-size="10.00"> +Filter</text>
</g>
<!-- Node9&#45;&gt;Node2 -->
<g id="edge15" class="edge">
<title>Node9&#45;&gt;Node2</title>
<path fill="none" stroke="#404040" d="M793.8,-333.22C784.45,-365.64 767.07,-408.31 736.5,-434 700.91,-463.91 647.84,-474.57 609.88,-478.27"/>
<polygon fill="none" stroke="#404040" points="609.59,-478.29 603.93,-482.77 597.63,-479.27 603.28,-474.79 609.59,-478.29"/>
<text text-anchor="middle" x="781.5" y="-426" font-family="Helvetica,sans-Serif" font-size="10.00"> +DataProviders</text>
</g>
<!-- Node10&#45;&gt;Node2 -->
<g id="edge17" class="edge">
<title>Node10&#45;&gt;Node2</title>
<path fill="none" stroke="#404040" d="M953.8,-404.66C946.26,-415.88 937.25,-426.03 926.5,-434 877.24,-470.5 695.92,-478.11 609.67,-479.64"/>
<polygon fill="none" stroke="#404040" points="609.66,-479.64 603.73,-483.74 597.66,-479.83 603.6,-475.74 609.66,-479.64"/>
<text text-anchor="middle" x="977" y="-426" font-family="Helvetica,sans-Serif" font-size="10.00"> +ExtensionHooks</text>
</g>
<!-- Node11&#45;&gt;Node2 -->
<g id="edge19" class="edge">
<title>Node11&#45;&gt;Node2</title>
<path fill="none" stroke="#404040" d="M1146.16,-371.51C1139.38,-395.13 1127.88,-418.62 1108.5,-434 1069.85,-464.67 734.66,-475.86 609.97,-478.99"/>
<polygon fill="none" stroke="#404040" points="609.88,-478.99 603.98,-483.13 597.88,-479.28 603.78,-475.13 609.88,-478.99"/>
<text text-anchor="middle" x="1136" y="-426" font-family="Helvetica,sans-Serif" font-size="10.00"> +status</text>
</g>
</g>
</svg>
        <g id="navigator" transform="translate(0 0)" fill="#404254">
                <rect fill="#f2f5e9" fill-opacity="0.5" stroke="#606060" stroke-width=".5" x="0" y="0" width="60" height="60"/>
                <use id="zoomplus" xlink:href="#zoomPlus" x="17" y="9" onmousedown="handleZoom(evt,'in')"/>
                <use id="zoomminus" xlink:href="#zoomMin" x="42" y="9" onmousedown="handleZoom(evt,'out')"/>
                <use id="reset" xlink:href="#resetDef" x="30" y="36" onmousedown="handleReset()"/>
                <g id="arrowUp" xlink:href="#dirArrow" transform="translate(30 24)" onmousedown="handlePan(0,-1)">
                  <use xlink:href="#rim" fill="#404040">
                        <set attributeName="fill" to="#808080" begin="arrowUp.mouseover" end="arrowUp.mouseout"/>
                  </use>
                  <path fill="none" stroke="white" stroke-width="1.5" d="M0,-3.0v7 M-2.5,-0.5L0,-3.0L2.5,-0.5"/>
                </g>
                <g id="arrowRight" xlink:href="#dirArrow" transform="rotate(90) translate(36 -43)" onmousedown="handlePan(1,0)">
                  <use xlink:href="#rim" fill="#404040">
                        <set attributeName="fill" to="#808080" begin="arrowRight.mouseover" end="arrowRight.mouseout"/>
                  </use>
                  <path fill="none" stroke="white" stroke-width="1.5" d="M0,-3.0v7 M-2.5,-0.5L0,-3.0L2.5,-0.5"/>
                </g>
                <g id="arrowDown" xlink:href="#dirArrow" transform="rotate(180) translate(-30 -48)" onmousedown="handlePan(0,1)">
                  <use xlink:href="#rim" fill="#404040">
                        <set attributeName="fill" to="#808080" begin="arrowDown.mouseover" end="arrowDown.mouseout"/>
                  </use>
                  <path fill="none" stroke="white" stroke-width="1.5" d="M0,-3.0v7 M-2.5,-0.5L0,-3.0L2.5,-0.5"/>
                </g>
                <g id="arrowLeft" xlink:href="#dirArrow" transform="rotate(270) translate(-36 17)" onmousedown="handlePan(-1,0)">
                  <use xlink:href="#rim" fill="#404040">
                        <set attributeName="fill" to="#808080" begin="arrowLeft.mouseover" end="arrowLeft.mouseout"/>
                  </use>
                  <path fill="none" stroke="white" stroke-width="1.5" d="M0,-3.0v7 M-2.5,-0.5L0,-3.0L2.5,-0.5"/>
                </g>
        </g>
        <svg viewBox="0 0 15 15" width="100%" height="30px" preserveAspectRatio="xMaxYMin meet">
         <g id="arrow_out" transform="scale(0.3 0.3)">
          <a xlink:href="a01282_org.svg" target="_base">
           <rect id="button" ry="5" rx="5" y="6" x="6" height="38" width="38"
                fill="#f2f5e9" fill-opacity="0.5" stroke="#606060" stroke-width="1.0"/>
           <path id="arrow"
             d="M 11.500037,31.436501 C 11.940474,20.09759 22.043105,11.32322 32.158766,21.979434 L 37.068811,17.246167 C 37.068811,17.246167 37.088388,32 37.088388,32 L 22.160133,31.978069 C 22.160133,31.978069 26.997745,27.140456 26.997745,27.140456 C 18.528582,18.264221 13.291696,25.230495 11.500037,31.436501 z"
             style="fill:#404040;"/>
          </a>
         </g>
        </svg>
</svg>
