<?xml version="1.0" encoding="UTF-8" standalone="no"?>
<!DOCTYPE svg PUBLIC "-//W3C//DTD SVG 1.1//EN"
 "http://www.w3.org/Graphics/SVG/1.1/DTD/svg11.dtd">
<!-- Generated by graphviz version 2.44.1 (20200629.0846)
 -->
<!-- Title: PUSH_BUTTON_OBJECT_s Pages: 1 -->
<svg width="148pt" height="303pt"
 viewBox="0.00 0.00 148.00 303.00" xmlns="http://www.w3.org/2000/svg" xmlns:xlink="http://www.w3.org/1999/xlink">
<g id="graph0" class="graph" transform="scale(1 1) rotate(0) translate(4 299)">
<title>PUSH_BUTTON_OBJECT_s</title>
<!-- Node1 -->
<g id="node1" class="node">
<title>Node1</title>
<g id="a_node1"><a xlink:title="Push button function driver data object.">
<polygon fill="#bfbfbf" stroke="black" points="0,-182.5 0,-294.5 140,-294.5 140,-182.5 0,-182.5"/>
<text text-anchor="middle" x="70" y="-282.5" font-family="Helvetica,sans-Serif" font-size="10.00">PUSH_BUTTON_OBJECT_s</text>
<polyline fill="none" stroke="black" points="0,-275.5 140,-275.5 "/>
<text text-anchor="start" x="8" y="-263.5" font-family="Helvetica,sans-Serif" font-size="10.00">+ debounce_delay</text>
<text text-anchor="start" x="8" y="-252.5" font-family="Helvetica,sans-Serif" font-size="10.00">+ long_press_delay</text>
<text text-anchor="start" x="8" y="-241.5" font-family="Helvetica,sans-Serif" font-size="10.00">+ event_btn_down</text>
<text text-anchor="start" x="8" y="-230.5" font-family="Helvetica,sans-Serif" font-size="10.00">+ event_long_press</text>
<text text-anchor="start" x="8" y="-219.5" font-family="Helvetica,sans-Serif" font-size="10.00">+ event_pressed</text>
<text text-anchor="start" x="8" y="-208.5" font-family="Helvetica,sans-Serif" font-size="10.00">+ event_btn_up</text>
<polyline fill="none" stroke="black" points="0,-201.5 140,-201.5 "/>
<text text-anchor="middle" x="70" y="-189.5" font-family="Helvetica,sans-Serif" font-size="10.00"> </text>
</a>
</g>
</g>
<!-- Node2 -->
<g id="node2" class="node">
<title>Node2</title>
<g id="a_node2"><a xlink:href="a01308.html" target="_top" xlink:title="Status word of the push button driver.">
<polygon fill="none" stroke="black" points="0,-0.5 0,-134.5 140,-134.5 140,-0.5 0,-0.5"/>
<text text-anchor="middle" x="70" y="-122.5" font-family="Helvetica,sans-Serif" font-size="10.00">PUSH_BUTTON_STATUS_s</text>
<polyline fill="none" stroke="black" points="0,-115.5 140,-115.5 "/>
<text text-anchor="start" x="8" y="-103.5" font-family="Helvetica,sans-Serif" font-size="10.00">+ sw_event</text>
<text text-anchor="start" x="8" y="-92.5" font-family="Helvetica,sans-Serif" font-size="10.00">+ unsigned</text>
<text text-anchor="start" x="8" y="-81.5" font-family="Helvetica,sans-Serif" font-size="10.00">+ long_press</text>
<text text-anchor="start" x="8" y="-70.5" font-family="Helvetica,sans-Serif" font-size="10.00">+ pressed</text>
<text text-anchor="start" x="8" y="-59.5" font-family="Helvetica,sans-Serif" font-size="10.00">+ enabled</text>
<text text-anchor="start" x="8" y="-48.5" font-family="Helvetica,sans-Serif" font-size="10.00">+ bits</text>
<text text-anchor="start" x="8" y="-37.5" font-family="Helvetica,sans-Serif" font-size="10.00">+ value</text>
<text text-anchor="start" x="8" y="-26.5" font-family="Helvetica,sans-Serif" font-size="10.00">+ @136</text>
<polyline fill="none" stroke="black" points="0,-19.5 140,-19.5 "/>
<text text-anchor="middle" x="70" y="-7.5" font-family="Helvetica,sans-Serif" font-size="10.00"> </text>
</a>
</g>
</g>
<!-- Node1&#45;&gt;Node2 -->
<g id="edge2" class="edge">
<title>Node1&#45;&gt;Node2</title>
<path fill="none" stroke="midnightblue" d="M68.13,-172.12C68.08,-169.37 68.04,-166.66 68,-164 67.87,-154.47 67.9,-144.4 68.02,-134.51"/>
<polygon fill="none" stroke="midnightblue" points="64.63,-172.19 68.33,-182.12 71.63,-172.05 64.63,-172.19"/>
</g>
<!-- Node2&#45;&gt;Node1 -->
<g id="edge1" class="edge">
<title>Node2&#45;&gt;Node1</title>
<path fill="none" stroke="#404040" d="M70,-134.56C70,-146.25 70,-158.43 70,-170.15"/>
<polygon fill="none" stroke="#404040" points="70,-170.16 74,-176.16 70,-182.16 66,-176.16 70,-170.16"/>
<text text-anchor="middle" x="88.5" y="-156" font-family="Helvetica,sans-Serif" font-size="10.00"> +status</text>
</g>
</g>
</svg>
