<?xml version="1.0" encoding="UTF-8" standalone="no"?>
<!DOCTYPE svg PUBLIC "-//W3C//DTD SVG 1.1//EN"
 "http://www.w3.org/Graphics/SVG/1.1/DTD/svg11.dtd">
<!-- Generated by graphviz version 2.44.1 (20200629.0846)
 -->
<!-- Title: Graphical Class Hierarchy Pages: 1 -->
<svg width="742pt" height="370pt"
 viewBox="0.00 0.00 742.00 370.00" xmlns="http://www.w3.org/2000/svg" xmlns:xlink="http://www.w3.org/1999/xlink">
<g id="graph0" class="graph" transform="scale(1 1) rotate(0) translate(4 366)">
<title>Graphical Class Hierarchy</title>
<!-- Node0 -->
<g id="node1" class="node">
<title>Node0</title>
<g id="a_node1"><a xlink:href="a01236.html" target="_top" xlink:title="BUCK control &amp; monitoring data structure.">
<polygon fill="none" stroke="black" points="0,-171.5 0,-190.5 119,-190.5 119,-171.5 0,-171.5"/>
<text text-anchor="middle" x="59.5" y="-178.5" font-family="Helvetica,sans-Serif" font-size="10.00">BUCK_CONVERTER_s</text>
</a>
</g>
</g>
<!-- Node1 -->
<g id="node2" class="node">
<title>Node1</title>
<g id="a_node2"><a xlink:href="a01196.html" target="_top" xlink:title="Publicly accessible data buffer of most recent runtime data values.">
<polygon fill="none" stroke="black" points="171,-342.5 171,-361.5 321,-361.5 321,-342.5 171,-342.5"/>
<text text-anchor="middle" x="246" y="-349.5" font-family="Helvetica,sans-Serif" font-size="10.00">BUCK_CONVERTER_DATA_s</text>
</a>
</g>
</g>
<!-- Node0&#45;&gt;Node1 -->
<g id="edge1" class="edge">
<title>Node0&#45;&gt;Node1</title>
<path fill="none" stroke="midnightblue" d="M66.88,-200.5C78.69,-233.37 107.22,-299.51 155,-333 160.49,-336.85 166.61,-339.95 172.99,-342.44"/>
<polygon fill="midnightblue" stroke="midnightblue" points="70.08,-199.03 63.51,-190.72 63.46,-201.31 70.08,-199.03"/>
</g>
<!-- Node2 -->
<g id="node3" class="node">
<title>Node2</title>
<g id="a_node3"><a xlink:href="a01200.html" target="_top" xlink:title="Generic power controller control settings.">
<polygon fill="none" stroke="black" points="160,-304.5 160,-323.5 332,-323.5 332,-304.5 160,-304.5"/>
<text text-anchor="middle" x="246" y="-311.5" font-family="Helvetica,sans-Serif" font-size="10.00">BUCK_CONVERTER_SETTINGS_s</text>
</a>
</g>
</g>
<!-- Node0&#45;&gt;Node2 -->
<g id="edge2" class="edge">
<title>Node0&#45;&gt;Node2</title>
<path fill="none" stroke="midnightblue" d="M70.51,-199.61C85.37,-225.35 115.78,-271.31 155,-295 161.42,-298.88 168.52,-301.98 175.83,-304.45"/>
<polygon fill="midnightblue" stroke="midnightblue" points="73.53,-197.84 65.59,-190.83 67.42,-201.26 73.53,-197.84"/>
</g>
<!-- Node3 -->
<g id="node4" class="node">
<title>Node3</title>
<g id="a_node4"><a xlink:href="a01192.html" target="_top" xlink:title="Power Converter Startup Timing Settings.">
<polygon fill="none" stroke="black" points="161.5,-266.5 161.5,-285.5 330.5,-285.5 330.5,-266.5 161.5,-266.5"/>
<text text-anchor="middle" x="246" y="-273.5" font-family="Helvetica,sans-Serif" font-size="10.00">BUCK_CONVERTER_STARTUP_s</text>
</a>
</g>
</g>
<!-- Node0&#45;&gt;Node3 -->
<g id="edge3" class="edge">
<title>Node0&#45;&gt;Node3</title>
<path fill="none" stroke="midnightblue" d="M76.57,-197.97C94.15,-215.5 123.98,-242.3 155,-257 163.23,-260.9 172.25,-264 181.31,-266.47"/>
<polygon fill="midnightblue" stroke="midnightblue" points="78.89,-195.34 69.39,-190.65 73.89,-200.24 78.89,-195.34"/>
</g>
<!-- Node5 -->
<g id="node6" class="node">
<title>Node5</title>
<g id="a_node6"><a xlink:href="a01164.html" target="_top" xlink:title="Generic power controller status word.">
<polygon fill="none" stroke="black" points="165,-228.5 165,-247.5 327,-247.5 327,-228.5 165,-228.5"/>
<text text-anchor="middle" x="246" y="-235.5" font-family="Helvetica,sans-Serif" font-size="10.00">BUCK_CONVERTER_STATUS_s</text>
</a>
</g>
</g>
<!-- Node0&#45;&gt;Node5 -->
<g id="edge5" class="edge">
<title>Node0&#45;&gt;Node5</title>
<path fill="none" stroke="midnightblue" d="M90.43,-194.6C108.78,-202.54 132.92,-212.28 155,-219 166.92,-222.62 179.93,-225.8 192.26,-228.47"/>
<polygon fill="midnightblue" stroke="midnightblue" points="91.71,-191.33 81.14,-190.52 88.89,-197.74 91.71,-191.33"/>
</g>
<!-- Node6 -->
<g id="node7" class="node">
<title>Node6</title>
<g id="a_node7"><a xlink:href="a01224.html" target="_top" xlink:title="Buck converter feedback declarations.">
<polygon fill="none" stroke="black" points="163.5,-190.5 163.5,-209.5 328.5,-209.5 328.5,-190.5 163.5,-190.5"/>
<text text-anchor="middle" x="246" y="-197.5" font-family="Helvetica,sans-Serif" font-size="10.00">BUCK_FEEDBACK_SETTINGS_s</text>
</a>
</g>
</g>
<!-- Node0&#45;&gt;Node6 -->
<g id="edge6" class="edge">
<title>Node0&#45;&gt;Node6</title>
<path fill="none" stroke="midnightblue" d="M129.18,-188.07C140.29,-189.22 151.88,-190.41 163.27,-191.58"/>
<polygon fill="midnightblue" stroke="midnightblue" points="129.44,-184.58 119.13,-187.04 128.72,-191.54 129.44,-184.58"/>
</g>
<!-- Node9 -->
<g id="node10" class="node">
<title>Node9</title>
<g id="a_node10"><a xlink:href="a01232.html" target="_top" xlink:title="GPIO instance of the converter control GPIO.">
<polygon fill="none" stroke="black" points="178,-152.5 178,-171.5 314,-171.5 314,-152.5 178,-152.5"/>
<text text-anchor="middle" x="246" y="-159.5" font-family="Helvetica,sans-Serif" font-size="10.00">BUCK_GPIO_SETTINGS_s</text>
</a>
</g>
</g>
<!-- Node0&#45;&gt;Node9 -->
<g id="edge9" class="edge">
<title>Node0&#45;&gt;Node9</title>
<path fill="none" stroke="midnightblue" d="M129.38,-173.91C145.23,-172.27 162.07,-170.54 177.84,-168.92"/>
<polygon fill="midnightblue" stroke="midnightblue" points="128.72,-170.46 119.13,-174.96 129.44,-177.42 128.72,-170.46"/>
</g>
<!-- Node11 -->
<g id="node12" class="node">
<title>Node11</title>
<g id="a_node12"><a xlink:href="a01204.html" target="_top" xlink:title="User defined settings for control loops;.">
<polygon fill="none" stroke="black" points="176.5,-114.5 176.5,-133.5 315.5,-133.5 315.5,-114.5 176.5,-114.5"/>
<text text-anchor="middle" x="246" y="-121.5" font-family="Helvetica,sans-Serif" font-size="10.00">BUCK_LOOP_SETTINGS_s</text>
</a>
</g>
</g>
<!-- Node0&#45;&gt;Node11 -->
<g id="edge11" class="edge">
<title>Node0&#45;&gt;Node11</title>
<path fill="none" stroke="midnightblue" d="M90.43,-167.4C108.78,-159.46 132.92,-149.72 155,-143 166.92,-139.38 179.93,-136.2 192.26,-133.53"/>
<polygon fill="midnightblue" stroke="midnightblue" points="88.89,-164.26 81.14,-171.48 91.71,-170.67 88.89,-164.26"/>
</g>
<!-- Node12 -->
<g id="node13" class="node">
<title>Node12</title>
<g id="a_node13"><a xlink:href="a01208.html" target="_top" xlink:title="Peak Current Mode Control Slope Compensation Settings.">
<polygon fill="none" stroke="black" points="156.5,-76.5 156.5,-95.5 335.5,-95.5 335.5,-76.5 156.5,-76.5"/>
<text text-anchor="middle" x="246" y="-83.5" font-family="Helvetica,sans-Serif" font-size="10.00">BUCK_SLOPE_COMP_SETTINGS_s</text>
</a>
</g>
</g>
<!-- Node0&#45;&gt;Node12 -->
<g id="edge12" class="edge">
<title>Node0&#45;&gt;Node12</title>
<path fill="none" stroke="midnightblue" d="M76.57,-164.03C94.15,-146.5 123.98,-119.7 155,-105 163.23,-101.1 172.25,-98 181.31,-95.53"/>
<polygon fill="midnightblue" stroke="midnightblue" points="73.89,-161.76 69.39,-171.35 78.89,-166.66 73.89,-161.76"/>
</g>
<!-- Node13 -->
<g id="node14" class="node">
<title>Node13</title>
<g id="a_node14"><a xlink:href="a01176.html" target="_top" xlink:title="data structure for the buck statement ID for sub&#45;operating and operating states">
<polygon fill="none" stroke="black" points="194,-38.5 194,-57.5 298,-57.5 298,-38.5 194,-38.5"/>
<text text-anchor="middle" x="246" y="-45.5" font-family="Helvetica,sans-Serif" font-size="10.00">BUCK_STATE_ID_s</text>
</a>
</g>
</g>
<!-- Node0&#45;&gt;Node13 -->
<g id="edge13" class="edge">
<title>Node0&#45;&gt;Node13</title>
<path fill="none" stroke="midnightblue" d="M70.51,-162.39C85.37,-136.65 115.78,-90.69 155,-67 166.62,-59.98 180.44,-55.53 193.73,-52.71"/>
<polygon fill="midnightblue" stroke="midnightblue" points="67.42,-160.74 65.59,-171.17 73.53,-164.16 67.42,-160.74"/>
</g>
<!-- Node14 -->
<g id="node15" class="node">
<title>Node14</title>
<g id="a_node15"><a xlink:href="a01212.html" target="_top" xlink:title="Switching signal timing settings.">
<polygon fill="none" stroke="black" points="155,-0.5 155,-19.5 337,-19.5 337,-0.5 155,-0.5"/>
<text text-anchor="middle" x="246" y="-7.5" font-family="Helvetica,sans-Serif" font-size="10.00">BUCK_SWITCH_NODE_SETTINGS_s</text>
</a>
</g>
</g>
<!-- Node0&#45;&gt;Node14 -->
<g id="edge14" class="edge">
<title>Node0&#45;&gt;Node14</title>
<path fill="none" stroke="midnightblue" d="M66.88,-161.5C78.69,-128.63 107.22,-62.49 155,-29 160.49,-25.15 166.61,-22.05 172.99,-19.56"/>
<polygon fill="midnightblue" stroke="midnightblue" points="63.46,-160.69 63.51,-171.28 70.08,-162.97 63.46,-160.69"/>
</g>
<!-- Node4 -->
<g id="node5" class="node">
<title>Node4</title>
<g id="a_node5"><a xlink:href="a01188.html" target="_top" xlink:title="Generic power controller startup period settings.">
<polygon fill="none" stroke="black" points="388,-261 388,-291 523,-291 523,-261 388,-261"/>
<text text-anchor="start" x="396" y="-279" font-family="Helvetica,sans-Serif" font-size="10.00">BUCK_STARTUP_PERIOD</text>
<text text-anchor="middle" x="455.5" y="-268" font-family="Helvetica,sans-Serif" font-size="10.00">_HANDLER_s</text>
</a>
</g>
</g>
<!-- Node3&#45;&gt;Node4 -->
<g id="edge4" class="edge">
<title>Node3&#45;&gt;Node4</title>
<path fill="none" stroke="midnightblue" d="M340.84,-276C356.66,-276 372.79,-276 387.74,-276"/>
<polygon fill="midnightblue" stroke="midnightblue" points="340.5,-272.5 330.5,-276 340.5,-279.5 340.5,-272.5"/>
</g>
<!-- Node7 -->
<g id="node8" class="node">
<title>Node7</title>
<g id="a_node8"><a xlink:href="a01220.html" target="_top" xlink:title="ADC input channel configuration.">
<polygon fill="none" stroke="black" points="373,-190.5 373,-209.5 538,-209.5 538,-190.5 373,-190.5"/>
<text text-anchor="middle" x="455.5" y="-197.5" font-family="Helvetica,sans-Serif" font-size="10.00">BUCK_ADC_INPUT_SETTINGS_s</text>
</a>
</g>
</g>
<!-- Node6&#45;&gt;Node7 -->
<g id="edge7" class="edge">
<title>Node6&#45;&gt;Node7</title>
<path fill="none" stroke="midnightblue" d="M339,-200C350.28,-200 361.75,-200 372.86,-200"/>
<polygon fill="midnightblue" stroke="midnightblue" points="338.71,-196.5 328.71,-200 338.71,-203.5 338.71,-196.5"/>
</g>
<!-- Node8 -->
<g id="node9" class="node">
<title>Node8</title>
<g id="a_node9"><a xlink:href="a01216.html" target="_top" xlink:title="ADC input signal scaling = (ADCBUF &#45; &lt;offset&gt;) * &lt;factor&gt; &gt;&gt; 2^&lt;scaler&gt;">
<polygon fill="none" stroke="black" points="574,-190.5 574,-209.5 734,-209.5 734,-190.5 574,-190.5"/>
<text text-anchor="middle" x="654" y="-197.5" font-family="Helvetica,sans-Serif" font-size="10.00">BUCK_ADC_INPUT_SCALING_s</text>
</a>
</g>
</g>
<!-- Node7&#45;&gt;Node8 -->
<g id="edge8" class="edge">
<title>Node7&#45;&gt;Node8</title>
<path fill="none" stroke="midnightblue" d="M548.15,-200C556.74,-200 565.38,-200 573.84,-200"/>
<polygon fill="midnightblue" stroke="midnightblue" points="548.13,-196.5 538.13,-200 548.13,-203.5 548.13,-196.5"/>
</g>
<!-- Node10 -->
<g id="node11" class="node">
<title>Node10</title>
<g id="a_node11"><a xlink:href="a01228.html" target="_top" xlink:title="GPIO instance of the converter control GPIO.">
<polygon fill="none" stroke="black" points="387,-152.5 387,-171.5 524,-171.5 524,-152.5 387,-152.5"/>
<text text-anchor="middle" x="455.5" y="-159.5" font-family="Helvetica,sans-Serif" font-size="10.00">BUCK_GPIO_INSTANCE_s</text>
</a>
</g>
</g>
<!-- Node9&#45;&gt;Node10 -->
<g id="edge10" class="edge">
<title>Node9&#45;&gt;Node10</title>
<path fill="none" stroke="midnightblue" d="M324.36,-162C344.91,-162 366.95,-162 386.94,-162"/>
<polygon fill="midnightblue" stroke="midnightblue" points="324.08,-158.5 314.08,-162 324.08,-165.5 324.08,-158.5"/>
</g>
</g>
</svg>
